%TF.GenerationSoftware,KiCad,Pcbnew,10.0.1*%
%TF.CreationDate,2026-04-20T10:37:21+02:00*%
%TF.ProjectId,badge-sthack-2026,62616467-652d-4737-9468-61636b2d3230,rev?*%
%TF.SameCoordinates,Original*%
%TF.FileFunction,Profile,NP*%
%FSLAX46Y46*%
G04 Gerber Fmt 4.6, Leading zero omitted, Abs format (unit mm)*
G04 Created by KiCad (PCBNEW 10.0.1) date 2026-04-20 10:37:21*
%MOMM*%
%LPD*%
G01*
G04 APERTURE LIST*
%TA.AperFunction,Profile*%
%ADD10C,0.100000*%
%TD*%
G04 APERTURE END LIST*
D10*
X50170000Y-90600000D02*
X50172093Y-90600172D01*
X50174333Y-90600455D01*
X50176723Y-90600850D01*
X50179270Y-90601358D01*
X50184856Y-90602724D01*
X50191136Y-90604568D01*
X50198154Y-90606904D01*
X50205955Y-90609747D01*
X50214582Y-90613113D01*
X50224082Y-90617016D01*
X50234498Y-90621471D01*
X50245875Y-90626494D01*
X50258257Y-90632098D01*
X50271689Y-90638300D01*
X50301882Y-90652553D01*
X50336810Y-90669372D01*
X50376829Y-90688878D01*
X50422296Y-90711188D01*
X52690198Y-91818469D01*
X58463301Y-94599293D01*
X59800134Y-95243183D01*
X60938847Y-95793728D01*
X65850413Y-98168310D01*
X67807324Y-99115096D01*
X68269889Y-99341470D01*
X68647846Y-99529135D01*
X68902126Y-99658847D01*
X68970679Y-99695956D01*
X68993663Y-99711361D01*
X68983000Y-99722445D01*
X68956468Y-99741746D01*
X68861750Y-99801655D01*
X68721411Y-99884402D01*
X68547358Y-99983300D01*
X68351493Y-100091663D01*
X68145723Y-100202806D01*
X67941950Y-100310042D01*
X67752079Y-100406686D01*
X67381176Y-100586181D01*
X67006026Y-100756707D01*
X66625507Y-100918716D01*
X66238497Y-101072661D01*
X65843875Y-101218994D01*
X65440518Y-101358166D01*
X65027305Y-101490629D01*
X64603115Y-101616836D01*
X64208188Y-101725198D01*
X63819446Y-101821952D01*
X63434543Y-101907498D01*
X63051135Y-101982239D01*
X62666880Y-102046578D01*
X62279432Y-102100915D01*
X61886448Y-102145653D01*
X61485583Y-102181193D01*
X61362722Y-102187162D01*
X61182509Y-102191797D01*
X60727988Y-102196731D01*
X60277932Y-102195325D01*
X60103301Y-102192035D01*
X59988253Y-102186909D01*
X59988253Y-102186907D01*
X59793070Y-102168149D01*
X59582384Y-102142125D01*
X59361272Y-102109738D01*
X59134813Y-102071893D01*
X58908086Y-102029494D01*
X58686171Y-101983445D01*
X58474144Y-101934650D01*
X58277087Y-101884013D01*
X58074799Y-101825170D01*
X57871457Y-101760211D01*
X57667446Y-101689327D01*
X57463153Y-101612707D01*
X57258964Y-101530542D01*
X57055263Y-101443023D01*
X56852437Y-101350340D01*
X56650872Y-101252684D01*
X56450953Y-101150245D01*
X56253066Y-101043213D01*
X56057598Y-100931779D01*
X55864933Y-100816134D01*
X55675458Y-100696467D01*
X55489558Y-100572970D01*
X55307619Y-100445832D01*
X55130027Y-100315245D01*
X55001127Y-100215740D01*
X54872247Y-100112001D01*
X54743555Y-100004192D01*
X54615215Y-99892476D01*
X54487395Y-99777019D01*
X54360260Y-99657984D01*
X54233975Y-99535534D01*
X54108708Y-99409834D01*
X53984625Y-99281048D01*
X53861890Y-99149339D01*
X53740671Y-99014872D01*
X53621133Y-98877811D01*
X53503442Y-98738319D01*
X53387765Y-98596560D01*
X53274267Y-98452699D01*
X53163114Y-98306899D01*
X52969404Y-98041198D01*
X52779957Y-97766736D01*
X52595089Y-97484160D01*
X52415112Y-97194119D01*
X52240339Y-96897260D01*
X52071083Y-96594232D01*
X51907659Y-96285684D01*
X51750378Y-95972262D01*
X51599555Y-95654615D01*
X51455502Y-95333392D01*
X51318534Y-95009240D01*
X51188962Y-94682808D01*
X51067100Y-94354743D01*
X50953262Y-94025694D01*
X50847760Y-93696308D01*
X50750908Y-93367234D01*
X50669273Y-93057483D01*
X50573602Y-92666232D01*
X50371873Y-91783286D01*
X50209166Y-91006515D01*
X50162274Y-90747981D01*
X50148928Y-90624034D01*
X50149484Y-90620279D01*
X50150110Y-90616793D01*
X50150849Y-90613591D01*
X50151748Y-90610687D01*
X50152270Y-90609352D01*
X50152850Y-90608097D01*
X50153491Y-90606924D01*
X50154199Y-90605836D01*
X50154981Y-90604833D01*
X50155842Y-90603917D01*
X50156786Y-90603092D01*
X50157821Y-90602358D01*
X50158951Y-90601717D01*
X50160182Y-90601171D01*
X50161519Y-90600722D01*
X50162969Y-90600372D01*
X50164536Y-90600123D01*
X50166227Y-90599977D01*
X50168046Y-90599935D01*
X50170000Y-90600000D01*
X112370000Y-90590000D02*
X112371691Y-90590146D01*
X112373258Y-90590395D01*
X112374708Y-90590745D01*
X112376045Y-90591194D01*
X112377276Y-90591740D01*
X112378406Y-90592381D01*
X112379441Y-90593115D01*
X112380385Y-90593940D01*
X112381246Y-90594856D01*
X112382028Y-90595859D01*
X112382736Y-90596947D01*
X112383377Y-90598120D01*
X112383957Y-90599375D01*
X112384479Y-90600710D01*
X112385378Y-90603614D01*
X112386117Y-90606816D01*
X112386743Y-90610302D01*
X112387299Y-90614057D01*
X112373953Y-90738004D01*
X112327061Y-90996538D01*
X112164354Y-91773309D01*
X111962625Y-92656255D01*
X111866954Y-93047506D01*
X111785319Y-93357257D01*
X111688467Y-93686331D01*
X111582965Y-94015717D01*
X111469127Y-94344766D01*
X111347265Y-94672831D01*
X111217693Y-94999263D01*
X111080725Y-95323415D01*
X110936672Y-95644638D01*
X110785849Y-95962285D01*
X110628568Y-96275707D01*
X110465144Y-96584255D01*
X110295888Y-96887283D01*
X110121115Y-97184142D01*
X109941138Y-97474183D01*
X109756270Y-97756759D01*
X109566823Y-98031221D01*
X109373113Y-98296922D01*
X109261960Y-98442722D01*
X109148462Y-98586583D01*
X109032785Y-98728342D01*
X108915094Y-98867834D01*
X108795556Y-99004895D01*
X108674337Y-99139362D01*
X108551602Y-99271071D01*
X108427519Y-99399857D01*
X108302251Y-99525557D01*
X108175967Y-99648007D01*
X108048832Y-99767042D01*
X107921012Y-99882499D01*
X107792672Y-99994215D01*
X107663980Y-100102024D01*
X107535100Y-100205763D01*
X107406200Y-100305268D01*
X107228608Y-100435855D01*
X107046669Y-100562993D01*
X106860769Y-100686490D01*
X106671294Y-100806157D01*
X106478629Y-100921802D01*
X106283161Y-101033236D01*
X106085274Y-101140268D01*
X105885355Y-101242707D01*
X105683790Y-101340363D01*
X105480964Y-101433046D01*
X105277263Y-101520565D01*
X105073074Y-101602730D01*
X104868781Y-101679350D01*
X104664770Y-101750234D01*
X104461428Y-101815193D01*
X104259140Y-101874036D01*
X104062083Y-101924673D01*
X103850056Y-101973468D01*
X103628141Y-102019517D01*
X103401414Y-102061916D01*
X103174955Y-102099761D01*
X102953843Y-102132148D01*
X102743157Y-102158173D01*
X102547974Y-102176930D01*
X102547974Y-102176932D01*
X102432926Y-102182058D01*
X102258295Y-102185348D01*
X101808239Y-102186754D01*
X101353718Y-102181820D01*
X101173505Y-102177185D01*
X101050644Y-102171216D01*
X100649779Y-102135676D01*
X100256795Y-102090938D01*
X99869347Y-102036601D01*
X99485092Y-101972262D01*
X99101684Y-101897521D01*
X98716781Y-101811975D01*
X98328039Y-101715221D01*
X97933112Y-101606859D01*
X97508922Y-101480652D01*
X97095709Y-101348189D01*
X96692352Y-101209017D01*
X96297730Y-101062684D01*
X95910720Y-100908739D01*
X95530201Y-100746730D01*
X95155051Y-100576204D01*
X94784148Y-100396709D01*
X94594277Y-100300065D01*
X94390504Y-100192829D01*
X94184734Y-100081686D01*
X93988869Y-99973323D01*
X93814816Y-99874425D01*
X93674477Y-99791678D01*
X93579759Y-99731769D01*
X93553227Y-99712468D01*
X93542564Y-99701384D01*
X93565548Y-99685979D01*
X93634101Y-99648870D01*
X93888381Y-99519158D01*
X94266338Y-99331493D01*
X94728903Y-99105119D01*
X96685814Y-98158333D01*
X101597380Y-95783751D01*
X102736093Y-95233206D01*
X104072926Y-94589316D01*
X109846029Y-91808492D01*
X112113931Y-90701211D01*
X112159398Y-90678901D01*
X112199417Y-90659395D01*
X112234345Y-90642576D01*
X112264538Y-90628323D01*
X112277970Y-90622121D01*
X112290352Y-90616517D01*
X112301729Y-90611494D01*
X112312145Y-90607039D01*
X112321645Y-90603136D01*
X112330272Y-90599770D01*
X112338073Y-90596927D01*
X112345091Y-90594591D01*
X112351371Y-90592747D01*
X112356957Y-90591381D01*
X112359504Y-90590873D01*
X112361894Y-90590478D01*
X112364134Y-90590195D01*
X112366227Y-90590023D01*
X112368181Y-90589958D01*
X112370000Y-90590000D01*
X86460031Y-51512789D02*
X90807819Y-51678262D01*
X95140715Y-51946148D01*
X99454938Y-52316474D01*
X103746707Y-52789268D01*
X108012240Y-53364558D01*
X112247756Y-54042373D01*
X116449475Y-54822739D01*
X118882355Y-55331406D01*
X121327068Y-55888126D01*
X123691116Y-56467728D01*
X125882002Y-57045042D01*
X127807231Y-57594898D01*
X129374305Y-58092124D01*
X130490727Y-58511550D01*
X130851039Y-58684222D01*
X131064002Y-58828006D01*
X131107569Y-58871598D01*
X131150093Y-58921873D01*
X131191460Y-58978631D01*
X131231554Y-59041673D01*
X131270263Y-59110798D01*
X131307472Y-59185806D01*
X131343068Y-59266498D01*
X131376936Y-59352673D01*
X131408962Y-59444132D01*
X131439032Y-59540674D01*
X131467032Y-59642099D01*
X131492849Y-59748208D01*
X131516369Y-59858800D01*
X131537476Y-59973676D01*
X131556058Y-60092636D01*
X131572000Y-60215479D01*
X131766618Y-62919227D01*
X131923434Y-67084096D01*
X132111753Y-78278850D01*
X132113144Y-90763049D01*
X132036301Y-96539725D01*
X131903796Y-101500003D01*
X131498771Y-110994851D01*
X130998124Y-118891042D01*
X130696339Y-122322212D01*
X130351924Y-125452802D01*
X129958637Y-128315841D01*
X129510237Y-130944357D01*
X129000483Y-133371378D01*
X128423133Y-135629933D01*
X127771946Y-137753050D01*
X127040680Y-139773756D01*
X126223094Y-141725081D01*
X125312946Y-143640053D01*
X124303995Y-145551699D01*
X123189999Y-147493048D01*
X122225277Y-149040865D01*
X121155819Y-150614234D01*
X119981740Y-152213071D01*
X118703154Y-153837292D01*
X117320174Y-155486814D01*
X115832914Y-157161553D01*
X114241489Y-158861426D01*
X112546012Y-160586348D01*
X110746598Y-162336236D01*
X108843359Y-164111007D01*
X106836411Y-165910576D01*
X104725866Y-167734860D01*
X102511840Y-169583775D01*
X100194446Y-171457238D01*
X97773798Y-173355165D01*
X95250009Y-175277472D01*
X93346091Y-176678215D01*
X91203397Y-178207079D01*
X86777719Y-181260953D01*
X84782755Y-182591856D01*
X83125053Y-183662662D01*
X81948623Y-184376319D01*
X81585889Y-184568887D01*
X81397476Y-184635773D01*
X81368724Y-184631710D01*
X81327072Y-184619792D01*
X81273352Y-184600424D01*
X81208392Y-184574009D01*
X81133024Y-184540953D01*
X81048077Y-184501660D01*
X80852768Y-184405982D01*
X80629108Y-184290212D01*
X80383736Y-184157587D01*
X80123296Y-184011343D01*
X79854428Y-183854718D01*
X79854427Y-183855514D01*
X79854424Y-183855913D01*
X79854419Y-183856311D01*
X79053035Y-183374617D01*
X78029041Y-182727521D01*
X76830993Y-181947560D01*
X75507446Y-181067271D01*
X74106956Y-180119192D01*
X72678076Y-179135858D01*
X71269362Y-178149808D01*
X69929370Y-177193579D01*
X65002199Y-173549603D01*
X60366619Y-169889760D01*
X58167396Y-168062696D01*
X56052136Y-166242234D01*
X54024526Y-164431897D01*
X52088254Y-162635209D01*
X50247009Y-160855692D01*
X48504479Y-159096868D01*
X46864352Y-157362262D01*
X45330316Y-155655395D01*
X43906060Y-153979792D01*
X42595270Y-152338974D01*
X41401637Y-150736465D01*
X40328847Y-149175787D01*
X39339765Y-147621566D01*
X38422154Y-146066834D01*
X37573292Y-144502378D01*
X36790458Y-142918980D01*
X36070932Y-141307427D01*
X35411994Y-139658501D01*
X34810921Y-137962987D01*
X34264994Y-136211670D01*
X33771492Y-134395333D01*
X33327693Y-132504762D01*
X32930878Y-130530740D01*
X32578326Y-128464051D01*
X32267314Y-126295481D01*
X31995124Y-124015813D01*
X31759034Y-121615832D01*
X31556323Y-119086322D01*
X31249129Y-114466572D01*
X30999607Y-109956509D01*
X30805002Y-105445999D01*
X30662561Y-100824912D01*
X30569531Y-95983112D01*
X30523159Y-90810467D01*
X30559373Y-79032111D01*
X30659237Y-69298453D01*
X30801070Y-63220611D01*
X30896376Y-61305379D01*
X31012555Y-60007413D01*
X31153068Y-59227815D01*
X31233530Y-59001499D01*
X31321374Y-58867689D01*
X31541100Y-58723605D01*
X31940579Y-58543092D01*
X32503518Y-58330502D01*
X33213624Y-58090186D01*
X35010172Y-57543779D01*
X37199886Y-56938677D01*
X39652431Y-56309689D01*
X42237470Y-55691621D01*
X44824668Y-55119280D01*
X47283687Y-54627475D01*
X51595351Y-53872494D01*
X55926154Y-53219674D01*
X60272314Y-52669043D01*
X64630051Y-52220629D01*
X68995582Y-51874459D01*
X73365126Y-51630563D01*
X77734904Y-51488967D01*
X82101132Y-51449700D01*
X86460031Y-51512789D01*
X103270000Y-129990000D02*
X103277396Y-129992223D01*
X103283779Y-129995391D01*
X103289186Y-129999489D01*
X103293656Y-130004504D01*
X103297228Y-130010424D01*
X103301827Y-130024921D01*
X103303292Y-130042874D01*
X103298295Y-130059237D01*
X103283852Y-130090729D01*
X103229920Y-130193538D01*
X103148084Y-130340177D01*
X103044928Y-130519521D01*
X102927038Y-130720445D01*
X102800999Y-130931825D01*
X102673398Y-131142534D01*
X102550820Y-131341450D01*
X102280802Y-131755526D01*
X101999213Y-132164469D01*
X101705791Y-132568500D01*
X101400278Y-132967843D01*
X101082413Y-133362721D01*
X100751934Y-133753358D01*
X100408583Y-134139976D01*
X100052099Y-134522799D01*
X99540489Y-135047759D01*
X99285638Y-135297652D01*
X99030442Y-135539940D01*
X98774168Y-135775215D01*
X98516080Y-136004067D01*
X98255443Y-136227087D01*
X97991522Y-136444865D01*
X97723583Y-136657992D01*
X97450891Y-136867060D01*
X97172712Y-137072657D01*
X96888309Y-137275376D01*
X96596948Y-137475806D01*
X96297895Y-137674539D01*
X95990415Y-137872165D01*
X95673773Y-138069275D01*
X95181093Y-138362235D01*
X94677052Y-138644582D01*
X94161747Y-138916270D01*
X93635274Y-139177251D01*
X93097733Y-139427479D01*
X92549220Y-139666908D01*
X91989833Y-139895491D01*
X91419671Y-140113181D01*
X90838830Y-140319933D01*
X90247408Y-140515699D01*
X89645503Y-140700433D01*
X89033212Y-140874089D01*
X88410634Y-141036620D01*
X87777866Y-141187980D01*
X87135006Y-141328122D01*
X86482150Y-141456999D01*
X85548235Y-141615638D01*
X84569858Y-141750389D01*
X83560301Y-141860286D01*
X82532848Y-141944362D01*
X81500780Y-142001648D01*
X80477383Y-142031179D01*
X79475937Y-142031985D01*
X78509727Y-142003100D01*
X78512895Y-142006272D01*
X77704748Y-141960395D01*
X76912019Y-141897622D01*
X76133754Y-141817723D01*
X75369000Y-141720473D01*
X74616803Y-141605642D01*
X73876210Y-141473003D01*
X73146268Y-141322328D01*
X72426023Y-141153388D01*
X71714521Y-140965957D01*
X71010810Y-140759806D01*
X70313935Y-140534708D01*
X69622944Y-140290433D01*
X68936883Y-140026756D01*
X68254798Y-139743447D01*
X67575737Y-139440279D01*
X66898745Y-139117024D01*
X66020894Y-138664952D01*
X65594020Y-138430394D01*
X65174223Y-138189477D01*
X64760790Y-137941696D01*
X64353002Y-137686544D01*
X63950145Y-137423513D01*
X63551501Y-137152096D01*
X63156355Y-136871787D01*
X62763989Y-136582078D01*
X62373689Y-136282463D01*
X61984738Y-135972434D01*
X61208016Y-135319110D01*
X60428095Y-134618048D01*
X60026985Y-134239771D01*
X59595699Y-133822463D01*
X59160024Y-133392282D01*
X58745742Y-132975383D01*
X58378639Y-132597924D01*
X58084499Y-132286061D01*
X57889106Y-132065951D01*
X57836498Y-131998476D01*
X57818245Y-131963749D01*
X57818688Y-131952792D01*
X57819446Y-131942542D01*
X57820554Y-131933000D01*
X57822047Y-131924167D01*
X57823961Y-131916043D01*
X57826331Y-131908629D01*
X57829193Y-131901926D01*
X57832582Y-131895933D01*
X57836535Y-131890652D01*
X57841085Y-131886083D01*
X57846269Y-131882227D01*
X57852122Y-131879085D01*
X57858680Y-131876656D01*
X57865978Y-131874942D01*
X57874051Y-131873942D01*
X57882936Y-131873659D01*
X57892667Y-131874091D01*
X57903280Y-131875241D01*
X57914810Y-131877108D01*
X57927293Y-131879692D01*
X57940764Y-131882996D01*
X57955259Y-131887018D01*
X57970814Y-131891761D01*
X57987463Y-131897223D01*
X58005242Y-131903407D01*
X58024187Y-131910312D01*
X58065715Y-131926288D01*
X58112332Y-131945157D01*
X58164320Y-131966924D01*
X58520435Y-132114487D01*
X58933216Y-132279463D01*
X59867311Y-132638437D01*
X60843673Y-132997410D01*
X61739370Y-133309949D01*
X62596465Y-133591513D01*
X63457987Y-133862250D01*
X64323900Y-134122048D01*
X65194167Y-134370796D01*
X66068749Y-134608382D01*
X66947610Y-134834693D01*
X67830712Y-135049620D01*
X68718019Y-135253049D01*
X69760057Y-135476211D01*
X70762471Y-135673290D01*
X71740104Y-135846483D01*
X72707803Y-135997983D01*
X73680414Y-136129988D01*
X74672781Y-136244691D01*
X75699751Y-136344288D01*
X76776169Y-136430974D01*
X77300782Y-136458061D01*
X78003058Y-136477408D01*
X79697565Y-136492886D01*
X81373618Y-136477408D01*
X82052826Y-136458061D01*
X82545142Y-136430974D01*
X83756474Y-136319706D01*
X84917612Y-136183770D01*
X86044744Y-136019929D01*
X87154052Y-135824946D01*
X88261724Y-135595583D01*
X89383944Y-135328604D01*
X90536896Y-135020772D01*
X91736767Y-134668849D01*
X93359613Y-134157643D01*
X94916529Y-133631964D01*
X96404984Y-133092815D01*
X97822448Y-132541202D01*
X99166391Y-131978130D01*
X100434283Y-131404602D01*
X101623594Y-130821624D01*
X102731793Y-130230200D01*
X102885793Y-130144927D01*
X103011292Y-130079040D01*
X103064122Y-130053098D01*
X103110747Y-130031681D01*
X103151474Y-130014683D01*
X103186612Y-130001996D01*
X103216466Y-129993514D01*
X103241343Y-129989129D01*
X103261551Y-129988734D01*
X103270000Y-129990000D01*
M02*
