%TF.GenerationSoftware,KiCad,Pcbnew,10.0.1*%
%TF.CreationDate,2026-04-20T10:37:20+02:00*%
%TF.ProjectId,badge-sthack-2026,62616467-652d-4737-9468-61636b2d3230,rev?*%
%TF.SameCoordinates,Original*%
%TF.FileFunction,Legend,Top*%
%TF.FilePolarity,Positive*%
%FSLAX46Y46*%
G04 Gerber Fmt 4.6, Leading zero omitted, Abs format (unit mm)*
G04 Created by KiCad (PCBNEW 10.0.1) date 2026-04-20 10:37:20*
%MOMM*%
%LPD*%
G01*
G04 APERTURE LIST*
%ADD10C,0.000000*%
G04 APERTURE END LIST*
D10*
%TO.C,G\u002A\u002A\u002A*%
G36*
X115124988Y-88010581D02*
G01*
X115117023Y-88061208D01*
X115081489Y-88191170D01*
X115022182Y-88388849D01*
X114942902Y-88642624D01*
X114847444Y-88940875D01*
X114739606Y-89271984D01*
X114623187Y-89624330D01*
X114501982Y-89986293D01*
X114379790Y-90346254D01*
X114260409Y-90692593D01*
X114147634Y-91013691D01*
X114099726Y-91147764D01*
X113684642Y-92255314D01*
X113259495Y-93294239D01*
X112812682Y-94292114D01*
X112520789Y-94900037D01*
X112067204Y-95792723D01*
X111625535Y-96601772D01*
X111188663Y-97337856D01*
X110749468Y-98011650D01*
X110300831Y-98633825D01*
X109835631Y-99215055D01*
X109346749Y-99766013D01*
X109107595Y-100016695D01*
X108408455Y-100687973D01*
X107705583Y-101269721D01*
X106989158Y-101768428D01*
X106249359Y-102190584D01*
X105476363Y-102542679D01*
X105032961Y-102709009D01*
X104648212Y-102836273D01*
X104296601Y-102935406D01*
X103956074Y-103009856D01*
X103604575Y-103063068D01*
X103220049Y-103098490D01*
X102780440Y-103119569D01*
X102347083Y-103128782D01*
X102001960Y-103130908D01*
X101659971Y-103128857D01*
X101342948Y-103123064D01*
X101072727Y-103113967D01*
X100871138Y-103102004D01*
X100832409Y-103098452D01*
X100169621Y-103009348D01*
X99443258Y-102873049D01*
X98670830Y-102694153D01*
X97869845Y-102477256D01*
X97057812Y-102226957D01*
X96252240Y-101947850D01*
X95804658Y-101778412D01*
X95451382Y-101637539D01*
X95072919Y-101481723D01*
X94678973Y-101315391D01*
X94279245Y-101142968D01*
X93883441Y-100968881D01*
X93501263Y-100797556D01*
X93142413Y-100633420D01*
X92816596Y-100480898D01*
X92533514Y-100344419D01*
X92302871Y-100228406D01*
X92134369Y-100137288D01*
X92037713Y-100075490D01*
X92018184Y-100051113D01*
X92067493Y-100009694D01*
X92201472Y-99926651D01*
X92418467Y-99802851D01*
X92550385Y-99730478D01*
X93640834Y-99730478D01*
X93682428Y-99773468D01*
X93796651Y-99851745D01*
X93969964Y-99957794D01*
X94188828Y-100084103D01*
X94439704Y-100223158D01*
X94709052Y-100367445D01*
X94983334Y-100509452D01*
X95249011Y-100641665D01*
X95477413Y-100749666D01*
X96421451Y-101146319D01*
X97411505Y-101496227D01*
X98421672Y-101791811D01*
X99426046Y-102025491D01*
X100398725Y-102189687D01*
X100398787Y-102189695D01*
X100800600Y-102231627D01*
X101250983Y-102258492D01*
X101728285Y-102270603D01*
X102210857Y-102268275D01*
X102677047Y-102251818D01*
X103105206Y-102221547D01*
X103473683Y-102177773D01*
X103669999Y-102142428D01*
X104402414Y-101948783D01*
X105151966Y-101682263D01*
X105889845Y-101354525D01*
X106587241Y-100977225D01*
X106663545Y-100931184D01*
X107298166Y-100498254D01*
X107924872Y-99982194D01*
X108530315Y-99395932D01*
X109101143Y-98752397D01*
X109624008Y-98064517D01*
X109624758Y-98063448D01*
X110118602Y-97300926D01*
X110584867Y-96468160D01*
X111011810Y-95589806D01*
X111387688Y-94690520D01*
X111700755Y-93794957D01*
X111775900Y-93547062D01*
X111835611Y-93330999D01*
X111904603Y-93061802D01*
X111979829Y-92753384D01*
X112058243Y-92419657D01*
X112136797Y-92074535D01*
X112212447Y-91731932D01*
X112282145Y-91405760D01*
X112342844Y-91109933D01*
X112391499Y-90858364D01*
X112425062Y-90664966D01*
X112440488Y-90543652D01*
X112440224Y-90513116D01*
X112415915Y-90503687D01*
X112347600Y-90520103D01*
X112229365Y-90565047D01*
X112055299Y-90641205D01*
X111819489Y-90751259D01*
X111516022Y-90897896D01*
X111138986Y-91083798D01*
X110693484Y-91306129D01*
X110231008Y-91537392D01*
X109722398Y-91790857D01*
X109191147Y-92054871D01*
X108660749Y-92317785D01*
X108154697Y-92567945D01*
X107696484Y-92793703D01*
X107446325Y-92916501D01*
X106338891Y-93459221D01*
X105310673Y-93963322D01*
X104354413Y-94432369D01*
X103462855Y-94869929D01*
X102628745Y-95279566D01*
X101844825Y-95664848D01*
X101103841Y-96029340D01*
X100398536Y-96376608D01*
X99721654Y-96710217D01*
X99065939Y-97033734D01*
X98546704Y-97290161D01*
X98041593Y-97539607D01*
X97525579Y-97794227D01*
X97011765Y-98047570D01*
X96513255Y-98293183D01*
X96043150Y-98524614D01*
X95614555Y-98735412D01*
X95240573Y-98919123D01*
X94934305Y-99069295D01*
X94830511Y-99120084D01*
X94519566Y-99273112D01*
X94238982Y-99413120D01*
X93999805Y-99534439D01*
X93813081Y-99631402D01*
X93689858Y-99698342D01*
X93641181Y-99729590D01*
X93640834Y-99730478D01*
X92550385Y-99730478D01*
X92716827Y-99639164D01*
X93094901Y-99436455D01*
X93551037Y-99195594D01*
X94083583Y-98917447D01*
X94690888Y-98602883D01*
X95371299Y-98252769D01*
X96123166Y-97867973D01*
X96944835Y-97449362D01*
X97704848Y-97063579D01*
X98539233Y-96639749D01*
X99424860Y-96188142D01*
X100347048Y-95716326D01*
X101291117Y-95231870D01*
X102242387Y-94742343D01*
X103186176Y-94255314D01*
X104107804Y-93778351D01*
X104992591Y-93319023D01*
X105825856Y-92884900D01*
X106592919Y-92483549D01*
X106844999Y-92351187D01*
X107001271Y-92269136D01*
X107229259Y-92149554D01*
X107515436Y-91999531D01*
X107846276Y-91826154D01*
X108208255Y-91636512D01*
X108587847Y-91437692D01*
X108913560Y-91267133D01*
X109304753Y-91061795D01*
X109761998Y-90820920D01*
X110266553Y-90554432D01*
X110799675Y-90272256D01*
X111342622Y-89984315D01*
X111876653Y-89700535D01*
X112383024Y-89430840D01*
X112593673Y-89318425D01*
X113117262Y-89038864D01*
X113562446Y-88801347D01*
X113935666Y-88602545D01*
X114243359Y-88439134D01*
X114491965Y-88307785D01*
X114687922Y-88205173D01*
X114837670Y-88127969D01*
X114947648Y-88072849D01*
X115024294Y-88036484D01*
X115074048Y-88015548D01*
X115103348Y-88006714D01*
X115118633Y-88006656D01*
X115124988Y-88010581D01*
G37*
G36*
X86572482Y-55580349D02*
G01*
X91801658Y-55792283D01*
X96962689Y-56146125D01*
X102060733Y-56642384D01*
X107100948Y-57281566D01*
X112088495Y-58064178D01*
X117028532Y-58990728D01*
X117354126Y-59057181D01*
X118215294Y-59238053D01*
X119113326Y-59434427D01*
X120033909Y-59642620D01*
X120962728Y-59858947D01*
X121885472Y-60079722D01*
X122787826Y-60301260D01*
X123655477Y-60519878D01*
X124474111Y-60731889D01*
X125229415Y-60933609D01*
X125907075Y-61121353D01*
X126492778Y-61291437D01*
X126972211Y-61440175D01*
X127331061Y-61563882D01*
X127555012Y-61658874D01*
X127617518Y-61699421D01*
X127650140Y-61758467D01*
X127680360Y-61875397D01*
X127708398Y-62057255D01*
X127734472Y-62311088D01*
X127758801Y-62643940D01*
X127781604Y-63062857D01*
X127803098Y-63574885D01*
X127823503Y-64187069D01*
X127843037Y-64906454D01*
X127861918Y-65740087D01*
X127880366Y-66695012D01*
X127898598Y-67778276D01*
X127916834Y-68996922D01*
X127935292Y-70357998D01*
X127954189Y-71868549D01*
X127967283Y-72974323D01*
X127993519Y-75674771D01*
X128010014Y-78400470D01*
X128016986Y-81141367D01*
X128014654Y-83887414D01*
X128003239Y-86628559D01*
X127982960Y-89354752D01*
X127954037Y-92055944D01*
X127916689Y-94722082D01*
X127871136Y-97343118D01*
X127817597Y-99909001D01*
X127756292Y-102409679D01*
X127687441Y-104835104D01*
X127611263Y-107175223D01*
X127527977Y-109419988D01*
X127437804Y-111559348D01*
X127340962Y-113583251D01*
X127237672Y-115481649D01*
X127128153Y-117244490D01*
X127012625Y-118861724D01*
X126946783Y-119683333D01*
X126744131Y-121932414D01*
X126523393Y-124033891D01*
X126281576Y-126000724D01*
X126015687Y-127845870D01*
X125722736Y-129582289D01*
X125399730Y-131222938D01*
X125043676Y-132780776D01*
X124651583Y-134268762D01*
X124220458Y-135699854D01*
X123747309Y-137087012D01*
X123229144Y-138443192D01*
X122662971Y-139781354D01*
X122045798Y-141114457D01*
X121955062Y-141301612D01*
X121129066Y-142929714D01*
X120266705Y-144493956D01*
X119355148Y-146012460D01*
X118381560Y-147503348D01*
X117333109Y-148984741D01*
X116196960Y-150474762D01*
X114960281Y-151991532D01*
X113610238Y-153553175D01*
X112133998Y-155177811D01*
X112110583Y-155203016D01*
X110788508Y-156588473D01*
X109340041Y-158037409D01*
X107780510Y-159536335D01*
X106125245Y-161071765D01*
X104389572Y-162630211D01*
X102588820Y-164198188D01*
X100738317Y-165762206D01*
X98853391Y-167308780D01*
X96949370Y-168824423D01*
X95041582Y-170295648D01*
X94453809Y-170739091D01*
X93747394Y-171265129D01*
X92968633Y-171837760D01*
X92130712Y-172447749D01*
X91246819Y-173085860D01*
X90330139Y-173742859D01*
X89393860Y-174409510D01*
X88451167Y-175076578D01*
X87515247Y-175734827D01*
X86599287Y-176375021D01*
X85716473Y-176987926D01*
X84879992Y-177564307D01*
X84103029Y-178094927D01*
X83398772Y-178570552D01*
X82780408Y-178981946D01*
X82261122Y-179319873D01*
X81854101Y-179575099D01*
X81738668Y-179644324D01*
X81470907Y-179792465D01*
X81288754Y-179857445D01*
X81144858Y-179847371D01*
X80994149Y-179771766D01*
X80454877Y-179429799D01*
X79801151Y-179002536D01*
X79048160Y-178500606D01*
X78211092Y-177934637D01*
X77305134Y-177315257D01*
X76345474Y-176653093D01*
X75347299Y-175958774D01*
X74325797Y-175242927D01*
X73296157Y-174516181D01*
X72273565Y-173789164D01*
X71273210Y-173072503D01*
X70310278Y-172376826D01*
X69399959Y-171712762D01*
X68557438Y-171090939D01*
X68086190Y-170739091D01*
X66180337Y-169284317D01*
X64273516Y-167780957D01*
X62381054Y-166242499D01*
X60518280Y-164682430D01*
X58700522Y-163114237D01*
X56943107Y-161551406D01*
X55261364Y-160007426D01*
X53670621Y-158495782D01*
X52186206Y-157029963D01*
X50823446Y-155623455D01*
X50429415Y-155203016D01*
X48951164Y-153577286D01*
X47599304Y-152014824D01*
X46361002Y-150497508D01*
X45223425Y-149007217D01*
X44173740Y-147525828D01*
X43199113Y-146035220D01*
X42286711Y-144517270D01*
X41423701Y-142953857D01*
X40597249Y-141326858D01*
X40584937Y-141301612D01*
X39960377Y-139968184D01*
X39387237Y-138631511D01*
X38862525Y-137278637D01*
X38383248Y-135896601D01*
X37946414Y-134472447D01*
X37549031Y-132993215D01*
X37188107Y-131445946D01*
X36860649Y-129817683D01*
X36563666Y-128095466D01*
X36294166Y-126266338D01*
X36049156Y-124317339D01*
X35825643Y-122235512D01*
X35620637Y-120007897D01*
X35593215Y-119683333D01*
X35474484Y-118150235D01*
X35361642Y-116466017D01*
X35254908Y-114640729D01*
X35154502Y-112684423D01*
X35060644Y-110607148D01*
X34973553Y-108418955D01*
X34893449Y-106129894D01*
X34820552Y-103750015D01*
X34755080Y-101289370D01*
X34697255Y-98758008D01*
X34647294Y-96165981D01*
X34605418Y-93523337D01*
X34571847Y-90840128D01*
X34562948Y-89876033D01*
X40746453Y-89876033D01*
X40746457Y-91582608D01*
X40746992Y-93293378D01*
X40748058Y-95000487D01*
X40749653Y-96696084D01*
X40751776Y-98372313D01*
X40754428Y-100021321D01*
X40757605Y-101635255D01*
X40761309Y-103206260D01*
X40765537Y-104726483D01*
X40770288Y-106188070D01*
X40775563Y-107583168D01*
X40781359Y-108903922D01*
X40787676Y-110142479D01*
X40794512Y-111290985D01*
X40801868Y-112341586D01*
X40809742Y-113286429D01*
X40818132Y-114117661D01*
X40827039Y-114827426D01*
X40836460Y-115407871D01*
X40846396Y-115851144D01*
X40854438Y-116095079D01*
X40979238Y-118629938D01*
X41140289Y-121017250D01*
X41339860Y-123267117D01*
X41580218Y-125389640D01*
X41863631Y-127394921D01*
X42192366Y-129293061D01*
X42568692Y-131094162D01*
X42994875Y-132808325D01*
X43473182Y-134445652D01*
X44005883Y-136016245D01*
X44595243Y-137530204D01*
X45243532Y-138997632D01*
X45953015Y-140428630D01*
X46571450Y-141563274D01*
X47115007Y-142486419D01*
X47738778Y-143484943D01*
X48418099Y-144522772D01*
X49128305Y-145563831D01*
X49844732Y-146572046D01*
X50542715Y-147511342D01*
X51197590Y-148345644D01*
X51266118Y-148429682D01*
X52009764Y-149314251D01*
X52857071Y-150280915D01*
X53787718Y-151308640D01*
X54781380Y-152376392D01*
X55817735Y-153463138D01*
X56876460Y-154547843D01*
X57937232Y-155609472D01*
X58979728Y-156626993D01*
X59983624Y-157579371D01*
X60928598Y-158445571D01*
X61038566Y-158544060D01*
X62402391Y-159725244D01*
X63906685Y-160959179D01*
X65542014Y-162239146D01*
X67298943Y-163558427D01*
X69168035Y-164910305D01*
X71139856Y-166288062D01*
X73204971Y-167684980D01*
X75353944Y-169094341D01*
X77577339Y-170509428D01*
X79616983Y-171771814D01*
X80035196Y-172027704D01*
X80414646Y-172260654D01*
X80730339Y-172455262D01*
X80957285Y-172596122D01*
X81068412Y-172666450D01*
X81200757Y-172750123D01*
X81251606Y-172777199D01*
X81324865Y-172739626D01*
X81508214Y-172634177D01*
X81774080Y-172476975D01*
X82094889Y-172284147D01*
X82098273Y-172282098D01*
X85074961Y-170447763D01*
X87900159Y-168640489D01*
X90580505Y-166855668D01*
X93122640Y-165088695D01*
X95533203Y-163334962D01*
X97818832Y-161589863D01*
X99816031Y-159988815D01*
X100754035Y-159194794D01*
X101770085Y-158291723D01*
X102844851Y-157299103D01*
X103959001Y-156236438D01*
X105093203Y-155123229D01*
X106228128Y-153978979D01*
X107344444Y-152823188D01*
X108422819Y-151675359D01*
X109443923Y-150554995D01*
X110388425Y-149481597D01*
X111236993Y-148474666D01*
X111273880Y-148429682D01*
X111922490Y-147609169D01*
X112616928Y-146679684D01*
X113332531Y-145677301D01*
X114044634Y-144638094D01*
X114728571Y-143598139D01*
X115359680Y-142593510D01*
X115913294Y-141660280D01*
X115968548Y-141563274D01*
X116729047Y-140154301D01*
X117426521Y-138717047D01*
X118063238Y-137241409D01*
X118641466Y-135717287D01*
X119163473Y-134134579D01*
X119631525Y-132483183D01*
X120047890Y-130752997D01*
X120414837Y-128933920D01*
X120734632Y-127015852D01*
X121009543Y-124988689D01*
X121241838Y-122842331D01*
X121433784Y-120566675D01*
X121587649Y-118151621D01*
X121685560Y-116095079D01*
X121695893Y-115763373D01*
X121705712Y-115288414D01*
X121715018Y-114678057D01*
X121723808Y-113940155D01*
X121732081Y-113082562D01*
X121739838Y-112113132D01*
X121747077Y-111039718D01*
X121753796Y-109870175D01*
X121759995Y-108612356D01*
X121765674Y-107274114D01*
X121770830Y-105863304D01*
X121775463Y-104387779D01*
X121779573Y-102855393D01*
X121783157Y-101273999D01*
X121786216Y-99651452D01*
X121788748Y-97995606D01*
X121790752Y-96314313D01*
X121792228Y-94615428D01*
X121793174Y-92906804D01*
X121793589Y-91196295D01*
X121793472Y-89491756D01*
X121792823Y-87801039D01*
X121791641Y-86131998D01*
X121789924Y-84492487D01*
X121787671Y-82890361D01*
X121784882Y-81333472D01*
X121781556Y-79829674D01*
X121777691Y-78386821D01*
X121773287Y-77012768D01*
X121768343Y-75715366D01*
X121762857Y-74502471D01*
X121756830Y-73381937D01*
X121750259Y-72361616D01*
X121743144Y-71449362D01*
X121735484Y-70653030D01*
X121727277Y-69980473D01*
X121718524Y-69439544D01*
X121709223Y-69038099D01*
X121699373Y-68783989D01*
X121691371Y-68693445D01*
X121563995Y-68241629D01*
X121358654Y-67892512D01*
X121045219Y-67606332D01*
X120716240Y-67406496D01*
X120307969Y-67220899D01*
X119751549Y-67017778D01*
X119058855Y-66799592D01*
X118241766Y-66568800D01*
X117312159Y-66327862D01*
X116281910Y-66079237D01*
X115162896Y-65825384D01*
X113966995Y-65568763D01*
X112706084Y-65311834D01*
X111392039Y-65057055D01*
X110036739Y-64806886D01*
X108652059Y-64563787D01*
X107249877Y-64330217D01*
X105842071Y-64108635D01*
X104440516Y-63901501D01*
X103057091Y-63711274D01*
X102557618Y-63646361D01*
X99260365Y-63252829D01*
X96064576Y-62930106D01*
X92928171Y-62675490D01*
X89809072Y-62486285D01*
X86665197Y-62359790D01*
X83454469Y-62293307D01*
X81269999Y-62280991D01*
X76550705Y-62343956D01*
X71904856Y-62534408D01*
X67304186Y-62854683D01*
X62720430Y-63307116D01*
X58125322Y-63894042D01*
X53975079Y-64536117D01*
X52817468Y-64736348D01*
X51646848Y-64951551D01*
X50477213Y-65178419D01*
X49322554Y-65413647D01*
X48196863Y-65653930D01*
X47114134Y-65895963D01*
X46088359Y-66136441D01*
X45133530Y-66372057D01*
X44263640Y-66599507D01*
X43492682Y-66815486D01*
X42834647Y-67016688D01*
X42303529Y-67199808D01*
X41913319Y-67361541D01*
X41823758Y-67406496D01*
X41408041Y-67671438D01*
X41123311Y-67969103D01*
X40939440Y-68339253D01*
X40848627Y-68693445D01*
X40838351Y-68828123D01*
X40828626Y-69116215D01*
X40819448Y-69549869D01*
X40810819Y-70121231D01*
X40802736Y-70822447D01*
X40795199Y-71645663D01*
X40788207Y-72583025D01*
X40781759Y-73626680D01*
X40775854Y-74768774D01*
X40770491Y-76001453D01*
X40765669Y-77316864D01*
X40761387Y-78707152D01*
X40757644Y-80164464D01*
X40754439Y-81680947D01*
X40751771Y-83248746D01*
X40749640Y-84860008D01*
X40748044Y-86506879D01*
X40746982Y-88181505D01*
X40746453Y-89876033D01*
X34562948Y-89876033D01*
X34546799Y-88126404D01*
X34530495Y-85392216D01*
X34523154Y-82647613D01*
X34524996Y-79902647D01*
X34536240Y-77167367D01*
X34557105Y-74451824D01*
X34572716Y-72974323D01*
X34592034Y-71359071D01*
X34610764Y-69898042D01*
X34629125Y-68584189D01*
X34647336Y-67410468D01*
X34665614Y-66369832D01*
X34684179Y-65455237D01*
X34703250Y-64659637D01*
X34723044Y-63975986D01*
X34743780Y-63397239D01*
X34765677Y-62916351D01*
X34788953Y-62526275D01*
X34813827Y-62219967D01*
X34840518Y-61990381D01*
X34869244Y-61830471D01*
X34900223Y-61733193D01*
X34922480Y-61699421D01*
X35061479Y-61622806D01*
X35343692Y-61515335D01*
X35754805Y-61380692D01*
X36280505Y-61222562D01*
X36906478Y-61044631D01*
X37618412Y-60850582D01*
X38401992Y-60644102D01*
X39242905Y-60428874D01*
X40126837Y-60208584D01*
X41039476Y-59986917D01*
X41966508Y-59767557D01*
X42893619Y-59554190D01*
X43806495Y-59350500D01*
X44690824Y-59160173D01*
X45185872Y-59057181D01*
X50122945Y-58121081D01*
X55107186Y-57328953D01*
X60143754Y-56680288D01*
X65237809Y-56174580D01*
X70394509Y-55811322D01*
X75619013Y-55590006D01*
X80916481Y-55510126D01*
X81269999Y-55509817D01*
X86572482Y-55580349D01*
G37*
G36*
X82507418Y-50592533D02*
G01*
X83616133Y-50597420D01*
X84682148Y-50605373D01*
X85685070Y-50616393D01*
X86604505Y-50630479D01*
X87420060Y-50647632D01*
X88111339Y-50667851D01*
X88567460Y-50686539D01*
X92234840Y-50890130D01*
X95769922Y-51138444D01*
X99196095Y-51434142D01*
X102536750Y-51779889D01*
X105815275Y-52178348D01*
X109055061Y-52632180D01*
X112279499Y-53144049D01*
X115511977Y-53716619D01*
X116022008Y-53812251D01*
X117060210Y-54014940D01*
X118150047Y-54239912D01*
X119278445Y-54483734D01*
X120432330Y-54742974D01*
X121598630Y-55014198D01*
X122764271Y-55293974D01*
X123916179Y-55578869D01*
X125041281Y-55865449D01*
X126126504Y-56150283D01*
X127158773Y-56429937D01*
X128125016Y-56700978D01*
X129012159Y-56959975D01*
X129807128Y-57203493D01*
X130496850Y-57428100D01*
X131068252Y-57630363D01*
X131508260Y-57806850D01*
X131803800Y-57954127D01*
X131809946Y-57957843D01*
X132007189Y-58118615D01*
X132141951Y-58300203D01*
X132151422Y-58322230D01*
X132207465Y-58497933D01*
X132259883Y-58724239D01*
X132308867Y-59006949D01*
X132354605Y-59351862D01*
X132397287Y-59764779D01*
X132437101Y-60251502D01*
X132474236Y-60817831D01*
X132508883Y-61469566D01*
X132541229Y-62212508D01*
X132571465Y-63052459D01*
X132599780Y-63995218D01*
X132626361Y-65046587D01*
X132651400Y-66212366D01*
X132675085Y-67498355D01*
X132697604Y-68910356D01*
X132719148Y-70454169D01*
X132739905Y-72135595D01*
X132760065Y-73960435D01*
X132779817Y-75934488D01*
X132799349Y-78063557D01*
X132800875Y-78236984D01*
X132824881Y-81439971D01*
X132839130Y-84494138D01*
X132843331Y-87411657D01*
X132837191Y-90204701D01*
X132820416Y-92885441D01*
X132792714Y-95466050D01*
X132753792Y-97958700D01*
X132703358Y-100375563D01*
X132641117Y-102728811D01*
X132566778Y-105030616D01*
X132480048Y-107293151D01*
X132380634Y-109528587D01*
X132268243Y-111749097D01*
X132142582Y-113966853D01*
X132003359Y-116194026D01*
X131850280Y-118442790D01*
X131825130Y-118796349D01*
X131610875Y-121490895D01*
X131362620Y-124037980D01*
X131077270Y-126448423D01*
X130751731Y-128733045D01*
X130382908Y-130902664D01*
X129967707Y-132968100D01*
X129503031Y-134940174D01*
X128985788Y-136829704D01*
X128412882Y-138647510D01*
X127781219Y-140404412D01*
X127087703Y-142111230D01*
X126329241Y-143778783D01*
X125502737Y-145417891D01*
X124605097Y-147039373D01*
X123633226Y-148654049D01*
X123003314Y-149639206D01*
X121798234Y-151395559D01*
X120446213Y-153201550D01*
X118952155Y-155052490D01*
X117320964Y-156943689D01*
X115557542Y-158870459D01*
X113666793Y-160828111D01*
X111653621Y-162811956D01*
X109522930Y-164817305D01*
X107279622Y-166839469D01*
X104928600Y-168873759D01*
X102474770Y-170915488D01*
X99923033Y-172959964D01*
X97278294Y-175002500D01*
X94545455Y-177038408D01*
X93728095Y-177633472D01*
X92679455Y-178387272D01*
X91581445Y-179166033D01*
X90454778Y-179955610D01*
X89320170Y-180741856D01*
X88198335Y-181510626D01*
X87109985Y-182247774D01*
X86075837Y-182939154D01*
X85116603Y-183570621D01*
X84252999Y-184128029D01*
X83782408Y-184425389D01*
X83423578Y-184645525D01*
X83026444Y-184881986D01*
X82616407Y-185120477D01*
X82218868Y-185346702D01*
X81859230Y-185546363D01*
X81562893Y-185705165D01*
X81355260Y-185808811D01*
X81263292Y-185843166D01*
X81182815Y-185806845D01*
X80991701Y-185709566D01*
X80721014Y-185567370D01*
X80485801Y-185441618D01*
X79980477Y-185157211D01*
X79358049Y-184785963D01*
X78631507Y-184336345D01*
X77813840Y-183816826D01*
X76918036Y-183235875D01*
X75957086Y-182601962D01*
X74943977Y-181923556D01*
X73891698Y-181209126D01*
X72813240Y-180467142D01*
X72158253Y-180011726D01*
X68650393Y-177514535D01*
X65299250Y-175029681D01*
X62101016Y-172554053D01*
X59051879Y-170084538D01*
X56148029Y-167618024D01*
X53385656Y-165151398D01*
X50760951Y-162681549D01*
X49834029Y-161776221D01*
X48027089Y-159957674D01*
X46355700Y-158199792D01*
X44811098Y-156491268D01*
X43384517Y-154820794D01*
X42067192Y-153177059D01*
X40850356Y-151548755D01*
X39725245Y-149924575D01*
X38683092Y-148293208D01*
X37715133Y-146643346D01*
X36832672Y-145002698D01*
X36071049Y-143458001D01*
X35368767Y-141893255D01*
X34723238Y-140297366D01*
X34131870Y-138659244D01*
X33592075Y-136967794D01*
X33101264Y-135211925D01*
X32656847Y-133380545D01*
X32256233Y-131462560D01*
X31896835Y-129446879D01*
X31576062Y-127322409D01*
X31291325Y-125078058D01*
X31040034Y-122702732D01*
X30819600Y-120185341D01*
X30714869Y-118796349D01*
X30559602Y-116543119D01*
X30418236Y-114313379D01*
X30290479Y-112094955D01*
X30176036Y-109875676D01*
X30074617Y-107643370D01*
X29985927Y-105385864D01*
X29909675Y-103090987D01*
X29845566Y-100746566D01*
X29793309Y-98340429D01*
X29752610Y-95860403D01*
X29723177Y-93294318D01*
X29704717Y-90630000D01*
X29696937Y-87855278D01*
X29699544Y-84957979D01*
X29712245Y-81925932D01*
X29734748Y-78746963D01*
X29739124Y-78236984D01*
X29752944Y-76721093D01*
X32174502Y-76721093D01*
X32175628Y-78726019D01*
X32178469Y-80877549D01*
X32182899Y-83180693D01*
X32188311Y-85453809D01*
X32193848Y-87527422D01*
X32199489Y-89448857D01*
X32205348Y-91227208D01*
X32211539Y-92871568D01*
X32218173Y-94391028D01*
X32225366Y-95794682D01*
X32233229Y-97091622D01*
X32241877Y-98290941D01*
X32251423Y-99401732D01*
X32261979Y-100433088D01*
X32273659Y-101394101D01*
X32286577Y-102293863D01*
X32300845Y-103141468D01*
X32316577Y-103946008D01*
X32333886Y-104716577D01*
X32352886Y-105462265D01*
X32373690Y-106192168D01*
X32396410Y-106915376D01*
X32421161Y-107640983D01*
X32448055Y-108378081D01*
X32477207Y-109135764D01*
X32486156Y-109362063D01*
X32587628Y-111649316D01*
X32708307Y-113901117D01*
X32847001Y-116104514D01*
X33002518Y-118246553D01*
X33173667Y-120314279D01*
X33359256Y-122294739D01*
X33558092Y-124174979D01*
X33768985Y-125942045D01*
X33990743Y-127582983D01*
X34222173Y-129084839D01*
X34389011Y-130044920D01*
X34954835Y-132775884D01*
X35634235Y-135399405D01*
X36432376Y-137927436D01*
X37354422Y-140371928D01*
X38405536Y-142744832D01*
X39590884Y-145058100D01*
X40915628Y-147323683D01*
X42384935Y-149553532D01*
X43465385Y-151050317D01*
X44780456Y-152738774D01*
X46239746Y-154479479D01*
X47836909Y-156266897D01*
X49565602Y-158095492D01*
X51419481Y-159959728D01*
X53392201Y-161854071D01*
X55477417Y-163772985D01*
X57668786Y-165710934D01*
X59959964Y-167662383D01*
X62344606Y-169621796D01*
X64816368Y-171583637D01*
X67368906Y-173542372D01*
X69995876Y-175492465D01*
X72690933Y-177428379D01*
X75447733Y-179344581D01*
X77423296Y-180679552D01*
X77984935Y-181052065D01*
X78552009Y-181423479D01*
X79107632Y-181783159D01*
X79634921Y-182120469D01*
X80116992Y-182424774D01*
X80536962Y-182685437D01*
X80877946Y-182891824D01*
X81123060Y-183033299D01*
X81255421Y-183099225D01*
X81269999Y-183102698D01*
X81352476Y-183062793D01*
X81546558Y-182953021D01*
X81826665Y-182788299D01*
X82167215Y-182583544D01*
X82322406Y-182489021D01*
X82976635Y-182080517D01*
X83742614Y-181587462D01*
X84602865Y-181021787D01*
X85539913Y-180395424D01*
X86536282Y-179720303D01*
X87574494Y-179008357D01*
X88637075Y-178271515D01*
X89706548Y-177521709D01*
X90765436Y-176770870D01*
X91796264Y-176030929D01*
X92034761Y-175858310D01*
X94709828Y-173886413D01*
X97305083Y-171908158D01*
X99814709Y-169928883D01*
X102232886Y-167953926D01*
X104553797Y-165988625D01*
X106771624Y-164038317D01*
X108880548Y-162108342D01*
X110874751Y-160204036D01*
X112748416Y-158330737D01*
X114495723Y-156493784D01*
X116110855Y-154698515D01*
X117587994Y-152950267D01*
X118921321Y-151254379D01*
X119074614Y-151050317D01*
X120644816Y-148837889D01*
X122066957Y-146597826D01*
X123346201Y-144318176D01*
X124487713Y-141986989D01*
X125496657Y-139592313D01*
X126378196Y-137122197D01*
X127137496Y-134564689D01*
X127779720Y-131907838D01*
X128150987Y-130044920D01*
X128388470Y-128647950D01*
X128617112Y-127102845D01*
X128835723Y-125422559D01*
X129043111Y-123620047D01*
X129238083Y-121708261D01*
X129419449Y-119700157D01*
X129586015Y-117608688D01*
X129736592Y-115446807D01*
X129869986Y-113227470D01*
X129985006Y-110963629D01*
X130053843Y-109362063D01*
X130083674Y-108596660D01*
X130111216Y-107854494D01*
X130136580Y-107126473D01*
X130159882Y-106403505D01*
X130181233Y-105676495D01*
X130200747Y-104936353D01*
X130218538Y-104173985D01*
X130234719Y-103380298D01*
X130249403Y-102546200D01*
X130262703Y-101662598D01*
X130274733Y-100720399D01*
X130285605Y-99710511D01*
X130295434Y-98623841D01*
X130304332Y-97451295D01*
X130312412Y-96183783D01*
X130319789Y-94812210D01*
X130326575Y-93327485D01*
X130332883Y-91720514D01*
X130338827Y-89982204D01*
X130344520Y-88103464D01*
X130350076Y-86075200D01*
X130351687Y-85453809D01*
X130357477Y-83005750D01*
X130361795Y-80713946D01*
X130364514Y-78573386D01*
X130365508Y-76579062D01*
X130364653Y-74725964D01*
X130361822Y-73009082D01*
X130356890Y-71423407D01*
X130349731Y-69963929D01*
X130340219Y-68625639D01*
X130328229Y-67403527D01*
X130313634Y-66292583D01*
X130296309Y-65287798D01*
X130276129Y-64384162D01*
X130252967Y-63576666D01*
X130226699Y-62860301D01*
X130197197Y-62230055D01*
X130164337Y-61680921D01*
X130127992Y-61207888D01*
X130088037Y-60805947D01*
X130044347Y-60470089D01*
X129996795Y-60195303D01*
X129945256Y-59976580D01*
X129889604Y-59808910D01*
X129829713Y-59687285D01*
X129765458Y-59606694D01*
X129701933Y-59564291D01*
X129534241Y-59503901D01*
X129232064Y-59407397D01*
X128816584Y-59280817D01*
X128308980Y-59130199D01*
X127730432Y-58961578D01*
X127102121Y-58780993D01*
X126445226Y-58594480D01*
X125780927Y-58408076D01*
X125130405Y-58227819D01*
X124514839Y-58059745D01*
X123955411Y-57909891D01*
X123473299Y-57784295D01*
X123327880Y-57747469D01*
X120419406Y-57057554D01*
X117364807Y-56409765D01*
X114174047Y-55805691D01*
X110857095Y-55246922D01*
X107423916Y-54735047D01*
X103884476Y-54271657D01*
X100248742Y-53858341D01*
X96872856Y-53527797D01*
X95862747Y-53438503D01*
X94936927Y-53361998D01*
X94065928Y-53296670D01*
X93220283Y-53240909D01*
X92370521Y-53193104D01*
X91487174Y-53151645D01*
X90540773Y-53114921D01*
X89501851Y-53081321D01*
X88340937Y-53049236D01*
X87922380Y-53038614D01*
X86415440Y-53006880D01*
X84830439Y-52984320D01*
X83189689Y-52970734D01*
X81515506Y-52965919D01*
X79830205Y-52969672D01*
X78156098Y-52981792D01*
X76515501Y-53002076D01*
X74930729Y-53030323D01*
X73424094Y-53066330D01*
X72017912Y-53109896D01*
X70734497Y-53160817D01*
X69900475Y-53201842D01*
X69214043Y-53243889D01*
X68394210Y-53302498D01*
X67467732Y-53375278D01*
X66461362Y-53459838D01*
X65401852Y-53553788D01*
X64315955Y-53654737D01*
X63230426Y-53760295D01*
X62172017Y-53868071D01*
X61167481Y-53975674D01*
X60869364Y-54008828D01*
X57456165Y-54419769D01*
X54124227Y-54876401D01*
X50886401Y-55376506D01*
X47755534Y-55917867D01*
X44744475Y-56498266D01*
X41866072Y-57115485D01*
X39212118Y-57747469D01*
X38761801Y-57863232D01*
X38226815Y-58005349D01*
X37628338Y-58167781D01*
X36987552Y-58344493D01*
X36325636Y-58529447D01*
X35663770Y-58716606D01*
X35023135Y-58899933D01*
X34424911Y-59073392D01*
X33890277Y-59230944D01*
X33440414Y-59366553D01*
X33096502Y-59474183D01*
X32879721Y-59547795D01*
X32838066Y-59564291D01*
X32769656Y-59611340D01*
X32705726Y-59694783D01*
X32646152Y-59819630D01*
X32590807Y-59990889D01*
X32539566Y-60213571D01*
X32492303Y-60492685D01*
X32448892Y-60833240D01*
X32409208Y-61240247D01*
X32373124Y-61718715D01*
X32340515Y-62273654D01*
X32311256Y-62910072D01*
X32285220Y-63632980D01*
X32262283Y-64447387D01*
X32242317Y-65358303D01*
X32225198Y-66370737D01*
X32210799Y-67489699D01*
X32198996Y-68720198D01*
X32189661Y-70067245D01*
X32182671Y-71535848D01*
X32177898Y-73131018D01*
X32175217Y-74857763D01*
X32174502Y-76721093D01*
X29752944Y-76721093D01*
X29758647Y-76095532D01*
X29778375Y-74109550D01*
X29798496Y-72273236D01*
X29819199Y-70580789D01*
X29840675Y-69026410D01*
X29863111Y-67604297D01*
X29886698Y-66308650D01*
X29911623Y-65133667D01*
X29938077Y-64073549D01*
X29966249Y-63122495D01*
X29996328Y-62274703D01*
X30028502Y-61524374D01*
X30062962Y-60865706D01*
X30099896Y-60292899D01*
X30139493Y-59800153D01*
X30181943Y-59381665D01*
X30227435Y-59031636D01*
X30276158Y-58744266D01*
X30328301Y-58513753D01*
X30384053Y-58334296D01*
X30388577Y-58322230D01*
X30509132Y-58143882D01*
X30702190Y-57975655D01*
X30730053Y-57957843D01*
X31021306Y-57811444D01*
X31457397Y-57635739D01*
X32025253Y-57434159D01*
X32711801Y-57210139D01*
X33503965Y-56967109D01*
X34388675Y-56708505D01*
X35352854Y-56437758D01*
X36383432Y-56158300D01*
X37467333Y-55873566D01*
X38591484Y-55586988D01*
X39742812Y-55301998D01*
X40908244Y-55022030D01*
X42074705Y-54750516D01*
X43229123Y-54490890D01*
X44358424Y-54246583D01*
X45449534Y-54021029D01*
X46489380Y-53817660D01*
X46517991Y-53812251D01*
X49753858Y-53229904D01*
X52978009Y-52708676D01*
X56213836Y-52245903D01*
X59484728Y-51838923D01*
X62814074Y-51485072D01*
X66225265Y-51181688D01*
X69741690Y-50926108D01*
X73386741Y-50715667D01*
X73972539Y-50686539D01*
X74547816Y-50663828D01*
X75263939Y-50644184D01*
X76100516Y-50627606D01*
X77037151Y-50614094D01*
X78053450Y-50603649D01*
X79129021Y-50596271D01*
X80243469Y-50591958D01*
X81376399Y-50590712D01*
X82507418Y-50592533D01*
G37*
G36*
X47441599Y-88007772D02*
G01*
X47474793Y-88018951D01*
X47529839Y-88042954D01*
X47613175Y-88083109D01*
X47731242Y-88142741D01*
X47890476Y-88225179D01*
X48097318Y-88333748D01*
X48358207Y-88471776D01*
X48679581Y-88642589D01*
X49067879Y-88849515D01*
X49529540Y-89095879D01*
X49946325Y-89318425D01*
X50434449Y-89578707D01*
X50958536Y-89857470D01*
X51499845Y-90144792D01*
X52039633Y-90430747D01*
X52559158Y-90705411D01*
X53039678Y-90958860D01*
X53462451Y-91181169D01*
X53626439Y-91267133D01*
X54010368Y-91468181D01*
X54388156Y-91666064D01*
X54746279Y-91853693D01*
X55071211Y-92023982D01*
X55349426Y-92169841D01*
X55567399Y-92284181D01*
X55694999Y-92351187D01*
X56435202Y-92739168D01*
X57246786Y-93162593D01*
X58115072Y-93613893D01*
X59025378Y-94085498D01*
X59963025Y-94569840D01*
X60913331Y-95059350D01*
X61861616Y-95546459D01*
X62793200Y-96023599D01*
X63693403Y-96483200D01*
X64547542Y-96917694D01*
X64835151Y-97063579D01*
X65715442Y-97510533D01*
X66527348Y-97924418D01*
X67269218Y-98304366D01*
X67939399Y-98649509D01*
X68536240Y-98958980D01*
X69058089Y-99231911D01*
X69503295Y-99467434D01*
X69870205Y-99664681D01*
X70157169Y-99822785D01*
X70362533Y-99940878D01*
X70484647Y-100018092D01*
X70521814Y-100051113D01*
X70484344Y-100084929D01*
X70369193Y-100152347D01*
X70186808Y-100248365D01*
X69947636Y-100367980D01*
X69662122Y-100506192D01*
X69340715Y-100657997D01*
X68993861Y-100818395D01*
X68632007Y-100982383D01*
X68265599Y-101144959D01*
X67962045Y-101276728D01*
X66805105Y-101748977D01*
X65690502Y-102154728D01*
X64622301Y-102492811D01*
X63604566Y-102762060D01*
X62641361Y-102961307D01*
X61736751Y-103089382D01*
X61612045Y-103101847D01*
X61404005Y-103116256D01*
X61131441Y-103127531D01*
X60815672Y-103135549D01*
X60478017Y-103140188D01*
X60139796Y-103141323D01*
X59822326Y-103138834D01*
X59546927Y-103132595D01*
X59334918Y-103122486D01*
X59254848Y-103115437D01*
X58434625Y-102975242D01*
X57610859Y-102743357D01*
X56792064Y-102423548D01*
X55986756Y-102019579D01*
X55203448Y-101535213D01*
X54497834Y-101012404D01*
X54228938Y-100782486D01*
X53919881Y-100496057D01*
X53589607Y-100172523D01*
X53257063Y-99831286D01*
X52941194Y-99491752D01*
X52660946Y-99173323D01*
X52451797Y-98916893D01*
X51813776Y-98036719D01*
X51191163Y-97066395D01*
X50586653Y-96011138D01*
X50002939Y-94876166D01*
X49442715Y-93666696D01*
X48908676Y-92387947D01*
X48440273Y-91147764D01*
X48331743Y-90841932D01*
X48217499Y-90513116D01*
X50099774Y-90513116D01*
X50104206Y-90589993D01*
X50128411Y-90746423D01*
X50169343Y-90968493D01*
X50223955Y-91242291D01*
X50289201Y-91553902D01*
X50362034Y-91889415D01*
X50439408Y-92234914D01*
X50518277Y-92576488D01*
X50595593Y-92900222D01*
X50668310Y-93192205D01*
X50733382Y-93438521D01*
X50764099Y-93547062D01*
X51057380Y-94437133D01*
X51416774Y-95337864D01*
X51830538Y-96224599D01*
X52286928Y-97072683D01*
X52774201Y-97857458D01*
X52915241Y-98063448D01*
X53520583Y-98852342D01*
X54178509Y-99567758D01*
X54884759Y-100206919D01*
X55635073Y-100767046D01*
X56425192Y-101245362D01*
X57250857Y-101639091D01*
X58107807Y-101945453D01*
X58991784Y-102161672D01*
X59275459Y-102210715D01*
X59611441Y-102248665D01*
X60018349Y-102271425D01*
X60472132Y-102279158D01*
X60948735Y-102272031D01*
X61424109Y-102250206D01*
X61874199Y-102213850D01*
X62071954Y-102191566D01*
X63078866Y-102029239D01*
X64114310Y-101792739D01*
X65154820Y-101488847D01*
X66176931Y-101124343D01*
X67062585Y-100749666D01*
X67307997Y-100633386D01*
X67574659Y-100500295D01*
X67849032Y-100357906D01*
X68117579Y-100213732D01*
X68366758Y-100075287D01*
X68583032Y-99950084D01*
X68752860Y-99845637D01*
X68862705Y-99769459D01*
X68899164Y-99730478D01*
X68857954Y-99702824D01*
X68741173Y-99638954D01*
X68559869Y-99544534D01*
X68325088Y-99425233D01*
X68047876Y-99286719D01*
X67739280Y-99134659D01*
X67709488Y-99120084D01*
X67435058Y-98985669D01*
X67087493Y-98815048D01*
X66679897Y-98614671D01*
X66225372Y-98390991D01*
X65737021Y-98150461D01*
X65227948Y-97899533D01*
X64711255Y-97644659D01*
X64200046Y-97392290D01*
X63993295Y-97290161D01*
X63349381Y-96972194D01*
X62690163Y-96647014D01*
X62008383Y-96311057D01*
X61296785Y-95960757D01*
X60548115Y-95592548D01*
X59755116Y-95202863D01*
X58910531Y-94788138D01*
X58007106Y-94344805D01*
X57037583Y-93869300D01*
X55994708Y-93358056D01*
X55093673Y-92916501D01*
X54676997Y-92711764D01*
X54197890Y-92475388D01*
X53679848Y-92219023D01*
X53146362Y-91954322D01*
X52620926Y-91692934D01*
X52127034Y-91446512D01*
X51846514Y-91306129D01*
X51391821Y-91079235D01*
X51016479Y-90894232D01*
X50714575Y-90748435D01*
X50480196Y-90639160D01*
X50307431Y-90563723D01*
X50190367Y-90519440D01*
X50123090Y-90503626D01*
X50099774Y-90513116D01*
X48217499Y-90513116D01*
X48214885Y-90505592D01*
X48093496Y-90150364D01*
X47971374Y-89787868D01*
X47852315Y-89429725D01*
X47740118Y-89087552D01*
X47638579Y-88772971D01*
X47551497Y-88497600D01*
X47482669Y-88273061D01*
X47435891Y-88110971D01*
X47414962Y-88022951D01*
X47415011Y-88010581D01*
X47423818Y-88006091D01*
X47441599Y-88007772D01*
G37*
%TD*%
M02*
