%TF.GenerationSoftware,KiCad,Pcbnew,10.0.1*%
%TF.CreationDate,2026-04-20T10:37:20+02:00*%
%TF.ProjectId,badge-sthack-2026,62616467-652d-4737-9468-61636b2d3230,rev?*%
%TF.SameCoordinates,Original*%
%TF.FileFunction,Legend,Bot*%
%TF.FilePolarity,Positive*%
%FSLAX46Y46*%
G04 Gerber Fmt 4.6, Leading zero omitted, Abs format (unit mm)*
G04 Created by KiCad (PCBNEW 10.0.1) date 2026-04-20 10:37:20*
%MOMM*%
%LPD*%
G01*
G04 APERTURE LIST*
%ADD10C,0.120000*%
%ADD11C,0.000000*%
G04 APERTURE END LIST*
%TO.C,VR*%
D10*
X77860000Y-86140000D02*
X77860000Y-89900000D01*
X77860000Y-89900000D02*
X79120000Y-89900000D01*
X84680000Y-86140000D02*
X84680000Y-89900000D01*
X84680000Y-89900000D02*
X83420000Y-89900000D01*
X77960000Y-84860000D02*
X77630000Y-85100000D01*
X77630000Y-84620000D01*
X77960000Y-84860000D01*
G36*
X77960000Y-84860000D02*
G01*
X77630000Y-85100000D01*
X77630000Y-84620000D01*
X77960000Y-84860000D01*
G37*
D11*
%TO.C,G\u002A\u002A\u002A*%
G36*
X127968153Y-90840128D02*
G01*
X127934582Y-93523337D01*
X127892706Y-96165981D01*
X127842745Y-98758008D01*
X127784920Y-101289370D01*
X127719448Y-103750015D01*
X127646551Y-106129894D01*
X127566447Y-108418955D01*
X127479356Y-110607148D01*
X127385498Y-112684423D01*
X127285092Y-114640729D01*
X127178358Y-116466017D01*
X127065516Y-118150235D01*
X126946785Y-119683333D01*
X126919363Y-120007897D01*
X126714357Y-122235512D01*
X126490844Y-124317339D01*
X126245834Y-126266338D01*
X125976334Y-128095466D01*
X125679351Y-129817683D01*
X125351893Y-131445946D01*
X124990969Y-132993215D01*
X124593586Y-134472447D01*
X124156752Y-135896601D01*
X123677475Y-137278637D01*
X123152763Y-138631511D01*
X122579623Y-139968184D01*
X121955063Y-141301612D01*
X121942751Y-141326858D01*
X121116299Y-142953857D01*
X120253289Y-144517270D01*
X119340887Y-146035220D01*
X118366260Y-147525828D01*
X117316575Y-149007217D01*
X116178998Y-150497508D01*
X114940696Y-152014824D01*
X113588836Y-153577286D01*
X112110585Y-155203016D01*
X111716554Y-155623455D01*
X110353794Y-157029963D01*
X108869379Y-158495782D01*
X107278636Y-160007426D01*
X105596893Y-161551406D01*
X103839478Y-163114237D01*
X102021720Y-164682430D01*
X100158946Y-166242499D01*
X98266484Y-167780957D01*
X96359663Y-169284317D01*
X94453810Y-170739091D01*
X93982562Y-171090939D01*
X93140041Y-171712762D01*
X92229722Y-172376826D01*
X91266790Y-173072503D01*
X90266435Y-173789164D01*
X89243843Y-174516181D01*
X88214203Y-175242927D01*
X87192701Y-175958774D01*
X86194526Y-176653093D01*
X85234866Y-177315257D01*
X84328908Y-177934637D01*
X83491840Y-178500606D01*
X82738849Y-179002536D01*
X82085123Y-179429799D01*
X81545851Y-179771766D01*
X81395142Y-179847371D01*
X81251246Y-179857445D01*
X81069093Y-179792465D01*
X80801332Y-179644324D01*
X80685899Y-179575099D01*
X80278878Y-179319873D01*
X79759592Y-178981946D01*
X79141228Y-178570552D01*
X78436971Y-178094927D01*
X77660008Y-177564307D01*
X76823527Y-176987926D01*
X75940713Y-176375021D01*
X75024753Y-175734827D01*
X74088833Y-175076578D01*
X73146140Y-174409510D01*
X72209861Y-173742859D01*
X71293181Y-173085860D01*
X70409288Y-172447749D01*
X69571367Y-171837760D01*
X68792606Y-171265129D01*
X68086191Y-170739091D01*
X67498418Y-170295648D01*
X65590630Y-168824423D01*
X63686609Y-167308780D01*
X61801683Y-165762206D01*
X59951180Y-164198188D01*
X58150428Y-162630211D01*
X56414755Y-161071765D01*
X54759490Y-159536335D01*
X53199959Y-158037409D01*
X51751492Y-156588473D01*
X50429417Y-155203016D01*
X50406002Y-155177811D01*
X48929762Y-153553175D01*
X47579719Y-151991532D01*
X46343040Y-150474762D01*
X45206891Y-148984741D01*
X44158440Y-147503348D01*
X43184852Y-146012460D01*
X42273295Y-144493956D01*
X41410934Y-142929714D01*
X40584938Y-141301612D01*
X40494202Y-141114457D01*
X39877029Y-139781354D01*
X39310856Y-138443192D01*
X38792691Y-137087012D01*
X38319542Y-135699854D01*
X37888417Y-134268762D01*
X37496324Y-132780776D01*
X37140270Y-131222938D01*
X36817264Y-129582289D01*
X36524313Y-127845870D01*
X36258424Y-126000724D01*
X36016607Y-124033891D01*
X35795869Y-121932414D01*
X35593217Y-119683333D01*
X35527375Y-118861724D01*
X35411847Y-117244490D01*
X35302328Y-115481649D01*
X35199038Y-113583251D01*
X35102196Y-111559348D01*
X35012023Y-109419988D01*
X34928737Y-107175223D01*
X34852559Y-104835104D01*
X34783708Y-102409679D01*
X34722403Y-99909001D01*
X34668864Y-97343118D01*
X34623311Y-94722082D01*
X34585963Y-92055944D01*
X34576758Y-91196295D01*
X40746411Y-91196295D01*
X40746826Y-92906804D01*
X40747772Y-94615428D01*
X40749248Y-96314313D01*
X40751252Y-97995606D01*
X40753784Y-99651452D01*
X40756843Y-101273999D01*
X40760427Y-102855393D01*
X40764537Y-104387779D01*
X40769170Y-105863304D01*
X40774326Y-107274114D01*
X40780005Y-108612356D01*
X40786204Y-109870175D01*
X40792923Y-111039718D01*
X40800162Y-112113132D01*
X40807919Y-113082562D01*
X40816192Y-113940155D01*
X40824982Y-114678057D01*
X40834288Y-115288414D01*
X40844107Y-115763373D01*
X40854440Y-116095079D01*
X40952351Y-118151621D01*
X41106216Y-120566675D01*
X41298162Y-122842331D01*
X41530457Y-124988689D01*
X41805368Y-127015852D01*
X42125163Y-128933920D01*
X42492110Y-130752997D01*
X42908475Y-132483183D01*
X43376527Y-134134579D01*
X43898534Y-135717287D01*
X44476762Y-137241409D01*
X45113479Y-138717047D01*
X45810953Y-140154301D01*
X46571452Y-141563274D01*
X46626706Y-141660280D01*
X47180320Y-142593510D01*
X47811429Y-143598139D01*
X48495366Y-144638094D01*
X49207469Y-145677301D01*
X49923072Y-146679684D01*
X50617510Y-147609169D01*
X51266120Y-148429682D01*
X51303007Y-148474666D01*
X52151575Y-149481597D01*
X53096077Y-150554995D01*
X54117181Y-151675359D01*
X55195556Y-152823188D01*
X56311872Y-153978979D01*
X57446797Y-155123229D01*
X58580999Y-156236438D01*
X59695149Y-157299103D01*
X60769915Y-158291723D01*
X61785965Y-159194794D01*
X62723969Y-159988815D01*
X64721168Y-161589863D01*
X67006797Y-163334962D01*
X69417360Y-165088695D01*
X71959495Y-166855668D01*
X74639841Y-168640489D01*
X77465039Y-170447763D01*
X80441727Y-172282098D01*
X80445111Y-172284147D01*
X80765920Y-172476975D01*
X81031786Y-172634177D01*
X81215135Y-172739626D01*
X81288394Y-172777199D01*
X81339243Y-172750123D01*
X81471588Y-172666450D01*
X81582715Y-172596122D01*
X81809661Y-172455262D01*
X82125354Y-172260654D01*
X82504804Y-172027704D01*
X82923017Y-171771814D01*
X84962661Y-170509428D01*
X87186056Y-169094341D01*
X89335029Y-167684980D01*
X91400144Y-166288062D01*
X93371965Y-164910305D01*
X95241057Y-163558427D01*
X96997986Y-162239146D01*
X98633315Y-160959179D01*
X100137609Y-159725244D01*
X101501434Y-158544060D01*
X101611402Y-158445571D01*
X102556376Y-157579371D01*
X103560272Y-156626993D01*
X104602768Y-155609472D01*
X105663540Y-154547843D01*
X106722265Y-153463138D01*
X107758620Y-152376392D01*
X108752282Y-151308640D01*
X109682929Y-150280915D01*
X110530236Y-149314251D01*
X111273882Y-148429682D01*
X111342410Y-148345644D01*
X111997285Y-147511342D01*
X112695268Y-146572046D01*
X113411695Y-145563831D01*
X114121901Y-144522772D01*
X114801222Y-143484943D01*
X115424993Y-142486419D01*
X115968550Y-141563274D01*
X116586985Y-140428630D01*
X117296468Y-138997632D01*
X117944757Y-137530204D01*
X118534117Y-136016245D01*
X119066818Y-134445652D01*
X119545125Y-132808325D01*
X119971308Y-131094162D01*
X120347634Y-129293061D01*
X120676369Y-127394921D01*
X120959782Y-125389640D01*
X121200140Y-123267117D01*
X121399711Y-121017250D01*
X121560762Y-118629938D01*
X121685562Y-116095079D01*
X121693604Y-115851144D01*
X121703540Y-115407871D01*
X121712961Y-114827426D01*
X121721868Y-114117661D01*
X121730258Y-113286429D01*
X121738132Y-112341586D01*
X121745488Y-111290985D01*
X121752324Y-110142479D01*
X121758641Y-108903922D01*
X121764437Y-107583168D01*
X121769712Y-106188070D01*
X121774463Y-104726483D01*
X121778691Y-103206260D01*
X121782395Y-101635255D01*
X121785572Y-100021321D01*
X121788224Y-98372313D01*
X121790347Y-96696084D01*
X121791942Y-95000487D01*
X121793008Y-93293378D01*
X121793543Y-91582608D01*
X121793547Y-89876033D01*
X121793018Y-88181505D01*
X121791956Y-86506879D01*
X121790360Y-84860008D01*
X121788229Y-83248746D01*
X121785561Y-81680947D01*
X121782356Y-80164464D01*
X121778613Y-78707152D01*
X121774331Y-77316864D01*
X121769509Y-76001453D01*
X121764146Y-74768774D01*
X121758241Y-73626680D01*
X121751793Y-72583025D01*
X121744801Y-71645663D01*
X121737264Y-70822447D01*
X121729181Y-70121231D01*
X121720552Y-69549869D01*
X121711374Y-69116215D01*
X121701649Y-68828123D01*
X121691373Y-68693445D01*
X121600560Y-68339253D01*
X121416689Y-67969103D01*
X121131959Y-67671438D01*
X120716242Y-67406496D01*
X120626681Y-67361541D01*
X120236471Y-67199808D01*
X119705353Y-67016688D01*
X119047318Y-66815486D01*
X118276360Y-66599507D01*
X117406470Y-66372057D01*
X116451641Y-66136441D01*
X115425866Y-65895963D01*
X114343137Y-65653930D01*
X113217446Y-65413647D01*
X112062787Y-65178419D01*
X110893152Y-64951551D01*
X109722532Y-64736348D01*
X108564921Y-64536117D01*
X104414678Y-63894042D01*
X99819570Y-63307116D01*
X95235814Y-62854683D01*
X90635144Y-62534408D01*
X85989295Y-62343956D01*
X81270001Y-62280991D01*
X79085531Y-62293307D01*
X75874803Y-62359790D01*
X72730928Y-62486285D01*
X69611829Y-62675490D01*
X66475424Y-62930106D01*
X63279635Y-63252829D01*
X59982382Y-63646361D01*
X59482909Y-63711274D01*
X58099484Y-63901501D01*
X56697929Y-64108635D01*
X55290123Y-64330217D01*
X53887941Y-64563787D01*
X52503261Y-64806886D01*
X51147961Y-65057055D01*
X49833916Y-65311834D01*
X48573005Y-65568763D01*
X47377104Y-65825384D01*
X46258090Y-66079237D01*
X45227841Y-66327862D01*
X44298234Y-66568800D01*
X43481145Y-66799592D01*
X42788451Y-67017778D01*
X42232031Y-67220899D01*
X41823760Y-67406496D01*
X41494781Y-67606332D01*
X41181346Y-67892512D01*
X40976005Y-68241629D01*
X40848629Y-68693445D01*
X40840627Y-68783989D01*
X40830777Y-69038099D01*
X40821476Y-69439544D01*
X40812723Y-69980473D01*
X40804516Y-70653030D01*
X40796856Y-71449362D01*
X40789741Y-72361616D01*
X40783170Y-73381937D01*
X40777143Y-74502471D01*
X40771657Y-75715366D01*
X40766713Y-77012768D01*
X40762309Y-78386821D01*
X40758444Y-79829674D01*
X40755118Y-81333472D01*
X40752329Y-82890361D01*
X40750076Y-84492487D01*
X40748359Y-86131998D01*
X40747177Y-87801039D01*
X40746528Y-89491756D01*
X40746411Y-91196295D01*
X34576758Y-91196295D01*
X34557040Y-89354752D01*
X34536761Y-86628559D01*
X34525346Y-83887414D01*
X34523014Y-81141367D01*
X34529986Y-78400470D01*
X34546481Y-75674771D01*
X34572717Y-72974323D01*
X34585811Y-71868549D01*
X34604708Y-70357998D01*
X34623166Y-68996922D01*
X34641402Y-67778276D01*
X34659634Y-66695012D01*
X34678082Y-65740087D01*
X34696963Y-64906454D01*
X34716497Y-64187069D01*
X34736902Y-63574885D01*
X34758396Y-63062857D01*
X34781199Y-62643940D01*
X34805528Y-62311088D01*
X34831602Y-62057255D01*
X34859640Y-61875397D01*
X34889860Y-61758467D01*
X34922482Y-61699421D01*
X34984988Y-61658874D01*
X35208939Y-61563882D01*
X35567789Y-61440175D01*
X36047222Y-61291437D01*
X36632925Y-61121353D01*
X37310585Y-60933609D01*
X38065889Y-60731889D01*
X38884523Y-60519878D01*
X39752174Y-60301260D01*
X40654528Y-60079722D01*
X41577272Y-59858947D01*
X42506091Y-59642620D01*
X43426674Y-59434427D01*
X44324706Y-59238053D01*
X45185874Y-59057181D01*
X45511468Y-58990728D01*
X50451505Y-58064178D01*
X55439052Y-57281566D01*
X60479267Y-56642384D01*
X65577311Y-56146125D01*
X70738342Y-55792283D01*
X75967518Y-55580349D01*
X81270001Y-55509817D01*
X81623519Y-55510126D01*
X86920987Y-55590006D01*
X92145491Y-55811322D01*
X97302191Y-56174580D01*
X102396246Y-56680288D01*
X107432814Y-57328953D01*
X112417055Y-58121081D01*
X117354128Y-59057181D01*
X117849176Y-59160173D01*
X118733505Y-59350500D01*
X119646381Y-59554190D01*
X120573492Y-59767557D01*
X121500524Y-59986917D01*
X122413163Y-60208584D01*
X123297095Y-60428874D01*
X124138008Y-60644102D01*
X124921588Y-60850582D01*
X125633522Y-61044631D01*
X126259495Y-61222562D01*
X126785195Y-61380692D01*
X127196308Y-61515335D01*
X127478521Y-61622806D01*
X127617520Y-61699421D01*
X127639777Y-61733193D01*
X127670756Y-61830471D01*
X127699482Y-61990381D01*
X127726173Y-62219967D01*
X127751047Y-62526275D01*
X127774323Y-62916351D01*
X127796220Y-63397239D01*
X127816956Y-63975986D01*
X127836750Y-64659637D01*
X127855821Y-65455237D01*
X127874386Y-66369832D01*
X127892664Y-67410468D01*
X127910875Y-68584189D01*
X127929236Y-69898042D01*
X127947966Y-71359071D01*
X127967284Y-72974323D01*
X127982895Y-74451824D01*
X128003760Y-77167367D01*
X128015004Y-79902647D01*
X128016846Y-82647613D01*
X128009505Y-85392216D01*
X127993201Y-88126404D01*
X127977052Y-89876033D01*
X127968153Y-90840128D01*
G37*
G36*
X132800876Y-78236984D02*
G01*
X132805252Y-78746963D01*
X132827755Y-81925932D01*
X132840456Y-84957979D01*
X132843063Y-87855278D01*
X132835283Y-90630000D01*
X132816823Y-93294318D01*
X132787390Y-95860403D01*
X132746691Y-98340429D01*
X132694434Y-100746566D01*
X132630325Y-103090987D01*
X132554073Y-105385864D01*
X132465383Y-107643370D01*
X132363964Y-109875676D01*
X132249521Y-112094955D01*
X132121764Y-114313379D01*
X131980398Y-116543119D01*
X131825131Y-118796349D01*
X131720400Y-120185341D01*
X131499966Y-122702732D01*
X131248675Y-125078058D01*
X130963938Y-127322409D01*
X130643165Y-129446879D01*
X130283767Y-131462560D01*
X129883153Y-133380545D01*
X129438736Y-135211925D01*
X128947925Y-136967794D01*
X128408130Y-138659244D01*
X127816762Y-140297366D01*
X127171233Y-141893255D01*
X126468951Y-143458001D01*
X125707328Y-145002698D01*
X124824867Y-146643346D01*
X123856908Y-148293208D01*
X122814755Y-149924575D01*
X121689644Y-151548755D01*
X120472808Y-153177059D01*
X119155483Y-154820794D01*
X117728902Y-156491268D01*
X116184300Y-158199792D01*
X114512911Y-159957674D01*
X112705971Y-161776221D01*
X111779049Y-162681549D01*
X109154344Y-165151398D01*
X106391971Y-167618024D01*
X103488121Y-170084538D01*
X100438984Y-172554053D01*
X97240750Y-175029681D01*
X93889607Y-177514535D01*
X90381747Y-180011726D01*
X89726760Y-180467142D01*
X88648302Y-181209126D01*
X87596023Y-181923556D01*
X86582914Y-182601962D01*
X85621964Y-183235875D01*
X84726160Y-183816826D01*
X83908493Y-184336345D01*
X83181951Y-184785963D01*
X82559523Y-185157211D01*
X82054199Y-185441618D01*
X81818986Y-185567370D01*
X81548299Y-185709566D01*
X81357185Y-185806845D01*
X81276708Y-185843166D01*
X81184740Y-185808811D01*
X80977107Y-185705165D01*
X80680770Y-185546363D01*
X80321132Y-185346702D01*
X79923593Y-185120477D01*
X79513556Y-184881986D01*
X79116422Y-184645525D01*
X78757592Y-184425389D01*
X78287001Y-184128029D01*
X77423397Y-183570621D01*
X76464163Y-182939154D01*
X75430015Y-182247774D01*
X74341665Y-181510626D01*
X73219830Y-180741856D01*
X72085222Y-179955610D01*
X70958555Y-179166033D01*
X69860545Y-178387272D01*
X68811905Y-177633472D01*
X67994545Y-177038408D01*
X65261706Y-175002500D01*
X62616967Y-172959964D01*
X60065230Y-170915488D01*
X57611400Y-168873759D01*
X55260378Y-166839469D01*
X53017070Y-164817305D01*
X50886379Y-162811956D01*
X48873207Y-160828111D01*
X46982458Y-158870459D01*
X45219036Y-156943689D01*
X43587845Y-155052490D01*
X42093787Y-153201550D01*
X40741766Y-151395559D01*
X39536686Y-149639206D01*
X38906774Y-148654049D01*
X37934903Y-147039373D01*
X37037263Y-145417891D01*
X36210759Y-143778783D01*
X35452297Y-142111230D01*
X34758781Y-140404412D01*
X34127118Y-138647510D01*
X33554212Y-136829704D01*
X33036969Y-134940174D01*
X32572293Y-132968100D01*
X32157092Y-130902664D01*
X31788269Y-128733045D01*
X31462730Y-126448423D01*
X31177380Y-124037980D01*
X30929125Y-121490895D01*
X30714870Y-118796349D01*
X30689720Y-118442790D01*
X30536641Y-116194026D01*
X30397418Y-113966853D01*
X30271757Y-111749097D01*
X30159366Y-109528587D01*
X30059952Y-107293151D01*
X29973222Y-105030616D01*
X29898883Y-102728811D01*
X29836642Y-100375563D01*
X29786208Y-97958700D01*
X29747286Y-95466050D01*
X29719584Y-92885441D01*
X29702809Y-90204701D01*
X29696669Y-87411657D01*
X29700870Y-84494138D01*
X29715119Y-81439971D01*
X29739125Y-78236984D01*
X29740651Y-78063557D01*
X29754270Y-76579062D01*
X32174492Y-76579062D01*
X32175486Y-78573386D01*
X32178205Y-80713946D01*
X32182523Y-83005750D01*
X32188313Y-85453809D01*
X32189924Y-86075200D01*
X32195480Y-88103464D01*
X32201173Y-89982204D01*
X32207117Y-91720514D01*
X32213425Y-93327485D01*
X32220211Y-94812210D01*
X32227588Y-96183783D01*
X32235668Y-97451295D01*
X32244566Y-98623841D01*
X32254395Y-99710511D01*
X32265267Y-100720399D01*
X32277297Y-101662598D01*
X32290597Y-102546200D01*
X32305281Y-103380298D01*
X32321462Y-104173985D01*
X32339253Y-104936353D01*
X32358767Y-105676495D01*
X32380118Y-106403505D01*
X32403420Y-107126473D01*
X32428784Y-107854494D01*
X32456326Y-108596660D01*
X32486157Y-109362063D01*
X32554994Y-110963629D01*
X32670014Y-113227470D01*
X32803408Y-115446807D01*
X32953985Y-117608688D01*
X33120551Y-119700157D01*
X33301917Y-121708261D01*
X33496889Y-123620047D01*
X33704277Y-125422559D01*
X33922888Y-127102845D01*
X34151530Y-128647950D01*
X34389013Y-130044920D01*
X34760280Y-131907838D01*
X35402504Y-134564689D01*
X36161804Y-137122197D01*
X37043343Y-139592313D01*
X38052287Y-141986989D01*
X39193799Y-144318176D01*
X40473043Y-146597826D01*
X41895184Y-148837889D01*
X43465386Y-151050317D01*
X43618679Y-151254379D01*
X44952006Y-152950267D01*
X46429145Y-154698515D01*
X48044277Y-156493784D01*
X49791584Y-158330737D01*
X51665249Y-160204036D01*
X53659452Y-162108342D01*
X55768376Y-164038317D01*
X57986203Y-165988625D01*
X60307114Y-167953926D01*
X62725291Y-169928883D01*
X65234917Y-171908158D01*
X67830172Y-173886413D01*
X70505239Y-175858310D01*
X70743736Y-176030929D01*
X71774564Y-176770870D01*
X72833452Y-177521709D01*
X73902925Y-178271515D01*
X74965506Y-179008357D01*
X76003718Y-179720303D01*
X77000087Y-180395424D01*
X77937135Y-181021787D01*
X78797386Y-181587462D01*
X79563365Y-182080517D01*
X80217594Y-182489021D01*
X80372785Y-182583544D01*
X80713335Y-182788299D01*
X80993442Y-182953021D01*
X81187524Y-183062793D01*
X81270001Y-183102698D01*
X81284579Y-183099225D01*
X81416940Y-183033299D01*
X81662054Y-182891824D01*
X82003038Y-182685437D01*
X82423008Y-182424774D01*
X82905079Y-182120469D01*
X83432368Y-181783159D01*
X83987991Y-181423479D01*
X84555065Y-181052065D01*
X85116704Y-180679552D01*
X87092267Y-179344581D01*
X89849067Y-177428379D01*
X92544124Y-175492465D01*
X95171094Y-173542372D01*
X97723632Y-171583637D01*
X100195394Y-169621796D01*
X102580036Y-167662383D01*
X104871214Y-165710934D01*
X107062583Y-163772985D01*
X109147799Y-161854071D01*
X111120519Y-159959728D01*
X112974398Y-158095492D01*
X114703091Y-156266897D01*
X116300254Y-154479479D01*
X117759544Y-152738774D01*
X119074615Y-151050317D01*
X120155065Y-149553532D01*
X121624372Y-147323683D01*
X122949116Y-145058100D01*
X124134464Y-142744832D01*
X125185578Y-140371928D01*
X126107624Y-137927436D01*
X126905765Y-135399405D01*
X127585165Y-132775884D01*
X128150989Y-130044920D01*
X128317827Y-129084839D01*
X128549257Y-127582983D01*
X128771015Y-125942045D01*
X128981908Y-124174979D01*
X129180744Y-122294739D01*
X129366333Y-120314279D01*
X129537482Y-118246553D01*
X129692999Y-116104514D01*
X129831693Y-113901117D01*
X129952372Y-111649316D01*
X130053844Y-109362063D01*
X130062793Y-109135764D01*
X130091945Y-108378081D01*
X130118839Y-107640983D01*
X130143590Y-106915376D01*
X130166310Y-106192168D01*
X130187114Y-105462265D01*
X130206114Y-104716577D01*
X130223423Y-103946008D01*
X130239155Y-103141468D01*
X130253423Y-102293863D01*
X130266341Y-101394101D01*
X130278021Y-100433088D01*
X130288577Y-99401732D01*
X130298123Y-98290941D01*
X130306771Y-97091622D01*
X130314634Y-95794682D01*
X130321827Y-94391028D01*
X130328461Y-92871568D01*
X130334652Y-91227208D01*
X130340511Y-89448857D01*
X130346152Y-87527422D01*
X130351689Y-85453809D01*
X130357101Y-83180693D01*
X130361531Y-80877549D01*
X130364372Y-78726019D01*
X130365498Y-76721093D01*
X130364783Y-74857763D01*
X130362102Y-73131018D01*
X130357329Y-71535848D01*
X130350339Y-70067245D01*
X130341004Y-68720198D01*
X130329201Y-67489699D01*
X130314802Y-66370737D01*
X130297683Y-65358303D01*
X130277717Y-64447387D01*
X130254780Y-63632980D01*
X130228744Y-62910072D01*
X130199485Y-62273654D01*
X130166876Y-61718715D01*
X130130792Y-61240247D01*
X130091108Y-60833240D01*
X130047697Y-60492685D01*
X130000434Y-60213571D01*
X129949193Y-59990889D01*
X129893848Y-59819630D01*
X129834274Y-59694783D01*
X129770344Y-59611340D01*
X129701934Y-59564291D01*
X129660279Y-59547795D01*
X129443498Y-59474183D01*
X129099586Y-59366553D01*
X128649723Y-59230944D01*
X128115089Y-59073392D01*
X127516865Y-58899933D01*
X126876230Y-58716606D01*
X126214364Y-58529447D01*
X125552448Y-58344493D01*
X124911662Y-58167781D01*
X124313185Y-58005349D01*
X123778199Y-57863232D01*
X123327882Y-57747469D01*
X120673928Y-57115485D01*
X117795525Y-56498266D01*
X114784466Y-55917867D01*
X111653599Y-55376506D01*
X108415773Y-54876401D01*
X105083835Y-54419769D01*
X101670636Y-54008828D01*
X101372519Y-53975674D01*
X100367983Y-53868071D01*
X99309574Y-53760295D01*
X98224045Y-53654737D01*
X97138148Y-53553788D01*
X96078638Y-53459838D01*
X95072268Y-53375278D01*
X94145790Y-53302498D01*
X93325957Y-53243889D01*
X92639525Y-53201842D01*
X91805503Y-53160817D01*
X90522088Y-53109896D01*
X89115906Y-53066330D01*
X87609271Y-53030323D01*
X86024499Y-53002076D01*
X84383902Y-52981792D01*
X82709795Y-52969672D01*
X81024494Y-52965919D01*
X79350311Y-52970734D01*
X77709561Y-52984320D01*
X76124560Y-53006880D01*
X74617620Y-53038614D01*
X74199063Y-53049236D01*
X73038149Y-53081321D01*
X71999227Y-53114921D01*
X71052826Y-53151645D01*
X70169479Y-53193104D01*
X69319717Y-53240909D01*
X68474072Y-53296670D01*
X67603073Y-53361998D01*
X66677253Y-53438503D01*
X65667144Y-53527797D01*
X62291258Y-53858341D01*
X58655524Y-54271657D01*
X55116084Y-54735047D01*
X51682905Y-55246922D01*
X48365953Y-55805691D01*
X45175193Y-56409765D01*
X42120594Y-57057554D01*
X39212120Y-57747469D01*
X39066701Y-57784295D01*
X38584589Y-57909891D01*
X38025161Y-58059745D01*
X37409595Y-58227819D01*
X36759073Y-58408076D01*
X36094774Y-58594480D01*
X35437879Y-58780993D01*
X34809568Y-58961578D01*
X34231020Y-59130199D01*
X33723416Y-59280817D01*
X33307936Y-59407397D01*
X33005759Y-59503901D01*
X32838067Y-59564291D01*
X32774542Y-59606694D01*
X32710287Y-59687285D01*
X32650396Y-59808910D01*
X32594744Y-59976580D01*
X32543205Y-60195303D01*
X32495653Y-60470089D01*
X32451963Y-60805947D01*
X32412008Y-61207888D01*
X32375663Y-61680921D01*
X32342803Y-62230055D01*
X32313301Y-62860301D01*
X32287033Y-63576666D01*
X32263871Y-64384162D01*
X32243691Y-65287798D01*
X32226366Y-66292583D01*
X32211771Y-67403527D01*
X32199781Y-68625639D01*
X32190269Y-69963929D01*
X32183110Y-71423407D01*
X32178178Y-73009082D01*
X32175347Y-74725964D01*
X32174492Y-76579062D01*
X29754270Y-76579062D01*
X29760183Y-75934488D01*
X29779935Y-73960435D01*
X29800095Y-72135595D01*
X29820852Y-70454169D01*
X29842396Y-68910356D01*
X29864915Y-67498355D01*
X29888600Y-66212366D01*
X29913639Y-65046587D01*
X29940220Y-63995218D01*
X29968535Y-63052459D01*
X29998771Y-62212508D01*
X30031117Y-61469566D01*
X30065764Y-60817831D01*
X30102899Y-60251502D01*
X30142713Y-59764779D01*
X30185395Y-59351862D01*
X30231133Y-59006949D01*
X30280117Y-58724239D01*
X30332535Y-58497933D01*
X30388578Y-58322230D01*
X30398049Y-58300203D01*
X30532811Y-58118615D01*
X30730054Y-57957843D01*
X30736200Y-57954127D01*
X31031740Y-57806850D01*
X31471748Y-57630363D01*
X32043150Y-57428100D01*
X32732872Y-57203493D01*
X33527841Y-56959975D01*
X34414984Y-56700978D01*
X35381227Y-56429937D01*
X36413496Y-56150283D01*
X37498719Y-55865449D01*
X38623821Y-55578869D01*
X39775729Y-55293974D01*
X40941370Y-55014198D01*
X42107670Y-54742974D01*
X43261555Y-54483734D01*
X44389953Y-54239912D01*
X45479790Y-54014940D01*
X46517992Y-53812251D01*
X47028023Y-53716619D01*
X50260501Y-53144049D01*
X53484939Y-52632180D01*
X56724725Y-52178348D01*
X60003250Y-51779889D01*
X63343905Y-51434142D01*
X66770078Y-51138444D01*
X70305160Y-50890130D01*
X73972540Y-50686539D01*
X74428661Y-50667851D01*
X75119940Y-50647632D01*
X75935495Y-50630479D01*
X76854930Y-50616393D01*
X77857852Y-50605373D01*
X78923867Y-50597420D01*
X80032582Y-50592533D01*
X81163601Y-50590712D01*
X82296531Y-50591958D01*
X83410979Y-50596271D01*
X84486550Y-50603649D01*
X85502849Y-50614094D01*
X86439484Y-50627606D01*
X87276061Y-50644184D01*
X87992184Y-50663828D01*
X88567461Y-50686539D01*
X89153259Y-50715667D01*
X92798310Y-50926108D01*
X96314735Y-51181688D01*
X99725926Y-51485072D01*
X103055272Y-51838923D01*
X106326164Y-52245903D01*
X109561991Y-52708676D01*
X112786142Y-53229904D01*
X116022009Y-53812251D01*
X116050620Y-53817660D01*
X117090466Y-54021029D01*
X118181576Y-54246583D01*
X119310877Y-54490890D01*
X120465295Y-54750516D01*
X121631756Y-55022030D01*
X122797188Y-55301998D01*
X123948516Y-55586988D01*
X125072667Y-55873566D01*
X126156568Y-56158300D01*
X127187146Y-56437758D01*
X128151325Y-56708505D01*
X129036035Y-56967109D01*
X129828199Y-57210139D01*
X130514747Y-57434159D01*
X131082603Y-57635739D01*
X131518694Y-57811444D01*
X131809947Y-57957843D01*
X131837810Y-57975655D01*
X132030868Y-58143882D01*
X132151423Y-58322230D01*
X132155947Y-58334296D01*
X132211699Y-58513753D01*
X132263842Y-58744266D01*
X132312565Y-59031636D01*
X132358057Y-59381665D01*
X132400507Y-59800153D01*
X132440104Y-60292899D01*
X132477038Y-60865706D01*
X132511498Y-61524374D01*
X132543672Y-62274703D01*
X132573751Y-63122495D01*
X132601923Y-64073549D01*
X132628377Y-65133667D01*
X132653302Y-66308650D01*
X132676889Y-67604297D01*
X132699325Y-69026410D01*
X132720801Y-70580789D01*
X132741504Y-72273236D01*
X132761625Y-74109550D01*
X132781353Y-76095532D01*
X132787056Y-76721093D01*
X132800876Y-78236984D01*
G37*
%TO.C,REF\u002A\u002A*%
D10*
X72150000Y-54130000D02*
X72150000Y-60545000D01*
X72150000Y-79090000D02*
X72150000Y-79870000D01*
X72150000Y-79870000D02*
X73150000Y-79870000D01*
X90390000Y-54130000D02*
X72150000Y-54130000D01*
X90390000Y-54130000D02*
X90390000Y-60290000D01*
X90390000Y-79090000D02*
X90390000Y-79870000D01*
X90390000Y-79870000D02*
X89390000Y-79870000D01*
X90895000Y-61015000D02*
X90395000Y-61015000D01*
X90395000Y-60515000D01*
X90895000Y-61015000D01*
G36*
X90895000Y-61015000D02*
G01*
X90395000Y-61015000D01*
X90395000Y-60515000D01*
X90895000Y-61015000D01*
G37*
%TO.C,LED*%
X79670000Y-143340000D02*
X79670000Y-145340000D01*
X79670000Y-143340000D02*
X82870000Y-143340000D01*
X79970000Y-145640000D02*
X79670000Y-145340000D01*
X79970000Y-145640000D02*
X82870000Y-145640000D01*
X82870000Y-145640000D02*
X82870000Y-143340000D01*
D11*
%TO.C,G\u002A\u002A\u002A*%
G36*
X76119323Y-162696071D02*
G01*
X76330726Y-162907475D01*
X76263512Y-162907475D01*
X76196297Y-162907475D01*
X75986873Y-162698037D01*
X75777449Y-162488600D01*
X75842684Y-162486634D01*
X75907919Y-162484667D01*
X76119323Y-162696071D01*
G37*
G36*
X75631195Y-162701702D02*
G01*
X75831454Y-162902369D01*
X75761501Y-162900544D01*
X75691547Y-162898719D01*
X75496058Y-162703523D01*
X75300569Y-162508328D01*
X75317745Y-162506571D01*
X75322929Y-162506121D01*
X75334420Y-162505337D01*
X75349149Y-162504493D01*
X75365768Y-162503664D01*
X75382929Y-162502925D01*
X75430936Y-162501035D01*
X75631195Y-162701702D01*
G37*
G36*
X75875785Y-162699729D02*
G01*
X76083836Y-162908098D01*
X76070422Y-162906415D01*
X76069806Y-162906344D01*
X76062289Y-162905833D01*
X76050514Y-162905390D01*
X76035569Y-162905042D01*
X76018540Y-162904813D01*
X76000512Y-162904731D01*
X75944015Y-162904731D01*
X75740241Y-162701043D01*
X75536467Y-162497355D01*
X75560513Y-162495573D01*
X75562750Y-162495415D01*
X75575558Y-162494654D01*
X75591613Y-162493872D01*
X75609086Y-162493151D01*
X75626147Y-162492576D01*
X75667734Y-162491360D01*
X75875785Y-162699729D01*
G37*
G36*
X76610267Y-162690478D02*
G01*
X76625198Y-162705415D01*
X76657917Y-162738182D01*
X76686973Y-162767343D01*
X76712536Y-162793072D01*
X76734774Y-162815542D01*
X76753857Y-162834930D01*
X76769955Y-162851410D01*
X76783237Y-162865156D01*
X76793871Y-162876344D01*
X76802028Y-162885148D01*
X76807876Y-162891743D01*
X76811585Y-162896303D01*
X76813324Y-162899004D01*
X76813262Y-162900020D01*
X76811974Y-162900205D01*
X76805569Y-162900599D01*
X76794939Y-162900963D01*
X76780947Y-162901278D01*
X76764456Y-162901520D01*
X76746331Y-162901670D01*
X76684600Y-162901988D01*
X76474753Y-162692128D01*
X76264906Y-162482267D01*
X76333488Y-162482267D01*
X76402070Y-162482267D01*
X76610267Y-162690478D01*
G37*
G36*
X75141520Y-162706174D02*
G01*
X75171521Y-162736158D01*
X75202513Y-162767240D01*
X75229620Y-162794556D01*
X75252871Y-162818135D01*
X75272293Y-162838006D01*
X75287916Y-162854199D01*
X75299767Y-162866742D01*
X75307875Y-162875664D01*
X75312268Y-162880996D01*
X75312975Y-162882766D01*
X75310547Y-162882681D01*
X75302996Y-162882300D01*
X75291371Y-162881653D01*
X75276495Y-162880789D01*
X75259190Y-162879755D01*
X75240278Y-162878597D01*
X75173068Y-162874437D01*
X75006386Y-162707842D01*
X74839705Y-162541247D01*
X74859621Y-162539265D01*
X74862487Y-162538983D01*
X74874012Y-162537877D01*
X74888853Y-162536483D01*
X74905403Y-162534950D01*
X74922058Y-162533429D01*
X74964579Y-162529575D01*
X75141520Y-162706174D01*
G37*
G36*
X74650442Y-162711578D02*
G01*
X74780779Y-162842187D01*
X74768435Y-162840646D01*
X74765745Y-162840318D01*
X74756995Y-162839279D01*
X74744254Y-162837786D01*
X74728476Y-162835951D01*
X74710614Y-162833884D01*
X74691623Y-162831696D01*
X74627156Y-162824288D01*
X74516785Y-162714406D01*
X74501361Y-162699014D01*
X74482016Y-162679596D01*
X74464201Y-162661588D01*
X74448255Y-162645339D01*
X74434517Y-162631199D01*
X74423326Y-162619517D01*
X74415021Y-162610643D01*
X74409941Y-162604925D01*
X74408425Y-162602714D01*
X74410157Y-162602035D01*
X74416851Y-162600348D01*
X74427924Y-162597960D01*
X74442759Y-162594992D01*
X74460741Y-162591567D01*
X74481252Y-162587806D01*
X74503677Y-162583833D01*
X74520105Y-162580969D01*
X74650442Y-162711578D01*
G37*
G36*
X76366304Y-162693410D02*
G01*
X76577434Y-162904553D01*
X76543239Y-162905421D01*
X76532423Y-162905686D01*
X76513053Y-162906128D01*
X76493314Y-162906548D01*
X76476131Y-162906882D01*
X76443218Y-162907475D01*
X76232665Y-162696935D01*
X76229845Y-162694114D01*
X76201701Y-162665950D01*
X76174694Y-162638887D01*
X76149074Y-162613178D01*
X76125091Y-162589076D01*
X76102995Y-162566832D01*
X76083034Y-162546698D01*
X76065459Y-162528926D01*
X76050520Y-162513770D01*
X76038466Y-162501479D01*
X76029547Y-162492308D01*
X76024012Y-162486508D01*
X76022112Y-162484331D01*
X76023495Y-162483913D01*
X76029612Y-162483382D01*
X76039931Y-162482929D01*
X76053706Y-162482576D01*
X76070192Y-162482348D01*
X76088643Y-162482267D01*
X76155174Y-162482267D01*
X76366304Y-162693410D01*
G37*
G36*
X77068672Y-162497149D02*
G01*
X77077446Y-162497480D01*
X77095561Y-162498225D01*
X77113119Y-162499018D01*
X77128479Y-162499783D01*
X77139997Y-162500445D01*
X77164687Y-162502041D01*
X77345638Y-162682688D01*
X77351400Y-162688443D01*
X77377297Y-162714337D01*
X77401977Y-162739070D01*
X77425172Y-162762370D01*
X77446615Y-162783966D01*
X77466039Y-162803589D01*
X77483177Y-162820967D01*
X77497762Y-162835828D01*
X77509526Y-162847904D01*
X77518202Y-162856922D01*
X77523523Y-162862611D01*
X77525223Y-162864702D01*
X77522269Y-162865322D01*
X77514704Y-162866254D01*
X77503417Y-162867400D01*
X77489290Y-162868670D01*
X77473206Y-162869977D01*
X77458294Y-162871106D01*
X77442311Y-162872268D01*
X77428454Y-162873226D01*
X77417837Y-162873902D01*
X77411574Y-162874220D01*
X77400594Y-162874555D01*
X77211315Y-162685002D01*
X77022037Y-162495450D01*
X77068672Y-162497149D01*
G37*
G36*
X74405718Y-162713480D02*
G01*
X74422356Y-162730151D01*
X74439356Y-162747256D01*
X74454703Y-162762774D01*
X74468024Y-162776324D01*
X74478946Y-162787525D01*
X74487098Y-162795996D01*
X74492106Y-162801358D01*
X74493599Y-162803230D01*
X74492909Y-162803213D01*
X74485925Y-162802415D01*
X74474750Y-162800563D01*
X74460254Y-162797849D01*
X74443308Y-162794463D01*
X74424783Y-162790596D01*
X74405549Y-162786438D01*
X74386478Y-162782181D01*
X74368439Y-162778015D01*
X74352303Y-162774131D01*
X74338942Y-162770720D01*
X74329225Y-162767972D01*
X74324024Y-162766078D01*
X74321339Y-162764093D01*
X74314964Y-162758514D01*
X74305832Y-162750045D01*
X74294551Y-162739260D01*
X74281728Y-162726734D01*
X74267969Y-162713041D01*
X74218772Y-162663631D01*
X74244380Y-162651167D01*
X74249360Y-162648804D01*
X74264335Y-162642198D01*
X74279758Y-162635973D01*
X74292977Y-162631217D01*
X74315968Y-162623730D01*
X74405718Y-162713480D01*
G37*
G36*
X74733553Y-162552533D02*
G01*
X74737468Y-162555427D01*
X74745092Y-162562148D01*
X74756339Y-162572610D01*
X74771120Y-162586729D01*
X74789348Y-162604421D01*
X74810935Y-162625599D01*
X74835794Y-162650179D01*
X74863838Y-162678077D01*
X74894978Y-162709208D01*
X75052364Y-162866880D01*
X75040019Y-162865374D01*
X75038338Y-162865185D01*
X75030269Y-162864403D01*
X75018085Y-162863323D01*
X75002786Y-162862031D01*
X74985375Y-162860611D01*
X74966852Y-162859150D01*
X74906029Y-162854431D01*
X74762613Y-162710995D01*
X74735956Y-162684278D01*
X74709365Y-162657489D01*
X74686196Y-162633986D01*
X74666524Y-162613847D01*
X74650421Y-162597147D01*
X74637961Y-162583963D01*
X74629218Y-162574370D01*
X74624265Y-162568446D01*
X74623176Y-162566267D01*
X74626875Y-162565585D01*
X74635157Y-162564401D01*
X74647047Y-162562852D01*
X74661610Y-162561057D01*
X74677907Y-162559140D01*
X74693682Y-162557309D01*
X74708403Y-162555564D01*
X74720515Y-162554091D01*
X74729072Y-162553005D01*
X74733125Y-162552421D01*
X74733553Y-162552533D01*
G37*
G36*
X77826653Y-162551027D02*
G01*
X77835062Y-162551867D01*
X77847415Y-162553213D01*
X77862929Y-162554977D01*
X77880819Y-162557072D01*
X77900302Y-162559409D01*
X77972044Y-162568116D01*
X78079697Y-162675795D01*
X78187350Y-162783474D01*
X78171180Y-162786859D01*
X78169409Y-162787225D01*
X78159562Y-162789192D01*
X78146234Y-162791783D01*
X78130949Y-162794703D01*
X78115232Y-162797659D01*
X78109194Y-162798752D01*
X78095384Y-162800994D01*
X78083764Y-162802527D01*
X78075395Y-162803221D01*
X78071340Y-162802950D01*
X78070953Y-162802667D01*
X78067258Y-162799308D01*
X78060131Y-162792491D01*
X78049907Y-162782548D01*
X78036925Y-162769810D01*
X78021520Y-162754611D01*
X78004030Y-162737282D01*
X77984792Y-162718155D01*
X77964142Y-162697563D01*
X77942417Y-162675837D01*
X77924693Y-162658060D01*
X77899122Y-162632294D01*
X77877377Y-162610214D01*
X77859384Y-162591742D01*
X77845068Y-162576801D01*
X77834354Y-162565311D01*
X77827168Y-162557195D01*
X77823437Y-162552376D01*
X77823085Y-162550776D01*
X77826653Y-162551027D01*
G37*
G36*
X77566757Y-162526889D02*
G01*
X77578737Y-162527559D01*
X77593875Y-162528590D01*
X77611265Y-162529923D01*
X77629999Y-162531499D01*
X77694116Y-162537128D01*
X77834611Y-162677604D01*
X77855039Y-162698056D01*
X77876935Y-162720040D01*
X77897362Y-162740616D01*
X77916019Y-162759475D01*
X77932603Y-162776309D01*
X77946811Y-162790812D01*
X77958342Y-162802675D01*
X77966892Y-162811590D01*
X77972159Y-162817249D01*
X77973842Y-162819345D01*
X77973347Y-162819529D01*
X77968594Y-162820449D01*
X77959500Y-162821879D01*
X77946876Y-162823701D01*
X77931534Y-162825795D01*
X77914285Y-162828045D01*
X77855993Y-162835480D01*
X77701641Y-162681506D01*
X77696900Y-162676776D01*
X77669417Y-162649353D01*
X77645547Y-162625509D01*
X77625054Y-162604994D01*
X77607701Y-162587556D01*
X77593253Y-162572941D01*
X77581474Y-162560899D01*
X77572127Y-162551177D01*
X77564976Y-162543524D01*
X77559786Y-162537687D01*
X77556319Y-162533415D01*
X77554341Y-162530455D01*
X77553615Y-162528555D01*
X77553904Y-162527464D01*
X77554973Y-162526930D01*
X77556586Y-162526700D01*
X77558844Y-162526640D01*
X77566757Y-162526889D01*
G37*
G36*
X76565154Y-162483601D02*
G01*
X76583798Y-162483976D01*
X76651694Y-162485624D01*
X76854011Y-162687627D01*
X76877743Y-162711336D01*
X76904487Y-162738088D01*
X76929894Y-162763538D01*
X76953710Y-162787430D01*
X76975678Y-162809507D01*
X76995545Y-162829511D01*
X77013055Y-162847186D01*
X77027953Y-162862273D01*
X77039984Y-162874517D01*
X77048894Y-162883660D01*
X77054427Y-162889445D01*
X77056328Y-162891614D01*
X77056185Y-162891794D01*
X77052493Y-162892589D01*
X77044556Y-162893349D01*
X77033382Y-162893996D01*
X77019979Y-162894451D01*
X77005765Y-162894780D01*
X76987331Y-162895196D01*
X76969548Y-162895588D01*
X76954833Y-162895903D01*
X76926035Y-162896502D01*
X76720969Y-162691449D01*
X76694757Y-162665221D01*
X76667933Y-162638346D01*
X76642462Y-162612792D01*
X76618599Y-162588812D01*
X76596596Y-162566664D01*
X76576705Y-162546603D01*
X76559181Y-162528883D01*
X76544275Y-162513762D01*
X76532241Y-162501493D01*
X76523333Y-162492333D01*
X76517802Y-162486537D01*
X76515902Y-162484361D01*
X76517519Y-162483960D01*
X76523911Y-162483600D01*
X76534473Y-162483418D01*
X76548466Y-162483417D01*
X76565154Y-162483601D01*
G37*
G36*
X76834122Y-162489133D02*
G01*
X76904076Y-162490959D01*
X77098052Y-162684697D01*
X77114827Y-162701462D01*
X77141216Y-162727882D01*
X77166296Y-162753048D01*
X77189809Y-162776698D01*
X77211497Y-162798570D01*
X77231102Y-162818402D01*
X77248367Y-162835934D01*
X77263032Y-162850904D01*
X77274841Y-162863049D01*
X77283536Y-162872109D01*
X77288857Y-162877821D01*
X77290548Y-162879924D01*
X77290428Y-162879994D01*
X77286654Y-162880630D01*
X77278378Y-162881459D01*
X77266457Y-162882413D01*
X77251748Y-162883422D01*
X77235108Y-162884416D01*
X77233889Y-162884484D01*
X77216758Y-162885435D01*
X77201097Y-162886303D01*
X77187908Y-162887030D01*
X77178194Y-162887563D01*
X77172956Y-162887845D01*
X77171807Y-162887749D01*
X77169817Y-162887038D01*
X77167113Y-162885460D01*
X77163469Y-162882800D01*
X77158660Y-162878841D01*
X77152461Y-162873368D01*
X77144647Y-162866164D01*
X77134992Y-162857013D01*
X77123271Y-162845699D01*
X77109259Y-162832006D01*
X77092731Y-162815719D01*
X77073462Y-162796620D01*
X77051226Y-162774493D01*
X77025799Y-162749123D01*
X76996954Y-162720294D01*
X76964467Y-162687789D01*
X76764169Y-162487307D01*
X76834122Y-162489133D01*
G37*
G36*
X75196386Y-162515404D02*
G01*
X75196976Y-162515879D01*
X75201010Y-162519652D01*
X75208530Y-162526932D01*
X75219265Y-162537450D01*
X75232944Y-162550937D01*
X75249298Y-162567126D01*
X75268055Y-162585747D01*
X75288945Y-162606532D01*
X75311696Y-162629213D01*
X75336039Y-162653520D01*
X75361702Y-162679185D01*
X75388415Y-162705940D01*
X75576330Y-162894285D01*
X75524207Y-162892593D01*
X75508935Y-162892059D01*
X75491234Y-162891352D01*
X75475065Y-162890616D01*
X75461744Y-162889912D01*
X75452589Y-162889301D01*
X75433093Y-162887701D01*
X75251076Y-162705669D01*
X75244288Y-162698878D01*
X75218363Y-162672914D01*
X75193662Y-162648126D01*
X75170451Y-162624784D01*
X75148994Y-162603157D01*
X75129559Y-162583517D01*
X75112413Y-162566131D01*
X75097820Y-162551270D01*
X75086047Y-162539205D01*
X75077361Y-162530203D01*
X75072028Y-162524537D01*
X75070313Y-162522474D01*
X75070789Y-162522264D01*
X75075572Y-162521473D01*
X75084576Y-162520554D01*
X75096835Y-162519559D01*
X75111385Y-162518544D01*
X75127262Y-162517563D01*
X75143502Y-162516669D01*
X75159139Y-162515916D01*
X75173211Y-162515360D01*
X75184752Y-162515053D01*
X75192798Y-162515049D01*
X75196386Y-162515404D01*
G37*
G36*
X78115619Y-162591664D02*
G01*
X78126077Y-162593446D01*
X78139571Y-162596004D01*
X78155266Y-162599164D01*
X78172322Y-162602755D01*
X78189903Y-162606601D01*
X78207170Y-162610529D01*
X78223286Y-162614366D01*
X78237413Y-162617938D01*
X78241800Y-162619089D01*
X78254805Y-162622457D01*
X78265554Y-162625179D01*
X78273030Y-162626998D01*
X78276220Y-162627661D01*
X78276878Y-162628034D01*
X78280822Y-162631403D01*
X78287616Y-162637726D01*
X78296580Y-162646325D01*
X78307035Y-162656523D01*
X78318301Y-162667645D01*
X78329699Y-162679014D01*
X78340548Y-162689953D01*
X78350170Y-162699787D01*
X78357884Y-162707838D01*
X78363011Y-162713430D01*
X78364871Y-162715888D01*
X78363498Y-162718272D01*
X78357899Y-162722882D01*
X78348834Y-162728651D01*
X78337219Y-162735048D01*
X78323970Y-162741544D01*
X78310005Y-162747610D01*
X78299727Y-162751666D01*
X78289122Y-162755613D01*
X78281167Y-162758301D01*
X78277069Y-162759302D01*
X78277001Y-162759293D01*
X78274118Y-162757191D01*
X78267955Y-162751739D01*
X78258995Y-162743413D01*
X78247719Y-162732692D01*
X78234608Y-162720052D01*
X78220146Y-162705972D01*
X78204813Y-162690928D01*
X78189092Y-162675397D01*
X78173464Y-162659858D01*
X78158410Y-162644788D01*
X78144414Y-162630663D01*
X78131956Y-162617962D01*
X78121519Y-162607162D01*
X78113584Y-162598739D01*
X78108633Y-162593172D01*
X78107147Y-162590939D01*
X78109037Y-162590834D01*
X78115619Y-162591664D01*
G37*
G36*
X77300479Y-162508129D02*
G01*
X77306097Y-162508539D01*
X77318623Y-162509387D01*
X77334262Y-162510394D01*
X77351559Y-162511468D01*
X77369061Y-162512514D01*
X77382008Y-162513304D01*
X77396811Y-162514293D01*
X77409180Y-162515214D01*
X77418100Y-162515990D01*
X77422555Y-162516545D01*
X77423312Y-162517034D01*
X77427578Y-162520746D01*
X77435160Y-162527811D01*
X77445715Y-162537884D01*
X77458898Y-162550625D01*
X77474364Y-162565689D01*
X77491770Y-162582735D01*
X77510771Y-162601420D01*
X77531023Y-162621401D01*
X77552180Y-162642336D01*
X77573900Y-162663881D01*
X77595837Y-162685694D01*
X77617647Y-162707433D01*
X77638985Y-162728755D01*
X77659508Y-162749317D01*
X77678871Y-162768776D01*
X77696729Y-162786790D01*
X77712739Y-162803017D01*
X77726555Y-162817113D01*
X77737834Y-162828736D01*
X77746231Y-162837543D01*
X77751401Y-162843192D01*
X77753001Y-162845340D01*
X77752719Y-162845452D01*
X77748453Y-162846176D01*
X77739769Y-162847286D01*
X77727498Y-162848688D01*
X77712468Y-162850284D01*
X77695511Y-162851979D01*
X77691454Y-162852373D01*
X77674588Y-162854005D01*
X77659639Y-162855446D01*
X77647492Y-162856609D01*
X77639034Y-162857412D01*
X77635151Y-162857767D01*
X77635120Y-162857765D01*
X77632455Y-162855750D01*
X77626217Y-162850127D01*
X77616684Y-162841171D01*
X77604138Y-162829154D01*
X77588858Y-162814350D01*
X77571125Y-162797033D01*
X77551219Y-162777477D01*
X77529420Y-162755954D01*
X77506008Y-162732739D01*
X77481263Y-162708105D01*
X77455466Y-162682325D01*
X77279905Y-162506554D01*
X77300479Y-162508129D01*
G37*
G36*
X75157693Y-159774727D02*
G01*
X75160515Y-159777373D01*
X75166970Y-159783660D01*
X75176853Y-159793386D01*
X75189961Y-159806347D01*
X75206092Y-159822340D01*
X75225042Y-159841162D01*
X75246608Y-159862610D01*
X75270587Y-159886480D01*
X75296776Y-159912570D01*
X75324971Y-159940676D01*
X75354970Y-159970595D01*
X75386569Y-160002125D01*
X75419566Y-160035061D01*
X75453757Y-160069201D01*
X75488938Y-160104342D01*
X75524908Y-160140280D01*
X75561462Y-160176812D01*
X75598398Y-160213736D01*
X75635512Y-160250847D01*
X75672601Y-160287944D01*
X75709463Y-160324822D01*
X75745894Y-160361279D01*
X75781690Y-160397112D01*
X75816649Y-160432116D01*
X75850568Y-160466090D01*
X75883244Y-160498830D01*
X75914472Y-160530133D01*
X75944051Y-160559795D01*
X75971777Y-160587614D01*
X75997447Y-160613387D01*
X76020858Y-160636910D01*
X76041806Y-160657980D01*
X76060089Y-160676394D01*
X76075503Y-160691949D01*
X76087845Y-160704442D01*
X76096913Y-160713669D01*
X76102502Y-160719427D01*
X76104410Y-160721514D01*
X76102636Y-160721803D01*
X76096923Y-160720763D01*
X76088637Y-160718500D01*
X76072243Y-160713054D01*
X76036506Y-160698556D01*
X75998072Y-160679679D01*
X75957165Y-160656554D01*
X75914010Y-160629310D01*
X75868831Y-160598080D01*
X75821853Y-160562993D01*
X75815891Y-160558345D01*
X75807480Y-160551632D01*
X75799008Y-160544640D01*
X75790158Y-160537067D01*
X75780613Y-160528612D01*
X75770056Y-160518976D01*
X75758168Y-160507857D01*
X75744632Y-160494954D01*
X75729131Y-160479967D01*
X75711347Y-160462595D01*
X75690964Y-160442536D01*
X75667662Y-160419491D01*
X75641126Y-160393159D01*
X75611037Y-160363237D01*
X75589027Y-160341322D01*
X75559429Y-160311802D01*
X75533140Y-160285492D01*
X75509799Y-160262014D01*
X75489046Y-160240988D01*
X75470521Y-160222032D01*
X75453864Y-160204768D01*
X75438715Y-160188814D01*
X75424714Y-160173790D01*
X75411502Y-160159317D01*
X75398718Y-160145014D01*
X75386002Y-160130501D01*
X75372995Y-160115398D01*
X75359336Y-160099324D01*
X75344665Y-160081900D01*
X75328824Y-160062965D01*
X75304096Y-160033102D01*
X75282597Y-160006670D01*
X75264033Y-159983274D01*
X75248107Y-159962518D01*
X75234526Y-159944005D01*
X75222994Y-159927338D01*
X75213216Y-159912123D01*
X75204898Y-159897961D01*
X75197745Y-159884458D01*
X75194761Y-159878299D01*
X75188954Y-159865408D01*
X75182858Y-159850922D01*
X75176775Y-159835672D01*
X75171010Y-159820489D01*
X75165866Y-159806204D01*
X75161647Y-159793646D01*
X75158658Y-159783648D01*
X75157202Y-159777040D01*
X75157583Y-159774653D01*
X75157693Y-159774727D01*
G37*
G36*
X87724661Y-157525169D02*
G01*
X87764152Y-157525215D01*
X87802920Y-157525314D01*
X87840489Y-157525463D01*
X87876381Y-157525658D01*
X87910121Y-157525893D01*
X87941233Y-157526166D01*
X87969240Y-157526472D01*
X87993665Y-157526807D01*
X88014033Y-157527168D01*
X88029868Y-157527549D01*
X88040691Y-157527948D01*
X88081857Y-157530275D01*
X88200498Y-157540238D01*
X88316764Y-157554956D01*
X88431046Y-157574503D01*
X88543735Y-157598952D01*
X88655221Y-157628374D01*
X88765895Y-157662842D01*
X88832147Y-157686080D01*
X88939471Y-157728080D01*
X89045417Y-157774918D01*
X89149389Y-157826293D01*
X89250791Y-157881905D01*
X89349029Y-157941453D01*
X89443505Y-158004636D01*
X89507442Y-158050941D01*
X89602549Y-158125285D01*
X89693787Y-158203373D01*
X89781073Y-158285062D01*
X89864325Y-158370206D01*
X89943459Y-158458663D01*
X90018392Y-158550286D01*
X90089040Y-158644933D01*
X90155322Y-158742458D01*
X90217153Y-158842718D01*
X90274450Y-158945567D01*
X90327130Y-159050862D01*
X90375110Y-159158459D01*
X90418307Y-159268212D01*
X90456637Y-159379977D01*
X90490018Y-159493611D01*
X90518366Y-159608968D01*
X90541598Y-159725905D01*
X90559631Y-159844276D01*
X90572382Y-159963939D01*
X90572847Y-159969573D01*
X90576142Y-160014979D01*
X90578589Y-160059566D01*
X90580117Y-160101811D01*
X90580656Y-160140194D01*
X90580682Y-160188887D01*
X90143130Y-160188887D01*
X89705577Y-160188887D01*
X89705517Y-160179972D01*
X89705331Y-160170256D01*
X89704758Y-160153958D01*
X89703870Y-160134325D01*
X89702738Y-160112550D01*
X89701430Y-160089827D01*
X89700016Y-160067349D01*
X89698566Y-160046309D01*
X89697148Y-160027901D01*
X89695833Y-160013318D01*
X89683574Y-159917303D01*
X89665769Y-159819789D01*
X89642757Y-159723896D01*
X89614574Y-159629736D01*
X89581256Y-159537419D01*
X89542842Y-159447055D01*
X89499366Y-159358757D01*
X89450866Y-159272633D01*
X89428169Y-159235904D01*
X89388131Y-159175650D01*
X89345496Y-159116628D01*
X89301071Y-159059892D01*
X89255662Y-159006497D01*
X89210074Y-158957498D01*
X89170855Y-158917379D01*
X89170746Y-160897339D01*
X89170638Y-162877299D01*
X88731714Y-162877299D01*
X88292789Y-162877299D01*
X88292789Y-160659663D01*
X88292789Y-158442027D01*
X88253698Y-158434614D01*
X88231211Y-158430441D01*
X88205349Y-158425911D01*
X88180141Y-158421846D01*
X88155177Y-158418222D01*
X88130047Y-158415014D01*
X88104343Y-158412199D01*
X88077656Y-158409753D01*
X88049575Y-158407652D01*
X88019692Y-158405872D01*
X87987597Y-158404390D01*
X87952882Y-158403180D01*
X87915137Y-158402220D01*
X87873952Y-158401486D01*
X87828919Y-158400953D01*
X87779628Y-158400598D01*
X87725671Y-158400396D01*
X87666636Y-158400325D01*
X87439630Y-158400271D01*
X87439630Y-157962718D01*
X87439630Y-157525166D01*
X87712184Y-157525166D01*
X87724661Y-157525169D01*
G37*
G36*
X84282804Y-157525204D02*
G01*
X84294110Y-157525318D01*
X84311355Y-157525698D01*
X84331061Y-157526296D01*
X84351583Y-157527061D01*
X84371275Y-157527942D01*
X84383430Y-157528565D01*
X84505956Y-157537751D01*
X84626703Y-157552124D01*
X84745684Y-157571690D01*
X84862914Y-157596452D01*
X84978409Y-157626414D01*
X85092182Y-157661579D01*
X85204249Y-157701951D01*
X85314624Y-157747534D01*
X85423322Y-157798332D01*
X85517101Y-157846801D01*
X85613518Y-157901346D01*
X85706012Y-157958857D01*
X85795160Y-158019750D01*
X85881543Y-158084441D01*
X85965739Y-158153345D01*
X86048328Y-158226878D01*
X86129887Y-158305456D01*
X86161842Y-158337809D01*
X86209606Y-158387922D01*
X86254094Y-158436978D01*
X86296211Y-158486015D01*
X86336865Y-158536072D01*
X86376963Y-158588185D01*
X86384662Y-158598500D01*
X86454904Y-158697609D01*
X86520320Y-158799274D01*
X86580862Y-158903380D01*
X86636482Y-159009813D01*
X86687133Y-159118456D01*
X86732766Y-159229196D01*
X86773335Y-159341917D01*
X86808792Y-159456504D01*
X86839088Y-159572843D01*
X86864177Y-159690818D01*
X86884010Y-159810315D01*
X86884784Y-159815807D01*
X86888748Y-159846133D01*
X86892852Y-159881003D01*
X86897012Y-159919638D01*
X86901142Y-159961260D01*
X86905159Y-160005088D01*
X86905355Y-160008091D01*
X86905607Y-160014438D01*
X86905847Y-160023565D01*
X86906078Y-160035576D01*
X86906299Y-160050574D01*
X86906510Y-160068666D01*
X86906712Y-160089953D01*
X86906906Y-160114541D01*
X86907090Y-160142533D01*
X86907266Y-160174035D01*
X86907434Y-160209149D01*
X86907594Y-160247979D01*
X86907747Y-160290631D01*
X86907893Y-160337208D01*
X86908031Y-160387814D01*
X86908164Y-160442553D01*
X86908290Y-160501530D01*
X86908410Y-160564848D01*
X86908524Y-160632611D01*
X86908633Y-160704925D01*
X86908737Y-160781892D01*
X86908836Y-160863617D01*
X86908930Y-160950203D01*
X86909021Y-161041756D01*
X86909107Y-161138379D01*
X86909191Y-161240177D01*
X86909270Y-161347252D01*
X86909347Y-161459710D01*
X86910275Y-162877299D01*
X86472674Y-162877299D01*
X86035073Y-162877299D01*
X86035073Y-161751184D01*
X86035073Y-160625068D01*
X84736131Y-160625068D01*
X83437189Y-160625068D01*
X83437189Y-161751192D01*
X83437189Y-162877315D01*
X82998951Y-162876621D01*
X82560712Y-162875927D01*
X82560025Y-160583233D01*
X82559338Y-158290540D01*
X82998263Y-158290540D01*
X83437189Y-158290540D01*
X83437189Y-159018880D01*
X83437189Y-159747220D01*
X84705955Y-159747220D01*
X84729954Y-159747220D01*
X84830403Y-159747217D01*
X84925531Y-159747209D01*
X85015472Y-159747196D01*
X85100362Y-159747178D01*
X85180334Y-159747155D01*
X85255522Y-159747125D01*
X85326062Y-159747089D01*
X85392088Y-159747046D01*
X85453734Y-159746996D01*
X85511135Y-159746938D01*
X85564425Y-159746872D01*
X85613738Y-159746797D01*
X85659210Y-159746714D01*
X85700974Y-159746622D01*
X85739166Y-159746520D01*
X85773919Y-159746408D01*
X85805368Y-159746286D01*
X85833647Y-159746153D01*
X85858891Y-159746009D01*
X85881235Y-159745853D01*
X85900812Y-159745686D01*
X85917758Y-159745506D01*
X85932207Y-159745314D01*
X85944293Y-159745108D01*
X85954150Y-159744890D01*
X85961914Y-159744657D01*
X85967719Y-159744410D01*
X85971698Y-159744149D01*
X85973987Y-159743872D01*
X85974720Y-159743581D01*
X85974188Y-159740402D01*
X85972417Y-159732845D01*
X85969698Y-159722295D01*
X85966338Y-159709976D01*
X85958126Y-159681517D01*
X85927316Y-159587454D01*
X85891495Y-159495466D01*
X85850765Y-159405755D01*
X85805231Y-159318525D01*
X85754997Y-159233978D01*
X85700166Y-159152317D01*
X85640842Y-159073745D01*
X85589968Y-159012884D01*
X85523076Y-158940395D01*
X85452705Y-158872017D01*
X85379030Y-158807850D01*
X85302225Y-158747994D01*
X85222463Y-158692548D01*
X85139919Y-158641613D01*
X85054768Y-158595287D01*
X84967182Y-158553671D01*
X84877337Y-158516864D01*
X84785405Y-158484966D01*
X84691562Y-158458076D01*
X84595982Y-158436295D01*
X84498837Y-158419722D01*
X84464772Y-158415172D01*
X84413911Y-158409676D01*
X84363742Y-158405970D01*
X84311609Y-158403829D01*
X84249199Y-158402172D01*
X84249199Y-157963669D01*
X84249199Y-157525166D01*
X84282804Y-157525204D01*
G37*
G36*
X70843491Y-157525204D02*
G01*
X70862091Y-157525421D01*
X70887526Y-157526127D01*
X70916071Y-157527260D01*
X70946469Y-157528757D01*
X70977462Y-157530557D01*
X71007794Y-157532596D01*
X71036207Y-157534811D01*
X71041972Y-157535304D01*
X71162082Y-157548437D01*
X71281000Y-157566897D01*
X71398583Y-157590627D01*
X71514690Y-157619570D01*
X71629175Y-157653670D01*
X71741898Y-157692869D01*
X71852713Y-157737111D01*
X71961480Y-157786339D01*
X72068054Y-157840495D01*
X72172293Y-157899523D01*
X72274054Y-157963367D01*
X72373193Y-158031968D01*
X72469569Y-158105271D01*
X72530061Y-158154930D01*
X72619785Y-158234348D01*
X72705613Y-158317475D01*
X72787446Y-158404146D01*
X72865182Y-158494196D01*
X72938721Y-158587461D01*
X73007962Y-158683778D01*
X73072805Y-158782981D01*
X73133149Y-158884906D01*
X73188894Y-158989390D01*
X73239939Y-159096267D01*
X73286184Y-159205373D01*
X73327528Y-159316545D01*
X73363871Y-159429617D01*
X73395112Y-159544426D01*
X73421150Y-159660807D01*
X73423749Y-159673935D01*
X73431257Y-159713580D01*
X73437963Y-159752005D01*
X73443997Y-159790168D01*
X73449489Y-159829026D01*
X73454569Y-159869538D01*
X73459367Y-159912661D01*
X73464014Y-159959354D01*
X73468638Y-160010574D01*
X73468695Y-160011297D01*
X73468950Y-160016379D01*
X73469194Y-160024405D01*
X73469428Y-160035474D01*
X73469653Y-160049682D01*
X73469868Y-160067128D01*
X73470074Y-160087909D01*
X73470271Y-160112123D01*
X73470460Y-160139868D01*
X73470640Y-160171242D01*
X73470812Y-160206342D01*
X73470977Y-160245267D01*
X73471134Y-160288113D01*
X73471283Y-160334980D01*
X73471426Y-160385964D01*
X73471562Y-160441163D01*
X73471692Y-160500676D01*
X73471816Y-160564599D01*
X73471933Y-160633031D01*
X73472046Y-160706070D01*
X73472153Y-160783813D01*
X73472255Y-160866358D01*
X73472352Y-160953803D01*
X73472445Y-161046246D01*
X73472533Y-161143784D01*
X73472618Y-161246515D01*
X73472699Y-161354538D01*
X73472777Y-161467949D01*
X73473710Y-162888289D01*
X73035421Y-162887594D01*
X72597131Y-162886900D01*
X72596442Y-161757356D01*
X72595753Y-160627812D01*
X72184949Y-160627812D01*
X71774146Y-160627812D01*
X70641175Y-161760785D01*
X69508204Y-162893758D01*
X68888223Y-162893758D01*
X68268243Y-162893758D01*
X69415820Y-161746178D01*
X70563398Y-160598598D01*
X70517329Y-160591081D01*
X70466609Y-160582296D01*
X70350463Y-160558281D01*
X70235405Y-160528999D01*
X70121259Y-160494397D01*
X70007850Y-160454425D01*
X69895003Y-160409032D01*
X69892487Y-160407954D01*
X69852047Y-160389943D01*
X69808419Y-160369353D01*
X69762773Y-160346799D01*
X69716280Y-160322893D01*
X69670109Y-160298245D01*
X69625432Y-160273470D01*
X69583417Y-160249180D01*
X69545236Y-160225987D01*
X69492637Y-160192253D01*
X69392341Y-160123086D01*
X69295656Y-160049853D01*
X69202674Y-159972649D01*
X69113488Y-159891567D01*
X69028190Y-159806700D01*
X68946872Y-159718144D01*
X68869627Y-159625992D01*
X68796546Y-159530337D01*
X68727723Y-159431274D01*
X68663250Y-159328897D01*
X68657347Y-159318989D01*
X68598274Y-159213998D01*
X68544178Y-159106746D01*
X68495102Y-158997369D01*
X68451091Y-158886002D01*
X68412187Y-158772780D01*
X68378433Y-158657836D01*
X68349873Y-158541307D01*
X68326550Y-158423327D01*
X68308507Y-158304030D01*
X68295788Y-158183552D01*
X68295441Y-158179267D01*
X68294044Y-158160042D01*
X68292615Y-158137638D01*
X68291205Y-158113134D01*
X68289868Y-158087612D01*
X68288655Y-158062156D01*
X68287618Y-158037845D01*
X68286809Y-158015762D01*
X68286282Y-157996989D01*
X68286088Y-157982607D01*
X68286072Y-157964090D01*
X68724561Y-157964090D01*
X69163051Y-157964090D01*
X69164834Y-158017351D01*
X69166121Y-158048082D01*
X69173770Y-158146881D01*
X69186686Y-158244546D01*
X69204791Y-158340892D01*
X69228009Y-158435733D01*
X69256261Y-158528885D01*
X69289470Y-158620162D01*
X69327559Y-158709379D01*
X69370452Y-158796349D01*
X69418070Y-158880889D01*
X69470336Y-158962813D01*
X69527173Y-159041935D01*
X69588505Y-159118070D01*
X69654252Y-159191032D01*
X69713531Y-159250551D01*
X69787285Y-159317635D01*
X69863958Y-159380121D01*
X69943420Y-159437949D01*
X70025544Y-159491062D01*
X70110203Y-159539399D01*
X70197269Y-159582904D01*
X70286613Y-159621516D01*
X70378109Y-159655177D01*
X70471628Y-159683828D01*
X70567042Y-159707411D01*
X70664224Y-159725866D01*
X70763046Y-159739135D01*
X70863380Y-159747159D01*
X70869554Y-159747391D01*
X70881638Y-159747660D01*
X70898484Y-159747915D01*
X70919834Y-159748156D01*
X70945434Y-159748383D01*
X70975025Y-159748595D01*
X71008354Y-159748793D01*
X71045162Y-159748977D01*
X71085195Y-159749146D01*
X71128195Y-159749301D01*
X71173907Y-159749442D01*
X71222074Y-159749569D01*
X71272440Y-159749682D01*
X71324750Y-159749781D01*
X71378746Y-159749865D01*
X71434173Y-159749936D01*
X71490775Y-159749993D01*
X71548295Y-159750035D01*
X71606477Y-159750064D01*
X71665064Y-159750079D01*
X71723802Y-159750080D01*
X71782433Y-159750067D01*
X71840701Y-159750041D01*
X71898350Y-159750000D01*
X71955125Y-159749946D01*
X72010768Y-159749879D01*
X72065023Y-159749797D01*
X72117635Y-159749702D01*
X72168347Y-159749593D01*
X72216903Y-159749471D01*
X72263047Y-159749335D01*
X72306522Y-159749186D01*
X72347073Y-159749023D01*
X72384443Y-159748847D01*
X72418376Y-159748657D01*
X72448616Y-159748454D01*
X72474906Y-159748238D01*
X72496991Y-159748008D01*
X72514614Y-159747765D01*
X72527519Y-159747508D01*
X72535450Y-159747239D01*
X72538151Y-159746956D01*
X72537838Y-159745180D01*
X72536264Y-159738711D01*
X72533591Y-159728554D01*
X72530070Y-159715666D01*
X72525958Y-159701006D01*
X72496707Y-159607856D01*
X72462298Y-159516282D01*
X72423001Y-159426931D01*
X72378958Y-159339996D01*
X72330310Y-159255672D01*
X72277198Y-159174150D01*
X72219764Y-159095624D01*
X72158148Y-159020286D01*
X72092493Y-158948331D01*
X72022939Y-158879951D01*
X71949628Y-158815340D01*
X71872701Y-158754690D01*
X71792299Y-158698194D01*
X71756593Y-158675150D01*
X71671605Y-158624913D01*
X71584400Y-158579677D01*
X71495073Y-158539474D01*
X71403725Y-158504338D01*
X71310452Y-158474301D01*
X71215354Y-158449396D01*
X71118528Y-158429657D01*
X71020072Y-158415115D01*
X70920085Y-158405805D01*
X70917935Y-158405665D01*
X70899203Y-158404630D01*
X70879113Y-158403788D01*
X70859940Y-158403222D01*
X70843959Y-158403014D01*
X70809886Y-158403014D01*
X70809886Y-157964090D01*
X70809886Y-157525166D01*
X70843491Y-157525204D01*
G37*
G36*
X81999933Y-159792736D02*
G01*
X82016174Y-159913865D01*
X82027188Y-160036636D01*
X82027407Y-160039838D01*
X82027698Y-160044111D01*
X82027975Y-160048292D01*
X82028237Y-160052527D01*
X82028485Y-160056956D01*
X82028719Y-160061725D01*
X82028939Y-160066974D01*
X82029146Y-160072849D01*
X82029340Y-160079490D01*
X82029521Y-160087043D01*
X82029690Y-160095648D01*
X82029846Y-160105450D01*
X82029991Y-160116592D01*
X82030125Y-160129216D01*
X82030247Y-160143466D01*
X82030358Y-160159484D01*
X82030460Y-160177414D01*
X82030550Y-160197398D01*
X82030632Y-160219580D01*
X82030703Y-160244102D01*
X82030766Y-160271107D01*
X82030819Y-160300740D01*
X82030864Y-160333141D01*
X82030901Y-160368456D01*
X82030930Y-160406825D01*
X82030951Y-160448394D01*
X82030965Y-160493304D01*
X82030972Y-160541698D01*
X82030972Y-160593720D01*
X82030966Y-160649512D01*
X82030954Y-160709218D01*
X82030936Y-160772980D01*
X82030913Y-160840942D01*
X82030885Y-160913247D01*
X82030852Y-160990037D01*
X82030815Y-161071456D01*
X82030774Y-161157646D01*
X82030729Y-161248750D01*
X82030680Y-161344913D01*
X82030629Y-161446275D01*
X82030574Y-161552982D01*
X82029888Y-162899245D01*
X81590964Y-162899245D01*
X81152040Y-162899245D01*
X81152040Y-161773130D01*
X81152040Y-160647015D01*
X80479937Y-160647015D01*
X79807834Y-160647015D01*
X79807834Y-161773130D01*
X79807834Y-162899245D01*
X79370735Y-162899245D01*
X78933636Y-162899245D01*
X78931812Y-162563879D01*
X78931721Y-162544656D01*
X78931628Y-162519488D01*
X78931535Y-162489147D01*
X78931443Y-162453794D01*
X78931352Y-162413588D01*
X78931262Y-162368688D01*
X78931173Y-162319256D01*
X78931085Y-162265451D01*
X78930999Y-162207432D01*
X78930914Y-162145360D01*
X78930831Y-162079394D01*
X78930750Y-162009694D01*
X78930671Y-161936420D01*
X78930594Y-161859733D01*
X78930519Y-161779791D01*
X78930446Y-161696754D01*
X78930376Y-161610784D01*
X78930309Y-161522038D01*
X78930245Y-161430678D01*
X78930183Y-161336863D01*
X78930125Y-161240752D01*
X78930069Y-161142507D01*
X78930017Y-161042286D01*
X78929969Y-160940250D01*
X78929924Y-160836558D01*
X78929882Y-160731370D01*
X78929845Y-160624847D01*
X78929811Y-160517147D01*
X78929782Y-160408431D01*
X78929757Y-160298859D01*
X78929736Y-160188590D01*
X78929720Y-160077785D01*
X78929711Y-160008816D01*
X78929686Y-159861157D01*
X78929656Y-159718910D01*
X78929619Y-159582023D01*
X78929576Y-159450445D01*
X78929527Y-159324124D01*
X78929472Y-159203008D01*
X78929429Y-159123124D01*
X79807834Y-159123124D01*
X79807834Y-159769166D01*
X80453876Y-159769166D01*
X80503080Y-159769163D01*
X80561020Y-159769151D01*
X80617302Y-159769132D01*
X80671688Y-159769104D01*
X80723938Y-159769069D01*
X80773812Y-159769026D01*
X80821072Y-159768977D01*
X80865478Y-159768922D01*
X80906790Y-159768861D01*
X80944770Y-159768794D01*
X80979179Y-159768722D01*
X81009775Y-159768646D01*
X81036322Y-159768565D01*
X81058578Y-159768480D01*
X81076305Y-159768391D01*
X81089264Y-159768300D01*
X81097214Y-159768205D01*
X81099918Y-159768108D01*
X81099303Y-159765634D01*
X81097404Y-159758665D01*
X81094455Y-159748068D01*
X81090694Y-159734700D01*
X81086360Y-159719415D01*
X81084680Y-159713551D01*
X81054705Y-159619392D01*
X81019734Y-159527406D01*
X80979874Y-159437755D01*
X80935231Y-159350601D01*
X80885912Y-159266106D01*
X80832024Y-159184432D01*
X80773673Y-159105741D01*
X80710965Y-159030194D01*
X80644007Y-158957956D01*
X80572906Y-158889186D01*
X80497768Y-158824048D01*
X80466528Y-158799019D01*
X80388676Y-158741498D01*
X80307637Y-158688205D01*
X80223783Y-158639336D01*
X80137484Y-158595087D01*
X80049111Y-158555652D01*
X79959038Y-158521228D01*
X79867633Y-158492011D01*
X79865890Y-158491508D01*
X79849842Y-158486944D01*
X79835537Y-158482983D01*
X79823856Y-158479862D01*
X79815678Y-158477817D01*
X79811883Y-158477083D01*
X79811821Y-158477091D01*
X79811381Y-158477698D01*
X79810974Y-158479410D01*
X79810599Y-158482424D01*
X79810254Y-158486940D01*
X79809939Y-158493158D01*
X79809651Y-158501276D01*
X79809390Y-158511494D01*
X79809155Y-158524012D01*
X79808944Y-158539027D01*
X79808756Y-158556740D01*
X79808590Y-158577350D01*
X79808444Y-158601055D01*
X79808317Y-158628056D01*
X79808209Y-158658551D01*
X79808117Y-158692740D01*
X79808040Y-158730821D01*
X79807978Y-158772995D01*
X79807929Y-158819459D01*
X79807891Y-158870415D01*
X79807865Y-158926060D01*
X79807847Y-158986593D01*
X79807837Y-159052215D01*
X79807834Y-159123124D01*
X78929429Y-159123124D01*
X78929410Y-159087047D01*
X78929342Y-158976188D01*
X78929267Y-158870381D01*
X78929186Y-158769574D01*
X78929098Y-158673714D01*
X78929003Y-158582752D01*
X78928902Y-158496635D01*
X78928793Y-158415312D01*
X78928678Y-158338731D01*
X78928556Y-158266841D01*
X78928426Y-158199590D01*
X78928289Y-158136927D01*
X78928145Y-158078800D01*
X78927994Y-158025159D01*
X78927836Y-157975951D01*
X78927669Y-157931124D01*
X78927496Y-157890629D01*
X78927314Y-157854412D01*
X78927125Y-157822422D01*
X78926928Y-157794609D01*
X78926723Y-157770920D01*
X78926511Y-157751304D01*
X78926290Y-157735710D01*
X78923127Y-157544365D01*
X79197455Y-157544393D01*
X79213209Y-157544399D01*
X79252454Y-157544452D01*
X79290765Y-157544557D01*
X79327686Y-157544708D01*
X79362764Y-157544903D01*
X79395541Y-157545138D01*
X79425564Y-157545407D01*
X79452376Y-157545709D01*
X79475523Y-157546038D01*
X79494549Y-157546391D01*
X79509000Y-157546763D01*
X79518418Y-157547152D01*
X79593951Y-157552599D01*
X79715162Y-157565697D01*
X79834904Y-157584059D01*
X79953100Y-157607659D01*
X80069674Y-157636472D01*
X80184549Y-157670473D01*
X80297648Y-157709636D01*
X80408894Y-157753937D01*
X80518212Y-157803348D01*
X80625523Y-157857846D01*
X80730751Y-157917405D01*
X80833820Y-157982000D01*
X80842558Y-157987776D01*
X80919517Y-158040916D01*
X80995268Y-158097405D01*
X81070662Y-158157898D01*
X81146553Y-158223053D01*
X81154406Y-158230109D01*
X81172081Y-158246496D01*
X81192359Y-158265824D01*
X81214514Y-158287362D01*
X81237820Y-158310380D01*
X81261548Y-158334148D01*
X81284974Y-158357936D01*
X81307370Y-158381013D01*
X81328010Y-158402649D01*
X81346166Y-158422114D01*
X81361113Y-158438677D01*
X81408522Y-158493897D01*
X81485094Y-158589612D01*
X81556807Y-158687848D01*
X81623629Y-158788532D01*
X81685531Y-158891590D01*
X81742482Y-158996949D01*
X81794450Y-159104536D01*
X81841406Y-159214277D01*
X81883320Y-159326100D01*
X81920160Y-159439930D01*
X81951896Y-159555695D01*
X81978497Y-159673321D01*
X81995512Y-159768108D01*
X81999933Y-159792736D01*
G37*
G36*
X91420811Y-157525923D02*
G01*
X91439772Y-157525996D01*
X91487591Y-157526188D01*
X91530478Y-157526382D01*
X91568840Y-157526593D01*
X91603081Y-157526833D01*
X91633606Y-157527114D01*
X91660823Y-157527450D01*
X91685135Y-157527853D01*
X91706949Y-157528336D01*
X91726670Y-157528913D01*
X91744703Y-157529596D01*
X91761455Y-157530398D01*
X91777330Y-157531333D01*
X91792734Y-157532411D01*
X91808072Y-157533648D01*
X91823750Y-157535055D01*
X91840174Y-157536646D01*
X91857749Y-157538434D01*
X91876880Y-157540430D01*
X91960640Y-157550572D01*
X92079197Y-157569579D01*
X92196395Y-157593860D01*
X92312116Y-157623363D01*
X92426240Y-157658035D01*
X92538648Y-157697824D01*
X92649222Y-157742678D01*
X92757841Y-157792545D01*
X92864388Y-157847370D01*
X92968742Y-157907103D01*
X93070784Y-157971691D01*
X93170397Y-158041082D01*
X93267460Y-158115222D01*
X93361854Y-158194061D01*
X93374742Y-158205528D01*
X93395144Y-158224312D01*
X93417978Y-158245919D01*
X93442520Y-158269626D01*
X93468050Y-158294711D01*
X93493844Y-158320452D01*
X93519180Y-158346125D01*
X93543335Y-158371010D01*
X93565588Y-158394382D01*
X93585215Y-158415520D01*
X93601495Y-158433701D01*
X93643582Y-158483042D01*
X93720341Y-158579275D01*
X93792269Y-158678010D01*
X93859329Y-158779162D01*
X93921483Y-158882646D01*
X93978693Y-158988377D01*
X94030922Y-159096271D01*
X94078132Y-159206243D01*
X94120286Y-159318208D01*
X94157346Y-159432081D01*
X94189275Y-159547777D01*
X94216034Y-159665212D01*
X94237586Y-159784301D01*
X94253894Y-159904958D01*
X94255329Y-159917748D01*
X94257339Y-159935961D01*
X94259134Y-159952883D01*
X94260728Y-159968913D01*
X94262134Y-159984449D01*
X94263367Y-159999889D01*
X94264438Y-160015634D01*
X94265363Y-160032081D01*
X94266153Y-160049629D01*
X94266823Y-160068676D01*
X94267385Y-160089622D01*
X94267854Y-160112865D01*
X94268242Y-160138804D01*
X94268564Y-160167837D01*
X94268832Y-160200363D01*
X94269059Y-160236781D01*
X94269260Y-160277490D01*
X94269448Y-160322887D01*
X94269635Y-160373373D01*
X94270762Y-160685421D01*
X93204813Y-160685421D01*
X93135957Y-160685425D01*
X93061067Y-160685441D01*
X92987750Y-160685467D01*
X92916194Y-160685504D01*
X92846584Y-160685550D01*
X92779107Y-160685607D01*
X92713949Y-160685672D01*
X92651297Y-160685746D01*
X92591336Y-160685828D01*
X92534254Y-160685919D01*
X92480236Y-160686016D01*
X92429468Y-160686122D01*
X92382138Y-160686234D01*
X92338431Y-160686352D01*
X92298534Y-160686476D01*
X92262633Y-160686606D01*
X92230914Y-160686742D01*
X92203564Y-160686882D01*
X92180768Y-160687027D01*
X92162714Y-160687176D01*
X92149588Y-160687328D01*
X92141576Y-160687484D01*
X92138863Y-160687643D01*
X92139213Y-160689576D01*
X92141073Y-160696326D01*
X92144280Y-160706824D01*
X92148544Y-160720193D01*
X92153574Y-160735559D01*
X92159079Y-160752045D01*
X92164769Y-160768775D01*
X92170351Y-160784873D01*
X92175537Y-160799463D01*
X92180035Y-160811670D01*
X92192057Y-160842557D01*
X92230614Y-160931589D01*
X92273943Y-161018008D01*
X92321943Y-161101651D01*
X92374509Y-161182358D01*
X92431537Y-161259966D01*
X92492926Y-161334312D01*
X92558572Y-161405235D01*
X92613407Y-161459205D01*
X92677427Y-161517072D01*
X92742618Y-161570404D01*
X92809678Y-161619708D01*
X92879306Y-161665496D01*
X92952200Y-161708275D01*
X93029057Y-161748557D01*
X93067373Y-161767161D01*
X93102859Y-161783482D01*
X93137062Y-161798151D01*
X93171638Y-161811849D01*
X93208239Y-161825257D01*
X93248519Y-161839059D01*
X93293420Y-161853440D01*
X93350074Y-161869775D01*
X93406571Y-161883905D01*
X93464019Y-161896061D01*
X93523526Y-161906473D01*
X93586201Y-161915370D01*
X93653152Y-161922983D01*
X93659586Y-161923465D01*
X93672922Y-161924067D01*
X93691733Y-161924626D01*
X93716013Y-161925142D01*
X93745755Y-161925615D01*
X93780953Y-161926045D01*
X93821600Y-161926432D01*
X93867690Y-161926775D01*
X93919216Y-161927076D01*
X93976173Y-161927333D01*
X94267646Y-161928482D01*
X94267646Y-162407183D01*
X94267646Y-162885885D01*
X93956970Y-162884774D01*
X93918405Y-162884633D01*
X93871442Y-162884446D01*
X93829267Y-162884246D01*
X93791477Y-162884019D01*
X93757675Y-162883751D01*
X93727458Y-162883426D01*
X93700428Y-162883032D01*
X93676184Y-162882554D01*
X93654326Y-162881976D01*
X93634454Y-162881286D01*
X93616167Y-162880467D01*
X93599067Y-162879507D01*
X93582752Y-162878390D01*
X93566822Y-162877103D01*
X93550878Y-162875631D01*
X93534520Y-162873959D01*
X93517346Y-162872073D01*
X93498958Y-162869960D01*
X93478954Y-162867603D01*
X93424367Y-162860592D01*
X93303824Y-162841193D01*
X93185113Y-162816624D01*
X93068259Y-162786896D01*
X92953287Y-162752017D01*
X92840223Y-162711997D01*
X92729092Y-162666845D01*
X92619919Y-162616571D01*
X92512729Y-162561182D01*
X92407548Y-162500690D01*
X92304402Y-162435103D01*
X92254704Y-162401131D01*
X92158130Y-162330225D01*
X92065155Y-162255340D01*
X91975877Y-162176636D01*
X91890395Y-162094275D01*
X91808808Y-162008416D01*
X91731215Y-161919220D01*
X91657714Y-161826849D01*
X91588405Y-161731461D01*
X91523386Y-161633218D01*
X91462756Y-161532280D01*
X91406614Y-161428808D01*
X91355059Y-161322962D01*
X91308190Y-161214902D01*
X91266104Y-161104790D01*
X91228902Y-160992785D01*
X91196682Y-160879049D01*
X91169542Y-160763741D01*
X91147583Y-160647023D01*
X91130901Y-160529054D01*
X91127800Y-160501874D01*
X91124800Y-160473192D01*
X91122135Y-160444675D01*
X91119790Y-160415886D01*
X91117749Y-160386393D01*
X91115996Y-160355759D01*
X91114517Y-160323552D01*
X91113296Y-160289336D01*
X91112317Y-160252677D01*
X91111566Y-160213140D01*
X91111027Y-160170291D01*
X91110685Y-160123695D01*
X91110524Y-160072917D01*
X91110528Y-160017524D01*
X91110683Y-159957081D01*
X91111506Y-159726645D01*
X92178247Y-159725956D01*
X92214793Y-159725932D01*
X92306839Y-159725867D01*
X92393588Y-159725799D01*
X92475178Y-159725727D01*
X92551746Y-159725651D01*
X92623429Y-159725570D01*
X92690365Y-159725485D01*
X92752691Y-159725393D01*
X92810544Y-159725295D01*
X92864062Y-159725190D01*
X92913382Y-159725077D01*
X92958642Y-159724957D01*
X92999978Y-159724828D01*
X93037529Y-159724691D01*
X93071431Y-159724543D01*
X93101822Y-159724386D01*
X93128840Y-159724218D01*
X93152621Y-159724039D01*
X93173303Y-159723849D01*
X93191024Y-159723646D01*
X93205920Y-159723430D01*
X93218130Y-159723202D01*
X93227790Y-159722959D01*
X93235038Y-159722702D01*
X93240011Y-159722431D01*
X93242847Y-159722144D01*
X93243683Y-159721841D01*
X93243641Y-159721731D01*
X93242261Y-159717585D01*
X93239642Y-159709409D01*
X93236146Y-159698336D01*
X93232132Y-159685496D01*
X93230797Y-159681234D01*
X93206048Y-159609386D01*
X93176820Y-159536439D01*
X93143619Y-159463451D01*
X93106953Y-159391477D01*
X93067331Y-159321575D01*
X93025259Y-159254802D01*
X92971657Y-159178597D01*
X92911523Y-159102285D01*
X92847466Y-159029804D01*
X92779479Y-158961147D01*
X92707553Y-158896307D01*
X92631679Y-158835275D01*
X92551850Y-158778043D01*
X92468057Y-158724604D01*
X92459192Y-158719373D01*
X92436473Y-158706567D01*
X92410327Y-158692484D01*
X92381885Y-158677690D01*
X92352278Y-158662751D01*
X92322636Y-158648232D01*
X92294090Y-158634701D01*
X92267770Y-158622721D01*
X92244807Y-158612860D01*
X92220404Y-158603046D01*
X92138688Y-158573428D01*
X92054508Y-158547660D01*
X91969016Y-158526043D01*
X91883362Y-158508878D01*
X91798697Y-158496464D01*
X91792294Y-158495707D01*
X91777091Y-158493940D01*
X91762938Y-158492370D01*
X91749427Y-158490984D01*
X91736149Y-158489769D01*
X91722696Y-158488710D01*
X91708659Y-158487795D01*
X91693629Y-158487010D01*
X91677198Y-158486343D01*
X91658958Y-158485778D01*
X91638500Y-158485304D01*
X91615414Y-158484907D01*
X91589294Y-158484573D01*
X91559730Y-158484289D01*
X91526313Y-158484042D01*
X91488636Y-158483818D01*
X91446289Y-158483604D01*
X91398864Y-158483387D01*
X91112878Y-158482112D01*
X91112878Y-158003432D01*
X91112878Y-157524753D01*
X91420811Y-157525923D01*
G37*
G36*
X76261463Y-157981827D02*
G01*
X76314722Y-157983059D01*
X76375118Y-157984655D01*
X76431293Y-157986390D01*
X76483944Y-157988299D01*
X76533764Y-157990416D01*
X76581449Y-157992778D01*
X76627695Y-157995418D01*
X76673195Y-157998371D01*
X76718645Y-158001673D01*
X76764740Y-158005358D01*
X76812176Y-158009461D01*
X76833604Y-158011399D01*
X76883326Y-158016097D01*
X76927959Y-158020636D01*
X76967781Y-158025057D01*
X77003074Y-158029406D01*
X77034117Y-158033725D01*
X77061190Y-158038057D01*
X77084573Y-158042447D01*
X77104546Y-158046938D01*
X77121390Y-158051573D01*
X77135383Y-158056397D01*
X77146806Y-158061451D01*
X77161333Y-158070737D01*
X77177896Y-158086732D01*
X77192604Y-158107276D01*
X77205254Y-158131966D01*
X77215647Y-158160397D01*
X77223582Y-158192165D01*
X77228858Y-158226866D01*
X77229083Y-158229773D01*
X77229421Y-158237560D01*
X77229735Y-158249332D01*
X77230027Y-158265183D01*
X77230295Y-158285207D01*
X77230541Y-158309497D01*
X77230766Y-158338148D01*
X77230968Y-158371253D01*
X77231150Y-158408906D01*
X77231311Y-158451201D01*
X77231452Y-158498232D01*
X77231572Y-158550093D01*
X77231673Y-158606877D01*
X77231755Y-158668678D01*
X77231818Y-158735591D01*
X77231862Y-158807708D01*
X77231889Y-158885125D01*
X77231897Y-158967934D01*
X77231899Y-159013886D01*
X77231907Y-159085219D01*
X77231917Y-159151402D01*
X77231924Y-159212645D01*
X77231925Y-159269155D01*
X77231914Y-159321143D01*
X77231886Y-159368817D01*
X77231836Y-159412387D01*
X77231761Y-159452062D01*
X77231655Y-159488051D01*
X77231514Y-159520563D01*
X77231332Y-159549807D01*
X77231105Y-159575994D01*
X77230829Y-159599331D01*
X77230499Y-159620028D01*
X77230109Y-159638294D01*
X77229656Y-159654338D01*
X77229134Y-159668371D01*
X77228539Y-159680600D01*
X77227866Y-159691234D01*
X77227111Y-159700484D01*
X77226268Y-159708559D01*
X77225333Y-159715667D01*
X77224301Y-159722017D01*
X77223168Y-159727819D01*
X77221929Y-159733283D01*
X77220578Y-159738617D01*
X77219112Y-159744030D01*
X77217526Y-159749732D01*
X77215815Y-159755931D01*
X77213973Y-159762838D01*
X77212217Y-159769453D01*
X77199097Y-159812382D01*
X77183724Y-159852913D01*
X77166512Y-159890048D01*
X77147871Y-159922790D01*
X77143368Y-159929552D01*
X77133616Y-159943184D01*
X77120910Y-159960106D01*
X77105660Y-159979813D01*
X77088273Y-160001798D01*
X77069158Y-160025557D01*
X77048723Y-160050581D01*
X77027376Y-160076367D01*
X77005526Y-160102406D01*
X76983581Y-160128194D01*
X76961949Y-160153225D01*
X76916583Y-160204574D01*
X76855423Y-160271507D01*
X76795734Y-160334141D01*
X76737582Y-160392423D01*
X76681034Y-160446302D01*
X76626155Y-160495727D01*
X76573011Y-160540648D01*
X76521669Y-160581011D01*
X76472194Y-160616767D01*
X76424652Y-160647863D01*
X76379110Y-160674249D01*
X76335634Y-160695873D01*
X76294288Y-160712683D01*
X76255141Y-160724628D01*
X76218256Y-160731658D01*
X76207905Y-160732898D01*
X76198083Y-160733929D01*
X76191509Y-160734452D01*
X76183965Y-160734800D01*
X76183965Y-160712165D01*
X76183965Y-160689530D01*
X75660000Y-160165570D01*
X75136034Y-159641609D01*
X75136034Y-159573027D01*
X75136034Y-159504445D01*
X75660000Y-160028406D01*
X76183965Y-160552366D01*
X76183965Y-160497501D01*
X76183965Y-160442635D01*
X75660000Y-159918675D01*
X75136034Y-159394714D01*
X75136034Y-159326132D01*
X75136034Y-159257550D01*
X75660000Y-159781511D01*
X76183965Y-160305471D01*
X76183965Y-160250606D01*
X76183965Y-160195740D01*
X75660000Y-159671780D01*
X75136034Y-159147819D01*
X75136034Y-159079237D01*
X75136034Y-159010655D01*
X75660000Y-159534616D01*
X76183965Y-160058576D01*
X76183965Y-160002359D01*
X76183965Y-159946141D01*
X75660000Y-159422149D01*
X75136034Y-158898156D01*
X75136034Y-158830958D01*
X75136034Y-158763761D01*
X75657945Y-159285666D01*
X75660395Y-159288116D01*
X75705089Y-159332802D01*
X75748769Y-159376458D01*
X75791274Y-159418926D01*
X75832446Y-159460047D01*
X75872126Y-159499664D01*
X75910156Y-159537617D01*
X75946374Y-159573749D01*
X75980624Y-159607901D01*
X76012745Y-159639914D01*
X76042580Y-159669630D01*
X76069967Y-159696891D01*
X76094749Y-159721538D01*
X76116767Y-159743413D01*
X76135861Y-159762357D01*
X76151872Y-159778212D01*
X76164642Y-159790819D01*
X76174011Y-159800021D01*
X76179820Y-159805658D01*
X76181911Y-159807572D01*
X76182017Y-159807500D01*
X76182635Y-159804079D01*
X76183170Y-159796133D01*
X76183591Y-159784489D01*
X76183867Y-159769972D01*
X76183965Y-159753409D01*
X76183965Y-159699246D01*
X75660000Y-159175254D01*
X75136034Y-158651261D01*
X75136034Y-158582692D01*
X75136034Y-158514122D01*
X75660000Y-159038083D01*
X76183965Y-159562043D01*
X76183965Y-159507178D01*
X76183965Y-159452312D01*
X75660000Y-158928352D01*
X75136034Y-158404391D01*
X75136034Y-158335809D01*
X75136034Y-158267227D01*
X75660000Y-158791188D01*
X76183965Y-159315148D01*
X76183965Y-159260283D01*
X76183965Y-159205417D01*
X75666693Y-158688312D01*
X75660667Y-158682288D01*
X75608078Y-158629713D01*
X75559218Y-158580861D01*
X75513953Y-158535592D01*
X75472144Y-158493769D01*
X75433657Y-158455251D01*
X75398353Y-158419899D01*
X75366097Y-158387575D01*
X75336752Y-158358139D01*
X75310182Y-158331453D01*
X75286250Y-158307377D01*
X75264819Y-158285772D01*
X75245753Y-158266498D01*
X75228916Y-158249418D01*
X75214171Y-158234392D01*
X75201381Y-158221280D01*
X75190410Y-158209944D01*
X75181121Y-158200244D01*
X75173378Y-158192042D01*
X75167044Y-158185199D01*
X75161983Y-158179574D01*
X75158059Y-158175030D01*
X75155134Y-158171426D01*
X75153072Y-158168625D01*
X75151736Y-158166487D01*
X75150991Y-158164872D01*
X75150700Y-158163642D01*
X75150725Y-158162658D01*
X75150948Y-158161358D01*
X75154130Y-158150018D01*
X75159582Y-158136078D01*
X75166537Y-158121199D01*
X75174227Y-158107041D01*
X75181884Y-158095265D01*
X75194215Y-158078514D01*
X75689090Y-158573384D01*
X76183965Y-159068253D01*
X76183965Y-159013394D01*
X76183965Y-158958534D01*
X75728012Y-158502574D01*
X75693955Y-158468509D01*
X75653023Y-158427547D01*
X75613270Y-158387743D01*
X75574866Y-158349267D01*
X75537980Y-158312290D01*
X75502781Y-158276981D01*
X75469437Y-158243511D01*
X75438117Y-158212049D01*
X75408991Y-158182764D01*
X75382227Y-158155828D01*
X75357994Y-158131410D01*
X75336461Y-158109679D01*
X75317797Y-158090806D01*
X75302170Y-158074961D01*
X75289751Y-158062312D01*
X75280706Y-158053032D01*
X75275206Y-158047288D01*
X75273419Y-158045252D01*
X75275546Y-158044418D01*
X75282321Y-158042763D01*
X75292639Y-158040641D01*
X75305434Y-158038236D01*
X75319639Y-158035737D01*
X75334186Y-158033328D01*
X75348009Y-158031197D01*
X75360040Y-158029530D01*
X75369212Y-158028514D01*
X75389787Y-158026762D01*
X75784815Y-158422006D01*
X75807401Y-158444600D01*
X75845695Y-158482894D01*
X75882859Y-158520038D01*
X75918708Y-158555849D01*
X75953061Y-158590146D01*
X75985733Y-158622746D01*
X76016543Y-158653466D01*
X76045306Y-158682126D01*
X76071840Y-158708542D01*
X76095962Y-158732532D01*
X76117489Y-158753915D01*
X76136238Y-158772508D01*
X76152026Y-158788129D01*
X76164669Y-158800596D01*
X76173986Y-158809726D01*
X76179792Y-158815338D01*
X76181904Y-158817249D01*
X76182011Y-158817177D01*
X76182631Y-158813759D01*
X76183167Y-158805814D01*
X76183590Y-158794171D01*
X76183866Y-158779656D01*
X76183965Y-158763095D01*
X76183965Y-158708941D01*
X75837765Y-158362700D01*
X75796621Y-158321528D01*
X75752984Y-158277806D01*
X75712545Y-158237224D01*
X75675361Y-158199843D01*
X75641493Y-158165721D01*
X75610998Y-158134920D01*
X75583936Y-158107497D01*
X75560365Y-158083514D01*
X75540343Y-158063029D01*
X75523931Y-158046102D01*
X75511185Y-158032794D01*
X75502166Y-158023163D01*
X75496932Y-158017269D01*
X75495542Y-158015173D01*
X75496073Y-158015048D01*
X75501230Y-158014337D01*
X75510743Y-158013298D01*
X75523735Y-158012018D01*
X75539329Y-158010586D01*
X75556647Y-158009087D01*
X75613776Y-158004289D01*
X75896818Y-158287322D01*
X75897794Y-158288297D01*
X75930601Y-158321089D01*
X75962351Y-158352797D01*
X75992826Y-158383204D01*
X76021810Y-158412097D01*
X76049085Y-158439260D01*
X76074435Y-158464478D01*
X76097643Y-158487535D01*
X76118493Y-158508216D01*
X76136767Y-158526306D01*
X76152248Y-158541589D01*
X76164720Y-158553851D01*
X76173966Y-158562876D01*
X76179769Y-158568449D01*
X76181913Y-158570354D01*
X76182019Y-158570283D01*
X76182636Y-158566867D01*
X76183171Y-158558926D01*
X76183591Y-158547285D01*
X76183867Y-158532772D01*
X76183965Y-158516212D01*
X76183965Y-158462071D01*
X75951801Y-158229846D01*
X75719637Y-157997622D01*
X75733025Y-157996022D01*
X75733091Y-157996014D01*
X75741129Y-157995274D01*
X75753036Y-157994440D01*
X75767216Y-157993616D01*
X75782075Y-157992901D01*
X75797009Y-157992193D01*
X75811558Y-157991376D01*
X75823952Y-157990556D01*
X75832528Y-157989834D01*
X75847318Y-157988288D01*
X76015642Y-158156529D01*
X76183965Y-158324770D01*
X76183965Y-158269947D01*
X76183965Y-158215124D01*
X76069869Y-158101004D01*
X75955774Y-157986883D01*
X75977012Y-157985088D01*
X75981373Y-157984778D01*
X75993759Y-157984191D01*
X76009324Y-157983720D01*
X76026510Y-157983407D01*
X76043758Y-157983293D01*
X76089265Y-157983293D01*
X76136615Y-158030585D01*
X76183965Y-158077877D01*
X76183965Y-158029006D01*
X76183965Y-157980134D01*
X76261463Y-157981827D01*
G37*
G36*
X76279075Y-156820872D02*
G01*
X76317831Y-156821106D01*
X76353776Y-156821470D01*
X76386202Y-156821968D01*
X76414401Y-156822602D01*
X76558612Y-156827475D01*
X76722164Y-156835422D01*
X76881128Y-156845826D01*
X77035683Y-156858704D01*
X77186007Y-156874070D01*
X77332279Y-156891939D01*
X77474677Y-156912326D01*
X77498952Y-156916097D01*
X77535363Y-156921918D01*
X77567409Y-156927302D01*
X77595766Y-156932399D01*
X77621108Y-156937358D01*
X77644109Y-156942327D01*
X77665446Y-156947456D01*
X77685791Y-156952892D01*
X77705821Y-156958786D01*
X77726210Y-156965286D01*
X77747633Y-156972540D01*
X77784788Y-156986255D01*
X77847232Y-157013429D01*
X77905846Y-157044430D01*
X77960576Y-157079211D01*
X78011369Y-157117726D01*
X78058170Y-157159928D01*
X78100926Y-157205771D01*
X78139582Y-157255209D01*
X78174084Y-157308196D01*
X78204379Y-157364684D01*
X78205333Y-157366660D01*
X78218550Y-157395298D01*
X78229817Y-157422544D01*
X78239591Y-157449772D01*
X78248330Y-157478355D01*
X78256493Y-157509668D01*
X78264538Y-157545083D01*
X78271112Y-157576662D01*
X78283599Y-157642584D01*
X78295077Y-157711694D01*
X78305570Y-157784217D01*
X78315096Y-157860375D01*
X78323679Y-157940393D01*
X78331338Y-158024496D01*
X78338096Y-158112908D01*
X78343973Y-158205851D01*
X78348992Y-158303551D01*
X78353172Y-158406232D01*
X78356536Y-158514117D01*
X78358210Y-158583100D01*
X78360252Y-158700280D01*
X78361274Y-158816322D01*
X78361287Y-158930799D01*
X78360301Y-159043282D01*
X78358327Y-159153346D01*
X78355376Y-159260562D01*
X78351457Y-159364505D01*
X78346582Y-159464746D01*
X78340760Y-159560859D01*
X78334004Y-159652416D01*
X78326322Y-159738990D01*
X78323791Y-159764369D01*
X78318317Y-159815239D01*
X78312311Y-159866374D01*
X78305854Y-159917251D01*
X78299030Y-159967348D01*
X78291921Y-160016145D01*
X78284609Y-160063119D01*
X78277177Y-160107749D01*
X78269708Y-160149514D01*
X78262284Y-160187891D01*
X78254987Y-160222359D01*
X78247901Y-160252397D01*
X78241107Y-160277483D01*
X78235179Y-160296913D01*
X78222732Y-160333599D01*
X78209081Y-160368227D01*
X78193795Y-160401589D01*
X78176441Y-160434479D01*
X78156586Y-160467691D01*
X78133798Y-160502016D01*
X78107645Y-160538249D01*
X78077693Y-160577182D01*
X78069815Y-160587151D01*
X77982414Y-160695510D01*
X77895778Y-160798782D01*
X77809648Y-160897245D01*
X77723766Y-160991172D01*
X77637877Y-161080840D01*
X77551721Y-161166525D01*
X77465043Y-161248502D01*
X77377585Y-161327046D01*
X77342246Y-161357721D01*
X77276204Y-161413805D01*
X77210079Y-161468384D01*
X77144122Y-161521288D01*
X77078585Y-161572346D01*
X77013718Y-161621388D01*
X76949774Y-161668243D01*
X76887004Y-161712741D01*
X76825659Y-161754711D01*
X76765990Y-161793983D01*
X76708250Y-161830387D01*
X76652688Y-161863750D01*
X76599558Y-161893905D01*
X76549109Y-161920678D01*
X76501595Y-161943901D01*
X76457265Y-161963403D01*
X76416371Y-161979013D01*
X76407850Y-161981913D01*
X76363786Y-161995050D01*
X76318228Y-162005770D01*
X76273052Y-162013678D01*
X76230135Y-162018376D01*
X76217311Y-162019284D01*
X76202496Y-162020220D01*
X76190472Y-162020731D01*
X76179658Y-162020821D01*
X76168478Y-162020492D01*
X76155352Y-162019750D01*
X76138701Y-162018597D01*
X76092023Y-162013963D01*
X76036409Y-162004777D01*
X75981557Y-161991479D01*
X75926396Y-161973801D01*
X75869860Y-161951478D01*
X75863603Y-161948773D01*
X75805623Y-161922142D01*
X75746646Y-161892212D01*
X75686475Y-161858850D01*
X75624916Y-161821924D01*
X75561775Y-161781300D01*
X75496856Y-161736846D01*
X75429964Y-161688429D01*
X75360905Y-161635915D01*
X75289484Y-161579172D01*
X75215506Y-161518066D01*
X75138777Y-161452466D01*
X75125249Y-161440706D01*
X75046583Y-161371924D01*
X74972189Y-161306151D01*
X74901907Y-161243228D01*
X74835573Y-161182998D01*
X74773026Y-161125303D01*
X74714105Y-161069983D01*
X74658646Y-161016882D01*
X74606489Y-160965841D01*
X74557471Y-160916702D01*
X74511430Y-160869306D01*
X74468205Y-160823496D01*
X74427633Y-160779114D01*
X74389553Y-160736000D01*
X74353803Y-160693998D01*
X74320221Y-160652950D01*
X74312673Y-160643508D01*
X74304716Y-160633369D01*
X74299520Y-160626277D01*
X74296680Y-160621520D01*
X74295795Y-160618386D01*
X74296462Y-160616160D01*
X74298276Y-160614130D01*
X74298460Y-160613969D01*
X74301936Y-160611207D01*
X74309413Y-160605401D01*
X74320611Y-160596763D01*
X74335253Y-160585506D01*
X74353060Y-160571842D01*
X74373753Y-160555985D01*
X74397054Y-160538146D01*
X74422683Y-160518538D01*
X74450362Y-160497373D01*
X74479813Y-160474865D01*
X74510756Y-160451225D01*
X74542914Y-160426667D01*
X74576007Y-160401402D01*
X74609757Y-160375644D01*
X74643886Y-160349605D01*
X74678114Y-160323497D01*
X74712163Y-160297533D01*
X74745754Y-160271926D01*
X74778609Y-160246888D01*
X74810449Y-160222631D01*
X74840995Y-160199368D01*
X74869969Y-160177313D01*
X74897092Y-160156676D01*
X74922085Y-160137671D01*
X74944671Y-160120511D01*
X74964569Y-160105408D01*
X74981502Y-160092574D01*
X74995191Y-160082222D01*
X75005356Y-160074564D01*
X75011721Y-160069814D01*
X75014005Y-160068183D01*
X75014070Y-160068208D01*
X75016421Y-160070623D01*
X75021439Y-160076423D01*
X75028438Y-160084795D01*
X75036727Y-160094930D01*
X75038496Y-160097108D01*
X75062747Y-160125991D01*
X75090905Y-160157938D01*
X75122629Y-160192604D01*
X75157579Y-160229645D01*
X75195412Y-160268716D01*
X75235788Y-160309472D01*
X75278365Y-160351568D01*
X75322801Y-160394660D01*
X75368756Y-160438401D01*
X75415888Y-160482449D01*
X75463855Y-160526456D01*
X75520315Y-160577544D01*
X75587918Y-160638054D01*
X75652002Y-160694634D01*
X75712659Y-160747359D01*
X75769981Y-160796303D01*
X75824062Y-160841541D01*
X75874994Y-160883148D01*
X75922871Y-160921197D01*
X75967783Y-160955764D01*
X76009825Y-160986923D01*
X76049090Y-161014749D01*
X76085669Y-161039315D01*
X76119655Y-161060697D01*
X76151142Y-161078970D01*
X76173927Y-161091573D01*
X76207065Y-161071869D01*
X76231320Y-161057206D01*
X76285969Y-161022594D01*
X76343288Y-160984281D01*
X76402761Y-160942669D01*
X76463873Y-160898159D01*
X76526106Y-160851150D01*
X76588944Y-160802042D01*
X76651871Y-160751237D01*
X76714370Y-160699135D01*
X76775926Y-160646136D01*
X76836022Y-160592640D01*
X76894142Y-160539049D01*
X76901472Y-160532130D01*
X76940529Y-160494261D01*
X76982008Y-160452492D01*
X77025399Y-160407385D01*
X77070194Y-160359503D01*
X77115885Y-160309410D01*
X77161962Y-160257669D01*
X77207917Y-160204842D01*
X77253242Y-160151494D01*
X77297427Y-160098186D01*
X77339965Y-160045482D01*
X77372214Y-160004950D01*
X77378781Y-159968670D01*
X77381515Y-159953298D01*
X77391896Y-159889785D01*
X77401631Y-159821932D01*
X77410613Y-159750634D01*
X77418734Y-159676785D01*
X77425887Y-159601280D01*
X77431965Y-159525014D01*
X77433412Y-159504694D01*
X77436333Y-159461680D01*
X77438910Y-159420510D01*
X77441169Y-159380451D01*
X77443138Y-159340771D01*
X77444843Y-159300736D01*
X77446313Y-159259612D01*
X77447574Y-159216668D01*
X77448654Y-159171170D01*
X77449580Y-159122385D01*
X77450380Y-159069580D01*
X77451080Y-159012022D01*
X77451661Y-158947388D01*
X77452011Y-158822937D01*
X77451284Y-158703611D01*
X77449471Y-158589239D01*
X77446565Y-158479648D01*
X77442557Y-158374669D01*
X77437439Y-158274129D01*
X77431203Y-158177858D01*
X77423841Y-158085685D01*
X77415344Y-157997437D01*
X77405705Y-157912945D01*
X77394916Y-157832035D01*
X77393089Y-157819314D01*
X77347743Y-157812087D01*
X77254840Y-157798233D01*
X77156290Y-157785394D01*
X77052987Y-157773690D01*
X76945242Y-157763150D01*
X76833370Y-157753803D01*
X76717684Y-157745676D01*
X76598498Y-157738798D01*
X76476124Y-157733197D01*
X76473621Y-157733100D01*
X76449733Y-157732332D01*
X76421319Y-157731666D01*
X76389045Y-157731103D01*
X76353580Y-157730642D01*
X76315589Y-157730284D01*
X76275742Y-157730028D01*
X76234705Y-157729875D01*
X76193146Y-157729824D01*
X76151732Y-157729876D01*
X76111132Y-157730031D01*
X76072012Y-157730289D01*
X76035040Y-157730650D01*
X76000884Y-157731114D01*
X75970210Y-157731681D01*
X75943687Y-157732352D01*
X75921983Y-157733126D01*
X75894218Y-157734360D01*
X75764188Y-157741035D01*
X75637939Y-157749062D01*
X75514175Y-157758546D01*
X75391598Y-157769595D01*
X75268911Y-157782314D01*
X75144819Y-157796810D01*
X75117220Y-157800244D01*
X75090142Y-157803680D01*
X75064166Y-157807040D01*
X75039834Y-157810251D01*
X75017690Y-157813236D01*
X74998275Y-157815924D01*
X74982135Y-157818238D01*
X74969811Y-157820106D01*
X74961846Y-157821453D01*
X74958785Y-157822205D01*
X74958543Y-157822858D01*
X74957579Y-157827957D01*
X74956154Y-157837422D01*
X74954363Y-157850484D01*
X74952304Y-157866375D01*
X74950072Y-157884325D01*
X74947764Y-157903566D01*
X74945476Y-157923329D01*
X74943305Y-157942846D01*
X74941346Y-157961347D01*
X74937500Y-158000986D01*
X74932463Y-158060172D01*
X74927750Y-158124482D01*
X74923356Y-158194005D01*
X74919275Y-158268830D01*
X74915501Y-158349044D01*
X74915116Y-158356414D01*
X74914326Y-158366882D01*
X74913441Y-158374413D01*
X74912591Y-158377734D01*
X74912157Y-158377791D01*
X74907365Y-158377821D01*
X74897567Y-158377674D01*
X74883113Y-158377360D01*
X74864353Y-158376892D01*
X74841635Y-158376280D01*
X74815310Y-158375537D01*
X74785727Y-158374673D01*
X74753236Y-158373701D01*
X74718186Y-158372632D01*
X74680928Y-158371477D01*
X74641810Y-158370248D01*
X74601182Y-158368957D01*
X74559394Y-158367615D01*
X74516795Y-158366234D01*
X74473736Y-158364824D01*
X74430565Y-158363398D01*
X74387632Y-158361967D01*
X74345287Y-158360543D01*
X74303880Y-158359138D01*
X74263760Y-158357762D01*
X74225276Y-158356427D01*
X74188779Y-158355145D01*
X74154617Y-158353927D01*
X74123141Y-158352785D01*
X74094700Y-158351731D01*
X74069644Y-158350775D01*
X74048322Y-158349930D01*
X74031083Y-158349207D01*
X74018279Y-158348617D01*
X74010257Y-158348172D01*
X74007368Y-158347884D01*
X74007104Y-158346876D01*
X74006851Y-158341018D01*
X74006930Y-158330441D01*
X74007315Y-158315643D01*
X74007978Y-158297127D01*
X74008893Y-158275391D01*
X74010033Y-158250935D01*
X74011370Y-158224261D01*
X74012878Y-158195867D01*
X74014530Y-158166254D01*
X74016299Y-158135922D01*
X74018158Y-158105371D01*
X74020081Y-158075101D01*
X74022040Y-158045612D01*
X74024008Y-158017404D01*
X74025959Y-157990978D01*
X74027866Y-157966833D01*
X74031437Y-157925677D01*
X74037494Y-157864103D01*
X74044266Y-157803839D01*
X74051666Y-157745481D01*
X74059608Y-157689626D01*
X74068005Y-157636869D01*
X74076770Y-157587809D01*
X74085819Y-157543041D01*
X74095063Y-157503161D01*
X74098149Y-157491316D01*
X74116025Y-157435474D01*
X74139009Y-157380674D01*
X74166797Y-157327450D01*
X74199089Y-157276339D01*
X74235582Y-157227874D01*
X74275974Y-157182592D01*
X74285510Y-157172946D01*
X74328122Y-157133805D01*
X74374423Y-157097423D01*
X74424710Y-157063612D01*
X74479281Y-157032183D01*
X74538434Y-157002947D01*
X74602466Y-156975716D01*
X74610537Y-156972530D01*
X74629792Y-156964979D01*
X74645972Y-156958817D01*
X74660021Y-156953799D01*
X74672883Y-156949679D01*
X74685504Y-156946212D01*
X74698828Y-156943153D01*
X74713798Y-156940254D01*
X74731360Y-156937272D01*
X74752458Y-156933961D01*
X74778036Y-156930075D01*
X74899463Y-156912470D01*
X75057430Y-156891877D01*
X75216112Y-156873833D01*
X75376377Y-156858255D01*
X75539093Y-156845059D01*
X75705127Y-156834164D01*
X75875347Y-156825486D01*
X75892562Y-156824813D01*
X75920514Y-156823961D01*
X75952730Y-156823201D01*
X75988503Y-156822537D01*
X76027126Y-156821971D01*
X76067890Y-156821508D01*
X76110089Y-156821152D01*
X76153015Y-156820907D01*
X76195959Y-156820776D01*
X76238215Y-156820763D01*
X76279075Y-156820872D01*
G37*
%TO.C,BTN*%
D10*
X78210000Y-176140000D02*
X78210000Y-179840000D01*
X78210000Y-179840000D02*
X84330000Y-179840000D01*
X84330000Y-176140000D02*
X78210000Y-176140000D01*
X84330000Y-179840000D02*
X84330000Y-176140000D01*
%TO.C,LED*%
X59545489Y-138186376D02*
X59471816Y-137768556D01*
X59545489Y-138186376D02*
X61921028Y-139849748D01*
X60618972Y-136130252D02*
X59471816Y-137768556D01*
X60618972Y-136130252D02*
X63240256Y-137965698D01*
X61921028Y-139849748D02*
X63240256Y-137965698D01*
X69655076Y-143626021D02*
X69475775Y-143241506D01*
X69655076Y-143626021D02*
X72380183Y-144617880D01*
X70159817Y-141362120D02*
X69475775Y-143241506D01*
X70159817Y-141362120D02*
X73166832Y-142456586D01*
X72380183Y-144617880D02*
X73166832Y-142456586D01*
%TO.C,BTN*%
X92702278Y-170229712D02*
X94824511Y-173260575D01*
X94824511Y-173260575D02*
X99837722Y-169750288D01*
X97715489Y-166719425D02*
X92702278Y-170229712D01*
X99837722Y-169750288D02*
X97715489Y-166719425D01*
X62702278Y-169750288D02*
X67715488Y-173260576D01*
X64824512Y-166719424D02*
X62702278Y-169750288D01*
X67715488Y-173260576D02*
X69837722Y-170229712D01*
X69837722Y-170229712D02*
X64824512Y-166719424D01*
%TO.C,LED*%
X99299744Y-137965695D02*
X100446896Y-139604002D01*
X99299744Y-137965695D02*
X101921030Y-136130253D01*
X100864716Y-139677675D02*
X100446896Y-139604002D01*
X100864716Y-139677675D02*
X103240256Y-138014305D01*
X103240256Y-138014305D02*
X101921030Y-136130253D01*
X89373169Y-142456584D02*
X90057209Y-144335971D01*
X89373169Y-142456584D02*
X92380185Y-141362121D01*
X90441723Y-144515273D02*
X90057209Y-144335971D01*
X90441723Y-144515273D02*
X93166831Y-143523416D01*
X93166831Y-143523416D02*
X92380185Y-141362121D01*
%TD*%
M02*
