%TF.GenerationSoftware,KiCad,Pcbnew,10.0.1*%
%TF.CreationDate,2026-04-20T10:37:20+02:00*%
%TF.ProjectId,badge-sthack-2026,62616467-652d-4737-9468-61636b2d3230,rev?*%
%TF.SameCoordinates,Original*%
%TF.FileFunction,Copper,L1,Top*%
%TF.FilePolarity,Positive*%
%FSLAX46Y46*%
G04 Gerber Fmt 4.6, Leading zero omitted, Abs format (unit mm)*
G04 Created by KiCad (PCBNEW 10.0.1) date 2026-04-20 10:37:20*
%MOMM*%
%LPD*%
G01*
G04 APERTURE LIST*
G04 APERTURE END LIST*
%TA.AperFunction,Conductor*%
%TO.N,GND*%
G36*
X107937771Y-53859545D02*
G01*
X107940668Y-53859972D01*
X112161010Y-54535358D01*
X112163992Y-54535874D01*
X116351236Y-55313551D01*
X116353913Y-55314080D01*
X118774538Y-55820186D01*
X118776526Y-55820619D01*
X121211012Y-56375010D01*
X121212879Y-56375452D01*
X122927208Y-56795761D01*
X123566738Y-56952557D01*
X123568802Y-56953081D01*
X125748299Y-57527394D01*
X125750729Y-57528062D01*
X127488887Y-58024490D01*
X127661044Y-58073659D01*
X127664490Y-58074697D01*
X127767920Y-58107515D01*
X129207413Y-58564260D01*
X129213520Y-58566374D01*
X129348060Y-58616919D01*
X130289114Y-58970461D01*
X130299074Y-58974709D01*
X130593292Y-59115707D01*
X130609077Y-59124753D01*
X130674473Y-59168906D01*
X130727965Y-59205022D01*
X130753428Y-59227918D01*
X130753556Y-59228070D01*
X130758915Y-59234907D01*
X130775325Y-59257422D01*
X130779748Y-59263912D01*
X130799849Y-59295517D01*
X130803409Y-59301477D01*
X130825942Y-59341715D01*
X130828834Y-59347196D01*
X130852854Y-59395617D01*
X130855223Y-59400676D01*
X130879981Y-59456801D01*
X130881936Y-59461492D01*
X130906819Y-59524807D01*
X130908444Y-59529180D01*
X130932986Y-59599264D01*
X130934344Y-59603372D01*
X130958143Y-59679782D01*
X130959282Y-59683657D01*
X130982030Y-59766055D01*
X130982986Y-59769740D01*
X131004389Y-59857709D01*
X131005183Y-59861192D01*
X131012834Y-59897163D01*
X131025003Y-59954383D01*
X131025674Y-59957769D01*
X131043707Y-60055916D01*
X131044262Y-60059186D01*
X131060302Y-60161868D01*
X131060757Y-60165048D01*
X131073362Y-60262181D01*
X131074073Y-60269236D01*
X131266642Y-62944508D01*
X131266874Y-62948745D01*
X131423043Y-67096450D01*
X131423113Y-67099030D01*
X131611235Y-78282048D01*
X131611253Y-78284120D01*
X131612642Y-90758965D01*
X131612631Y-90760628D01*
X131535901Y-96528847D01*
X131535868Y-96530509D01*
X131403606Y-101481697D01*
X131403537Y-101483671D01*
X130999004Y-110966987D01*
X130998869Y-110969548D01*
X130499108Y-118851777D01*
X130498879Y-118854795D01*
X130198364Y-122271533D01*
X130198097Y-122274229D01*
X129855342Y-125389728D01*
X129854932Y-125393043D01*
X129464170Y-128237694D01*
X129463558Y-128241671D01*
X129018863Y-130848468D01*
X129017981Y-130853104D01*
X128513444Y-133255291D01*
X128512229Y-133260513D01*
X127941889Y-135491644D01*
X127940301Y-135497291D01*
X127931507Y-135525968D01*
X127297997Y-137591451D01*
X127296048Y-137597286D01*
X126575311Y-139588896D01*
X126573078Y-139594619D01*
X125767129Y-141518173D01*
X125764756Y-141523483D01*
X124866532Y-143413365D01*
X124864201Y-143418015D01*
X123866510Y-145308327D01*
X123864398Y-145312164D01*
X122761552Y-147234081D01*
X122759234Y-147237955D01*
X121807063Y-148765634D01*
X121804382Y-148769751D01*
X120748297Y-150323447D01*
X120745692Y-150327134D01*
X119584509Y-151908411D01*
X119581995Y-151911716D01*
X118315861Y-153520119D01*
X118313450Y-153523087D01*
X116942359Y-155158430D01*
X116940054Y-155161101D01*
X115464121Y-156823085D01*
X115461925Y-156825493D01*
X113881305Y-158513825D01*
X113879217Y-158516002D01*
X112194015Y-160230470D01*
X112192031Y-160232443D01*
X110402363Y-161972853D01*
X110400481Y-161974646D01*
X108506489Y-163740794D01*
X108504704Y-163742426D01*
X106506508Y-165534149D01*
X106504814Y-165535640D01*
X104402600Y-167352722D01*
X104400994Y-167354087D01*
X102194832Y-169196435D01*
X102193307Y-169197688D01*
X99883416Y-171065085D01*
X99881969Y-171066237D01*
X97468351Y-172958653D01*
X97466976Y-172959715D01*
X94950909Y-174876139D01*
X94949258Y-174877376D01*
X93053126Y-176272390D01*
X93051665Y-176273448D01*
X90916706Y-177796795D01*
X90915108Y-177797916D01*
X86497482Y-180846233D01*
X86495873Y-180847325D01*
X84508865Y-182172919D01*
X84507331Y-182173926D01*
X82860907Y-183237448D01*
X82857939Y-183239307D01*
X81704325Y-183939124D01*
X81698155Y-183942629D01*
X81442191Y-184078515D01*
X81438145Y-184079345D01*
X81435012Y-184082034D01*
X81404216Y-184086309D01*
X81373748Y-184092564D01*
X81368725Y-184091237D01*
X81365806Y-184091643D01*
X81331992Y-184081536D01*
X81264483Y-184050310D01*
X81262035Y-184049144D01*
X81079151Y-183959553D01*
X81076701Y-183958319D01*
X80864114Y-183848280D01*
X80862154Y-183847243D01*
X80626155Y-183719684D01*
X80624403Y-183718719D01*
X80372669Y-183577363D01*
X80370966Y-183576389D01*
X80170182Y-183459425D01*
X80167751Y-183457792D01*
X80105716Y-183421871D01*
X80105600Y-183421804D01*
X80049422Y-183389079D01*
X80048778Y-183388903D01*
X80048200Y-183388569D01*
X80048181Y-183388563D01*
X80041510Y-183384702D01*
X80041503Y-183384699D01*
X80041352Y-183384612D01*
X80041352Y-183384611D01*
X80041283Y-183384571D01*
X80041060Y-183384337D01*
X80038951Y-183383272D01*
X79316853Y-182949236D01*
X79314493Y-182947781D01*
X78299974Y-182306673D01*
X78298562Y-182305767D01*
X77106706Y-181529837D01*
X77105689Y-181529168D01*
X75786735Y-180651934D01*
X75785893Y-180651369D01*
X74389474Y-179706045D01*
X74388690Y-179705510D01*
X72963795Y-178724919D01*
X72962985Y-178724356D01*
X71558642Y-177741366D01*
X71557721Y-177740715D01*
X70224463Y-176789291D01*
X70222758Y-176788053D01*
X69526939Y-176273448D01*
X66170440Y-173791089D01*
X65307717Y-173153047D01*
X65304612Y-173150674D01*
X60682856Y-169501745D01*
X60680455Y-169499800D01*
X58491412Y-167681194D01*
X58489764Y-167679801D01*
X56382939Y-165866598D01*
X56381241Y-165865109D01*
X56011392Y-165534892D01*
X54362338Y-164062548D01*
X54360595Y-164060961D01*
X52433370Y-162272668D01*
X52431540Y-162270935D01*
X50599668Y-160500477D01*
X50597754Y-160498586D01*
X49493756Y-159384265D01*
X48865160Y-158749790D01*
X48863161Y-158747726D01*
X48710338Y-158586100D01*
X48032024Y-157868711D01*
X54919500Y-157868711D01*
X54919500Y-158111288D01*
X54951161Y-158351785D01*
X55013947Y-158586104D01*
X55106773Y-158810205D01*
X55106776Y-158810212D01*
X55228064Y-159020289D01*
X55228066Y-159020292D01*
X55228067Y-159020293D01*
X55375733Y-159212736D01*
X55375739Y-159212743D01*
X55547256Y-159384260D01*
X55547262Y-159384265D01*
X55739711Y-159531936D01*
X55949788Y-159653224D01*
X56173900Y-159746054D01*
X56408211Y-159808838D01*
X56588586Y-159832584D01*
X56648711Y-159840500D01*
X56648712Y-159840500D01*
X56891289Y-159840500D01*
X56939388Y-159834167D01*
X57131789Y-159808838D01*
X57366100Y-159746054D01*
X57590212Y-159653224D01*
X57800289Y-159531936D01*
X57992738Y-159384265D01*
X58164265Y-159212738D01*
X58311936Y-159020289D01*
X58433224Y-158810212D01*
X58526054Y-158586100D01*
X58588838Y-158351789D01*
X58620500Y-158111288D01*
X58620500Y-157868712D01*
X58620500Y-157868711D01*
X103919500Y-157868711D01*
X103919500Y-158111288D01*
X103951161Y-158351785D01*
X104013947Y-158586104D01*
X104106773Y-158810205D01*
X104106776Y-158810212D01*
X104228064Y-159020289D01*
X104228066Y-159020292D01*
X104228067Y-159020293D01*
X104375733Y-159212736D01*
X104375739Y-159212743D01*
X104547256Y-159384260D01*
X104547262Y-159384265D01*
X104739711Y-159531936D01*
X104949788Y-159653224D01*
X105173900Y-159746054D01*
X105408211Y-159808838D01*
X105588586Y-159832584D01*
X105648711Y-159840500D01*
X105648712Y-159840500D01*
X105891289Y-159840500D01*
X105939388Y-159834167D01*
X106131789Y-159808838D01*
X106366100Y-159746054D01*
X106590212Y-159653224D01*
X106800289Y-159531936D01*
X106992738Y-159384265D01*
X107164265Y-159212738D01*
X107311936Y-159020289D01*
X107433224Y-158810212D01*
X107526054Y-158586100D01*
X107588838Y-158351789D01*
X107620500Y-158111288D01*
X107620500Y-157868712D01*
X107588838Y-157628211D01*
X107526054Y-157393900D01*
X107433224Y-157169788D01*
X107311936Y-156959711D01*
X107208030Y-156824298D01*
X107164266Y-156767263D01*
X107164260Y-156767256D01*
X106992743Y-156595739D01*
X106992736Y-156595733D01*
X106800293Y-156448067D01*
X106800292Y-156448066D01*
X106800289Y-156448064D01*
X106590212Y-156326776D01*
X106590205Y-156326773D01*
X106366104Y-156233947D01*
X106131785Y-156171161D01*
X105891289Y-156139500D01*
X105891288Y-156139500D01*
X105648712Y-156139500D01*
X105648711Y-156139500D01*
X105408214Y-156171161D01*
X105173895Y-156233947D01*
X104949794Y-156326773D01*
X104949785Y-156326777D01*
X104739706Y-156448067D01*
X104547263Y-156595733D01*
X104547256Y-156595739D01*
X104375739Y-156767256D01*
X104375733Y-156767263D01*
X104228067Y-156959706D01*
X104106777Y-157169785D01*
X104106773Y-157169794D01*
X104013947Y-157393895D01*
X103951161Y-157628214D01*
X103919500Y-157868711D01*
X58620500Y-157868711D01*
X58588838Y-157628211D01*
X58526054Y-157393900D01*
X58433224Y-157169788D01*
X58311936Y-156959711D01*
X58208030Y-156824298D01*
X58164266Y-156767263D01*
X58164260Y-156767256D01*
X57992743Y-156595739D01*
X57992736Y-156595733D01*
X57800293Y-156448067D01*
X57800292Y-156448066D01*
X57800289Y-156448064D01*
X57590212Y-156326776D01*
X57590205Y-156326773D01*
X57366104Y-156233947D01*
X57131785Y-156171161D01*
X56891289Y-156139500D01*
X56891288Y-156139500D01*
X56648712Y-156139500D01*
X56648711Y-156139500D01*
X56408214Y-156171161D01*
X56173895Y-156233947D01*
X55949794Y-156326773D01*
X55949785Y-156326777D01*
X55739706Y-156448067D01*
X55547263Y-156595733D01*
X55547256Y-156595739D01*
X55375739Y-156767256D01*
X55375733Y-156767263D01*
X55228067Y-156959706D01*
X55106777Y-157169785D01*
X55106773Y-157169794D01*
X55013947Y-157393895D01*
X54951161Y-157628214D01*
X54919500Y-157868711D01*
X48032024Y-157868711D01*
X47827678Y-157652593D01*
X47233439Y-157024123D01*
X47231314Y-157021818D01*
X46254260Y-155934685D01*
X45708315Y-155327232D01*
X45706068Y-155324661D01*
X44293544Y-153662858D01*
X44291144Y-153659945D01*
X42992920Y-152034858D01*
X42990356Y-152031535D01*
X41810104Y-150446991D01*
X41807397Y-150443211D01*
X40747566Y-148901385D01*
X40745140Y-148897717D01*
X40014783Y-147750051D01*
X39767637Y-147361691D01*
X39765468Y-147358154D01*
X39693399Y-147236046D01*
X38858884Y-145822104D01*
X38856692Y-145818232D01*
X38843069Y-145793124D01*
X38018849Y-144274084D01*
X38016716Y-144269969D01*
X37244550Y-142708146D01*
X37242480Y-142703744D01*
X37102122Y-142389379D01*
X36532993Y-141114676D01*
X36531106Y-141110212D01*
X35881329Y-139484213D01*
X35879613Y-139479660D01*
X35286658Y-137807045D01*
X35285173Y-137802588D01*
X34746236Y-136073693D01*
X34744960Y-136069316D01*
X34257321Y-134274558D01*
X34256269Y-134270401D01*
X34245888Y-134226179D01*
X33817235Y-132400129D01*
X33816389Y-132396239D01*
X33734674Y-131989732D01*
X57314637Y-131989732D01*
X57315703Y-132004138D01*
X57315491Y-132009372D01*
X57315523Y-132009734D01*
X57329997Y-132073815D01*
X57330028Y-132073951D01*
X57344429Y-132137936D01*
X57344516Y-132138103D01*
X57344558Y-132138286D01*
X57361020Y-132169606D01*
X57374840Y-132195897D01*
X57374880Y-132195974D01*
X57381419Y-132208436D01*
X57385805Y-132217709D01*
X57401274Y-132254253D01*
X57407607Y-132262376D01*
X57414333Y-132271036D01*
X57424125Y-132289665D01*
X57453487Y-132321454D01*
X57456738Y-132325640D01*
X57458399Y-132329863D01*
X57469679Y-132346176D01*
X57471063Y-132348940D01*
X57501590Y-132383328D01*
X57506648Y-132389406D01*
X57534910Y-132425655D01*
X57534912Y-132425657D01*
X57537979Y-132427973D01*
X57555992Y-132444612D01*
X57628748Y-132526572D01*
X57671549Y-132574788D01*
X57675187Y-132581536D01*
X57715201Y-132623961D01*
X57716450Y-132625367D01*
X57716450Y-132625368D01*
X57753944Y-132667605D01*
X57760091Y-132672931D01*
X57759658Y-132673429D01*
X57770243Y-132682321D01*
X57964049Y-132887805D01*
X57964050Y-132887805D01*
X57972001Y-132896235D01*
X57973904Y-132899639D01*
X58017170Y-132944125D01*
X58017852Y-132944848D01*
X58017854Y-132944850D01*
X58059748Y-132989270D01*
X58060590Y-132989956D01*
X58071148Y-132999626D01*
X58342915Y-133279059D01*
X58344277Y-133281435D01*
X58388837Y-133326276D01*
X58432888Y-133371570D01*
X58432890Y-133371571D01*
X58433952Y-133372663D01*
X58442586Y-133380365D01*
X58602168Y-133540955D01*
X58742131Y-133681803D01*
X58760259Y-133700045D01*
X58761482Y-133702131D01*
X58806723Y-133746802D01*
X58851451Y-133791812D01*
X58851455Y-133791814D01*
X58853025Y-133793394D01*
X58860749Y-133800146D01*
X59191669Y-134126894D01*
X59198990Y-134134123D01*
X59200315Y-134136332D01*
X59245835Y-134180377D01*
X59246293Y-134180829D01*
X59292255Y-134226212D01*
X59300560Y-134233329D01*
X59615824Y-134538374D01*
X59633942Y-134555905D01*
X59635656Y-134558682D01*
X59681296Y-134601724D01*
X59681843Y-134602253D01*
X59681844Y-134602254D01*
X59726615Y-134645574D01*
X59737114Y-134654365D01*
X60041189Y-134941130D01*
X60044503Y-134946223D01*
X60089037Y-134986254D01*
X60090135Y-134987289D01*
X60090136Y-134987291D01*
X60132637Y-135027373D01*
X60138135Y-135031341D01*
X60148458Y-135039666D01*
X60830637Y-135652870D01*
X60835419Y-135659717D01*
X60879524Y-135696815D01*
X60881013Y-135698153D01*
X60881025Y-135698163D01*
X60898309Y-135713700D01*
X60922434Y-135735386D01*
X60929132Y-135739981D01*
X60928826Y-135740426D01*
X60940788Y-135748346D01*
X61606046Y-136307915D01*
X61606045Y-136307915D01*
X61617268Y-136317355D01*
X61621247Y-136322743D01*
X61667621Y-136359708D01*
X61712993Y-136397871D01*
X61712997Y-136397872D01*
X61719844Y-136402247D01*
X61719392Y-136402954D01*
X61730527Y-136409849D01*
X62013828Y-136635666D01*
X62016655Y-136639351D01*
X62065297Y-136676691D01*
X62113250Y-136714914D01*
X62113253Y-136714916D01*
X62115786Y-136716441D01*
X62127328Y-136724309D01*
X62160075Y-136749447D01*
X62400807Y-136934246D01*
X62400806Y-136934246D01*
X62410727Y-136941862D01*
X62413688Y-136945576D01*
X62462921Y-136981928D01*
X62511490Y-137019212D01*
X62511501Y-137019216D01*
X62514299Y-137020833D01*
X62525933Y-137028454D01*
X62773642Y-137211353D01*
X62799432Y-137230396D01*
X62809945Y-137238158D01*
X62813030Y-137241881D01*
X62862874Y-137277239D01*
X62912070Y-137313564D01*
X62912073Y-137313565D01*
X62915103Y-137315241D01*
X62926840Y-137322616D01*
X63201832Y-137517689D01*
X63201832Y-137517690D01*
X63212164Y-137525019D01*
X63215358Y-137528726D01*
X63265839Y-137563095D01*
X63266760Y-137563749D01*
X63266832Y-137563799D01*
X63315661Y-137598438D01*
X63315667Y-137598440D01*
X63318855Y-137600125D01*
X63330706Y-137607260D01*
X63618063Y-137802907D01*
X63621347Y-137806572D01*
X63672503Y-137839972D01*
X63722935Y-137874309D01*
X63722939Y-137874310D01*
X63722940Y-137874311D01*
X63726209Y-137875959D01*
X63738193Y-137882862D01*
X64017697Y-138065354D01*
X64028319Y-138072289D01*
X64031666Y-138075883D01*
X64083402Y-138108254D01*
X64134551Y-138141650D01*
X64134554Y-138141651D01*
X64137851Y-138143233D01*
X64149968Y-138149904D01*
X64381312Y-138294656D01*
X64432870Y-138326916D01*
X64432869Y-138326916D01*
X64443587Y-138333622D01*
X64446979Y-138337126D01*
X64499396Y-138368541D01*
X64551172Y-138400937D01*
X64551175Y-138400938D01*
X64554423Y-138402421D01*
X64566674Y-138408863D01*
X64767124Y-138528997D01*
X64864540Y-138587381D01*
X64867951Y-138590774D01*
X64920931Y-138621178D01*
X64921948Y-138621788D01*
X64973440Y-138652648D01*
X64973442Y-138652649D01*
X64973449Y-138652653D01*
X64973456Y-138652655D01*
X64976564Y-138654002D01*
X64988971Y-138660226D01*
X65291840Y-138834039D01*
X65295247Y-138837305D01*
X65348915Y-138866793D01*
X65349917Y-138867369D01*
X65349918Y-138867370D01*
X65393789Y-138892547D01*
X65402047Y-138897286D01*
X65402053Y-138897287D01*
X65404963Y-138898484D01*
X65417524Y-138904493D01*
X65728109Y-139075153D01*
X65733168Y-139079748D01*
X65785757Y-139106830D01*
X65787247Y-139107649D01*
X65837614Y-139135324D01*
X65837618Y-139135326D01*
X65837621Y-139135326D01*
X65845195Y-139138278D01*
X65844898Y-139139037D01*
X65857259Y-139143652D01*
X66617815Y-139535319D01*
X66623625Y-139540286D01*
X66676289Y-139565432D01*
X66728180Y-139592155D01*
X66728188Y-139592156D01*
X66735838Y-139594904D01*
X66735613Y-139595529D01*
X66748677Y-139599996D01*
X66863752Y-139654943D01*
X67272342Y-139850040D01*
X67306484Y-139866342D01*
X67311531Y-139870438D01*
X67365840Y-139894684D01*
X67419539Y-139920325D01*
X67419551Y-139920327D01*
X67427075Y-139922775D01*
X67439256Y-139927461D01*
X67996679Y-140176324D01*
X68001962Y-140180386D01*
X68056736Y-140203136D01*
X68110928Y-140227331D01*
X68110929Y-140227331D01*
X68110931Y-140227332D01*
X68118722Y-140229648D01*
X68118483Y-140230449D01*
X68131066Y-140234010D01*
X68346455Y-140323473D01*
X68676803Y-140460686D01*
X68676803Y-140460687D01*
X68690325Y-140466303D01*
X68695822Y-140470301D01*
X68751057Y-140491529D01*
X68752606Y-140492173D01*
X68805744Y-140514244D01*
X68805747Y-140514244D01*
X68805750Y-140514246D01*
X68805752Y-140514246D01*
X68813599Y-140516357D01*
X68813383Y-140517156D01*
X68826155Y-140520391D01*
X69388318Y-140736450D01*
X69394003Y-140740353D01*
X69449731Y-140760053D01*
X69504895Y-140781255D01*
X69504896Y-140781255D01*
X69512795Y-140783155D01*
X69512609Y-140783927D01*
X69525531Y-140786850D01*
X69601056Y-140813549D01*
X70091553Y-140986947D01*
X70097393Y-140990725D01*
X70153569Y-141008870D01*
X70209243Y-141028552D01*
X70209244Y-141028552D01*
X70209247Y-141028553D01*
X70217193Y-141030238D01*
X70217028Y-141031011D01*
X70230069Y-141033581D01*
X70800906Y-141217967D01*
X70806868Y-141221596D01*
X70863514Y-141238190D01*
X70919672Y-141256330D01*
X70919677Y-141256330D01*
X70927669Y-141257798D01*
X70927526Y-141258571D01*
X70940643Y-141260785D01*
X71325666Y-141373577D01*
X71503253Y-141425601D01*
X71503252Y-141425601D01*
X71517263Y-141429705D01*
X71523306Y-141433160D01*
X71580374Y-141448193D01*
X71637048Y-141464796D01*
X71637050Y-141464796D01*
X71637054Y-141464797D01*
X71645083Y-141466044D01*
X71644962Y-141466821D01*
X71658131Y-141468676D01*
X72241488Y-141622351D01*
X72247577Y-141625616D01*
X72305099Y-141639108D01*
X72362244Y-141654162D01*
X72362253Y-141654161D01*
X72370313Y-141655189D01*
X72370212Y-141655977D01*
X72383388Y-141657471D01*
X72406789Y-141662960D01*
X72974462Y-141796113D01*
X72980556Y-141799173D01*
X73038503Y-141811134D01*
X73096124Y-141824650D01*
X73096126Y-141824649D01*
X73096127Y-141824650D01*
X73104220Y-141825458D01*
X73104139Y-141826268D01*
X73117278Y-141827394D01*
X73702684Y-141948234D01*
X73702685Y-141948235D01*
X73717055Y-141951201D01*
X73723115Y-141954048D01*
X73781467Y-141964498D01*
X73783020Y-141964819D01*
X73783052Y-141964825D01*
X73839561Y-141976490D01*
X73839562Y-141976489D01*
X73839563Y-141976490D01*
X73847669Y-141977080D01*
X73847605Y-141977949D01*
X73860676Y-141978684D01*
X74470144Y-142087839D01*
X74476134Y-142090466D01*
X74534918Y-142099440D01*
X74593428Y-142109919D01*
X74593430Y-142109918D01*
X74593431Y-142109919D01*
X74601446Y-142110290D01*
X74614421Y-142111576D01*
X75234616Y-142206256D01*
X75240497Y-142208662D01*
X75299619Y-142216179D01*
X75301161Y-142216415D01*
X75324095Y-142219916D01*
X75358606Y-142225185D01*
X75358612Y-142225184D01*
X75366142Y-142225339D01*
X75379218Y-142226302D01*
X76011347Y-142306687D01*
X76017092Y-142308877D01*
X76076623Y-142314988D01*
X76135982Y-142322537D01*
X76135989Y-142322535D01*
X76142927Y-142322505D01*
X76156144Y-142323151D01*
X76801242Y-142389379D01*
X76806824Y-142391359D01*
X76866730Y-142396102D01*
X76926453Y-142402234D01*
X76926462Y-142402232D01*
X76932769Y-142402052D01*
X76946104Y-142402387D01*
X77591683Y-142453509D01*
X77591682Y-142453509D01*
X77597805Y-142453993D01*
X77605208Y-142454580D01*
X77610595Y-142456356D01*
X77670790Y-142459773D01*
X77730925Y-142464535D01*
X77730933Y-142464533D01*
X77736590Y-142464240D01*
X77750049Y-142464271D01*
X78432947Y-142503039D01*
X78446687Y-142506730D01*
X78498542Y-142506763D01*
X78550314Y-142509702D01*
X78551698Y-142509413D01*
X78572219Y-142506904D01*
X78574640Y-142506811D01*
X78578472Y-142506814D01*
X78579123Y-142506639D01*
X78585779Y-142506385D01*
X78587065Y-142506709D01*
X78594215Y-142506349D01*
X79388533Y-142530095D01*
X79402308Y-142532117D01*
X79402391Y-142531484D01*
X79410448Y-142532538D01*
X79468677Y-142532491D01*
X79526844Y-142534230D01*
X79534431Y-142532438D01*
X80404467Y-142531737D01*
X80417791Y-142533297D01*
X80417869Y-142532543D01*
X80425954Y-142533370D01*
X80425955Y-142533371D01*
X80425955Y-142533370D01*
X80425956Y-142533371D01*
X80428519Y-142533297D01*
X80483078Y-142531722D01*
X80486465Y-142531671D01*
X80543677Y-142531626D01*
X80543680Y-142531625D01*
X80543682Y-142531625D01*
X80551741Y-142530558D01*
X80551841Y-142531313D01*
X80565112Y-142529355D01*
X81456106Y-142503645D01*
X81462727Y-142505031D01*
X81521892Y-142501746D01*
X81581081Y-142500039D01*
X81589109Y-142498746D01*
X81589243Y-142499581D01*
X81602179Y-142497290D01*
X82501442Y-142447375D01*
X82507995Y-142448569D01*
X82567145Y-142443728D01*
X82626377Y-142440441D01*
X82626378Y-142440440D01*
X82634367Y-142438935D01*
X82634534Y-142439821D01*
X82647322Y-142437167D01*
X83542234Y-142363937D01*
X83548959Y-142364977D01*
X83607778Y-142358574D01*
X83666793Y-142353745D01*
X83666801Y-142353741D01*
X83674738Y-142352030D01*
X83674912Y-142352839D01*
X83687750Y-142349868D01*
X84565699Y-142254298D01*
X84572871Y-142255199D01*
X84631104Y-142247178D01*
X84689526Y-142240819D01*
X84689528Y-142240818D01*
X84689530Y-142240818D01*
X84697423Y-142238892D01*
X84697598Y-142239610D01*
X84710660Y-142236220D01*
X85559147Y-142119359D01*
X85567090Y-142120105D01*
X85624318Y-142110383D01*
X85681800Y-142102467D01*
X85681803Y-142102465D01*
X85689642Y-142100316D01*
X85689802Y-142100901D01*
X85703295Y-142096967D01*
X86507680Y-141960331D01*
X86514436Y-141960784D01*
X86572537Y-141949314D01*
X86630928Y-141939396D01*
X86630932Y-141939394D01*
X86638697Y-141936999D01*
X86638942Y-141937795D01*
X86651456Y-141933734D01*
X87172215Y-141830935D01*
X87177230Y-141831172D01*
X87236789Y-141818188D01*
X87296581Y-141806385D01*
X87296585Y-141806382D01*
X87300309Y-141805125D01*
X87313585Y-141801445D01*
X87825094Y-141689938D01*
X87830218Y-141690077D01*
X87889423Y-141675914D01*
X87948850Y-141662960D01*
X87948860Y-141662954D01*
X87952801Y-141661536D01*
X87965956Y-141657607D01*
X88468072Y-141537500D01*
X88473303Y-141537534D01*
X88532077Y-141522190D01*
X88591154Y-141508059D01*
X88591158Y-141508056D01*
X88595347Y-141506453D01*
X88608364Y-141502274D01*
X89101046Y-141373654D01*
X89106384Y-141373577D01*
X89164718Y-141357032D01*
X89223392Y-141341715D01*
X89223399Y-141341710D01*
X89227819Y-141339914D01*
X89240699Y-141335482D01*
X89723918Y-141198433D01*
X89729361Y-141198238D01*
X89787205Y-141180484D01*
X89845459Y-141163963D01*
X89845468Y-141163957D01*
X89850128Y-141161948D01*
X89862856Y-141157265D01*
X90336583Y-141011872D01*
X90342132Y-141011551D01*
X90399472Y-140992570D01*
X90457250Y-140974838D01*
X90457258Y-140974832D01*
X90462139Y-140972603D01*
X90474717Y-140967663D01*
X90938935Y-140814003D01*
X90944592Y-140813549D01*
X91001430Y-140793317D01*
X91058662Y-140774373D01*
X91058667Y-140774369D01*
X91063758Y-140771907D01*
X91076175Y-140766710D01*
X91530881Y-140604857D01*
X91536636Y-140604263D01*
X91592885Y-140582786D01*
X91649586Y-140562604D01*
X91649594Y-140562598D01*
X91654890Y-140559889D01*
X91667138Y-140554435D01*
X92112309Y-140384468D01*
X92118160Y-140383727D01*
X92173770Y-140361002D01*
X92229914Y-140339567D01*
X92229926Y-140339557D01*
X92235431Y-140336582D01*
X92247498Y-140330874D01*
X92683114Y-140152868D01*
X92689057Y-140151972D01*
X92744005Y-140127986D01*
X92799539Y-140105294D01*
X92799547Y-140105287D01*
X92805258Y-140102027D01*
X92817139Y-140096062D01*
X93243185Y-139910092D01*
X93249217Y-139909033D01*
X93303473Y-139883776D01*
X93358349Y-139859823D01*
X93358352Y-139859821D01*
X93364258Y-139856261D01*
X93375940Y-139850042D01*
X93792414Y-139656172D01*
X93798530Y-139654943D01*
X93852062Y-139628406D01*
X93906232Y-139603190D01*
X93906239Y-139603183D01*
X93912305Y-139599325D01*
X93923777Y-139592855D01*
X94330694Y-139391140D01*
X94336886Y-139389734D01*
X94389626Y-139361927D01*
X94443075Y-139335432D01*
X94443076Y-139335430D01*
X94449317Y-139331242D01*
X94460589Y-139324511D01*
X94857903Y-139115034D01*
X94864166Y-139113443D01*
X94916111Y-139084344D01*
X94968765Y-139056584D01*
X94968773Y-139056576D01*
X94975142Y-139052067D01*
X94986186Y-139045090D01*
X95373939Y-138827885D01*
X95380260Y-138826104D01*
X95431323Y-138795740D01*
X95483182Y-138766691D01*
X95483188Y-138766684D01*
X95489682Y-138761834D01*
X95500513Y-138754596D01*
X95877386Y-138530500D01*
X95882334Y-138528997D01*
X95933938Y-138496873D01*
X95986212Y-138465790D01*
X95986220Y-138465781D01*
X95989613Y-138463108D01*
X96000835Y-138455228D01*
X96202094Y-138329945D01*
X96205596Y-138328826D01*
X96258006Y-138295140D01*
X96310855Y-138262242D01*
X96310860Y-138262236D01*
X96311240Y-138261925D01*
X96322908Y-138253425D01*
X96516346Y-138129097D01*
X96520029Y-138127858D01*
X96571699Y-138093521D01*
X96623936Y-138059947D01*
X96623941Y-138059941D01*
X96624718Y-138059284D01*
X96636178Y-138050671D01*
X96822478Y-137926868D01*
X96826323Y-137925505D01*
X96877314Y-137890427D01*
X96928841Y-137856186D01*
X96928843Y-137856182D01*
X96929980Y-137855192D01*
X96941234Y-137846454D01*
X97121180Y-137722669D01*
X97125158Y-137721184D01*
X97175426Y-137685353D01*
X97226259Y-137650385D01*
X97226262Y-137650380D01*
X97227695Y-137649090D01*
X97238739Y-137640223D01*
X97413128Y-137515921D01*
X97417202Y-137514320D01*
X97466711Y-137477728D01*
X97516873Y-137441974D01*
X97516876Y-137441970D01*
X97518546Y-137440414D01*
X97529378Y-137431412D01*
X97698984Y-137306060D01*
X97703123Y-137304348D01*
X97751901Y-137266950D01*
X97801361Y-137230396D01*
X97801364Y-137230391D01*
X97803189Y-137228632D01*
X97813831Y-137219469D01*
X97979418Y-137092517D01*
X97983583Y-137090707D01*
X98031653Y-137052470D01*
X98080399Y-137015098D01*
X98080405Y-137015089D01*
X98082295Y-137013202D01*
X98092761Y-137003862D01*
X98255093Y-136874738D01*
X98259246Y-136872844D01*
X98306606Y-136833763D01*
X98354657Y-136795543D01*
X98354663Y-136795534D01*
X98356566Y-136793565D01*
X98366843Y-136784057D01*
X98526674Y-136652171D01*
X98530776Y-136650211D01*
X98577429Y-136610290D01*
X98624814Y-136571191D01*
X98624824Y-136571176D01*
X98626662Y-136569205D01*
X98636765Y-136559517D01*
X98794824Y-136424272D01*
X98798839Y-136422265D01*
X98844826Y-136381487D01*
X98891544Y-136341512D01*
X98891544Y-136341511D01*
X98893258Y-136339605D01*
X98903219Y-136329707D01*
X99060214Y-136190497D01*
X99064108Y-136188466D01*
X99109455Y-136146833D01*
X99155530Y-136105979D01*
X99155537Y-136105967D01*
X99157039Y-136104237D01*
X99166862Y-136094129D01*
X99323519Y-135950310D01*
X99327265Y-135948276D01*
X99372024Y-135905780D01*
X99395025Y-135884663D01*
X99417453Y-135864075D01*
X99417455Y-135864072D01*
X99417460Y-135864068D01*
X99417463Y-135864062D01*
X99418725Y-135862556D01*
X99428416Y-135852240D01*
X99585433Y-135703166D01*
X99589004Y-135701151D01*
X99633179Y-135657834D01*
X99678032Y-135615251D01*
X99678038Y-135615241D01*
X99679018Y-135614031D01*
X99688591Y-135603499D01*
X99847975Y-135447217D01*
X99852935Y-135444268D01*
X99894953Y-135401153D01*
X99937951Y-135358992D01*
X99937959Y-135358977D01*
X99941604Y-135354324D01*
X99950434Y-135344223D01*
X100368578Y-134915169D01*
X100373478Y-134912103D01*
X100414512Y-134868037D01*
X100456523Y-134824930D01*
X100456526Y-134824923D01*
X100460083Y-134820162D01*
X100468674Y-134809872D01*
X100734049Y-134524891D01*
X100739056Y-134521591D01*
X100778886Y-134476740D01*
X100819771Y-134432836D01*
X100819775Y-134432827D01*
X100823565Y-134427507D01*
X100831849Y-134417104D01*
X101086461Y-134130406D01*
X101091480Y-134126923D01*
X101130163Y-134081197D01*
X101169915Y-134036437D01*
X101169915Y-134036435D01*
X101173755Y-134030766D01*
X101181758Y-134020209D01*
X101425966Y-133731548D01*
X101430973Y-133727889D01*
X101468451Y-133681330D01*
X101507075Y-133635676D01*
X101507077Y-133635669D01*
X101510913Y-133629702D01*
X101518631Y-133618991D01*
X101752777Y-133328118D01*
X101757753Y-133324289D01*
X101794023Y-133276879D01*
X101831474Y-133230355D01*
X101831479Y-133230343D01*
X101835273Y-133224111D01*
X101842698Y-133213253D01*
X102067117Y-132919911D01*
X102072043Y-132915921D01*
X102107096Y-132867653D01*
X102143340Y-132820279D01*
X102143343Y-132820269D01*
X102147068Y-132813798D01*
X102154208Y-132802781D01*
X102369214Y-132506727D01*
X102374069Y-132502589D01*
X102407869Y-132453500D01*
X102442905Y-132405259D01*
X102442907Y-132405251D01*
X102446535Y-132398570D01*
X102453390Y-132387392D01*
X102456189Y-132383328D01*
X102659286Y-132088376D01*
X102664049Y-132084104D01*
X102696603Y-132034182D01*
X102730397Y-131985104D01*
X102730400Y-131985094D01*
X102733868Y-131978302D01*
X102740433Y-131966965D01*
X102937618Y-131664581D01*
X102942346Y-131660118D01*
X102973554Y-131609474D01*
X103006051Y-131559640D01*
X103006054Y-131559630D01*
X103009476Y-131552491D01*
X103015736Y-131541020D01*
X103065958Y-131459522D01*
X103067384Y-131458156D01*
X103100528Y-131403424D01*
X103134060Y-131349010D01*
X103134061Y-131349005D01*
X103135741Y-131346280D01*
X103139668Y-131338790D01*
X103195886Y-131245957D01*
X103197135Y-131244744D01*
X103230020Y-131189591D01*
X103263249Y-131134721D01*
X103263250Y-131134717D01*
X103265190Y-131131514D01*
X103268617Y-131124860D01*
X103324093Y-131031821D01*
X103325373Y-131030560D01*
X103357818Y-130975261D01*
X103390665Y-130920175D01*
X103390665Y-130920174D01*
X103392515Y-130917072D01*
X103396010Y-130910169D01*
X103429492Y-130853104D01*
X103444373Y-130827742D01*
X103445927Y-130826184D01*
X103477730Y-130770890D01*
X103509953Y-130715973D01*
X103509954Y-130715967D01*
X103511319Y-130713642D01*
X103515489Y-130705242D01*
X103545254Y-130653493D01*
X103552846Y-130641931D01*
X103553016Y-130641625D01*
X103553020Y-130641622D01*
X103583567Y-130586885D01*
X103614789Y-130532604D01*
X103615635Y-130529422D01*
X103630899Y-130502070D01*
X103638751Y-130491682D01*
X103637842Y-130491041D01*
X103642526Y-130484397D01*
X103665243Y-130441093D01*
X103669404Y-130433158D01*
X103670825Y-130430529D01*
X103699078Y-130379906D01*
X103699146Y-130379635D01*
X103703197Y-130372356D01*
X103707349Y-130368269D01*
X103708166Y-130366891D01*
X103706994Y-130366155D01*
X103711318Y-130359271D01*
X103711318Y-130359269D01*
X103711320Y-130359268D01*
X103731883Y-130314428D01*
X103734747Y-130308596D01*
X103743627Y-130291669D01*
X103748239Y-130283630D01*
X103757727Y-130268436D01*
X103764771Y-130245366D01*
X103768335Y-130235277D01*
X103769420Y-130232581D01*
X103780700Y-130207989D01*
X103781703Y-130202074D01*
X103781846Y-130201720D01*
X103783851Y-130197488D01*
X103789167Y-130168328D01*
X103792558Y-130154375D01*
X103801214Y-130126035D01*
X103802228Y-130096708D01*
X103807493Y-130067842D01*
X103804498Y-130031139D01*
X103805772Y-129994330D01*
X103802942Y-129982092D01*
X103800420Y-129966976D01*
X103800047Y-129963391D01*
X103798821Y-129936384D01*
X103796473Y-129928982D01*
X103795461Y-129919241D01*
X103795311Y-129918544D01*
X103795310Y-129918541D01*
X103778361Y-129871116D01*
X103776116Y-129864198D01*
X103774724Y-129859439D01*
X103770362Y-129838391D01*
X103766087Y-129829895D01*
X103762917Y-129819052D01*
X103762917Y-129818947D01*
X103762802Y-129818654D01*
X103759806Y-129808278D01*
X103757167Y-129802240D01*
X103754373Y-129796276D01*
X103754372Y-129796272D01*
X103737533Y-129769942D01*
X103732482Y-129761294D01*
X103729876Y-129756387D01*
X103724861Y-129744480D01*
X103720723Y-129739153D01*
X103715703Y-129729700D01*
X103715569Y-129729050D01*
X103714452Y-129727281D01*
X103713445Y-129725280D01*
X103711125Y-129720670D01*
X103705846Y-129714747D01*
X103692248Y-129696308D01*
X103688153Y-129689522D01*
X103688150Y-129689517D01*
X103679356Y-129681056D01*
X103672500Y-129673909D01*
X103666809Y-129667482D01*
X103664169Y-129663509D01*
X103660170Y-129659984D01*
X103655082Y-129654238D01*
X103654407Y-129652802D01*
X103649994Y-129648106D01*
X103644014Y-129640408D01*
X103644012Y-129640406D01*
X103644011Y-129640405D01*
X103639993Y-129637360D01*
X103635038Y-129633401D01*
X103628239Y-129627678D01*
X103618969Y-129617278D01*
X103604942Y-129608068D01*
X103600021Y-129603926D01*
X103598452Y-129602645D01*
X103594344Y-129599003D01*
X103586639Y-129593323D01*
X103586785Y-129593123D01*
X103574539Y-129584500D01*
X103565313Y-129576368D01*
X103565304Y-129576362D01*
X103558978Y-129573222D01*
X103552859Y-129569969D01*
X103545739Y-129565924D01*
X103533580Y-129556709D01*
X103519239Y-129550868D01*
X103512222Y-129546882D01*
X103511705Y-129546347D01*
X103501488Y-129541410D01*
X103501824Y-129540712D01*
X103489734Y-129535067D01*
X103484568Y-129531873D01*
X103484563Y-129531871D01*
X103472032Y-129528104D01*
X103464732Y-129525660D01*
X103458520Y-129523363D01*
X103440883Y-129514610D01*
X103427598Y-129511931D01*
X103418551Y-129508587D01*
X103417230Y-129507604D01*
X103412068Y-129505981D01*
X103409331Y-129504790D01*
X103409332Y-129504790D01*
X103388464Y-129501662D01*
X103371157Y-129497785D01*
X103350961Y-129491715D01*
X103347744Y-129491618D01*
X103340630Y-129491198D01*
X103331065Y-129490356D01*
X103317649Y-129487042D01*
X103297781Y-129487429D01*
X103291144Y-129486846D01*
X103289903Y-129486360D01*
X103283639Y-129485955D01*
X103273925Y-129484500D01*
X103270554Y-129483995D01*
X103270553Y-129483995D01*
X103256699Y-129485568D01*
X103231906Y-129485887D01*
X103219354Y-129484788D01*
X103219349Y-129484789D01*
X103202190Y-129487813D01*
X103192469Y-129489132D01*
X103187785Y-129489579D01*
X103165682Y-129490012D01*
X103156996Y-129492521D01*
X103147075Y-129493470D01*
X103143065Y-129494059D01*
X103143063Y-129494060D01*
X103143061Y-129494060D01*
X103143058Y-129494061D01*
X103110445Y-129503326D01*
X103098078Y-129506165D01*
X103092102Y-129507218D01*
X103081084Y-129508654D01*
X103078616Y-129508863D01*
X103070688Y-129510600D01*
X103070647Y-129510414D01*
X103065728Y-129511724D01*
X103064688Y-129512052D01*
X103053810Y-129517123D01*
X103037322Y-129523423D01*
X103027799Y-129526303D01*
X103019508Y-129527418D01*
X103007376Y-129532480D01*
X103001337Y-129534307D01*
X103001007Y-129534309D01*
X102999337Y-129534893D01*
X102986449Y-129538555D01*
X102984146Y-129539550D01*
X102972586Y-129545389D01*
X102964057Y-129548963D01*
X102961708Y-129549364D01*
X102947167Y-129556042D01*
X102945208Y-129556864D01*
X102944827Y-129556906D01*
X102939393Y-129559131D01*
X102919531Y-129566303D01*
X102912343Y-129570022D01*
X102909881Y-129571073D01*
X102909951Y-129571216D01*
X102887183Y-129582395D01*
X102880297Y-129585519D01*
X102857164Y-129595174D01*
X102853951Y-129597041D01*
X102847004Y-129600785D01*
X102838854Y-129604847D01*
X102836983Y-129605270D01*
X102817639Y-129615425D01*
X102816454Y-129616016D01*
X102816306Y-129616042D01*
X102812894Y-129617721D01*
X102804254Y-129621689D01*
X102795329Y-129625790D01*
X102795328Y-129625790D01*
X102795323Y-129625793D01*
X102788450Y-129630116D01*
X102788246Y-129629793D01*
X102777088Y-129636457D01*
X102731539Y-129658824D01*
X102726719Y-129662033D01*
X102703424Y-129674192D01*
X102700990Y-129675149D01*
X102649419Y-129703705D01*
X102646994Y-129705013D01*
X102594797Y-129732416D01*
X102590201Y-129735659D01*
X102578799Y-129742808D01*
X102493578Y-129789997D01*
X102491892Y-129790913D01*
X101397441Y-130375000D01*
X101393637Y-130376947D01*
X100222674Y-130950932D01*
X100219202Y-130952568D01*
X98968103Y-131518500D01*
X98964914Y-131519889D01*
X97636420Y-132076488D01*
X97633473Y-132077678D01*
X96230339Y-132623715D01*
X96227599Y-132624744D01*
X94752482Y-133159061D01*
X94749919Y-133159958D01*
X93205576Y-133681392D01*
X93203165Y-133682179D01*
X91592299Y-134189612D01*
X91589942Y-134190329D01*
X90403286Y-134538374D01*
X90400374Y-134539189D01*
X89263089Y-134842838D01*
X89259801Y-134843668D01*
X88154827Y-135106545D01*
X88151271Y-135107336D01*
X87061786Y-135332932D01*
X87058109Y-135333636D01*
X85967199Y-135525386D01*
X85963570Y-135525968D01*
X84854238Y-135687221D01*
X84850819Y-135687670D01*
X83706009Y-135821695D01*
X83702933Y-135822016D01*
X82510751Y-135931525D01*
X82506221Y-135931858D01*
X82033592Y-135957861D01*
X82030311Y-135957998D01*
X81365363Y-135976940D01*
X81362977Y-135976985D01*
X79698667Y-135992354D01*
X79696389Y-135992354D01*
X78013388Y-135976981D01*
X78011106Y-135976939D01*
X77322073Y-135957956D01*
X77319094Y-135957838D01*
X76810962Y-135931603D01*
X76807402Y-135931368D01*
X75744990Y-135845810D01*
X75742975Y-135845631D01*
X74726826Y-135747084D01*
X74724557Y-135746843D01*
X73743970Y-135633500D01*
X73741531Y-135633193D01*
X72781430Y-135502885D01*
X72778928Y-135502520D01*
X71823669Y-135352968D01*
X71821218Y-135352559D01*
X70855570Y-135181490D01*
X70853279Y-135181062D01*
X69861762Y-134986124D01*
X69859716Y-134985704D01*
X68827186Y-134764579D01*
X68825443Y-134764192D01*
X67946632Y-134562710D01*
X67945019Y-134562329D01*
X67070071Y-134349387D01*
X67068472Y-134348987D01*
X66197490Y-134124705D01*
X66195905Y-134124285D01*
X65329329Y-133888874D01*
X65327758Y-133888436D01*
X64465443Y-133641961D01*
X64463887Y-133641506D01*
X63605675Y-133384019D01*
X63604134Y-133383545D01*
X62750372Y-133115246D01*
X62748847Y-133114756D01*
X61900992Y-132836227D01*
X61898840Y-132835498D01*
X61013495Y-132526572D01*
X61011557Y-132525878D01*
X60044272Y-132170242D01*
X60042580Y-132169606D01*
X59116591Y-131813747D01*
X59115053Y-131813144D01*
X58709882Y-131651209D01*
X58708434Y-131650620D01*
X58695754Y-131645366D01*
X58485565Y-131558270D01*
X58373435Y-131511807D01*
X58372679Y-131511490D01*
X58363302Y-131507531D01*
X58361196Y-131505943D01*
X58320927Y-131489643D01*
X58320035Y-131489267D01*
X58319744Y-131489029D01*
X58309014Y-131483960D01*
X58306922Y-131482822D01*
X58273049Y-131469791D01*
X58269607Y-131468408D01*
X58269011Y-131468158D01*
X58259670Y-131463774D01*
X58257488Y-131462637D01*
X58257486Y-131462636D01*
X58245715Y-131458345D01*
X58242691Y-131457197D01*
X58234030Y-131453778D01*
X58231902Y-131452333D01*
X58219006Y-131447847D01*
X58216617Y-131446904D01*
X58216076Y-131446483D01*
X58208454Y-131443338D01*
X58206088Y-131442201D01*
X58203384Y-131441314D01*
X58197555Y-131439401D01*
X58189675Y-131436517D01*
X58187949Y-131435818D01*
X58183161Y-131433760D01*
X58179822Y-131432241D01*
X58171996Y-131429855D01*
X58159698Y-131425383D01*
X58152576Y-131422358D01*
X58152573Y-131422357D01*
X58152569Y-131422355D01*
X58152567Y-131422355D01*
X58147545Y-131420961D01*
X58142712Y-131419513D01*
X58139171Y-131418373D01*
X58138463Y-131417892D01*
X58137500Y-131417706D01*
X58135281Y-131416881D01*
X58135601Y-131416020D01*
X58131927Y-131414604D01*
X58131559Y-131415550D01*
X58123981Y-131412598D01*
X58115150Y-131410432D01*
X58101067Y-131405241D01*
X58100940Y-131405609D01*
X58093272Y-131402939D01*
X58083239Y-131400862D01*
X58076576Y-131399289D01*
X58069839Y-131397501D01*
X58065220Y-131395986D01*
X58059856Y-131393576D01*
X58047511Y-131391576D01*
X58041582Y-131390003D01*
X58040968Y-131389631D01*
X58037226Y-131388762D01*
X58030436Y-131386692D01*
X58030452Y-131386637D01*
X58022620Y-131384731D01*
X58020063Y-131384418D01*
X58011761Y-131383285D01*
X58011091Y-131383100D01*
X58010348Y-131383093D01*
X58002567Y-131382032D01*
X57997910Y-131379946D01*
X57981950Y-131377403D01*
X57980698Y-131377007D01*
X57980692Y-131377006D01*
X57974428Y-131376727D01*
X57962861Y-131375669D01*
X57958812Y-131375106D01*
X57951739Y-131373642D01*
X57949294Y-131373782D01*
X57940427Y-131372550D01*
X57939180Y-131371987D01*
X57938358Y-131371862D01*
X57932864Y-131371315D01*
X57932862Y-131371315D01*
X57932859Y-131371315D01*
X57926364Y-131370669D01*
X57926358Y-131370884D01*
X57918236Y-131370643D01*
X57917901Y-131370678D01*
X57892016Y-131370590D01*
X57878662Y-131369143D01*
X57877919Y-131369137D01*
X57868604Y-131370291D01*
X57858126Y-131371140D01*
X57853000Y-131371336D01*
X57839306Y-131370729D01*
X57833092Y-131372101D01*
X57821967Y-131372529D01*
X57820481Y-131372154D01*
X57815201Y-131372682D01*
X57794809Y-131375375D01*
X57792261Y-131375792D01*
X57792259Y-131375793D01*
X57792256Y-131375793D01*
X57792255Y-131375794D01*
X57783245Y-131378518D01*
X57764680Y-131382607D01*
X57761761Y-131383018D01*
X57746632Y-131384429D01*
X57743478Y-131385596D01*
X57740047Y-131386080D01*
X57739059Y-131386337D01*
X57731937Y-131389223D01*
X57730170Y-131389923D01*
X57723003Y-131392699D01*
X57722921Y-131392709D01*
X57720526Y-131393658D01*
X57719894Y-131393904D01*
X57719582Y-131393930D01*
X57703457Y-131398992D01*
X57679733Y-131404565D01*
X57673448Y-131406943D01*
X57661304Y-131413462D01*
X57654418Y-131416887D01*
X57648156Y-131419762D01*
X57646928Y-131420095D01*
X57645003Y-131421211D01*
X57639635Y-131423677D01*
X57638120Y-131423898D01*
X57630956Y-131427272D01*
X57616497Y-131432628D01*
X57615079Y-131433376D01*
X57606419Y-131438936D01*
X57600428Y-131441314D01*
X57585993Y-131452050D01*
X57582393Y-131454362D01*
X57581911Y-131454503D01*
X57578688Y-131456650D01*
X57571950Y-131460649D01*
X57571919Y-131460597D01*
X57564709Y-131465316D01*
X57551490Y-131472412D01*
X57544897Y-131477156D01*
X57544802Y-131477024D01*
X57539278Y-131481137D01*
X57539375Y-131481263D01*
X57532936Y-131486225D01*
X57521404Y-131497804D01*
X57512914Y-131505571D01*
X57509188Y-131508674D01*
X57508972Y-131508828D01*
X57508899Y-131508914D01*
X57506152Y-131511204D01*
X57505566Y-131511457D01*
X57500799Y-131515419D01*
X57494792Y-131519889D01*
X57489503Y-131523823D01*
X57483669Y-131529485D01*
X57483384Y-131529191D01*
X57480707Y-131531860D01*
X57481017Y-131532162D01*
X57475339Y-131537977D01*
X57466615Y-131549631D01*
X57460815Y-131556806D01*
X57456768Y-131561447D01*
X57455465Y-131562673D01*
X57454887Y-131563604D01*
X57450625Y-131568494D01*
X57450212Y-131568757D01*
X57445028Y-131574500D01*
X57435392Y-131584177D01*
X57431242Y-131589607D01*
X57430747Y-131590357D01*
X57429350Y-131592211D01*
X57418978Y-131610552D01*
X57412063Y-131621420D01*
X57410229Y-131623995D01*
X57407724Y-131627162D01*
X57407334Y-131628061D01*
X57403530Y-131633407D01*
X57402920Y-131633886D01*
X57400070Y-131638035D01*
X57394318Y-131645366D01*
X57392981Y-131647748D01*
X57392965Y-131647777D01*
X57392417Y-131648751D01*
X57386936Y-131662443D01*
X57376137Y-131683390D01*
X57369660Y-131693467D01*
X57369288Y-131694258D01*
X57367459Y-131699359D01*
X57364350Y-131707155D01*
X57361093Y-131712917D01*
X57359324Y-131719760D01*
X57356415Y-131727057D01*
X57354542Y-131729444D01*
X57354788Y-131729538D01*
X57351906Y-131737141D01*
X57350131Y-131744673D01*
X57346919Y-131755904D01*
X57345373Y-131760478D01*
X57340159Y-131772693D01*
X57339804Y-131775179D01*
X57339528Y-131775783D01*
X57338850Y-131779790D01*
X57338848Y-131779798D01*
X57338017Y-131784717D01*
X57331030Y-131809731D01*
X57330996Y-131809814D01*
X57330520Y-131811707D01*
X57330114Y-131814338D01*
X57328720Y-131821539D01*
X57327163Y-131826411D01*
X57326962Y-131830623D01*
X57325268Y-131839377D01*
X57325197Y-131839512D01*
X57324831Y-131844470D01*
X57322126Y-131858718D01*
X57322634Y-131858807D01*
X57321563Y-131864976D01*
X57320093Y-131872171D01*
X57319774Y-131873525D01*
X57319773Y-131873534D01*
X57319892Y-131877446D01*
X57318216Y-131901866D01*
X57316072Y-131914554D01*
X57316071Y-131914564D01*
X57316081Y-131914663D01*
X57315805Y-131940619D01*
X57314685Y-131950266D01*
X57314810Y-131958385D01*
X57314642Y-131958387D01*
X57315221Y-131974405D01*
X57314690Y-131981588D01*
X57315154Y-131989703D01*
X57314637Y-131989732D01*
X33734674Y-131989732D01*
X33423361Y-130441052D01*
X33422710Y-130437549D01*
X33073083Y-128388005D01*
X33072578Y-128384785D01*
X33065445Y-128335052D01*
X32763787Y-126231704D01*
X32763409Y-126228821D01*
X32685108Y-125573032D01*
X32492865Y-123962942D01*
X32492587Y-123960387D01*
X32257685Y-121572481D01*
X32257485Y-121570247D01*
X32055561Y-119050555D01*
X32055438Y-119048877D01*
X31748753Y-114436800D01*
X31748675Y-114435511D01*
X31748593Y-114434033D01*
X31499548Y-109932590D01*
X31499476Y-109931112D01*
X31309604Y-105530276D01*
X31305198Y-105428161D01*
X31305145Y-105426707D01*
X31304375Y-105401742D01*
X31162933Y-100813066D01*
X31162898Y-100811662D01*
X31162835Y-100808370D01*
X31069998Y-95976651D01*
X31069982Y-95975459D01*
X31069546Y-95926847D01*
X31023670Y-90809655D01*
X31023667Y-90808224D01*
X31023677Y-90805145D01*
X31024259Y-90615794D01*
X49644161Y-90615794D01*
X49647371Y-90643627D01*
X49647416Y-90644027D01*
X49648453Y-90653285D01*
X49648187Y-90660212D01*
X49650242Y-90669263D01*
X49651016Y-90676166D01*
X49650709Y-90677911D01*
X49651711Y-90685627D01*
X49652219Y-90700146D01*
X49653561Y-90708161D01*
X49653452Y-90708179D01*
X49655270Y-90716796D01*
X49655526Y-90718941D01*
X49656290Y-90727990D01*
X49656768Y-90729318D01*
X49657703Y-90737131D01*
X49657667Y-90737344D01*
X49657867Y-90738575D01*
X49658290Y-90742500D01*
X49658584Y-90765984D01*
X49658048Y-90772468D01*
X49665784Y-90815122D01*
X49666583Y-90819531D01*
X49671704Y-90867076D01*
X49678302Y-90884134D01*
X49680407Y-90895739D01*
X49680407Y-90895740D01*
X49703558Y-91023378D01*
X49704385Y-91036584D01*
X49705174Y-91036525D01*
X49705788Y-91044632D01*
X49717563Y-91100852D01*
X49718205Y-91104139D01*
X49728459Y-91160670D01*
X49730941Y-91168408D01*
X49730187Y-91168649D01*
X49734393Y-91181198D01*
X49835998Y-91666263D01*
X49869441Y-91825921D01*
X49869270Y-91830527D01*
X49882907Y-91890218D01*
X49883143Y-91891345D01*
X49883145Y-91891350D01*
X49895513Y-91950392D01*
X49896473Y-91953128D01*
X49900344Y-91966543D01*
X50069287Y-92705988D01*
X50071859Y-92717244D01*
X50071775Y-92721108D01*
X50086508Y-92781362D01*
X50086720Y-92782287D01*
X50100352Y-92841952D01*
X50100701Y-92842892D01*
X50104904Y-92856594D01*
X50165610Y-93104856D01*
X50168525Y-93116775D01*
X50168507Y-93121318D01*
X50184145Y-93180659D01*
X50184409Y-93181737D01*
X50198747Y-93240369D01*
X50199734Y-93242909D01*
X50204060Y-93256223D01*
X50248288Y-93424042D01*
X50251989Y-93438085D01*
X50252167Y-93445335D01*
X50268742Y-93501654D01*
X50269196Y-93503375D01*
X50269197Y-93503379D01*
X50278676Y-93539340D01*
X50282756Y-93554823D01*
X50283726Y-93558501D01*
X50286806Y-93566024D01*
X50286133Y-93566299D01*
X50291427Y-93578732D01*
X50346766Y-93766756D01*
X50346766Y-93766757D01*
X50350723Y-93780202D01*
X50351014Y-93786226D01*
X50369281Y-93843257D01*
X50369707Y-93844705D01*
X50386224Y-93900824D01*
X50388922Y-93906910D01*
X50393647Y-93919330D01*
X50458306Y-94121202D01*
X50458725Y-94127060D01*
X50478368Y-94183841D01*
X50478808Y-94185213D01*
X50478824Y-94185260D01*
X50495100Y-94236075D01*
X50496716Y-94241118D01*
X50499370Y-94246744D01*
X50504407Y-94259107D01*
X50574440Y-94461538D01*
X50574979Y-94467254D01*
X50595947Y-94523702D01*
X50607925Y-94558327D01*
X50615650Y-94580655D01*
X50618273Y-94585896D01*
X50623622Y-94598208D01*
X50694096Y-94787932D01*
X50694095Y-94787932D01*
X50698806Y-94800615D01*
X50699460Y-94806215D01*
X50721701Y-94862249D01*
X50722187Y-94863556D01*
X50742727Y-94918851D01*
X50745345Y-94923800D01*
X50750987Y-94936030D01*
X50826125Y-95125326D01*
X50826124Y-95125326D01*
X50831088Y-95137833D01*
X50831855Y-95143350D01*
X50855358Y-95198974D01*
X50855862Y-95200242D01*
X50855869Y-95200259D01*
X50877652Y-95255138D01*
X50880286Y-95259861D01*
X50886211Y-95271993D01*
X50965762Y-95460260D01*
X50965762Y-95460261D01*
X50970978Y-95472606D01*
X50971859Y-95478068D01*
X50996568Y-95533168D01*
X50997093Y-95534410D01*
X50997102Y-95534431D01*
X51020116Y-95588895D01*
X51022808Y-95593482D01*
X51029004Y-95605497D01*
X51118173Y-95804335D01*
X51119170Y-95809766D01*
X51145080Y-95864336D01*
X51145626Y-95865552D01*
X51169836Y-95919539D01*
X51172611Y-95924040D01*
X51179072Y-95935926D01*
X51266619Y-96120309D01*
X51272371Y-96132424D01*
X51273490Y-96137850D01*
X51300584Y-96191843D01*
X51301172Y-96193081D01*
X51301172Y-96193082D01*
X51326518Y-96246461D01*
X51329417Y-96250943D01*
X51336130Y-96262677D01*
X51427235Y-96444227D01*
X51433278Y-96456270D01*
X51434527Y-96461717D01*
X51462775Y-96515052D01*
X51463378Y-96516252D01*
X51463397Y-96516288D01*
X51489883Y-96569068D01*
X51492941Y-96573576D01*
X51499896Y-96585137D01*
X51594254Y-96763287D01*
X51600602Y-96775272D01*
X51601992Y-96780768D01*
X51631401Y-96833421D01*
X51632039Y-96834625D01*
X51632057Y-96834658D01*
X51659631Y-96886719D01*
X51662908Y-96891328D01*
X51670103Y-96902711D01*
X51767384Y-97076880D01*
X51771601Y-97084429D01*
X51774063Y-97088837D01*
X51775606Y-97094404D01*
X51806148Y-97146281D01*
X51806838Y-97147516D01*
X51835511Y-97198851D01*
X51839070Y-97203628D01*
X51846483Y-97214792D01*
X51946344Y-97384409D01*
X51946345Y-97384411D01*
X51953381Y-97396363D01*
X51955093Y-97402024D01*
X51986732Y-97453013D01*
X51987493Y-97454305D01*
X52017238Y-97504826D01*
X52021137Y-97509819D01*
X52028771Y-97520760D01*
X52130849Y-97685265D01*
X52130850Y-97685265D01*
X52133213Y-97689073D01*
X52138281Y-97697240D01*
X52140184Y-97703029D01*
X52172981Y-97753160D01*
X52173775Y-97754439D01*
X52173775Y-97754440D01*
X52204552Y-97804039D01*
X52208874Y-97809316D01*
X52216706Y-97819996D01*
X52328504Y-97990881D01*
X52330622Y-97996824D01*
X52364509Y-98045917D01*
X52365377Y-98047244D01*
X52397198Y-98095883D01*
X52402022Y-98101492D01*
X52410054Y-98111901D01*
X52523797Y-98276686D01*
X52526157Y-98282804D01*
X52561154Y-98330808D01*
X52562064Y-98332126D01*
X52562064Y-98332127D01*
X52594930Y-98379742D01*
X52600360Y-98385747D01*
X52608573Y-98395850D01*
X52715240Y-98542159D01*
X52715239Y-98542159D01*
X52723073Y-98552904D01*
X52725140Y-98557939D01*
X52761844Y-98606084D01*
X52771435Y-98619239D01*
X52797499Y-98654991D01*
X52800989Y-98658656D01*
X52809791Y-98668977D01*
X52828871Y-98694004D01*
X52831628Y-98697620D01*
X52839557Y-98709355D01*
X52840520Y-98710973D01*
X52871559Y-98750315D01*
X52878747Y-98759426D01*
X52916190Y-98808540D01*
X52919530Y-98811119D01*
X52926914Y-98820478D01*
X52926914Y-98820479D01*
X52926916Y-98820481D01*
X52949246Y-98848786D01*
X52957375Y-98860397D01*
X52958329Y-98861941D01*
X52996719Y-98908986D01*
X52997997Y-98910579D01*
X53035638Y-98958290D01*
X53036937Y-98959554D01*
X53046515Y-98970010D01*
X53069136Y-98997731D01*
X53077465Y-99009222D01*
X53078413Y-99010702D01*
X53078416Y-99010707D01*
X53078419Y-99010710D01*
X53078420Y-99010712D01*
X53117619Y-99057173D01*
X53118886Y-99058698D01*
X53157323Y-99105802D01*
X53157325Y-99105803D01*
X53157328Y-99105807D01*
X53158605Y-99107010D01*
X53168360Y-99117312D01*
X53182726Y-99134339D01*
X53191140Y-99144311D01*
X53199656Y-99155664D01*
X53200627Y-99157126D01*
X53240588Y-99202946D01*
X53241908Y-99204485D01*
X53281090Y-99250923D01*
X53282391Y-99252109D01*
X53292303Y-99262242D01*
X53315101Y-99288381D01*
X53323797Y-99299585D01*
X53324804Y-99301049D01*
X53365507Y-99346200D01*
X53366857Y-99347723D01*
X53406782Y-99393501D01*
X53408107Y-99394669D01*
X53418198Y-99404650D01*
X53433409Y-99421524D01*
X53440867Y-99429797D01*
X53449732Y-99440838D01*
X53450804Y-99442341D01*
X53450807Y-99442346D01*
X53491063Y-99485545D01*
X53492241Y-99486809D01*
X53493624Y-99488319D01*
X53534264Y-99533401D01*
X53535655Y-99534588D01*
X53545896Y-99544388D01*
X53568288Y-99568417D01*
X53577330Y-99579306D01*
X53578473Y-99580854D01*
X53578479Y-99580860D01*
X53578480Y-99580862D01*
X53620665Y-99624646D01*
X53621946Y-99625997D01*
X53663385Y-99670467D01*
X53663387Y-99670468D01*
X53663389Y-99670470D01*
X53664877Y-99671698D01*
X53675258Y-99681309D01*
X53695926Y-99702761D01*
X53697217Y-99704100D01*
X53706423Y-99714815D01*
X53707679Y-99716457D01*
X53741262Y-99750156D01*
X53750451Y-99759376D01*
X53751835Y-99760788D01*
X53793999Y-99804550D01*
X53794001Y-99804551D01*
X53794003Y-99804553D01*
X53795612Y-99805836D01*
X53806145Y-99815263D01*
X53826080Y-99835268D01*
X53827504Y-99836696D01*
X53836874Y-99847235D01*
X53838263Y-99848989D01*
X53881727Y-99891133D01*
X53883241Y-99892626D01*
X53917379Y-99926882D01*
X53925970Y-99935503D01*
X53925972Y-99935504D01*
X53927743Y-99936868D01*
X53938410Y-99946094D01*
X53959003Y-99966062D01*
X53968523Y-99976403D01*
X53970082Y-99978302D01*
X53970083Y-99978303D01*
X54011020Y-100016632D01*
X54014179Y-100019589D01*
X54015727Y-100021064D01*
X54050370Y-100054655D01*
X54059156Y-100063174D01*
X54061119Y-100064632D01*
X54071920Y-100073651D01*
X54091580Y-100092059D01*
X54101247Y-100102195D01*
X54103008Y-100104263D01*
X54147750Y-100144678D01*
X54149377Y-100146173D01*
X54193418Y-100187409D01*
X54193421Y-100187411D01*
X54195630Y-100188993D01*
X54206540Y-100197782D01*
X54225078Y-100214527D01*
X54234883Y-100224440D01*
X54236897Y-100226720D01*
X54239313Y-100228823D01*
X54282379Y-100266310D01*
X54283928Y-100267684D01*
X54317579Y-100298080D01*
X54328624Y-100308057D01*
X54331119Y-100309777D01*
X54342129Y-100318321D01*
X54359396Y-100333351D01*
X54369331Y-100343029D01*
X54371634Y-100345539D01*
X54417607Y-100384051D01*
X54419383Y-100385567D01*
X54464644Y-100424966D01*
X54464651Y-100424969D01*
X54467479Y-100426844D01*
X54478597Y-100435145D01*
X54492238Y-100446572D01*
X54494367Y-100448356D01*
X54504414Y-100457771D01*
X54507084Y-100460568D01*
X54553649Y-100498049D01*
X54555527Y-100499591D01*
X54601353Y-100537981D01*
X54604591Y-100540040D01*
X54615801Y-100548077D01*
X54629890Y-100559417D01*
X54640070Y-100568584D01*
X54643128Y-100571660D01*
X54643130Y-100571662D01*
X54673956Y-100595458D01*
X54690289Y-100608066D01*
X54692215Y-100609583D01*
X54738626Y-100646942D01*
X54738630Y-100646944D01*
X54742331Y-100649197D01*
X54753623Y-100656958D01*
X54765727Y-100666302D01*
X54775824Y-100675000D01*
X54780445Y-100679436D01*
X54827636Y-100714136D01*
X54829951Y-100715880D01*
X54876347Y-100751696D01*
X54881881Y-100754912D01*
X54893017Y-100762212D01*
X54949446Y-100803705D01*
X54951588Y-100805280D01*
X54961809Y-100813671D01*
X54966923Y-100818348D01*
X55014760Y-100851776D01*
X55017166Y-100853500D01*
X55064206Y-100888090D01*
X55064211Y-100888092D01*
X55070259Y-100891421D01*
X55081499Y-100898414D01*
X55142337Y-100940927D01*
X55152824Y-100949126D01*
X55157729Y-100953405D01*
X55206427Y-100985755D01*
X55208840Y-100987399D01*
X55230091Y-101002248D01*
X55256883Y-101020971D01*
X55256889Y-101020973D01*
X55262675Y-101023979D01*
X55274136Y-101030736D01*
X55337011Y-101072505D01*
X55347728Y-101080489D01*
X55352487Y-101084451D01*
X55402132Y-101115806D01*
X55404502Y-101117341D01*
X55453393Y-101149820D01*
X55453396Y-101149821D01*
X55458932Y-101152532D01*
X55470609Y-101159052D01*
X55535267Y-101199889D01*
X55546197Y-101207650D01*
X55550855Y-101211352D01*
X55550857Y-101211353D01*
X55601300Y-101241630D01*
X55603632Y-101243066D01*
X55653383Y-101274488D01*
X55653390Y-101274490D01*
X55658776Y-101276976D01*
X55670639Y-101283250D01*
X55736734Y-101322923D01*
X55747862Y-101330451D01*
X55752474Y-101333949D01*
X55752477Y-101333952D01*
X55752479Y-101333953D01*
X55803649Y-101363125D01*
X55805996Y-101364497D01*
X55856514Y-101394820D01*
X55856519Y-101394821D01*
X55861820Y-101397124D01*
X55873824Y-101403130D01*
X55941089Y-101441476D01*
X55952391Y-101448760D01*
X55956991Y-101452090D01*
X55956998Y-101452097D01*
X56008917Y-101480178D01*
X56011260Y-101481480D01*
X56041629Y-101498793D01*
X56062433Y-101510654D01*
X56067690Y-101512798D01*
X56079854Y-101518547D01*
X56147937Y-101555370D01*
X56159419Y-101562412D01*
X56164072Y-101565626D01*
X56216587Y-101592534D01*
X56218890Y-101593746D01*
X56270801Y-101621824D01*
X56270809Y-101621826D01*
X56276074Y-101623837D01*
X56288370Y-101629316D01*
X56356959Y-101664461D01*
X56368579Y-101671235D01*
X56373345Y-101674372D01*
X56373349Y-101674375D01*
X56426416Y-101700084D01*
X56428848Y-101701296D01*
X56448132Y-101711178D01*
X56481278Y-101728163D01*
X56486643Y-101730076D01*
X56499044Y-101735272D01*
X56567809Y-101768589D01*
X56579539Y-101775079D01*
X56584487Y-101778178D01*
X56638029Y-101802644D01*
X56640559Y-101803835D01*
X56693507Y-101829488D01*
X56693509Y-101829488D01*
X56693512Y-101829490D01*
X56693514Y-101829490D01*
X56699037Y-101831322D01*
X56711544Y-101836237D01*
X56780105Y-101867567D01*
X56791965Y-101873781D01*
X56797146Y-101876863D01*
X56797149Y-101876865D01*
X56829200Y-101890635D01*
X56851123Y-101900054D01*
X56853710Y-101901200D01*
X56907176Y-101925633D01*
X56907178Y-101925633D01*
X56912937Y-101927400D01*
X56925512Y-101932014D01*
X56993558Y-101961251D01*
X57005505Y-101967165D01*
X57010990Y-101970258D01*
X57010995Y-101970262D01*
X57053468Y-101987353D01*
X57065390Y-101992150D01*
X57068011Y-101993239D01*
X57121931Y-102016406D01*
X57121933Y-102016406D01*
X57121937Y-102016408D01*
X57127993Y-102018116D01*
X57140623Y-102022424D01*
X57207787Y-102049450D01*
X57219821Y-102055059D01*
X57225694Y-102058189D01*
X57225700Y-102058193D01*
X57280444Y-102078724D01*
X57283156Y-102079778D01*
X57337442Y-102101623D01*
X57337445Y-102101623D01*
X57343895Y-102103282D01*
X57356564Y-102107273D01*
X57422490Y-102131999D01*
X57434577Y-102137282D01*
X57440934Y-102140474D01*
X57440937Y-102140476D01*
X57440940Y-102140477D01*
X57440942Y-102140478D01*
X57460201Y-102147169D01*
X57496009Y-102159611D01*
X57498736Y-102160595D01*
X57553384Y-102181091D01*
X57553387Y-102181091D01*
X57553389Y-102181092D01*
X57560320Y-102182700D01*
X57573000Y-102186362D01*
X57608164Y-102198579D01*
X57637321Y-102208710D01*
X57649454Y-102213658D01*
X57656379Y-102216919D01*
X57656385Y-102216923D01*
X57693331Y-102228725D01*
X57711656Y-102234579D01*
X57714621Y-102235568D01*
X57742055Y-102245100D01*
X57769433Y-102254613D01*
X57769434Y-102254613D01*
X57776941Y-102256162D01*
X57789611Y-102259482D01*
X57852070Y-102279435D01*
X57863947Y-102284862D01*
X57864293Y-102284076D01*
X57871732Y-102287345D01*
X57871734Y-102287345D01*
X57871735Y-102287346D01*
X57927218Y-102303484D01*
X57930207Y-102304396D01*
X57985261Y-102321985D01*
X57985268Y-102321985D01*
X57993267Y-102323427D01*
X57993117Y-102324255D01*
X58005998Y-102326401D01*
X58067949Y-102344422D01*
X58080937Y-102349885D01*
X58081161Y-102349331D01*
X58088701Y-102352363D01*
X58088704Y-102352365D01*
X58106041Y-102356820D01*
X58142975Y-102366311D01*
X58146715Y-102367334D01*
X58200562Y-102382998D01*
X58208597Y-102384230D01*
X58208506Y-102384823D01*
X58222469Y-102386737D01*
X58277931Y-102400990D01*
X58290415Y-102404911D01*
X58297677Y-102407620D01*
X58297682Y-102407623D01*
X58338634Y-102417047D01*
X58354179Y-102420625D01*
X58357230Y-102421368D01*
X58386994Y-102429016D01*
X58413398Y-102435801D01*
X58413402Y-102435800D01*
X58421099Y-102436734D01*
X58433996Y-102438993D01*
X58502046Y-102454654D01*
X58515059Y-102458408D01*
X58519954Y-102460114D01*
X58519957Y-102460114D01*
X58519962Y-102460117D01*
X58577917Y-102472142D01*
X58580435Y-102472693D01*
X58638135Y-102485973D01*
X58638139Y-102485972D01*
X58643283Y-102486464D01*
X58656685Y-102488487D01*
X58734258Y-102504584D01*
X58747580Y-102508132D01*
X58751316Y-102509353D01*
X58810101Y-102520345D01*
X58812377Y-102520794D01*
X58870912Y-102532942D01*
X58870917Y-102532941D01*
X58874836Y-102533231D01*
X58888494Y-102535006D01*
X58982863Y-102552653D01*
X58987325Y-102554686D01*
X59047539Y-102564748D01*
X59107581Y-102575977D01*
X59107587Y-102575976D01*
X59111221Y-102576173D01*
X59124968Y-102577688D01*
X59218837Y-102593375D01*
X59223540Y-102595404D01*
X59283733Y-102604220D01*
X59343765Y-102614253D01*
X59343771Y-102614252D01*
X59347972Y-102614398D01*
X59361648Y-102615632D01*
X59436827Y-102626644D01*
X59449986Y-102629307D01*
X59455629Y-102630771D01*
X59455631Y-102630771D01*
X59455633Y-102630772D01*
X59515436Y-102638159D01*
X59575044Y-102646890D01*
X59580734Y-102646224D01*
X59658644Y-102655848D01*
X59671497Y-102659004D01*
X59671678Y-102658223D01*
X59679594Y-102660048D01*
X59679600Y-102660050D01*
X59736846Y-102665550D01*
X59740061Y-102665904D01*
X59797109Y-102672952D01*
X59797109Y-102672951D01*
X59797110Y-102672952D01*
X59805246Y-102672887D01*
X59805252Y-102673692D01*
X59818485Y-102673397D01*
X59874694Y-102678799D01*
X59899834Y-102683924D01*
X59900145Y-102683979D01*
X59900148Y-102683980D01*
X59900150Y-102683980D01*
X59908159Y-102685400D01*
X59908148Y-102685459D01*
X59914297Y-102686408D01*
X59914305Y-102686348D01*
X59922359Y-102687408D01*
X59922361Y-102687409D01*
X59958337Y-102687409D01*
X59965825Y-102687635D01*
X59967998Y-102687766D01*
X60005963Y-102691415D01*
X60011892Y-102690421D01*
X60023389Y-102691117D01*
X60027988Y-102691203D01*
X60027993Y-102691205D01*
X60085916Y-102692295D01*
X60088951Y-102692391D01*
X60146850Y-102694972D01*
X60146860Y-102694969D01*
X60154824Y-102694280D01*
X60167852Y-102693839D01*
X60194942Y-102694350D01*
X60209164Y-102695439D01*
X60210469Y-102695614D01*
X60210477Y-102695617D01*
X60271579Y-102695807D01*
X60273307Y-102695825D01*
X60334385Y-102696977D01*
X60334393Y-102696974D01*
X60335687Y-102696830D01*
X60349940Y-102696052D01*
X60664086Y-102697033D01*
X60667533Y-102697917D01*
X60729960Y-102697239D01*
X60791877Y-102697432D01*
X60792314Y-102697434D01*
X60792314Y-102697433D01*
X60792316Y-102697434D01*
X60792317Y-102697433D01*
X60792520Y-102697408D01*
X60806979Y-102696403D01*
X61125830Y-102692941D01*
X61129507Y-102693826D01*
X61191685Y-102692226D01*
X61253830Y-102691552D01*
X61253836Y-102691550D01*
X61254590Y-102691443D01*
X61268926Y-102690239D01*
X61301791Y-102689394D01*
X61315174Y-102689773D01*
X61321190Y-102690268D01*
X61321195Y-102690270D01*
X61379950Y-102687414D01*
X61382309Y-102687323D01*
X61382436Y-102687319D01*
X61441461Y-102685802D01*
X61442239Y-102685571D01*
X61450983Y-102685316D01*
X61452761Y-102685782D01*
X61459871Y-102685375D01*
X61464141Y-102685555D01*
X61464149Y-102685557D01*
X61517392Y-102680835D01*
X61522298Y-102680498D01*
X61575685Y-102677906D01*
X61575687Y-102677905D01*
X61583684Y-102676455D01*
X61583728Y-102676698D01*
X61599091Y-102673592D01*
X61871323Y-102649456D01*
X61877591Y-102650394D01*
X61936874Y-102643645D01*
X61996282Y-102638378D01*
X61996288Y-102638375D01*
X62003573Y-102636752D01*
X62016526Y-102634576D01*
X62277135Y-102604909D01*
X62283690Y-102605716D01*
X62342505Y-102597467D01*
X62401513Y-102590750D01*
X62401519Y-102590747D01*
X62409398Y-102588784D01*
X62409633Y-102589728D01*
X62422201Y-102586290D01*
X62677822Y-102550441D01*
X62684545Y-102551088D01*
X62742990Y-102541301D01*
X62801645Y-102533076D01*
X62801649Y-102533073D01*
X62809479Y-102530906D01*
X62809700Y-102531704D01*
X62822313Y-102528019D01*
X63075472Y-102485631D01*
X63082225Y-102486100D01*
X63140373Y-102474764D01*
X63198774Y-102464986D01*
X63198775Y-102464985D01*
X63198777Y-102464985D01*
X63206549Y-102462608D01*
X63206796Y-102463415D01*
X63219306Y-102459376D01*
X63472162Y-102410085D01*
X63478809Y-102410372D01*
X63536736Y-102397497D01*
X63594982Y-102386143D01*
X63594986Y-102386140D01*
X63602694Y-102383558D01*
X63602979Y-102384408D01*
X63615286Y-102380038D01*
X63869972Y-102323434D01*
X63876386Y-102323549D01*
X63934201Y-102309159D01*
X63992357Y-102296234D01*
X63992361Y-102296231D01*
X63999570Y-102293603D01*
X64012097Y-102289771D01*
X64271012Y-102225330D01*
X64277079Y-102225294D01*
X64334880Y-102209434D01*
X64393011Y-102194966D01*
X64393019Y-102194961D01*
X64399276Y-102192500D01*
X64411864Y-102188310D01*
X64677249Y-102115492D01*
X64682687Y-102115344D01*
X64740722Y-102098077D01*
X64799093Y-102082061D01*
X64799102Y-102082055D01*
X64803739Y-102080103D01*
X64816511Y-102075527D01*
X65112003Y-101987611D01*
X65117344Y-101987353D01*
X65175073Y-101968846D01*
X65233189Y-101951556D01*
X65233194Y-101951552D01*
X65237580Y-101949594D01*
X65250297Y-101944731D01*
X65535888Y-101853181D01*
X65541475Y-101852787D01*
X65598537Y-101833097D01*
X65599825Y-101832685D01*
X65640924Y-101819510D01*
X65656051Y-101814661D01*
X65656058Y-101814656D01*
X65660998Y-101812324D01*
X65673495Y-101807234D01*
X65950325Y-101711719D01*
X65956109Y-101711178D01*
X66012511Y-101690262D01*
X66069410Y-101670631D01*
X66069415Y-101670627D01*
X66074816Y-101667931D01*
X66087096Y-101662605D01*
X66356330Y-101562768D01*
X66362262Y-101562073D01*
X66418026Y-101539890D01*
X66474294Y-101519026D01*
X66474299Y-101519022D01*
X66480024Y-101515998D01*
X66492102Y-101510424D01*
X66754920Y-101405881D01*
X66760943Y-101405028D01*
X66816076Y-101381554D01*
X66871724Y-101359419D01*
X66871729Y-101359414D01*
X66877634Y-101356116D01*
X66889532Y-101350278D01*
X67147103Y-101240617D01*
X67153152Y-101239611D01*
X67207639Y-101214843D01*
X67262714Y-101191395D01*
X67262714Y-101191394D01*
X67268665Y-101187880D01*
X67280399Y-101181769D01*
X67533873Y-101066552D01*
X67539888Y-101065402D01*
X67593779Y-101039320D01*
X67595137Y-101038704D01*
X67615739Y-101029339D01*
X67648273Y-101014551D01*
X67648279Y-101014545D01*
X67654108Y-101010912D01*
X67665698Y-101004516D01*
X67915391Y-100883680D01*
X67920392Y-100882620D01*
X67974635Y-100855009D01*
X68029415Y-100828500D01*
X68029419Y-100828495D01*
X68032910Y-100826202D01*
X68044789Y-100819300D01*
X68103420Y-100789457D01*
X68116704Y-100783650D01*
X68116719Y-100783641D01*
X68116723Y-100783641D01*
X68171275Y-100754931D01*
X68172662Y-100754213D01*
X68227708Y-100726196D01*
X68227709Y-100726194D01*
X68227734Y-100726182D01*
X68240147Y-100718688D01*
X68313668Y-100679997D01*
X68322926Y-100675125D01*
X68325605Y-100674489D01*
X68381264Y-100644425D01*
X68437117Y-100615033D01*
X68437120Y-100615029D01*
X68438437Y-100614337D01*
X68448317Y-100608206D01*
X68533635Y-100562124D01*
X68536130Y-100561505D01*
X68591560Y-100530837D01*
X68647326Y-100500717D01*
X68647328Y-100500714D01*
X68648981Y-100499822D01*
X68658185Y-100493976D01*
X68725271Y-100456860D01*
X68736303Y-100451593D01*
X68737326Y-100451011D01*
X68737328Y-100451011D01*
X68792165Y-100419852D01*
X68847308Y-100389344D01*
X68849390Y-100387336D01*
X68904698Y-100355908D01*
X68917457Y-100349601D01*
X68918848Y-100349008D01*
X68918859Y-100349006D01*
X68972198Y-100317555D01*
X69025960Y-100287008D01*
X69028862Y-100284145D01*
X69053656Y-100269525D01*
X69066477Y-100263841D01*
X69066219Y-100263283D01*
X69073594Y-100259872D01*
X69073604Y-100259869D01*
X69121100Y-100229826D01*
X69123542Y-100228322D01*
X69123842Y-100228141D01*
X69172717Y-100199325D01*
X69173926Y-100198092D01*
X69182055Y-100193216D01*
X69187038Y-100191917D01*
X69190826Y-100189772D01*
X69190475Y-100189125D01*
X69197607Y-100185247D01*
X69197613Y-100185245D01*
X69234513Y-100158399D01*
X69239504Y-100154954D01*
X69240313Y-100154423D01*
X69279697Y-100129515D01*
X69281756Y-100127281D01*
X69290615Y-100121480D01*
X69291407Y-100121239D01*
X69294488Y-100119045D01*
X69298009Y-100116921D01*
X69305530Y-100109101D01*
X69321944Y-100094798D01*
X69330715Y-100088419D01*
X69343117Y-100073083D01*
X69357900Y-100057719D01*
X69372730Y-100044753D01*
X69378815Y-100035672D01*
X69392460Y-100018741D01*
X69400032Y-100010870D01*
X69400031Y-100010870D01*
X69400036Y-100010866D01*
X69421441Y-99972075D01*
X69446101Y-99935284D01*
X69453150Y-99914613D01*
X69463707Y-99895484D01*
X69473058Y-99857663D01*
X69476068Y-99847415D01*
X69476130Y-99847235D01*
X69488641Y-99810554D01*
X69490101Y-99788754D01*
X69495344Y-99767554D01*
X69494487Y-99723272D01*
X69497448Y-99679065D01*
X69495477Y-99669088D01*
X93038779Y-99669088D01*
X93039073Y-99673484D01*
X93039073Y-99673487D01*
X93041381Y-99707952D01*
X93041635Y-99718633D01*
X93041005Y-99751207D01*
X93040882Y-99757577D01*
X93046126Y-99778782D01*
X93047586Y-99800577D01*
X93061883Y-99842498D01*
X93063167Y-99847690D01*
X93072519Y-99885502D01*
X93072521Y-99885508D01*
X93077806Y-99895086D01*
X93077805Y-99895086D01*
X93083077Y-99904640D01*
X93090126Y-99925307D01*
X93114774Y-99962083D01*
X93117361Y-99966770D01*
X93117364Y-99966774D01*
X93136188Y-100000885D01*
X93136189Y-100000886D01*
X93136191Y-100000889D01*
X93143770Y-100008767D01*
X93146009Y-100011157D01*
X93152254Y-100018001D01*
X93163497Y-100034776D01*
X93183588Y-100052344D01*
X93188301Y-100057510D01*
X93188894Y-100058726D01*
X93193110Y-100063106D01*
X93194448Y-100064761D01*
X93205512Y-100078441D01*
X93214281Y-100084820D01*
X93220501Y-100089654D01*
X93225864Y-100094103D01*
X93238218Y-100106944D01*
X93249693Y-100113868D01*
X93256524Y-100119534D01*
X93256529Y-100119537D01*
X93256530Y-100119538D01*
X93295075Y-100143917D01*
X93301723Y-100148431D01*
X93338614Y-100175268D01*
X93338615Y-100175268D01*
X93338616Y-100175269D01*
X93345491Y-100179007D01*
X93354174Y-100183241D01*
X93362301Y-100188117D01*
X93363509Y-100189347D01*
X93412255Y-100218088D01*
X93412685Y-100218346D01*
X93412710Y-100218373D01*
X93415146Y-100219862D01*
X93430948Y-100229857D01*
X93462624Y-100249893D01*
X93470000Y-100253303D01*
X93469743Y-100253858D01*
X93482562Y-100259544D01*
X93489851Y-100263841D01*
X93496477Y-100267748D01*
X93497212Y-100268181D01*
X93509049Y-100276109D01*
X93510264Y-100277028D01*
X93510267Y-100277031D01*
X93563274Y-100307150D01*
X93564872Y-100308075D01*
X93617368Y-100339028D01*
X93617371Y-100339029D01*
X93618764Y-100339621D01*
X93631539Y-100345938D01*
X93677627Y-100372126D01*
X93687886Y-100378795D01*
X93688915Y-100379364D01*
X93688919Y-100379368D01*
X93743609Y-100409625D01*
X93744642Y-100410205D01*
X93788549Y-100435153D01*
X93799934Y-100441622D01*
X93810964Y-100446889D01*
X93878045Y-100484003D01*
X93887254Y-100489850D01*
X93888899Y-100490739D01*
X93888901Y-100490740D01*
X93905716Y-100499822D01*
X93944102Y-100520555D01*
X93945202Y-100521157D01*
X94001743Y-100552439D01*
X94011632Y-100557030D01*
X94097090Y-100603189D01*
X94099109Y-100605056D01*
X94155032Y-100634486D01*
X94210623Y-100664512D01*
X94210625Y-100664512D01*
X94211952Y-100665229D01*
X94222549Y-100670016D01*
X94296087Y-100708716D01*
X94305946Y-100713904D01*
X94308519Y-100716219D01*
X94364198Y-100744559D01*
X94383187Y-100754552D01*
X94419516Y-100773671D01*
X94432803Y-100779480D01*
X94491445Y-100809328D01*
X94503327Y-100816231D01*
X94506813Y-100818523D01*
X94558503Y-100843538D01*
X94560471Y-100844490D01*
X94562690Y-100845592D01*
X94615835Y-100872643D01*
X94615841Y-100872644D01*
X94619791Y-100874042D01*
X94632459Y-100879329D01*
X94785529Y-100953405D01*
X94883227Y-101000685D01*
X94887954Y-101004574D01*
X94942427Y-101029335D01*
X94943760Y-101029980D01*
X94943761Y-101029981D01*
X94996334Y-101055423D01*
X94996336Y-101055423D01*
X94996339Y-101055425D01*
X94996341Y-101055425D01*
X95002885Y-101057593D01*
X95015207Y-101062417D01*
X95268686Y-101177638D01*
X95273514Y-101181418D01*
X95328572Y-101204859D01*
X95383075Y-101229634D01*
X95389693Y-101231650D01*
X95402131Y-101236178D01*
X95608349Y-101323976D01*
X95659627Y-101345808D01*
X95664503Y-101349442D01*
X95720166Y-101371583D01*
X95775285Y-101395051D01*
X95775288Y-101395051D01*
X95781803Y-101396865D01*
X95794368Y-101401099D01*
X96057061Y-101505594D01*
X96061933Y-101509049D01*
X96118180Y-101529905D01*
X96119521Y-101530439D01*
X96139608Y-101538429D01*
X96173965Y-101552096D01*
X96173974Y-101552097D01*
X96180245Y-101553683D01*
X96192956Y-101557634D01*
X96462003Y-101657401D01*
X96466818Y-101660654D01*
X96523703Y-101680281D01*
X96580118Y-101701201D01*
X96580119Y-101701201D01*
X96586001Y-101702542D01*
X96598884Y-101706221D01*
X96875467Y-101801652D01*
X96880176Y-101804684D01*
X96937671Y-101823115D01*
X96994752Y-101842810D01*
X96994755Y-101842810D01*
X96994758Y-101842811D01*
X97000124Y-101843907D01*
X97013180Y-101847320D01*
X97298481Y-101938779D01*
X97303038Y-101941579D01*
X97361153Y-101958869D01*
X97418883Y-101977376D01*
X97418893Y-101977376D01*
X97423607Y-101978231D01*
X97436854Y-101981392D01*
X97732441Y-102069337D01*
X97737134Y-102072084D01*
X97795504Y-102088100D01*
X97796772Y-102088477D01*
X97796773Y-102088478D01*
X97826416Y-102097297D01*
X97853540Y-102105367D01*
X97853545Y-102105367D01*
X97858529Y-102106163D01*
X97871802Y-102109034D01*
X98124346Y-102178329D01*
X98124345Y-102178329D01*
X98136602Y-102181692D01*
X98137907Y-102182050D01*
X98143216Y-102184990D01*
X98201381Y-102199466D01*
X98259148Y-102215317D01*
X98259151Y-102215317D01*
X98265827Y-102216237D01*
X98278850Y-102218747D01*
X98538179Y-102283291D01*
X98543870Y-102286258D01*
X98602054Y-102299189D01*
X98659841Y-102313572D01*
X98659848Y-102313571D01*
X98667484Y-102314439D01*
X98680394Y-102316600D01*
X98935268Y-102373246D01*
X98941245Y-102376166D01*
X98999486Y-102387519D01*
X99057418Y-102400395D01*
X99057422Y-102400394D01*
X99065514Y-102401107D01*
X99065436Y-102401988D01*
X99078466Y-102402915D01*
X99331295Y-102452202D01*
X99337452Y-102455009D01*
X99395859Y-102464788D01*
X99454002Y-102476123D01*
X99454009Y-102476122D01*
X99462118Y-102476623D01*
X99462067Y-102477440D01*
X99475206Y-102478074D01*
X99728367Y-102520463D01*
X99734582Y-102523099D01*
X99793235Y-102531324D01*
X99851682Y-102541111D01*
X99851682Y-102541110D01*
X99851683Y-102541111D01*
X99859802Y-102541395D01*
X99859772Y-102542226D01*
X99872914Y-102542498D01*
X100128569Y-102578353D01*
X100134714Y-102580773D01*
X100193721Y-102587490D01*
X100252537Y-102595739D01*
X100252544Y-102595738D01*
X100260668Y-102595807D01*
X100260659Y-102596801D01*
X100273682Y-102596593D01*
X100533994Y-102626227D01*
X100539944Y-102628401D01*
X100599350Y-102633667D01*
X100658636Y-102640417D01*
X100658643Y-102640415D01*
X100666120Y-102640285D01*
X100679228Y-102640749D01*
X100950894Y-102664835D01*
X100960542Y-102667929D01*
X101016402Y-102670642D01*
X101072078Y-102675579D01*
X101072086Y-102675577D01*
X101076349Y-102675397D01*
X101086627Y-102675985D01*
X101086637Y-102675616D01*
X101094765Y-102675824D01*
X101094766Y-102675825D01*
X101153511Y-102677335D01*
X101156281Y-102677437D01*
X101215032Y-102680293D01*
X101215037Y-102680292D01*
X101221041Y-102679797D01*
X101234431Y-102679417D01*
X101267295Y-102680262D01*
X101281635Y-102681466D01*
X101282394Y-102681574D01*
X101282397Y-102681575D01*
X101343657Y-102682239D01*
X101345455Y-102682272D01*
X101406720Y-102683849D01*
X101406731Y-102683846D01*
X101407479Y-102683768D01*
X101421852Y-102683088D01*
X101740475Y-102686548D01*
X101743911Y-102687457D01*
X101806267Y-102687262D01*
X101868695Y-102687940D01*
X101868705Y-102687937D01*
X101868903Y-102687914D01*
X101883372Y-102687020D01*
X102197964Y-102686039D01*
X102201842Y-102687000D01*
X102263757Y-102685833D01*
X102325750Y-102685640D01*
X102325756Y-102685638D01*
X102327057Y-102685463D01*
X102341288Y-102684372D01*
X102366471Y-102683898D01*
X102368354Y-102683863D01*
X102381382Y-102684303D01*
X102389371Y-102684993D01*
X102389377Y-102684995D01*
X102447277Y-102682414D01*
X102450306Y-102682318D01*
X102508234Y-102681228D01*
X102508236Y-102681227D01*
X102515421Y-102681092D01*
X102522124Y-102681651D01*
X102522142Y-102681153D01*
X102530260Y-102681438D01*
X102530260Y-102681437D01*
X102530261Y-102681438D01*
X102566026Y-102678000D01*
X102577889Y-102677432D01*
X102613866Y-102677432D01*
X102614777Y-102677312D01*
X102621042Y-102675889D01*
X102629589Y-102674292D01*
X102636078Y-102674003D01*
X102643206Y-102671747D01*
X102650629Y-102670361D01*
X102652871Y-102670588D01*
X102661536Y-102668821D01*
X102717748Y-102663420D01*
X102730979Y-102663720D01*
X102730986Y-102662911D01*
X102739112Y-102662974D01*
X102739120Y-102662976D01*
X102797786Y-102655729D01*
X102856624Y-102650075D01*
X102863075Y-102647664D01*
X102941974Y-102637918D01*
X102955367Y-102636997D01*
X102961175Y-102636912D01*
X102961183Y-102636913D01*
X103019410Y-102628383D01*
X103022113Y-102628018D01*
X103080596Y-102620795D01*
X103080605Y-102620791D01*
X103086220Y-102619334D01*
X103099396Y-102616667D01*
X103174577Y-102605655D01*
X103188253Y-102604421D01*
X103192455Y-102604275D01*
X103192462Y-102604276D01*
X103251305Y-102594441D01*
X103253610Y-102594079D01*
X103312687Y-102585427D01*
X103312688Y-102585426D01*
X103312691Y-102585426D01*
X103316731Y-102584280D01*
X103330129Y-102581268D01*
X103423755Y-102565623D01*
X103428646Y-102566000D01*
X103488695Y-102554770D01*
X103548902Y-102544709D01*
X103548911Y-102544704D01*
X103552378Y-102543646D01*
X103565809Y-102540349D01*
X103660307Y-102522678D01*
X103665315Y-102522965D01*
X103724971Y-102510585D01*
X103784911Y-102499377D01*
X103784919Y-102499372D01*
X103788648Y-102498155D01*
X103801967Y-102494608D01*
X103879537Y-102478511D01*
X103892943Y-102476487D01*
X103898084Y-102475995D01*
X103898091Y-102475996D01*
X103955799Y-102462714D01*
X103958299Y-102462168D01*
X104016264Y-102450141D01*
X104016271Y-102450137D01*
X104021156Y-102448434D01*
X104034176Y-102444677D01*
X104102238Y-102429013D01*
X104115128Y-102426756D01*
X104122820Y-102425823D01*
X104122829Y-102425824D01*
X104179032Y-102411380D01*
X104181972Y-102410664D01*
X104238545Y-102397646D01*
X104238549Y-102397643D01*
X104245814Y-102394933D01*
X104258299Y-102391011D01*
X104313757Y-102376760D01*
X104327715Y-102374846D01*
X104327625Y-102374254D01*
X104335660Y-102373021D01*
X104335665Y-102373021D01*
X104389526Y-102357352D01*
X104393197Y-102356347D01*
X104447523Y-102342388D01*
X104447525Y-102342387D01*
X104455071Y-102339352D01*
X104455295Y-102339911D01*
X104468278Y-102334444D01*
X104511453Y-102321885D01*
X104530229Y-102316424D01*
X104543112Y-102314288D01*
X104542961Y-102313450D01*
X104550958Y-102312008D01*
X104550966Y-102312008D01*
X104607509Y-102293944D01*
X104664493Y-102277369D01*
X104670172Y-102273926D01*
X104746619Y-102249504D01*
X104759289Y-102246184D01*
X104766785Y-102244636D01*
X104766795Y-102244636D01*
X104821649Y-102225575D01*
X104824526Y-102224616D01*
X104879843Y-102206946D01*
X104879849Y-102206942D01*
X104886778Y-102203680D01*
X104898896Y-102198736D01*
X104963232Y-102176382D01*
X104975904Y-102172724D01*
X104982838Y-102171115D01*
X104982839Y-102171114D01*
X104982843Y-102171114D01*
X105037494Y-102150616D01*
X105040197Y-102149640D01*
X105095290Y-102130499D01*
X105095298Y-102130493D01*
X105101636Y-102127311D01*
X105113735Y-102122021D01*
X105179666Y-102097294D01*
X105192334Y-102093304D01*
X105198781Y-102091646D01*
X105198785Y-102091646D01*
X105253073Y-102069800D01*
X105255788Y-102068746D01*
X105264320Y-102065546D01*
X105310528Y-102048216D01*
X105310541Y-102048206D01*
X105316388Y-102045090D01*
X105328425Y-102039478D01*
X105395621Y-102012439D01*
X105408243Y-102008135D01*
X105414286Y-102006430D01*
X105414296Y-102006429D01*
X105468244Y-101983249D01*
X105470738Y-101982212D01*
X105525232Y-101960285D01*
X105525243Y-101960276D01*
X105530716Y-101957191D01*
X105542674Y-101951271D01*
X105610712Y-101922038D01*
X105623293Y-101917422D01*
X105629054Y-101915655D01*
X105663193Y-101900054D01*
X105682543Y-101891211D01*
X105685030Y-101890108D01*
X105739078Y-101866888D01*
X105739080Y-101866886D01*
X105739083Y-101866885D01*
X105744248Y-101863812D01*
X105756120Y-101857590D01*
X105756759Y-101857298D01*
X105824700Y-101826252D01*
X105837191Y-101821344D01*
X105842707Y-101819514D01*
X105842715Y-101819513D01*
X105895667Y-101793856D01*
X105898155Y-101792685D01*
X105951740Y-101768201D01*
X105951743Y-101768198D01*
X105956677Y-101765108D01*
X105968432Y-101758603D01*
X106037173Y-101725299D01*
X106049583Y-101720099D01*
X106054946Y-101718186D01*
X106054948Y-101718184D01*
X106054952Y-101718184D01*
X106107413Y-101691301D01*
X106109773Y-101690125D01*
X106162878Y-101664398D01*
X106162892Y-101664385D01*
X106167638Y-101661263D01*
X106179256Y-101654489D01*
X106247860Y-101619336D01*
X106260151Y-101613861D01*
X106265415Y-101611849D01*
X106265426Y-101611847D01*
X106317331Y-101583771D01*
X106319671Y-101582540D01*
X106372155Y-101555649D01*
X106372163Y-101555641D01*
X106376807Y-101552435D01*
X106388290Y-101545393D01*
X106456363Y-101508574D01*
X106468536Y-101502820D01*
X106473787Y-101500678D01*
X106473796Y-101500676D01*
X106525074Y-101471442D01*
X106527342Y-101470183D01*
X106579228Y-101442120D01*
X106579233Y-101442115D01*
X106583825Y-101438790D01*
X106595133Y-101431502D01*
X106662397Y-101393155D01*
X106674423Y-101387140D01*
X106679708Y-101384845D01*
X106679709Y-101384843D01*
X106679713Y-101384843D01*
X106730206Y-101354534D01*
X106732580Y-101353147D01*
X106783749Y-101323976D01*
X106783748Y-101323976D01*
X106783751Y-101323975D01*
X106783753Y-101323972D01*
X106788354Y-101320482D01*
X106799484Y-101312950D01*
X106865595Y-101273268D01*
X106877450Y-101266999D01*
X106882832Y-101264514D01*
X106882844Y-101264511D01*
X106932578Y-101233098D01*
X106934898Y-101231670D01*
X106985371Y-101201376D01*
X106985377Y-101201369D01*
X106990029Y-101197673D01*
X107000962Y-101189910D01*
X107065610Y-101149080D01*
X107077281Y-101142562D01*
X107082820Y-101139847D01*
X107082834Y-101139843D01*
X107131765Y-101107336D01*
X107134038Y-101105863D01*
X107183741Y-101074473D01*
X107183744Y-101074469D01*
X107188487Y-101070521D01*
X107199206Y-101062533D01*
X107262102Y-101020750D01*
X107273566Y-101013993D01*
X107279335Y-101010997D01*
X107279344Y-101010994D01*
X107327380Y-100977425D01*
X107329728Y-100975824D01*
X107378503Y-100943424D01*
X107378508Y-100943418D01*
X107383396Y-100939154D01*
X107393879Y-100930956D01*
X107454737Y-100888428D01*
X107465964Y-100881446D01*
X107472011Y-100878116D01*
X107472021Y-100878113D01*
X107519086Y-100843503D01*
X107521397Y-100841847D01*
X107569305Y-100808370D01*
X107569311Y-100808362D01*
X107574404Y-100803705D01*
X107584631Y-100795307D01*
X107643211Y-100752231D01*
X107654362Y-100744923D01*
X107659874Y-100741719D01*
X107659879Y-100741718D01*
X107706353Y-100705840D01*
X107708471Y-100704244D01*
X107755784Y-100669456D01*
X107755787Y-100669451D01*
X107760396Y-100665028D01*
X107770476Y-100656341D01*
X107782618Y-100646968D01*
X107793907Y-100639212D01*
X107797595Y-100636967D01*
X107797600Y-100636965D01*
X107844060Y-100599566D01*
X107845846Y-100598158D01*
X107893097Y-100561685D01*
X107893099Y-100561683D01*
X107896157Y-100558607D01*
X107906342Y-100549434D01*
X107920423Y-100538100D01*
X107931637Y-100530061D01*
X107934865Y-100528006D01*
X107934876Y-100528002D01*
X107980738Y-100489581D01*
X107982502Y-100488131D01*
X108029139Y-100450594D01*
X108029145Y-100450584D01*
X108031786Y-100447819D01*
X108041851Y-100438385D01*
X108057625Y-100425170D01*
X108068745Y-100416869D01*
X108071577Y-100414991D01*
X108071583Y-100414989D01*
X108116906Y-100375535D01*
X108118499Y-100374174D01*
X108164589Y-100335565D01*
X108164594Y-100335556D01*
X108166884Y-100333063D01*
X108176822Y-100323380D01*
X108194094Y-100308345D01*
X108205111Y-100299798D01*
X108207592Y-100298085D01*
X108207604Y-100298080D01*
X108252353Y-100257657D01*
X108253928Y-100256261D01*
X108299324Y-100216747D01*
X108299331Y-100216736D01*
X108301322Y-100214484D01*
X108311134Y-100204562D01*
X108329690Y-100187799D01*
X108340605Y-100179009D01*
X108342801Y-100177434D01*
X108342809Y-100177431D01*
X108386933Y-100136117D01*
X108388310Y-100134849D01*
X108433218Y-100094287D01*
X108433223Y-100094277D01*
X108434971Y-100092226D01*
X108444641Y-100082085D01*
X108464317Y-100063664D01*
X108475106Y-100054655D01*
X108477063Y-100053199D01*
X108477072Y-100053195D01*
X108520508Y-100011077D01*
X108521924Y-100009727D01*
X108566144Y-99968326D01*
X108566148Y-99968319D01*
X108567695Y-99966435D01*
X108577218Y-99956088D01*
X108597829Y-99936103D01*
X108608493Y-99926882D01*
X108610244Y-99925532D01*
X108610254Y-99925527D01*
X108653086Y-99882545D01*
X108654479Y-99881173D01*
X108697966Y-99839008D01*
X108697972Y-99838996D01*
X108699345Y-99837265D01*
X108708714Y-99826726D01*
X108730084Y-99805282D01*
X108740616Y-99795857D01*
X108742218Y-99794578D01*
X108742228Y-99794573D01*
X108776139Y-99759376D01*
X108784327Y-99750878D01*
X108785794Y-99749381D01*
X108828547Y-99706482D01*
X108828553Y-99706470D01*
X108829792Y-99704852D01*
X108839006Y-99694125D01*
X108860970Y-99671329D01*
X108871357Y-99661715D01*
X108872837Y-99660493D01*
X108872842Y-99660490D01*
X108914277Y-99616024D01*
X108915575Y-99614654D01*
X108957747Y-99570885D01*
X108957748Y-99570882D01*
X108958882Y-99569347D01*
X108967939Y-99558439D01*
X108990327Y-99534414D01*
X109000583Y-99524599D01*
X109001953Y-99523429D01*
X109001963Y-99523423D01*
X109042703Y-99478228D01*
X109043908Y-99476914D01*
X109085420Y-99432369D01*
X109085424Y-99432360D01*
X109086482Y-99430878D01*
X109095365Y-99419813D01*
X109118023Y-99394679D01*
X109128118Y-99384694D01*
X109129438Y-99383529D01*
X109129443Y-99383526D01*
X109169494Y-99337602D01*
X109170627Y-99336324D01*
X109211421Y-99291074D01*
X109211422Y-99291070D01*
X109212424Y-99289616D01*
X109221119Y-99278409D01*
X109243930Y-99252254D01*
X109253856Y-99242112D01*
X109255127Y-99240952D01*
X109255138Y-99240945D01*
X109294408Y-99194399D01*
X109295606Y-99193003D01*
X109335600Y-99147148D01*
X109335600Y-99147146D01*
X109336567Y-99145692D01*
X109345076Y-99134345D01*
X109367875Y-99107323D01*
X109377634Y-99097019D01*
X109378894Y-99095832D01*
X109378904Y-99095825D01*
X109417360Y-99048696D01*
X109418583Y-99047222D01*
X109457811Y-99000730D01*
X109457814Y-99000721D01*
X109458756Y-98999254D01*
X109467087Y-98987757D01*
X109489713Y-98960029D01*
X109499298Y-98949569D01*
X109500580Y-98948320D01*
X109500585Y-98948317D01*
X109538277Y-98900539D01*
X109539449Y-98899079D01*
X109577899Y-98851962D01*
X109577902Y-98851955D01*
X109578838Y-98850441D01*
X109586974Y-98838816D01*
X109609318Y-98810494D01*
X109618720Y-98799887D01*
X109620027Y-98798570D01*
X109620036Y-98798564D01*
X109656917Y-98750184D01*
X109658029Y-98748751D01*
X109695708Y-98700995D01*
X109695711Y-98700986D01*
X109696666Y-98699385D01*
X109704592Y-98687650D01*
X109726434Y-98658999D01*
X109735232Y-98648685D01*
X109738717Y-98645023D01*
X109738725Y-98645017D01*
X109773656Y-98597102D01*
X109775128Y-98595126D01*
X109811086Y-98547962D01*
X109811089Y-98547953D01*
X109813590Y-98543591D01*
X109820972Y-98532201D01*
X109936299Y-98374014D01*
X109941296Y-98369765D01*
X109975056Y-98320854D01*
X110010071Y-98272827D01*
X110010071Y-98272825D01*
X110010075Y-98272821D01*
X110013949Y-98265713D01*
X110020778Y-98254613D01*
X110134326Y-98090111D01*
X110139027Y-98085908D01*
X110171693Y-98035975D01*
X110205605Y-97986847D01*
X110205609Y-97986834D01*
X110208972Y-97980268D01*
X110215578Y-97968895D01*
X110327230Y-97798234D01*
X110331672Y-97794066D01*
X110363245Y-97743183D01*
X110396043Y-97693052D01*
X110396046Y-97693042D01*
X110398997Y-97686910D01*
X110405366Y-97675302D01*
X110514767Y-97498999D01*
X110518988Y-97494850D01*
X110549469Y-97443074D01*
X110581134Y-97392047D01*
X110581135Y-97392040D01*
X110583737Y-97386285D01*
X110589882Y-97374431D01*
X110696689Y-97193015D01*
X110700716Y-97188873D01*
X110730084Y-97136292D01*
X110760620Y-97084427D01*
X110760622Y-97084419D01*
X110762938Y-97078961D01*
X110768838Y-97066908D01*
X110847979Y-96925218D01*
X110872735Y-96880897D01*
X110876594Y-96876746D01*
X110904822Y-96823449D01*
X110934235Y-96770791D01*
X110934236Y-96770784D01*
X110936324Y-96765536D01*
X110941972Y-96753310D01*
X110997631Y-96648224D01*
X111042633Y-96563258D01*
X111046349Y-96559081D01*
X111073437Y-96505101D01*
X111101700Y-96451740D01*
X111101701Y-96451735D01*
X111103600Y-96446632D01*
X111108993Y-96434244D01*
X111148752Y-96355015D01*
X111206115Y-96240705D01*
X111209710Y-96236482D01*
X111235642Y-96181866D01*
X111262737Y-96127873D01*
X111262738Y-96127865D01*
X111264479Y-96122853D01*
X111269610Y-96110325D01*
X111357155Y-95925947D01*
X111362901Y-95913844D01*
X111366391Y-95909560D01*
X111391135Y-95854381D01*
X111417057Y-95799789D01*
X111417057Y-95799786D01*
X111418674Y-95794780D01*
X111423528Y-95782146D01*
X111512708Y-95583287D01*
X111516111Y-95578917D01*
X111539643Y-95523224D01*
X111564368Y-95468091D01*
X111564369Y-95468079D01*
X111565883Y-95463020D01*
X111570459Y-95450293D01*
X111655247Y-95249631D01*
X111658576Y-95245158D01*
X111680869Y-95188993D01*
X111704372Y-95133372D01*
X111704372Y-95133369D01*
X111705808Y-95128160D01*
X111710095Y-95115363D01*
X111790231Y-94913478D01*
X111793498Y-94908878D01*
X111814502Y-94852330D01*
X111836768Y-94796238D01*
X111836769Y-94796223D01*
X111838134Y-94790814D01*
X111842132Y-94777946D01*
X111917358Y-94575432D01*
X111920578Y-94570674D01*
X111940280Y-94513723D01*
X111961248Y-94457277D01*
X111961249Y-94457264D01*
X111962554Y-94451561D01*
X111966248Y-94438661D01*
X112036335Y-94236075D01*
X112039513Y-94231138D01*
X112057849Y-94173890D01*
X112077502Y-94117084D01*
X112077502Y-94117073D01*
X112078748Y-94110999D01*
X112082130Y-94098080D01*
X112146855Y-93896003D01*
X112149999Y-93890854D01*
X112166924Y-93833345D01*
X112185213Y-93776248D01*
X112185213Y-93776239D01*
X112186397Y-93769705D01*
X112189460Y-93756775D01*
X112244796Y-93568762D01*
X112245602Y-93566024D01*
X112248899Y-93554823D01*
X112252501Y-93548525D01*
X112267475Y-93491707D01*
X112284060Y-93435358D01*
X112284060Y-93435355D01*
X112285318Y-93427328D01*
X112286044Y-93427441D01*
X112287937Y-93414064D01*
X112335294Y-93234378D01*
X112337479Y-93230395D01*
X112352063Y-93170750D01*
X112367721Y-93111341D01*
X112367720Y-93111333D01*
X112368065Y-93108640D01*
X112370619Y-93094865D01*
X112434067Y-92835389D01*
X112435876Y-92831970D01*
X112449709Y-92771421D01*
X112464452Y-92711132D01*
X112464451Y-92711120D01*
X112464558Y-92710153D01*
X112466937Y-92696017D01*
X112638632Y-91944526D01*
X112640714Y-91940412D01*
X112653290Y-91880370D01*
X112666958Y-91820550D01*
X112666957Y-91820540D01*
X112667227Y-91817681D01*
X112669315Y-91803862D01*
X112804830Y-91156911D01*
X112807767Y-91150694D01*
X112818322Y-91092501D01*
X112828349Y-91044632D01*
X112830438Y-91034662D01*
X112830438Y-91034660D01*
X112830439Y-91034656D01*
X112830438Y-91034651D01*
X112831052Y-91026549D01*
X112831862Y-91026610D01*
X112832667Y-91013401D01*
X112857923Y-90874159D01*
X112864522Y-90857099D01*
X112869642Y-90809548D01*
X112878177Y-90762492D01*
X112877642Y-90756012D01*
X112877934Y-90732534D01*
X112878355Y-90728625D01*
X112879780Y-90719864D01*
X112879935Y-90718016D01*
X112879937Y-90718013D01*
X112880516Y-90711135D01*
X112883003Y-90698246D01*
X112882664Y-90698190D01*
X112884005Y-90690178D01*
X112884005Y-90690177D01*
X112884007Y-90690171D01*
X112884515Y-90675628D01*
X112885208Y-90666194D01*
X112885980Y-90659299D01*
X112888040Y-90650235D01*
X112887772Y-90643300D01*
X112888810Y-90634041D01*
X112888843Y-90633960D01*
X112888856Y-90633639D01*
X112890237Y-90621663D01*
X112892052Y-90605929D01*
X112892051Y-90605927D01*
X112892063Y-90605830D01*
X112892030Y-90604422D01*
X112892030Y-90604421D01*
X112891976Y-90602133D01*
X112891977Y-90602126D01*
X112891975Y-90602118D01*
X112891903Y-90599028D01*
X112891315Y-90593205D01*
X112891010Y-90586696D01*
X112890520Y-90583967D01*
X112888935Y-90561804D01*
X112888615Y-90558471D01*
X112888614Y-90558470D01*
X112888615Y-90558467D01*
X112887099Y-90551902D01*
X112886648Y-90549861D01*
X112885839Y-90546049D01*
X112885949Y-90544607D01*
X112884934Y-90537318D01*
X112884509Y-90535918D01*
X112884433Y-90535123D01*
X112884626Y-90535104D01*
X112883228Y-90525063D01*
X112882978Y-90518550D01*
X112882978Y-90518548D01*
X112881728Y-90514512D01*
X112879880Y-90507894D01*
X112878015Y-90500421D01*
X112878058Y-90499350D01*
X112877523Y-90496471D01*
X112877749Y-90496428D01*
X112875088Y-90484125D01*
X112874608Y-90479814D01*
X112874606Y-90479809D01*
X112874606Y-90479807D01*
X112874157Y-90477988D01*
X112873156Y-90475108D01*
X112872236Y-90472095D01*
X112872194Y-90471811D01*
X112872041Y-90471460D01*
X112870005Y-90464790D01*
X112869997Y-90464108D01*
X112869961Y-90463980D01*
X112869996Y-90463969D01*
X112869972Y-90461810D01*
X112869781Y-90461176D01*
X112869562Y-90461247D01*
X112868764Y-90458744D01*
X112868293Y-90456817D01*
X112865928Y-90449226D01*
X112865928Y-90449221D01*
X112865925Y-90449215D01*
X112865717Y-90448546D01*
X112860728Y-90435736D01*
X112859156Y-90430829D01*
X112858240Y-90426856D01*
X112857346Y-90425175D01*
X112855410Y-90419128D01*
X112854177Y-90415941D01*
X112854175Y-90415938D01*
X112854175Y-90415936D01*
X112853301Y-90414337D01*
X112846713Y-90400247D01*
X112845030Y-90395967D01*
X112843107Y-90389754D01*
X112841724Y-90387559D01*
X112839644Y-90382267D01*
X112838176Y-90379198D01*
X112838175Y-90379192D01*
X112838171Y-90379186D01*
X112837806Y-90378422D01*
X112831573Y-90367492D01*
X112829776Y-90363864D01*
X112826554Y-90356578D01*
X112826096Y-90355747D01*
X112826095Y-90355744D01*
X112826092Y-90355741D01*
X112823859Y-90351687D01*
X112821685Y-90348342D01*
X112818056Y-90341980D01*
X112817253Y-90340083D01*
X112816212Y-90338747D01*
X112812231Y-90331769D01*
X112810069Y-90328348D01*
X112810062Y-90328340D01*
X112810062Y-90328339D01*
X112809194Y-90327297D01*
X112807112Y-90324785D01*
X112793329Y-90304305D01*
X112791061Y-90300079D01*
X112791059Y-90300077D01*
X112791057Y-90300073D01*
X112790599Y-90299436D01*
X112790383Y-90299200D01*
X112790339Y-90299119D01*
X112789619Y-90298364D01*
X112788727Y-90297389D01*
X112788091Y-90296089D01*
X112782036Y-90288066D01*
X112781555Y-90288442D01*
X112776561Y-90282036D01*
X112776558Y-90282030D01*
X112776552Y-90282024D01*
X112771886Y-90276038D01*
X112770588Y-90274574D01*
X112767493Y-90270574D01*
X112765589Y-90267647D01*
X112764408Y-90266585D01*
X112761773Y-90263179D01*
X112761424Y-90262776D01*
X112761328Y-90262679D01*
X112759356Y-90260438D01*
X112758202Y-90259430D01*
X112747612Y-90248990D01*
X112743346Y-90244247D01*
X112742969Y-90243730D01*
X112742645Y-90243468D01*
X112740174Y-90240721D01*
X112739972Y-90240301D01*
X112736052Y-90235753D01*
X112735446Y-90235156D01*
X112735442Y-90235151D01*
X112735436Y-90235146D01*
X112729652Y-90229451D01*
X112730024Y-90229072D01*
X112729030Y-90228122D01*
X112728677Y-90228503D01*
X112722359Y-90222643D01*
X112713631Y-90215774D01*
X112708277Y-90211109D01*
X112700333Y-90203459D01*
X112698892Y-90202281D01*
X112693722Y-90198768D01*
X112686794Y-90193622D01*
X112682666Y-90189556D01*
X112676969Y-90186323D01*
X112671330Y-90182135D01*
X112670019Y-90181236D01*
X112659735Y-90173259D01*
X112658119Y-90172183D01*
X112652336Y-90169033D01*
X112644990Y-90164616D01*
X112640437Y-90160940D01*
X112634479Y-90158297D01*
X112630494Y-90155901D01*
X112630274Y-90155735D01*
X112630101Y-90155665D01*
X112629243Y-90155149D01*
X112623893Y-90152116D01*
X112614772Y-90146317D01*
X112612178Y-90144946D01*
X112609719Y-90143920D01*
X112601278Y-90139988D01*
X112597845Y-90137711D01*
X112592619Y-90135955D01*
X112587991Y-90133800D01*
X112587907Y-90133748D01*
X112587827Y-90133724D01*
X112587003Y-90133340D01*
X112580506Y-90130411D01*
X112580707Y-90129963D01*
X112568091Y-90124562D01*
X112566914Y-90123894D01*
X112561813Y-90121827D01*
X112561633Y-90121754D01*
X112561468Y-90121687D01*
X112561407Y-90121662D01*
X112561049Y-90121547D01*
X112555393Y-90119368D01*
X112549974Y-90117855D01*
X112541801Y-90115256D01*
X112540888Y-90114808D01*
X112539577Y-90114549D01*
X112532886Y-90112422D01*
X112530644Y-90110910D01*
X112520195Y-90107607D01*
X112518742Y-90106963D01*
X112517759Y-90106672D01*
X112517179Y-90106570D01*
X112516879Y-90106437D01*
X112511620Y-90105601D01*
X112510668Y-90105435D01*
X112509902Y-90105057D01*
X112496125Y-90101446D01*
X112493002Y-90100734D01*
X112489681Y-90099757D01*
X112488898Y-90099552D01*
X112488569Y-90099430D01*
X112482341Y-90097598D01*
X112477367Y-90096501D01*
X112477367Y-90096502D01*
X112474877Y-90095953D01*
X112465037Y-90094028D01*
X112455464Y-90092350D01*
X112455457Y-90092401D01*
X112447427Y-90091154D01*
X112447426Y-90091153D01*
X112445359Y-90090833D01*
X112436771Y-90090162D01*
X112430368Y-90089306D01*
X112426643Y-90088407D01*
X112424110Y-90088469D01*
X112417685Y-90087611D01*
X112417397Y-90087544D01*
X112417226Y-90087549D01*
X112417221Y-90087549D01*
X112416414Y-90087576D01*
X112416316Y-90087579D01*
X112394777Y-90085998D01*
X112392043Y-90085864D01*
X112392043Y-90085863D01*
X112385329Y-90085533D01*
X112385161Y-90085507D01*
X112385040Y-90085519D01*
X112384315Y-90085484D01*
X112377050Y-90085291D01*
X112377063Y-90084783D01*
X112374895Y-90084749D01*
X112374892Y-90085425D01*
X112364095Y-90085368D01*
X112357184Y-90085863D01*
X112350751Y-90085975D01*
X112347405Y-90085687D01*
X112345763Y-90085978D01*
X112345292Y-90085932D01*
X112344350Y-90086087D01*
X112335419Y-90086244D01*
X112334759Y-90086062D01*
X112334291Y-90086085D01*
X112334327Y-90086617D01*
X112318214Y-90087680D01*
X112317280Y-90087700D01*
X112313861Y-90088070D01*
X112313860Y-90088070D01*
X112313858Y-90088070D01*
X112310295Y-90088456D01*
X112308992Y-90088710D01*
X112303108Y-90089576D01*
X112302074Y-90089554D01*
X112300275Y-90089993D01*
X112294530Y-90090840D01*
X112292151Y-90090506D01*
X112291733Y-90090563D01*
X112291750Y-90090662D01*
X112279878Y-90092628D01*
X112277075Y-90093325D01*
X112273856Y-90093950D01*
X112273585Y-90093957D01*
X112273117Y-90094094D01*
X112267408Y-90095204D01*
X112266270Y-90095097D01*
X112265559Y-90095208D01*
X112265530Y-90095027D01*
X112265400Y-90095015D01*
X112265409Y-90095057D01*
X112254409Y-90097434D01*
X112251834Y-90098223D01*
X112246443Y-90099605D01*
X112245320Y-90099566D01*
X112244556Y-90099857D01*
X112241615Y-90100425D01*
X112241563Y-90100158D01*
X112241146Y-90100253D01*
X112230645Y-90103007D01*
X112224359Y-90105164D01*
X112217811Y-90107000D01*
X112212882Y-90107816D01*
X112209593Y-90109306D01*
X112200502Y-90111857D01*
X112199135Y-90111840D01*
X112186756Y-90116050D01*
X112186717Y-90115936D01*
X112171445Y-90121498D01*
X112168478Y-90122223D01*
X112166930Y-90122825D01*
X112156101Y-90127914D01*
X112150831Y-90130000D01*
X112140859Y-90132929D01*
X112136085Y-90135838D01*
X112126238Y-90139737D01*
X112124503Y-90139895D01*
X112119763Y-90142095D01*
X112117484Y-90142853D01*
X112110177Y-90146403D01*
X112110120Y-90146285D01*
X112106954Y-90148038D01*
X112102472Y-90150087D01*
X112096987Y-90152087D01*
X112094894Y-90153553D01*
X112086094Y-90157578D01*
X112085450Y-90157670D01*
X112079602Y-90160326D01*
X112078333Y-90160821D01*
X112075960Y-90162126D01*
X112063360Y-90168156D01*
X112060994Y-90169128D01*
X112060592Y-90169359D01*
X112053114Y-90173314D01*
X112050424Y-90174621D01*
X112044325Y-90177230D01*
X112043139Y-90178161D01*
X112036388Y-90181442D01*
X112035780Y-90181544D01*
X112032281Y-90183346D01*
X112025786Y-90186213D01*
X112016921Y-90190894D01*
X112008576Y-90194671D01*
X112001294Y-90198594D01*
X111992363Y-90202718D01*
X111984296Y-90207149D01*
X111958205Y-90219466D01*
X111950842Y-90223587D01*
X111938651Y-90229458D01*
X111918416Y-90239202D01*
X111913841Y-90241799D01*
X111874710Y-90260873D01*
X111872726Y-90262006D01*
X109627902Y-91358020D01*
X109627310Y-91358307D01*
X103857512Y-94137539D01*
X103857509Y-94137541D01*
X102585477Y-94750219D01*
X102577927Y-94753855D01*
X102577560Y-94753926D01*
X102518554Y-94782454D01*
X102518552Y-94782454D01*
X102453190Y-94813936D01*
X102451744Y-94814754D01*
X101374560Y-95335552D01*
X101374559Y-95335552D01*
X96534425Y-97675598D01*
X96534426Y-97675599D01*
X96527222Y-97679082D01*
X96527151Y-97679096D01*
X96467601Y-97707907D01*
X96467600Y-97707907D01*
X96401940Y-97739651D01*
X96401658Y-97739809D01*
X94577312Y-98622459D01*
X94577311Y-98622459D01*
X94569203Y-98626381D01*
X94568082Y-98626602D01*
X94510291Y-98654883D01*
X94510036Y-98655007D01*
X94509825Y-98655110D01*
X94446972Y-98685520D01*
X94442637Y-98687992D01*
X94112536Y-98849539D01*
X94112535Y-98849538D01*
X94104197Y-98853618D01*
X94102772Y-98853907D01*
X94045129Y-98882527D01*
X94044652Y-98882761D01*
X93983202Y-98912835D01*
X93977733Y-98915990D01*
X93731703Y-99038150D01*
X93722337Y-99042799D01*
X93719646Y-99043374D01*
X93663563Y-99071981D01*
X93662878Y-99072322D01*
X93662807Y-99072359D01*
X93605470Y-99100829D01*
X93595398Y-99106753D01*
X93472512Y-99169439D01*
X93472511Y-99169439D01*
X93459823Y-99175911D01*
X93453786Y-99177353D01*
X93401305Y-99205761D01*
X93399926Y-99206465D01*
X93399893Y-99206483D01*
X93365313Y-99224123D01*
X93349002Y-99231024D01*
X93341627Y-99233539D01*
X93341621Y-99233542D01*
X93311367Y-99253819D01*
X93306575Y-99256874D01*
X93303989Y-99258440D01*
X93269340Y-99277197D01*
X93262792Y-99283392D01*
X93251439Y-99290270D01*
X93250030Y-99290643D01*
X93247124Y-99292767D01*
X93243060Y-99295010D01*
X93243054Y-99295014D01*
X93235176Y-99302593D01*
X93218255Y-99316228D01*
X93209173Y-99322315D01*
X93183530Y-99351638D01*
X93176160Y-99359366D01*
X93148089Y-99386372D01*
X93142438Y-99395737D01*
X93129622Y-99413286D01*
X93122424Y-99421517D01*
X93122420Y-99421524D01*
X93105244Y-99456477D01*
X93105245Y-99456478D01*
X93102888Y-99461275D01*
X93079998Y-99499207D01*
X93073935Y-99520195D01*
X93069126Y-99529984D01*
X93064303Y-99539799D01*
X93064302Y-99539801D01*
X93056758Y-99578012D01*
X93054240Y-99588393D01*
X93043433Y-99625817D01*
X93043221Y-99636752D01*
X93042090Y-99647260D01*
X93042121Y-99650993D01*
X93041617Y-99654711D01*
X93038779Y-99669088D01*
X69495477Y-99669088D01*
X69494941Y-99666372D01*
X69494618Y-99664398D01*
X69494772Y-99663150D01*
X69493005Y-99646718D01*
X69492812Y-99636752D01*
X69492794Y-99635794D01*
X69481987Y-99598375D01*
X69479466Y-99587984D01*
X69471923Y-99549776D01*
X69471923Y-99549775D01*
X69467101Y-99539962D01*
X69467101Y-99539961D01*
X69462286Y-99530164D01*
X69456228Y-99509184D01*
X69433342Y-99471260D01*
X69413805Y-99431499D01*
X69411321Y-99428658D01*
X69406607Y-99423267D01*
X69406607Y-99423268D01*
X69399423Y-99415052D01*
X69388139Y-99396353D01*
X69356217Y-99365643D01*
X69347489Y-99355662D01*
X69327058Y-99332297D01*
X69327050Y-99332290D01*
X69317970Y-99326204D01*
X69311735Y-99321739D01*
X69306127Y-99317454D01*
X69293168Y-99304988D01*
X69281066Y-99298309D01*
X69273755Y-99292724D01*
X69272855Y-99291497D01*
X69266891Y-99287176D01*
X69234861Y-99269837D01*
X69224858Y-99263796D01*
X69207420Y-99252109D01*
X69194602Y-99243518D01*
X69194600Y-99243517D01*
X69194601Y-99243517D01*
X69187234Y-99241005D01*
X69170913Y-99234101D01*
X69169811Y-99233539D01*
X69136318Y-99216453D01*
X69133664Y-99215058D01*
X69082440Y-99187330D01*
X69082439Y-99187329D01*
X69082436Y-99187328D01*
X69075760Y-99184775D01*
X69063713Y-99179416D01*
X68940833Y-99116733D01*
X68931516Y-99111980D01*
X68929447Y-99110156D01*
X68872888Y-99082073D01*
X68872220Y-99081732D01*
X68872219Y-99081731D01*
X68815280Y-99052686D01*
X68804518Y-99048125D01*
X68558507Y-98925975D01*
X68550178Y-98921839D01*
X68549080Y-98920882D01*
X68491307Y-98892608D01*
X68491004Y-98892458D01*
X68490953Y-98892433D01*
X68433455Y-98863884D01*
X68429526Y-98861933D01*
X68423681Y-98859512D01*
X68093603Y-98697976D01*
X68093603Y-98697975D01*
X68085480Y-98694000D01*
X68084617Y-98693254D01*
X68026275Y-98665027D01*
X68005890Y-98655051D01*
X67963523Y-98634317D01*
X67958907Y-98632433D01*
X67946398Y-98626381D01*
X66829296Y-98085908D01*
X66134769Y-97749884D01*
X66134769Y-97749883D01*
X66127636Y-97746432D01*
X66127587Y-97746390D01*
X66073857Y-97720413D01*
X66072979Y-97719988D01*
X66071810Y-97719423D01*
X66069998Y-97718547D01*
X66069996Y-97718545D01*
X66069972Y-97718534D01*
X66001952Y-97685626D01*
X66001652Y-97685504D01*
X61161667Y-95345529D01*
X60084530Y-94824754D01*
X60076971Y-94821100D01*
X60076686Y-94820855D01*
X60017674Y-94792432D01*
X60017672Y-94792430D01*
X59952276Y-94760813D01*
X59950730Y-94760187D01*
X58694246Y-94154998D01*
X58694246Y-94154997D01*
X58694242Y-94154996D01*
X52908914Y-91368283D01*
X52908322Y-91367996D01*
X50663535Y-90272001D01*
X50663247Y-90271860D01*
X50655704Y-90268153D01*
X50655351Y-90267846D01*
X50622139Y-90251657D01*
X50622040Y-90251609D01*
X50621958Y-90251533D01*
X50617829Y-90249188D01*
X50585391Y-90233568D01*
X50578051Y-90229458D01*
X50575126Y-90228077D01*
X50551908Y-90217116D01*
X50549295Y-90215844D01*
X50542303Y-90212337D01*
X50541324Y-90211522D01*
X50533147Y-90207746D01*
X50531338Y-90206839D01*
X50530816Y-90206352D01*
X50527676Y-90204660D01*
X50519301Y-90200869D01*
X50510445Y-90196193D01*
X50503949Y-90193324D01*
X50492861Y-90187616D01*
X50488546Y-90185771D01*
X50475616Y-90179326D01*
X50475228Y-90179103D01*
X50472869Y-90178134D01*
X50460248Y-90172093D01*
X50457891Y-90170797D01*
X50456628Y-90170304D01*
X50444396Y-90164751D01*
X50439243Y-90162065D01*
X50439131Y-90162024D01*
X50438380Y-90161750D01*
X50426380Y-90155707D01*
X50426053Y-90156382D01*
X50418740Y-90152829D01*
X50416473Y-90152075D01*
X50402968Y-90145810D01*
X50402799Y-90146194D01*
X50395371Y-90142908D01*
X50395368Y-90142906D01*
X50395363Y-90142904D01*
X50395362Y-90142904D01*
X50390824Y-90141571D01*
X50375325Y-90135134D01*
X50375321Y-90135145D01*
X50367745Y-90132199D01*
X50364790Y-90131477D01*
X50354028Y-90128323D01*
X50346498Y-90125740D01*
X50341786Y-90123414D01*
X50336834Y-90122426D01*
X50328990Y-90119736D01*
X50328424Y-90119335D01*
X50323345Y-90117793D01*
X50323344Y-90117793D01*
X50323342Y-90117792D01*
X50315567Y-90115433D01*
X50315581Y-90115386D01*
X50310382Y-90113916D01*
X50310302Y-90114224D01*
X50300133Y-90111555D01*
X50289804Y-90109587D01*
X50284417Y-90108207D01*
X50283799Y-90107840D01*
X50276227Y-90106203D01*
X50268823Y-90105182D01*
X50263114Y-90104072D01*
X50262642Y-90103934D01*
X50262367Y-90103927D01*
X50259159Y-90103304D01*
X50258496Y-90102961D01*
X50250138Y-90101576D01*
X50241702Y-90100817D01*
X50235946Y-90099969D01*
X50234153Y-90099531D01*
X50233121Y-90099553D01*
X50227243Y-90098688D01*
X50226922Y-90098540D01*
X50219693Y-90097757D01*
X50210975Y-90097323D01*
X50210000Y-90097129D01*
X50208727Y-90097211D01*
X50201616Y-90096858D01*
X50198910Y-90095915D01*
X50198657Y-90095902D01*
X50198648Y-90096165D01*
X50198483Y-90096159D01*
X50196936Y-90095995D01*
X50196935Y-90096027D01*
X50180712Y-90095301D01*
X50180717Y-90095180D01*
X50177576Y-90095118D01*
X50177578Y-90095317D01*
X50161568Y-90095400D01*
X50157939Y-90095632D01*
X50152001Y-90095581D01*
X50151067Y-90095484D01*
X50150530Y-90095569D01*
X50148497Y-90095552D01*
X50146436Y-90095607D01*
X50144185Y-90095840D01*
X50141506Y-90095971D01*
X50119917Y-90097556D01*
X50118836Y-90097520D01*
X50117479Y-90097653D01*
X50115920Y-90097710D01*
X50109587Y-90098384D01*
X50109584Y-90098384D01*
X50109581Y-90098384D01*
X50101508Y-90099244D01*
X50101499Y-90099161D01*
X50096807Y-90099774D01*
X50096825Y-90099885D01*
X50086651Y-90101464D01*
X50073621Y-90104304D01*
X50068552Y-90105041D01*
X50064646Y-90105285D01*
X50062937Y-90105858D01*
X50059066Y-90106422D01*
X50058886Y-90106472D01*
X50055260Y-90107271D01*
X50051453Y-90108535D01*
X50046227Y-90110110D01*
X50045606Y-90110169D01*
X50043734Y-90110862D01*
X50040036Y-90111978D01*
X50037931Y-90111993D01*
X50023704Y-90115721D01*
X50019183Y-90116439D01*
X50017474Y-90116943D01*
X50016024Y-90117587D01*
X50003344Y-90122397D01*
X49996641Y-90124528D01*
X49995339Y-90124785D01*
X49994429Y-90125231D01*
X49986251Y-90127832D01*
X49985947Y-90127838D01*
X49981142Y-90129226D01*
X49975178Y-90131524D01*
X49974813Y-90131641D01*
X49974645Y-90131710D01*
X49974476Y-90131778D01*
X49974440Y-90131792D01*
X49974439Y-90131793D01*
X49969318Y-90133868D01*
X49968132Y-90134542D01*
X49955501Y-90139947D01*
X49955704Y-90140396D01*
X49948490Y-90143647D01*
X49939170Y-90147302D01*
X49931085Y-90151257D01*
X49930878Y-90150835D01*
X49929008Y-90151786D01*
X49929222Y-90152191D01*
X49921460Y-90156290D01*
X49912304Y-90162111D01*
X49905587Y-90165918D01*
X49896381Y-90170555D01*
X49888856Y-90175153D01*
X49888782Y-90175032D01*
X49883729Y-90178255D01*
X49883805Y-90178369D01*
X49876586Y-90183174D01*
X49867421Y-90190370D01*
X49862797Y-90193623D01*
X49862590Y-90193693D01*
X49861980Y-90194112D01*
X49861862Y-90193940D01*
X49860488Y-90194407D01*
X49857486Y-90196567D01*
X49847084Y-90204426D01*
X49846989Y-90204300D01*
X49842473Y-90207850D01*
X49842574Y-90207973D01*
X49835897Y-90213432D01*
X49827948Y-90221086D01*
X49822584Y-90225759D01*
X49813865Y-90232621D01*
X49811755Y-90234579D01*
X49810460Y-90236021D01*
X49803859Y-90242806D01*
X49800786Y-90245128D01*
X49797488Y-90249355D01*
X49793209Y-90253756D01*
X49787674Y-90259575D01*
X49787328Y-90259246D01*
X49778038Y-90269395D01*
X49776871Y-90270414D01*
X49774890Y-90272664D01*
X49774891Y-90272665D01*
X49773939Y-90273745D01*
X49773923Y-90273765D01*
X49772790Y-90275052D01*
X49772414Y-90275548D01*
X49765988Y-90283059D01*
X49764205Y-90285243D01*
X49764663Y-90285600D01*
X49754673Y-90298416D01*
X49754319Y-90298140D01*
X49747562Y-90307298D01*
X49746631Y-90308316D01*
X49745888Y-90309096D01*
X49745840Y-90309182D01*
X49745610Y-90309435D01*
X49745171Y-90310046D01*
X49742890Y-90314294D01*
X49729119Y-90334757D01*
X49727470Y-90336747D01*
X49727265Y-90336995D01*
X49726163Y-90338316D01*
X49723991Y-90341753D01*
X49720014Y-90348725D01*
X49718974Y-90350060D01*
X49718169Y-90351959D01*
X49714544Y-90358317D01*
X49713835Y-90358999D01*
X49709676Y-90366548D01*
X49706442Y-90373861D01*
X49704650Y-90377478D01*
X49698415Y-90388409D01*
X49695732Y-90394021D01*
X49695720Y-90394043D01*
X49695692Y-90394104D01*
X49695385Y-90394745D01*
X49695231Y-90395139D01*
X49693119Y-90399729D01*
X49692561Y-90401535D01*
X49682925Y-90424314D01*
X49682051Y-90425912D01*
X49680818Y-90429099D01*
X49678878Y-90435156D01*
X49677987Y-90436834D01*
X49677072Y-90440796D01*
X49675498Y-90445713D01*
X49674150Y-90447701D01*
X49671156Y-90456445D01*
X49669538Y-90461639D01*
X49668569Y-90465923D01*
X49667607Y-90467648D01*
X49667483Y-90468661D01*
X49666679Y-90471186D01*
X49666463Y-90471117D01*
X49665652Y-90473805D01*
X49666260Y-90473979D01*
X49663716Y-90482896D01*
X49662238Y-90487278D01*
X49661618Y-90489793D01*
X49661137Y-90494112D01*
X49658205Y-90510425D01*
X49656344Y-90517877D01*
X49655976Y-90518502D01*
X49654498Y-90524486D01*
X49653249Y-90528519D01*
X49653248Y-90528527D01*
X49652997Y-90535065D01*
X49651644Y-90546053D01*
X49651792Y-90546070D01*
X49651709Y-90546832D01*
X49651123Y-90550290D01*
X49650457Y-90555709D01*
X49649806Y-90558818D01*
X49649635Y-90559135D01*
X49649610Y-90559463D01*
X49649481Y-90559994D01*
X49649263Y-90561285D01*
X49647611Y-90568441D01*
X49647532Y-90569262D01*
X49647008Y-90584729D01*
X49646530Y-90589359D01*
X49645218Y-90596671D01*
X49645469Y-90599657D01*
X49644396Y-90610078D01*
X49644262Y-90610405D01*
X49644213Y-90613483D01*
X49644194Y-90614443D01*
X49644161Y-90615794D01*
X31024259Y-90615794D01*
X31059863Y-79035782D01*
X31059866Y-79035257D01*
X31159669Y-69307617D01*
X31159693Y-69306150D01*
X31274914Y-64368711D01*
X36419500Y-64368711D01*
X36419500Y-64611288D01*
X36451161Y-64851785D01*
X36513947Y-65086104D01*
X36606773Y-65310205D01*
X36606776Y-65310212D01*
X36728064Y-65520289D01*
X36728066Y-65520292D01*
X36728067Y-65520293D01*
X36875733Y-65712736D01*
X36875739Y-65712743D01*
X37047256Y-65884260D01*
X37047262Y-65884265D01*
X37239711Y-66031936D01*
X37449788Y-66153224D01*
X37673900Y-66246054D01*
X37908211Y-66308838D01*
X38088586Y-66332584D01*
X38148711Y-66340500D01*
X38148712Y-66340500D01*
X38391289Y-66340500D01*
X38439388Y-66334167D01*
X38631789Y-66308838D01*
X38866100Y-66246054D01*
X39090212Y-66153224D01*
X39300289Y-66031936D01*
X39492738Y-65884265D01*
X39664265Y-65712738D01*
X39811936Y-65520289D01*
X39933224Y-65310212D01*
X40026054Y-65086100D01*
X40088838Y-64851789D01*
X40120500Y-64611288D01*
X40120500Y-64368712D01*
X40120500Y-64368711D01*
X122419500Y-64368711D01*
X122419500Y-64611288D01*
X122451161Y-64851785D01*
X122513947Y-65086104D01*
X122606773Y-65310205D01*
X122606776Y-65310212D01*
X122728064Y-65520289D01*
X122728066Y-65520292D01*
X122728067Y-65520293D01*
X122875733Y-65712736D01*
X122875739Y-65712743D01*
X123047256Y-65884260D01*
X123047262Y-65884265D01*
X123239711Y-66031936D01*
X123449788Y-66153224D01*
X123673900Y-66246054D01*
X123908211Y-66308838D01*
X124088586Y-66332584D01*
X124148711Y-66340500D01*
X124148712Y-66340500D01*
X124391289Y-66340500D01*
X124439388Y-66334167D01*
X124631789Y-66308838D01*
X124866100Y-66246054D01*
X125090212Y-66153224D01*
X125300289Y-66031936D01*
X125492738Y-65884265D01*
X125664265Y-65712738D01*
X125811936Y-65520289D01*
X125933224Y-65310212D01*
X126026054Y-65086100D01*
X126088838Y-64851789D01*
X126120500Y-64611288D01*
X126120500Y-64368712D01*
X126088838Y-64128211D01*
X126026054Y-63893900D01*
X125933224Y-63669788D01*
X125811936Y-63459711D01*
X125664265Y-63267262D01*
X125664260Y-63267256D01*
X125492743Y-63095739D01*
X125492736Y-63095733D01*
X125300293Y-62948067D01*
X125300292Y-62948066D01*
X125300289Y-62948064D01*
X125090212Y-62826776D01*
X125088928Y-62826244D01*
X124866104Y-62733947D01*
X124631785Y-62671161D01*
X124391289Y-62639500D01*
X124391288Y-62639500D01*
X124148712Y-62639500D01*
X124148711Y-62639500D01*
X123908214Y-62671161D01*
X123673895Y-62733947D01*
X123449794Y-62826773D01*
X123449785Y-62826777D01*
X123239706Y-62948067D01*
X123047263Y-63095733D01*
X123047256Y-63095739D01*
X122875739Y-63267256D01*
X122875733Y-63267263D01*
X122728067Y-63459706D01*
X122606777Y-63669785D01*
X122606773Y-63669794D01*
X122513947Y-63893895D01*
X122451161Y-64128214D01*
X122419500Y-64368711D01*
X40120500Y-64368711D01*
X40088838Y-64128211D01*
X40026054Y-63893900D01*
X39933224Y-63669788D01*
X39811936Y-63459711D01*
X39664265Y-63267262D01*
X39664260Y-63267256D01*
X39492743Y-63095739D01*
X39492736Y-63095733D01*
X39300293Y-62948067D01*
X39300292Y-62948066D01*
X39300289Y-62948064D01*
X39090212Y-62826776D01*
X39088928Y-62826244D01*
X38866104Y-62733947D01*
X38631785Y-62671161D01*
X38391289Y-62639500D01*
X38391288Y-62639500D01*
X38148712Y-62639500D01*
X38148711Y-62639500D01*
X37908214Y-62671161D01*
X37673895Y-62733947D01*
X37449794Y-62826773D01*
X37449785Y-62826777D01*
X37239706Y-62948067D01*
X37047263Y-63095733D01*
X37047256Y-63095739D01*
X36875739Y-63267256D01*
X36875733Y-63267263D01*
X36728067Y-63459706D01*
X36606777Y-63669785D01*
X36606773Y-63669794D01*
X36513947Y-63893895D01*
X36451161Y-64128214D01*
X36419500Y-64368711D01*
X31274914Y-64368711D01*
X31301241Y-63240528D01*
X31301359Y-63237289D01*
X31395644Y-61342557D01*
X31395980Y-61337739D01*
X31508581Y-60079730D01*
X31510047Y-60068836D01*
X31636569Y-59366866D01*
X31641762Y-59347341D01*
X31670092Y-59267657D01*
X31711096Y-59211087D01*
X31718908Y-59205518D01*
X31774750Y-59168900D01*
X31791664Y-59159607D01*
X32128657Y-59007330D01*
X32135885Y-59004335D01*
X32670247Y-58802538D01*
X32674213Y-58801119D01*
X33364897Y-58567374D01*
X33368535Y-58566206D01*
X35148160Y-58024946D01*
X35151191Y-58024067D01*
X37327630Y-57422634D01*
X37329786Y-57422059D01*
X39771934Y-56795737D01*
X39773716Y-56795296D01*
X42348733Y-56179624D01*
X42350652Y-56179183D01*
X44926671Y-55609314D01*
X44928948Y-55608835D01*
X47374504Y-55119722D01*
X47377341Y-55119190D01*
X51674421Y-54366762D01*
X51677237Y-54366304D01*
X55993491Y-53715677D01*
X55996296Y-53715288D01*
X57130416Y-53571602D01*
X57199397Y-53582705D01*
X57251425Y-53629339D01*
X57270000Y-53694619D01*
X57270000Y-60190000D01*
X105270000Y-60190000D01*
X105270000Y-53641590D01*
X105289685Y-53574551D01*
X105342489Y-53528796D01*
X105410573Y-53518703D01*
X107937771Y-53859545D01*
G37*
%TD.AperFunction*%
%TD*%
M02*
