%TF.GenerationSoftware,KiCad,Pcbnew,10.0.1*%
%TF.CreationDate,2026-04-24T20:31:48+02:00*%
%TF.ProjectId,badge-sthack-2026,62616467-652d-4737-9468-61636b2d3230,rev?*%
%TF.SameCoordinates,Original*%
%TF.FileFunction,Legend,Top*%
%TF.FilePolarity,Positive*%
%FSLAX46Y46*%
G04 Gerber Fmt 4.6, Leading zero omitted, Abs format (unit mm)*
G04 Created by KiCad (PCBNEW 10.0.1) date 2026-04-24 20:31:48*
%MOMM*%
%LPD*%
G01*
G04 APERTURE LIST*
%ADD10C,0.300000*%
%ADD11C,0.000000*%
%ADD12C,3.200000*%
G04 APERTURE END LIST*
D10*
X202048572Y-56339757D02*
X201905715Y-56268328D01*
X201905715Y-56268328D02*
X201691429Y-56268328D01*
X201691429Y-56268328D02*
X201477143Y-56339757D01*
X201477143Y-56339757D02*
X201334286Y-56482614D01*
X201334286Y-56482614D02*
X201262857Y-56625471D01*
X201262857Y-56625471D02*
X201191429Y-56911185D01*
X201191429Y-56911185D02*
X201191429Y-57125471D01*
X201191429Y-57125471D02*
X201262857Y-57411185D01*
X201262857Y-57411185D02*
X201334286Y-57554042D01*
X201334286Y-57554042D02*
X201477143Y-57696900D01*
X201477143Y-57696900D02*
X201691429Y-57768328D01*
X201691429Y-57768328D02*
X201834286Y-57768328D01*
X201834286Y-57768328D02*
X202048572Y-57696900D01*
X202048572Y-57696900D02*
X202120000Y-57625471D01*
X202120000Y-57625471D02*
X202120000Y-57125471D01*
X202120000Y-57125471D02*
X201834286Y-57125471D01*
X202977143Y-56268328D02*
X202977143Y-56625471D01*
X202620000Y-56482614D02*
X202977143Y-56625471D01*
X202977143Y-56625471D02*
X203334286Y-56482614D01*
X202762857Y-56911185D02*
X202977143Y-56625471D01*
X202977143Y-56625471D02*
X203191429Y-56911185D01*
X204120000Y-56268328D02*
X204120000Y-56625471D01*
X203762857Y-56482614D02*
X204120000Y-56625471D01*
X204120000Y-56625471D02*
X204477143Y-56482614D01*
X203905714Y-56911185D02*
X204120000Y-56625471D01*
X204120000Y-56625471D02*
X204334286Y-56911185D01*
X205262857Y-56268328D02*
X205262857Y-56625471D01*
X204905714Y-56482614D02*
X205262857Y-56625471D01*
X205262857Y-56625471D02*
X205620000Y-56482614D01*
X205048571Y-56911185D02*
X205262857Y-56625471D01*
X205262857Y-56625471D02*
X205477143Y-56911185D01*
D11*
%TO.C,G\u002A\u002A\u002A*%
G36*
X115124988Y-88010581D02*
G01*
X115117023Y-88061208D01*
X115081489Y-88191170D01*
X115022182Y-88388849D01*
X114942902Y-88642624D01*
X114847444Y-88940875D01*
X114739606Y-89271984D01*
X114623187Y-89624330D01*
X114501982Y-89986293D01*
X114379790Y-90346254D01*
X114260409Y-90692593D01*
X114147634Y-91013691D01*
X114099726Y-91147764D01*
X113684642Y-92255314D01*
X113259495Y-93294239D01*
X112812682Y-94292114D01*
X112520789Y-94900037D01*
X112067204Y-95792723D01*
X111625535Y-96601772D01*
X111188663Y-97337856D01*
X110749468Y-98011650D01*
X110300831Y-98633825D01*
X109835631Y-99215055D01*
X109346749Y-99766013D01*
X109107595Y-100016695D01*
X108408455Y-100687973D01*
X107705583Y-101269721D01*
X106989158Y-101768428D01*
X106249359Y-102190584D01*
X105476363Y-102542679D01*
X105032961Y-102709009D01*
X104648212Y-102836273D01*
X104296601Y-102935406D01*
X103956074Y-103009856D01*
X103604575Y-103063068D01*
X103220049Y-103098490D01*
X102780440Y-103119569D01*
X102347083Y-103128782D01*
X102001960Y-103130908D01*
X101659971Y-103128857D01*
X101342948Y-103123064D01*
X101072727Y-103113967D01*
X100871138Y-103102004D01*
X100832409Y-103098452D01*
X100169621Y-103009348D01*
X99443258Y-102873049D01*
X98670830Y-102694153D01*
X97869845Y-102477256D01*
X97057812Y-102226957D01*
X96252240Y-101947850D01*
X95804658Y-101778412D01*
X95451382Y-101637539D01*
X95072919Y-101481723D01*
X94678973Y-101315391D01*
X94279245Y-101142968D01*
X93883441Y-100968881D01*
X93501263Y-100797556D01*
X93142413Y-100633420D01*
X92816596Y-100480898D01*
X92533514Y-100344419D01*
X92302871Y-100228406D01*
X92134369Y-100137288D01*
X92037713Y-100075490D01*
X92018184Y-100051113D01*
X92067493Y-100009694D01*
X92201472Y-99926651D01*
X92418467Y-99802851D01*
X92550385Y-99730478D01*
X93640834Y-99730478D01*
X93682428Y-99773468D01*
X93796651Y-99851745D01*
X93969964Y-99957794D01*
X94188828Y-100084103D01*
X94439704Y-100223158D01*
X94709052Y-100367445D01*
X94983334Y-100509452D01*
X95249011Y-100641665D01*
X95477413Y-100749666D01*
X96421451Y-101146319D01*
X97411505Y-101496227D01*
X98421672Y-101791811D01*
X99426046Y-102025491D01*
X100398725Y-102189687D01*
X100398787Y-102189695D01*
X100800600Y-102231627D01*
X101250983Y-102258492D01*
X101728285Y-102270603D01*
X102210857Y-102268275D01*
X102677047Y-102251818D01*
X103105206Y-102221547D01*
X103473683Y-102177773D01*
X103669999Y-102142428D01*
X104402414Y-101948783D01*
X105151966Y-101682263D01*
X105889845Y-101354525D01*
X106587241Y-100977225D01*
X106663545Y-100931184D01*
X107298166Y-100498254D01*
X107924872Y-99982194D01*
X108530315Y-99395932D01*
X109101143Y-98752397D01*
X109624008Y-98064517D01*
X109624758Y-98063448D01*
X110118602Y-97300926D01*
X110584867Y-96468160D01*
X111011810Y-95589806D01*
X111387688Y-94690520D01*
X111700755Y-93794957D01*
X111775900Y-93547062D01*
X111835611Y-93330999D01*
X111904603Y-93061802D01*
X111979829Y-92753384D01*
X112058243Y-92419657D01*
X112136797Y-92074535D01*
X112212447Y-91731932D01*
X112282145Y-91405760D01*
X112342844Y-91109933D01*
X112391499Y-90858364D01*
X112425062Y-90664966D01*
X112440488Y-90543652D01*
X112440224Y-90513116D01*
X112415915Y-90503687D01*
X112347600Y-90520103D01*
X112229365Y-90565047D01*
X112055299Y-90641205D01*
X111819489Y-90751259D01*
X111516022Y-90897896D01*
X111138986Y-91083798D01*
X110693484Y-91306129D01*
X110231008Y-91537392D01*
X109722398Y-91790857D01*
X109191147Y-92054871D01*
X108660749Y-92317785D01*
X108154697Y-92567945D01*
X107696484Y-92793703D01*
X107446325Y-92916501D01*
X106338891Y-93459221D01*
X105310673Y-93963322D01*
X104354413Y-94432369D01*
X103462855Y-94869929D01*
X102628745Y-95279566D01*
X101844825Y-95664848D01*
X101103841Y-96029340D01*
X100398536Y-96376608D01*
X99721654Y-96710217D01*
X99065939Y-97033734D01*
X98546704Y-97290161D01*
X98041593Y-97539607D01*
X97525579Y-97794227D01*
X97011765Y-98047570D01*
X96513255Y-98293183D01*
X96043150Y-98524614D01*
X95614555Y-98735412D01*
X95240573Y-98919123D01*
X94934305Y-99069295D01*
X94830511Y-99120084D01*
X94519566Y-99273112D01*
X94238982Y-99413120D01*
X93999805Y-99534439D01*
X93813081Y-99631402D01*
X93689858Y-99698342D01*
X93641181Y-99729590D01*
X93640834Y-99730478D01*
X92550385Y-99730478D01*
X92716827Y-99639164D01*
X93094901Y-99436455D01*
X93551037Y-99195594D01*
X94083583Y-98917447D01*
X94690888Y-98602883D01*
X95371299Y-98252769D01*
X96123166Y-97867973D01*
X96944835Y-97449362D01*
X97704848Y-97063579D01*
X98539233Y-96639749D01*
X99424860Y-96188142D01*
X100347048Y-95716326D01*
X101291117Y-95231870D01*
X102242387Y-94742343D01*
X103186176Y-94255314D01*
X104107804Y-93778351D01*
X104992591Y-93319023D01*
X105825856Y-92884900D01*
X106592919Y-92483549D01*
X106844999Y-92351187D01*
X107001271Y-92269136D01*
X107229259Y-92149554D01*
X107515436Y-91999531D01*
X107846276Y-91826154D01*
X108208255Y-91636512D01*
X108587847Y-91437692D01*
X108913560Y-91267133D01*
X109304753Y-91061795D01*
X109761998Y-90820920D01*
X110266553Y-90554432D01*
X110799675Y-90272256D01*
X111342622Y-89984315D01*
X111876653Y-89700535D01*
X112383024Y-89430840D01*
X112593673Y-89318425D01*
X113117262Y-89038864D01*
X113562446Y-88801347D01*
X113935666Y-88602545D01*
X114243359Y-88439134D01*
X114491965Y-88307785D01*
X114687922Y-88205173D01*
X114837670Y-88127969D01*
X114947648Y-88072849D01*
X115024294Y-88036484D01*
X115074048Y-88015548D01*
X115103348Y-88006714D01*
X115118633Y-88006656D01*
X115124988Y-88010581D01*
G37*
G36*
X86572482Y-55580349D02*
G01*
X91801658Y-55792283D01*
X96962689Y-56146125D01*
X102060733Y-56642384D01*
X107100948Y-57281566D01*
X112088495Y-58064178D01*
X117028532Y-58990728D01*
X117354126Y-59057181D01*
X118215294Y-59238053D01*
X119113326Y-59434427D01*
X120033909Y-59642620D01*
X120962728Y-59858947D01*
X121885472Y-60079722D01*
X122787826Y-60301260D01*
X123655477Y-60519878D01*
X124474111Y-60731889D01*
X125229415Y-60933609D01*
X125907075Y-61121353D01*
X126492778Y-61291437D01*
X126972211Y-61440175D01*
X127331061Y-61563882D01*
X127555012Y-61658874D01*
X127617518Y-61699421D01*
X127650140Y-61758467D01*
X127680360Y-61875397D01*
X127708398Y-62057255D01*
X127734472Y-62311088D01*
X127758801Y-62643940D01*
X127781604Y-63062857D01*
X127803098Y-63574885D01*
X127823503Y-64187069D01*
X127843037Y-64906454D01*
X127861918Y-65740087D01*
X127880366Y-66695012D01*
X127898598Y-67778276D01*
X127916834Y-68996922D01*
X127935292Y-70357998D01*
X127954189Y-71868549D01*
X127967283Y-72974323D01*
X127993519Y-75674771D01*
X128010014Y-78400470D01*
X128016986Y-81141367D01*
X128014654Y-83887414D01*
X128003239Y-86628559D01*
X127982960Y-89354752D01*
X127954037Y-92055944D01*
X127916689Y-94722082D01*
X127871136Y-97343118D01*
X127817597Y-99909001D01*
X127756292Y-102409679D01*
X127687441Y-104835104D01*
X127611263Y-107175223D01*
X127527977Y-109419988D01*
X127437804Y-111559348D01*
X127340962Y-113583251D01*
X127237672Y-115481649D01*
X127128153Y-117244490D01*
X127012625Y-118861724D01*
X126946783Y-119683333D01*
X126744131Y-121932414D01*
X126523393Y-124033891D01*
X126281576Y-126000724D01*
X126015687Y-127845870D01*
X125722736Y-129582289D01*
X125399730Y-131222938D01*
X125043676Y-132780776D01*
X124651583Y-134268762D01*
X124220458Y-135699854D01*
X123747309Y-137087012D01*
X123229144Y-138443192D01*
X122662971Y-139781354D01*
X122045798Y-141114457D01*
X121955062Y-141301612D01*
X121129066Y-142929714D01*
X120266705Y-144493956D01*
X119355148Y-146012460D01*
X118381560Y-147503348D01*
X117333109Y-148984741D01*
X116196960Y-150474762D01*
X114960281Y-151991532D01*
X113610238Y-153553175D01*
X112133998Y-155177811D01*
X112110583Y-155203016D01*
X110788508Y-156588473D01*
X109340041Y-158037409D01*
X107780510Y-159536335D01*
X106125245Y-161071765D01*
X104389572Y-162630211D01*
X102588820Y-164198188D01*
X100738317Y-165762206D01*
X98853391Y-167308780D01*
X96949370Y-168824423D01*
X95041582Y-170295648D01*
X94453809Y-170739091D01*
X93747394Y-171265129D01*
X92968633Y-171837760D01*
X92130712Y-172447749D01*
X91246819Y-173085860D01*
X90330139Y-173742859D01*
X89393860Y-174409510D01*
X88451167Y-175076578D01*
X87515247Y-175734827D01*
X86599287Y-176375021D01*
X85716473Y-176987926D01*
X84879992Y-177564307D01*
X84103029Y-178094927D01*
X83398772Y-178570552D01*
X82780408Y-178981946D01*
X82261122Y-179319873D01*
X81854101Y-179575099D01*
X81738668Y-179644324D01*
X81470907Y-179792465D01*
X81288754Y-179857445D01*
X81144858Y-179847371D01*
X80994149Y-179771766D01*
X80454877Y-179429799D01*
X79801151Y-179002536D01*
X79048160Y-178500606D01*
X78211092Y-177934637D01*
X77305134Y-177315257D01*
X76345474Y-176653093D01*
X75347299Y-175958774D01*
X74325797Y-175242927D01*
X73296157Y-174516181D01*
X72273565Y-173789164D01*
X71273210Y-173072503D01*
X70310278Y-172376826D01*
X69399959Y-171712762D01*
X68557438Y-171090939D01*
X68086190Y-170739091D01*
X66180337Y-169284317D01*
X64273516Y-167780957D01*
X62381054Y-166242499D01*
X60518280Y-164682430D01*
X58700522Y-163114237D01*
X56943107Y-161551406D01*
X55261364Y-160007426D01*
X53670621Y-158495782D01*
X52186206Y-157029963D01*
X50823446Y-155623455D01*
X50429415Y-155203016D01*
X48951164Y-153577286D01*
X47599304Y-152014824D01*
X46361002Y-150497508D01*
X45223425Y-149007217D01*
X44173740Y-147525828D01*
X43199113Y-146035220D01*
X42286711Y-144517270D01*
X41423701Y-142953857D01*
X40597249Y-141326858D01*
X40584937Y-141301612D01*
X39960377Y-139968184D01*
X39387237Y-138631511D01*
X38862525Y-137278637D01*
X38383248Y-135896601D01*
X37946414Y-134472447D01*
X37549031Y-132993215D01*
X37188107Y-131445946D01*
X36860649Y-129817683D01*
X36563666Y-128095466D01*
X36294166Y-126266338D01*
X36049156Y-124317339D01*
X35825643Y-122235512D01*
X35620637Y-120007897D01*
X35593215Y-119683333D01*
X35474484Y-118150235D01*
X35361642Y-116466017D01*
X35254908Y-114640729D01*
X35154502Y-112684423D01*
X35060644Y-110607148D01*
X34973553Y-108418955D01*
X34893449Y-106129894D01*
X34820552Y-103750015D01*
X34755080Y-101289370D01*
X34697255Y-98758008D01*
X34647294Y-96165981D01*
X34605418Y-93523337D01*
X34571847Y-90840128D01*
X34562948Y-89876033D01*
X40746453Y-89876033D01*
X40746457Y-91582608D01*
X40746992Y-93293378D01*
X40748058Y-95000487D01*
X40749653Y-96696084D01*
X40751776Y-98372313D01*
X40754428Y-100021321D01*
X40757605Y-101635255D01*
X40761309Y-103206260D01*
X40765537Y-104726483D01*
X40770288Y-106188070D01*
X40775563Y-107583168D01*
X40781359Y-108903922D01*
X40787676Y-110142479D01*
X40794512Y-111290985D01*
X40801868Y-112341586D01*
X40809742Y-113286429D01*
X40818132Y-114117661D01*
X40827039Y-114827426D01*
X40836460Y-115407871D01*
X40846396Y-115851144D01*
X40854438Y-116095079D01*
X40979238Y-118629938D01*
X41140289Y-121017250D01*
X41339860Y-123267117D01*
X41580218Y-125389640D01*
X41863631Y-127394921D01*
X42192366Y-129293061D01*
X42568692Y-131094162D01*
X42994875Y-132808325D01*
X43473182Y-134445652D01*
X44005883Y-136016245D01*
X44595243Y-137530204D01*
X45243532Y-138997632D01*
X45953015Y-140428630D01*
X46571450Y-141563274D01*
X47115007Y-142486419D01*
X47738778Y-143484943D01*
X48418099Y-144522772D01*
X49128305Y-145563831D01*
X49844732Y-146572046D01*
X50542715Y-147511342D01*
X51197590Y-148345644D01*
X51266118Y-148429682D01*
X52009764Y-149314251D01*
X52857071Y-150280915D01*
X53787718Y-151308640D01*
X54781380Y-152376392D01*
X55817735Y-153463138D01*
X56876460Y-154547843D01*
X57937232Y-155609472D01*
X58979728Y-156626993D01*
X59983624Y-157579371D01*
X60928598Y-158445571D01*
X61038566Y-158544060D01*
X62402391Y-159725244D01*
X63906685Y-160959179D01*
X65542014Y-162239146D01*
X67298943Y-163558427D01*
X69168035Y-164910305D01*
X71139856Y-166288062D01*
X73204971Y-167684980D01*
X75353944Y-169094341D01*
X77577339Y-170509428D01*
X79616983Y-171771814D01*
X80035196Y-172027704D01*
X80414646Y-172260654D01*
X80730339Y-172455262D01*
X80957285Y-172596122D01*
X81068412Y-172666450D01*
X81200757Y-172750123D01*
X81251606Y-172777199D01*
X81324865Y-172739626D01*
X81508214Y-172634177D01*
X81774080Y-172476975D01*
X82094889Y-172284147D01*
X82098273Y-172282098D01*
X85074961Y-170447763D01*
X87900159Y-168640489D01*
X90580505Y-166855668D01*
X93122640Y-165088695D01*
X95533203Y-163334962D01*
X97818832Y-161589863D01*
X99816031Y-159988815D01*
X100754035Y-159194794D01*
X101770085Y-158291723D01*
X102844851Y-157299103D01*
X103959001Y-156236438D01*
X105093203Y-155123229D01*
X106228128Y-153978979D01*
X107344444Y-152823188D01*
X108422819Y-151675359D01*
X109443923Y-150554995D01*
X110388425Y-149481597D01*
X111236993Y-148474666D01*
X111273880Y-148429682D01*
X111922490Y-147609169D01*
X112616928Y-146679684D01*
X113332531Y-145677301D01*
X114044634Y-144638094D01*
X114728571Y-143598139D01*
X115359680Y-142593510D01*
X115913294Y-141660280D01*
X115968548Y-141563274D01*
X116729047Y-140154301D01*
X117426521Y-138717047D01*
X118063238Y-137241409D01*
X118641466Y-135717287D01*
X119163473Y-134134579D01*
X119631525Y-132483183D01*
X120047890Y-130752997D01*
X120414837Y-128933920D01*
X120734632Y-127015852D01*
X121009543Y-124988689D01*
X121241838Y-122842331D01*
X121433784Y-120566675D01*
X121587649Y-118151621D01*
X121685560Y-116095079D01*
X121695893Y-115763373D01*
X121705712Y-115288414D01*
X121715018Y-114678057D01*
X121723808Y-113940155D01*
X121732081Y-113082562D01*
X121739838Y-112113132D01*
X121747077Y-111039718D01*
X121753796Y-109870175D01*
X121759995Y-108612356D01*
X121765674Y-107274114D01*
X121770830Y-105863304D01*
X121775463Y-104387779D01*
X121779573Y-102855393D01*
X121783157Y-101273999D01*
X121786216Y-99651452D01*
X121788748Y-97995606D01*
X121790752Y-96314313D01*
X121792228Y-94615428D01*
X121793174Y-92906804D01*
X121793589Y-91196295D01*
X121793472Y-89491756D01*
X121792823Y-87801039D01*
X121791641Y-86131998D01*
X121789924Y-84492487D01*
X121787671Y-82890361D01*
X121784882Y-81333472D01*
X121781556Y-79829674D01*
X121777691Y-78386821D01*
X121773287Y-77012768D01*
X121768343Y-75715366D01*
X121762857Y-74502471D01*
X121756830Y-73381937D01*
X121750259Y-72361616D01*
X121743144Y-71449362D01*
X121735484Y-70653030D01*
X121727277Y-69980473D01*
X121718524Y-69439544D01*
X121709223Y-69038099D01*
X121699373Y-68783989D01*
X121691371Y-68693445D01*
X121563995Y-68241629D01*
X121358654Y-67892512D01*
X121045219Y-67606332D01*
X120716240Y-67406496D01*
X120307969Y-67220899D01*
X119751549Y-67017778D01*
X119058855Y-66799592D01*
X118241766Y-66568800D01*
X117312159Y-66327862D01*
X116281910Y-66079237D01*
X115162896Y-65825384D01*
X113966995Y-65568763D01*
X112706084Y-65311834D01*
X111392039Y-65057055D01*
X110036739Y-64806886D01*
X108652059Y-64563787D01*
X107249877Y-64330217D01*
X105842071Y-64108635D01*
X104440516Y-63901501D01*
X103057091Y-63711274D01*
X102557618Y-63646361D01*
X99260365Y-63252829D01*
X96064576Y-62930106D01*
X92928171Y-62675490D01*
X89809072Y-62486285D01*
X86665197Y-62359790D01*
X83454469Y-62293307D01*
X81269999Y-62280991D01*
X76550705Y-62343956D01*
X71904856Y-62534408D01*
X67304186Y-62854683D01*
X62720430Y-63307116D01*
X58125322Y-63894042D01*
X53975079Y-64536117D01*
X52817468Y-64736348D01*
X51646848Y-64951551D01*
X50477213Y-65178419D01*
X49322554Y-65413647D01*
X48196863Y-65653930D01*
X47114134Y-65895963D01*
X46088359Y-66136441D01*
X45133530Y-66372057D01*
X44263640Y-66599507D01*
X43492682Y-66815486D01*
X42834647Y-67016688D01*
X42303529Y-67199808D01*
X41913319Y-67361541D01*
X41823758Y-67406496D01*
X41408041Y-67671438D01*
X41123311Y-67969103D01*
X40939440Y-68339253D01*
X40848627Y-68693445D01*
X40838351Y-68828123D01*
X40828626Y-69116215D01*
X40819448Y-69549869D01*
X40810819Y-70121231D01*
X40802736Y-70822447D01*
X40795199Y-71645663D01*
X40788207Y-72583025D01*
X40781759Y-73626680D01*
X40775854Y-74768774D01*
X40770491Y-76001453D01*
X40765669Y-77316864D01*
X40761387Y-78707152D01*
X40757644Y-80164464D01*
X40754439Y-81680947D01*
X40751771Y-83248746D01*
X40749640Y-84860008D01*
X40748044Y-86506879D01*
X40746982Y-88181505D01*
X40746453Y-89876033D01*
X34562948Y-89876033D01*
X34546799Y-88126404D01*
X34530495Y-85392216D01*
X34523154Y-82647613D01*
X34524996Y-79902647D01*
X34536240Y-77167367D01*
X34557105Y-74451824D01*
X34572716Y-72974323D01*
X34592034Y-71359071D01*
X34610764Y-69898042D01*
X34629125Y-68584189D01*
X34647336Y-67410468D01*
X34665614Y-66369832D01*
X34684179Y-65455237D01*
X34703250Y-64659637D01*
X34723044Y-63975986D01*
X34743780Y-63397239D01*
X34765677Y-62916351D01*
X34788953Y-62526275D01*
X34813827Y-62219967D01*
X34840518Y-61990381D01*
X34869244Y-61830471D01*
X34900223Y-61733193D01*
X34922480Y-61699421D01*
X35061479Y-61622806D01*
X35343692Y-61515335D01*
X35754805Y-61380692D01*
X36280505Y-61222562D01*
X36906478Y-61044631D01*
X37618412Y-60850582D01*
X38401992Y-60644102D01*
X39242905Y-60428874D01*
X40126837Y-60208584D01*
X41039476Y-59986917D01*
X41966508Y-59767557D01*
X42893619Y-59554190D01*
X43806495Y-59350500D01*
X44690824Y-59160173D01*
X45185872Y-59057181D01*
X50122945Y-58121081D01*
X55107186Y-57328953D01*
X60143754Y-56680288D01*
X65237809Y-56174580D01*
X70394509Y-55811322D01*
X75619013Y-55590006D01*
X80916481Y-55510126D01*
X81269999Y-55509817D01*
X86572482Y-55580349D01*
G37*
G36*
X82507418Y-50592533D02*
G01*
X83616133Y-50597420D01*
X84682148Y-50605373D01*
X85685070Y-50616393D01*
X86604505Y-50630479D01*
X87420060Y-50647632D01*
X88111339Y-50667851D01*
X88567460Y-50686539D01*
X92234840Y-50890130D01*
X95769922Y-51138444D01*
X99196095Y-51434142D01*
X102536750Y-51779889D01*
X105815275Y-52178348D01*
X109055061Y-52632180D01*
X112279499Y-53144049D01*
X115511977Y-53716619D01*
X116022008Y-53812251D01*
X117060210Y-54014940D01*
X118150047Y-54239912D01*
X119278445Y-54483734D01*
X120432330Y-54742974D01*
X121598630Y-55014198D01*
X122764271Y-55293974D01*
X123916179Y-55578869D01*
X125041281Y-55865449D01*
X126126504Y-56150283D01*
X127158773Y-56429937D01*
X128125016Y-56700978D01*
X129012159Y-56959975D01*
X129807128Y-57203493D01*
X130496850Y-57428100D01*
X131068252Y-57630363D01*
X131508260Y-57806850D01*
X131803800Y-57954127D01*
X131809946Y-57957843D01*
X132007189Y-58118615D01*
X132141951Y-58300203D01*
X132151422Y-58322230D01*
X132207465Y-58497933D01*
X132259883Y-58724239D01*
X132308867Y-59006949D01*
X132354605Y-59351862D01*
X132397287Y-59764779D01*
X132437101Y-60251502D01*
X132474236Y-60817831D01*
X132508883Y-61469566D01*
X132541229Y-62212508D01*
X132571465Y-63052459D01*
X132599780Y-63995218D01*
X132626361Y-65046587D01*
X132651400Y-66212366D01*
X132675085Y-67498355D01*
X132697604Y-68910356D01*
X132719148Y-70454169D01*
X132739905Y-72135595D01*
X132760065Y-73960435D01*
X132779817Y-75934488D01*
X132799349Y-78063557D01*
X132800875Y-78236984D01*
X132824881Y-81439971D01*
X132839130Y-84494138D01*
X132843331Y-87411657D01*
X132837191Y-90204701D01*
X132820416Y-92885441D01*
X132792714Y-95466050D01*
X132753792Y-97958700D01*
X132703358Y-100375563D01*
X132641117Y-102728811D01*
X132566778Y-105030616D01*
X132480048Y-107293151D01*
X132380634Y-109528587D01*
X132268243Y-111749097D01*
X132142582Y-113966853D01*
X132003359Y-116194026D01*
X131850280Y-118442790D01*
X131825130Y-118796349D01*
X131610875Y-121490895D01*
X131362620Y-124037980D01*
X131077270Y-126448423D01*
X130751731Y-128733045D01*
X130382908Y-130902664D01*
X129967707Y-132968100D01*
X129503031Y-134940174D01*
X128985788Y-136829704D01*
X128412882Y-138647510D01*
X127781219Y-140404412D01*
X127087703Y-142111230D01*
X126329241Y-143778783D01*
X125502737Y-145417891D01*
X124605097Y-147039373D01*
X123633226Y-148654049D01*
X123003314Y-149639206D01*
X121798234Y-151395559D01*
X120446213Y-153201550D01*
X118952155Y-155052490D01*
X117320964Y-156943689D01*
X115557542Y-158870459D01*
X113666793Y-160828111D01*
X111653621Y-162811956D01*
X109522930Y-164817305D01*
X107279622Y-166839469D01*
X104928600Y-168873759D01*
X102474770Y-170915488D01*
X99923033Y-172959964D01*
X97278294Y-175002500D01*
X94545455Y-177038408D01*
X93728095Y-177633472D01*
X92679455Y-178387272D01*
X91581445Y-179166033D01*
X90454778Y-179955610D01*
X89320170Y-180741856D01*
X88198335Y-181510626D01*
X87109985Y-182247774D01*
X86075837Y-182939154D01*
X85116603Y-183570621D01*
X84252999Y-184128029D01*
X83782408Y-184425389D01*
X83423578Y-184645525D01*
X83026444Y-184881986D01*
X82616407Y-185120477D01*
X82218868Y-185346702D01*
X81859230Y-185546363D01*
X81562893Y-185705165D01*
X81355260Y-185808811D01*
X81263292Y-185843166D01*
X81182815Y-185806845D01*
X80991701Y-185709566D01*
X80721014Y-185567370D01*
X80485801Y-185441618D01*
X79980477Y-185157211D01*
X79358049Y-184785963D01*
X78631507Y-184336345D01*
X77813840Y-183816826D01*
X76918036Y-183235875D01*
X75957086Y-182601962D01*
X74943977Y-181923556D01*
X73891698Y-181209126D01*
X72813240Y-180467142D01*
X72158253Y-180011726D01*
X68650393Y-177514535D01*
X65299250Y-175029681D01*
X62101016Y-172554053D01*
X59051879Y-170084538D01*
X56148029Y-167618024D01*
X53385656Y-165151398D01*
X50760951Y-162681549D01*
X49834029Y-161776221D01*
X48027089Y-159957674D01*
X46355700Y-158199792D01*
X44811098Y-156491268D01*
X43384517Y-154820794D01*
X42067192Y-153177059D01*
X40850356Y-151548755D01*
X39725245Y-149924575D01*
X38683092Y-148293208D01*
X37715133Y-146643346D01*
X36832672Y-145002698D01*
X36071049Y-143458001D01*
X35368767Y-141893255D01*
X34723238Y-140297366D01*
X34131870Y-138659244D01*
X33592075Y-136967794D01*
X33101264Y-135211925D01*
X32656847Y-133380545D01*
X32256233Y-131462560D01*
X31896835Y-129446879D01*
X31576062Y-127322409D01*
X31291325Y-125078058D01*
X31040034Y-122702732D01*
X30819600Y-120185341D01*
X30714869Y-118796349D01*
X30559602Y-116543119D01*
X30418236Y-114313379D01*
X30290479Y-112094955D01*
X30176036Y-109875676D01*
X30074617Y-107643370D01*
X29985927Y-105385864D01*
X29909675Y-103090987D01*
X29845566Y-100746566D01*
X29793309Y-98340429D01*
X29752610Y-95860403D01*
X29723177Y-93294318D01*
X29704717Y-90630000D01*
X29696937Y-87855278D01*
X29699544Y-84957979D01*
X29712245Y-81925932D01*
X29734748Y-78746963D01*
X29739124Y-78236984D01*
X29752944Y-76721093D01*
X32174502Y-76721093D01*
X32175628Y-78726019D01*
X32178469Y-80877549D01*
X32182899Y-83180693D01*
X32188311Y-85453809D01*
X32193848Y-87527422D01*
X32199489Y-89448857D01*
X32205348Y-91227208D01*
X32211539Y-92871568D01*
X32218173Y-94391028D01*
X32225366Y-95794682D01*
X32233229Y-97091622D01*
X32241877Y-98290941D01*
X32251423Y-99401732D01*
X32261979Y-100433088D01*
X32273659Y-101394101D01*
X32286577Y-102293863D01*
X32300845Y-103141468D01*
X32316577Y-103946008D01*
X32333886Y-104716577D01*
X32352886Y-105462265D01*
X32373690Y-106192168D01*
X32396410Y-106915376D01*
X32421161Y-107640983D01*
X32448055Y-108378081D01*
X32477207Y-109135764D01*
X32486156Y-109362063D01*
X32587628Y-111649316D01*
X32708307Y-113901117D01*
X32847001Y-116104514D01*
X33002518Y-118246553D01*
X33173667Y-120314279D01*
X33359256Y-122294739D01*
X33558092Y-124174979D01*
X33768985Y-125942045D01*
X33990743Y-127582983D01*
X34222173Y-129084839D01*
X34389011Y-130044920D01*
X34954835Y-132775884D01*
X35634235Y-135399405D01*
X36432376Y-137927436D01*
X37354422Y-140371928D01*
X38405536Y-142744832D01*
X39590884Y-145058100D01*
X40915628Y-147323683D01*
X42384935Y-149553532D01*
X43465385Y-151050317D01*
X44780456Y-152738774D01*
X46239746Y-154479479D01*
X47836909Y-156266897D01*
X49565602Y-158095492D01*
X51419481Y-159959728D01*
X53392201Y-161854071D01*
X55477417Y-163772985D01*
X57668786Y-165710934D01*
X59959964Y-167662383D01*
X62344606Y-169621796D01*
X64816368Y-171583637D01*
X67368906Y-173542372D01*
X69995876Y-175492465D01*
X72690933Y-177428379D01*
X75447733Y-179344581D01*
X77423296Y-180679552D01*
X77984935Y-181052065D01*
X78552009Y-181423479D01*
X79107632Y-181783159D01*
X79634921Y-182120469D01*
X80116992Y-182424774D01*
X80536962Y-182685437D01*
X80877946Y-182891824D01*
X81123060Y-183033299D01*
X81255421Y-183099225D01*
X81269999Y-183102698D01*
X81352476Y-183062793D01*
X81546558Y-182953021D01*
X81826665Y-182788299D01*
X82167215Y-182583544D01*
X82322406Y-182489021D01*
X82976635Y-182080517D01*
X83742614Y-181587462D01*
X84602865Y-181021787D01*
X85539913Y-180395424D01*
X86536282Y-179720303D01*
X87574494Y-179008357D01*
X88637075Y-178271515D01*
X89706548Y-177521709D01*
X90765436Y-176770870D01*
X91796264Y-176030929D01*
X92034761Y-175858310D01*
X94709828Y-173886413D01*
X97305083Y-171908158D01*
X99814709Y-169928883D01*
X102232886Y-167953926D01*
X104553797Y-165988625D01*
X106771624Y-164038317D01*
X108880548Y-162108342D01*
X110874751Y-160204036D01*
X112748416Y-158330737D01*
X114495723Y-156493784D01*
X116110855Y-154698515D01*
X117587994Y-152950267D01*
X118921321Y-151254379D01*
X119074614Y-151050317D01*
X120644816Y-148837889D01*
X122066957Y-146597826D01*
X123346201Y-144318176D01*
X124487713Y-141986989D01*
X125496657Y-139592313D01*
X126378196Y-137122197D01*
X127137496Y-134564689D01*
X127779720Y-131907838D01*
X128150987Y-130044920D01*
X128388470Y-128647950D01*
X128617112Y-127102845D01*
X128835723Y-125422559D01*
X129043111Y-123620047D01*
X129238083Y-121708261D01*
X129419449Y-119700157D01*
X129586015Y-117608688D01*
X129736592Y-115446807D01*
X129869986Y-113227470D01*
X129985006Y-110963629D01*
X130053843Y-109362063D01*
X130083674Y-108596660D01*
X130111216Y-107854494D01*
X130136580Y-107126473D01*
X130159882Y-106403505D01*
X130181233Y-105676495D01*
X130200747Y-104936353D01*
X130218538Y-104173985D01*
X130234719Y-103380298D01*
X130249403Y-102546200D01*
X130262703Y-101662598D01*
X130274733Y-100720399D01*
X130285605Y-99710511D01*
X130295434Y-98623841D01*
X130304332Y-97451295D01*
X130312412Y-96183783D01*
X130319789Y-94812210D01*
X130326575Y-93327485D01*
X130332883Y-91720514D01*
X130338827Y-89982204D01*
X130344520Y-88103464D01*
X130350076Y-86075200D01*
X130351687Y-85453809D01*
X130357477Y-83005750D01*
X130361795Y-80713946D01*
X130364514Y-78573386D01*
X130365508Y-76579062D01*
X130364653Y-74725964D01*
X130361822Y-73009082D01*
X130356890Y-71423407D01*
X130349731Y-69963929D01*
X130340219Y-68625639D01*
X130328229Y-67403527D01*
X130313634Y-66292583D01*
X130296309Y-65287798D01*
X130276129Y-64384162D01*
X130252967Y-63576666D01*
X130226699Y-62860301D01*
X130197197Y-62230055D01*
X130164337Y-61680921D01*
X130127992Y-61207888D01*
X130088037Y-60805947D01*
X130044347Y-60470089D01*
X129996795Y-60195303D01*
X129945256Y-59976580D01*
X129889604Y-59808910D01*
X129829713Y-59687285D01*
X129765458Y-59606694D01*
X129701933Y-59564291D01*
X129534241Y-59503901D01*
X129232064Y-59407397D01*
X128816584Y-59280817D01*
X128308980Y-59130199D01*
X127730432Y-58961578D01*
X127102121Y-58780993D01*
X126445226Y-58594480D01*
X125780927Y-58408076D01*
X125130405Y-58227819D01*
X124514839Y-58059745D01*
X123955411Y-57909891D01*
X123473299Y-57784295D01*
X123327880Y-57747469D01*
X120419406Y-57057554D01*
X117364807Y-56409765D01*
X114174047Y-55805691D01*
X110857095Y-55246922D01*
X107423916Y-54735047D01*
X103884476Y-54271657D01*
X100248742Y-53858341D01*
X96872856Y-53527797D01*
X95862747Y-53438503D01*
X94936927Y-53361998D01*
X94065928Y-53296670D01*
X93220283Y-53240909D01*
X92370521Y-53193104D01*
X91487174Y-53151645D01*
X90540773Y-53114921D01*
X89501851Y-53081321D01*
X88340937Y-53049236D01*
X87922380Y-53038614D01*
X86415440Y-53006880D01*
X84830439Y-52984320D01*
X83189689Y-52970734D01*
X81515506Y-52965919D01*
X79830205Y-52969672D01*
X78156098Y-52981792D01*
X76515501Y-53002076D01*
X74930729Y-53030323D01*
X73424094Y-53066330D01*
X72017912Y-53109896D01*
X70734497Y-53160817D01*
X69900475Y-53201842D01*
X69214043Y-53243889D01*
X68394210Y-53302498D01*
X67467732Y-53375278D01*
X66461362Y-53459838D01*
X65401852Y-53553788D01*
X64315955Y-53654737D01*
X63230426Y-53760295D01*
X62172017Y-53868071D01*
X61167481Y-53975674D01*
X60869364Y-54008828D01*
X57456165Y-54419769D01*
X54124227Y-54876401D01*
X50886401Y-55376506D01*
X47755534Y-55917867D01*
X44744475Y-56498266D01*
X41866072Y-57115485D01*
X39212118Y-57747469D01*
X38761801Y-57863232D01*
X38226815Y-58005349D01*
X37628338Y-58167781D01*
X36987552Y-58344493D01*
X36325636Y-58529447D01*
X35663770Y-58716606D01*
X35023135Y-58899933D01*
X34424911Y-59073392D01*
X33890277Y-59230944D01*
X33440414Y-59366553D01*
X33096502Y-59474183D01*
X32879721Y-59547795D01*
X32838066Y-59564291D01*
X32769656Y-59611340D01*
X32705726Y-59694783D01*
X32646152Y-59819630D01*
X32590807Y-59990889D01*
X32539566Y-60213571D01*
X32492303Y-60492685D01*
X32448892Y-60833240D01*
X32409208Y-61240247D01*
X32373124Y-61718715D01*
X32340515Y-62273654D01*
X32311256Y-62910072D01*
X32285220Y-63632980D01*
X32262283Y-64447387D01*
X32242317Y-65358303D01*
X32225198Y-66370737D01*
X32210799Y-67489699D01*
X32198996Y-68720198D01*
X32189661Y-70067245D01*
X32182671Y-71535848D01*
X32177898Y-73131018D01*
X32175217Y-74857763D01*
X32174502Y-76721093D01*
X29752944Y-76721093D01*
X29758647Y-76095532D01*
X29778375Y-74109550D01*
X29798496Y-72273236D01*
X29819199Y-70580789D01*
X29840675Y-69026410D01*
X29863111Y-67604297D01*
X29886698Y-66308650D01*
X29911623Y-65133667D01*
X29938077Y-64073549D01*
X29966249Y-63122495D01*
X29996328Y-62274703D01*
X30028502Y-61524374D01*
X30062962Y-60865706D01*
X30099896Y-60292899D01*
X30139493Y-59800153D01*
X30181943Y-59381665D01*
X30227435Y-59031636D01*
X30276158Y-58744266D01*
X30328301Y-58513753D01*
X30384053Y-58334296D01*
X30388577Y-58322230D01*
X30509132Y-58143882D01*
X30702190Y-57975655D01*
X30730053Y-57957843D01*
X31021306Y-57811444D01*
X31457397Y-57635739D01*
X32025253Y-57434159D01*
X32711801Y-57210139D01*
X33503965Y-56967109D01*
X34388675Y-56708505D01*
X35352854Y-56437758D01*
X36383432Y-56158300D01*
X37467333Y-55873566D01*
X38591484Y-55586988D01*
X39742812Y-55301998D01*
X40908244Y-55022030D01*
X42074705Y-54750516D01*
X43229123Y-54490890D01*
X44358424Y-54246583D01*
X45449534Y-54021029D01*
X46489380Y-53817660D01*
X46517991Y-53812251D01*
X49753858Y-53229904D01*
X52978009Y-52708676D01*
X56213836Y-52245903D01*
X59484728Y-51838923D01*
X62814074Y-51485072D01*
X66225265Y-51181688D01*
X69741690Y-50926108D01*
X73386741Y-50715667D01*
X73972539Y-50686539D01*
X74547816Y-50663828D01*
X75263939Y-50644184D01*
X76100516Y-50627606D01*
X77037151Y-50614094D01*
X78053450Y-50603649D01*
X79129021Y-50596271D01*
X80243469Y-50591958D01*
X81376399Y-50590712D01*
X82507418Y-50592533D01*
G37*
G36*
X47441599Y-88007772D02*
G01*
X47474793Y-88018951D01*
X47529839Y-88042954D01*
X47613175Y-88083109D01*
X47731242Y-88142741D01*
X47890476Y-88225179D01*
X48097318Y-88333748D01*
X48358207Y-88471776D01*
X48679581Y-88642589D01*
X49067879Y-88849515D01*
X49529540Y-89095879D01*
X49946325Y-89318425D01*
X50434449Y-89578707D01*
X50958536Y-89857470D01*
X51499845Y-90144792D01*
X52039633Y-90430747D01*
X52559158Y-90705411D01*
X53039678Y-90958860D01*
X53462451Y-91181169D01*
X53626439Y-91267133D01*
X54010368Y-91468181D01*
X54388156Y-91666064D01*
X54746279Y-91853693D01*
X55071211Y-92023982D01*
X55349426Y-92169841D01*
X55567399Y-92284181D01*
X55694999Y-92351187D01*
X56435202Y-92739168D01*
X57246786Y-93162593D01*
X58115072Y-93613893D01*
X59025378Y-94085498D01*
X59963025Y-94569840D01*
X60913331Y-95059350D01*
X61861616Y-95546459D01*
X62793200Y-96023599D01*
X63693403Y-96483200D01*
X64547542Y-96917694D01*
X64835151Y-97063579D01*
X65715442Y-97510533D01*
X66527348Y-97924418D01*
X67269218Y-98304366D01*
X67939399Y-98649509D01*
X68536240Y-98958980D01*
X69058089Y-99231911D01*
X69503295Y-99467434D01*
X69870205Y-99664681D01*
X70157169Y-99822785D01*
X70362533Y-99940878D01*
X70484647Y-100018092D01*
X70521814Y-100051113D01*
X70484344Y-100084929D01*
X70369193Y-100152347D01*
X70186808Y-100248365D01*
X69947636Y-100367980D01*
X69662122Y-100506192D01*
X69340715Y-100657997D01*
X68993861Y-100818395D01*
X68632007Y-100982383D01*
X68265599Y-101144959D01*
X67962045Y-101276728D01*
X66805105Y-101748977D01*
X65690502Y-102154728D01*
X64622301Y-102492811D01*
X63604566Y-102762060D01*
X62641361Y-102961307D01*
X61736751Y-103089382D01*
X61612045Y-103101847D01*
X61404005Y-103116256D01*
X61131441Y-103127531D01*
X60815672Y-103135549D01*
X60478017Y-103140188D01*
X60139796Y-103141323D01*
X59822326Y-103138834D01*
X59546927Y-103132595D01*
X59334918Y-103122486D01*
X59254848Y-103115437D01*
X58434625Y-102975242D01*
X57610859Y-102743357D01*
X56792064Y-102423548D01*
X55986756Y-102019579D01*
X55203448Y-101535213D01*
X54497834Y-101012404D01*
X54228938Y-100782486D01*
X53919881Y-100496057D01*
X53589607Y-100172523D01*
X53257063Y-99831286D01*
X52941194Y-99491752D01*
X52660946Y-99173323D01*
X52451797Y-98916893D01*
X51813776Y-98036719D01*
X51191163Y-97066395D01*
X50586653Y-96011138D01*
X50002939Y-94876166D01*
X49442715Y-93666696D01*
X48908676Y-92387947D01*
X48440273Y-91147764D01*
X48331743Y-90841932D01*
X48217499Y-90513116D01*
X50099774Y-90513116D01*
X50104206Y-90589993D01*
X50128411Y-90746423D01*
X50169343Y-90968493D01*
X50223955Y-91242291D01*
X50289201Y-91553902D01*
X50362034Y-91889415D01*
X50439408Y-92234914D01*
X50518277Y-92576488D01*
X50595593Y-92900222D01*
X50668310Y-93192205D01*
X50733382Y-93438521D01*
X50764099Y-93547062D01*
X51057380Y-94437133D01*
X51416774Y-95337864D01*
X51830538Y-96224599D01*
X52286928Y-97072683D01*
X52774201Y-97857458D01*
X52915241Y-98063448D01*
X53520583Y-98852342D01*
X54178509Y-99567758D01*
X54884759Y-100206919D01*
X55635073Y-100767046D01*
X56425192Y-101245362D01*
X57250857Y-101639091D01*
X58107807Y-101945453D01*
X58991784Y-102161672D01*
X59275459Y-102210715D01*
X59611441Y-102248665D01*
X60018349Y-102271425D01*
X60472132Y-102279158D01*
X60948735Y-102272031D01*
X61424109Y-102250206D01*
X61874199Y-102213850D01*
X62071954Y-102191566D01*
X63078866Y-102029239D01*
X64114310Y-101792739D01*
X65154820Y-101488847D01*
X66176931Y-101124343D01*
X67062585Y-100749666D01*
X67307997Y-100633386D01*
X67574659Y-100500295D01*
X67849032Y-100357906D01*
X68117579Y-100213732D01*
X68366758Y-100075287D01*
X68583032Y-99950084D01*
X68752860Y-99845637D01*
X68862705Y-99769459D01*
X68899164Y-99730478D01*
X68857954Y-99702824D01*
X68741173Y-99638954D01*
X68559869Y-99544534D01*
X68325088Y-99425233D01*
X68047876Y-99286719D01*
X67739280Y-99134659D01*
X67709488Y-99120084D01*
X67435058Y-98985669D01*
X67087493Y-98815048D01*
X66679897Y-98614671D01*
X66225372Y-98390991D01*
X65737021Y-98150461D01*
X65227948Y-97899533D01*
X64711255Y-97644659D01*
X64200046Y-97392290D01*
X63993295Y-97290161D01*
X63349381Y-96972194D01*
X62690163Y-96647014D01*
X62008383Y-96311057D01*
X61296785Y-95960757D01*
X60548115Y-95592548D01*
X59755116Y-95202863D01*
X58910531Y-94788138D01*
X58007106Y-94344805D01*
X57037583Y-93869300D01*
X55994708Y-93358056D01*
X55093673Y-92916501D01*
X54676997Y-92711764D01*
X54197890Y-92475388D01*
X53679848Y-92219023D01*
X53146362Y-91954322D01*
X52620926Y-91692934D01*
X52127034Y-91446512D01*
X51846514Y-91306129D01*
X51391821Y-91079235D01*
X51016479Y-90894232D01*
X50714575Y-90748435D01*
X50480196Y-90639160D01*
X50307431Y-90563723D01*
X50190367Y-90519440D01*
X50123090Y-90503626D01*
X50099774Y-90513116D01*
X48217499Y-90513116D01*
X48214885Y-90505592D01*
X48093496Y-90150364D01*
X47971374Y-89787868D01*
X47852315Y-89429725D01*
X47740118Y-89087552D01*
X47638579Y-88772971D01*
X47551497Y-88497600D01*
X47482669Y-88273061D01*
X47435891Y-88110971D01*
X47414962Y-88022951D01*
X47415011Y-88010581D01*
X47423818Y-88006091D01*
X47441599Y-88007772D01*
G37*
%TD*%
%LPC*%
%TO.C,G\u002A\u002A\u002A*%
G36*
X87541140Y-63431824D02*
G01*
X87991603Y-63433919D01*
X88396639Y-63437221D01*
X88745393Y-63441577D01*
X89027010Y-63446833D01*
X89230634Y-63452834D01*
X89345409Y-63459425D01*
X89367227Y-63463929D01*
X89331616Y-63509978D01*
X89231818Y-63620954D01*
X89078381Y-63785599D01*
X88881854Y-63992657D01*
X88652788Y-64230869D01*
X88526786Y-64360775D01*
X87612669Y-65300542D01*
X86771324Y-66165531D01*
X86001091Y-66957450D01*
X85300309Y-67678006D01*
X84667319Y-68328906D01*
X84100463Y-68911857D01*
X83598080Y-69428565D01*
X83158510Y-69880739D01*
X82780095Y-70270084D01*
X82461174Y-70598308D01*
X82200088Y-70867117D01*
X81995177Y-71078220D01*
X81844783Y-71233322D01*
X81758121Y-71322869D01*
X81586860Y-71493590D01*
X81442162Y-71625562D01*
X81339471Y-71705536D01*
X81294473Y-71720691D01*
X81288752Y-71658538D01*
X81284720Y-71500626D01*
X81282378Y-71257908D01*
X81281725Y-70941334D01*
X81282762Y-70561857D01*
X81285489Y-70130427D01*
X81289905Y-69657997D01*
X81294475Y-69271771D01*
X81325408Y-66872898D01*
X83035197Y-65151995D01*
X84744985Y-63431092D01*
X87056106Y-63431092D01*
X87541140Y-63431824D01*
G37*
G36*
X91798283Y-100920415D02*
G01*
X92049638Y-101036809D01*
X92343936Y-101174887D01*
X92628118Y-101309716D01*
X92702311Y-101345247D01*
X93026795Y-101498867D01*
X93272644Y-101609288D01*
X93455845Y-101682670D01*
X93592385Y-101725173D01*
X93698254Y-101742956D01*
X93738702Y-101744537D01*
X93866160Y-101763771D01*
X93936741Y-101799681D01*
X94016629Y-101850065D01*
X94157291Y-101915769D01*
X94240600Y-101949236D01*
X94489316Y-102043646D01*
X92635309Y-103966346D01*
X92202628Y-104415088D01*
X91713934Y-104921971D01*
X91187266Y-105468282D01*
X90640661Y-106035310D01*
X90092158Y-106604343D01*
X89559794Y-107156668D01*
X89061606Y-107673573D01*
X88754428Y-107992317D01*
X88349305Y-108412695D01*
X87883553Y-108895958D01*
X87370616Y-109428159D01*
X86823936Y-109995351D01*
X86256957Y-110583586D01*
X85683121Y-111178919D01*
X85115872Y-111767402D01*
X84568653Y-112335088D01*
X84054906Y-112868029D01*
X84039782Y-112883718D01*
X83599891Y-113339367D01*
X83181110Y-113771854D01*
X82789381Y-114175125D01*
X82430643Y-114543125D01*
X82110838Y-114869799D01*
X81835907Y-115149093D01*
X81611789Y-115374952D01*
X81444426Y-115541321D01*
X81339759Y-115642146D01*
X81304156Y-115671848D01*
X81293262Y-115620087D01*
X81283378Y-115471199D01*
X81274712Y-115234777D01*
X81267472Y-114920413D01*
X81261865Y-114537701D01*
X81258101Y-114096233D01*
X81256387Y-113605602D01*
X81256303Y-113465394D01*
X81256303Y-111258939D01*
X86143751Y-106168230D01*
X86741910Y-105545217D01*
X87321628Y-104941459D01*
X87878397Y-104361646D01*
X88407712Y-103810467D01*
X88905069Y-103292613D01*
X89365961Y-102812774D01*
X89785883Y-102375641D01*
X90160329Y-101985903D01*
X90484793Y-101648250D01*
X90754771Y-101367374D01*
X90965755Y-101147963D01*
X91113242Y-100994708D01*
X91192725Y-100912300D01*
X91202853Y-100901870D01*
X91374507Y-100726220D01*
X91798283Y-100920415D01*
G37*
G36*
X96026621Y-63734100D02*
G01*
X96716819Y-63799751D01*
X97331357Y-63859521D01*
X97865618Y-63912924D01*
X98314984Y-63959474D01*
X98674838Y-63998688D01*
X98940561Y-64030079D01*
X99107537Y-64053162D01*
X99160581Y-64063387D01*
X99295767Y-64099542D01*
X99162645Y-64279978D01*
X99106339Y-64344661D01*
X98981399Y-64480237D01*
X98793378Y-64680877D01*
X98547829Y-64940755D01*
X98250305Y-65254043D01*
X97906361Y-65614912D01*
X97521549Y-66017537D01*
X97101422Y-66456089D01*
X96651534Y-66924742D01*
X96177439Y-67417666D01*
X95730868Y-67881152D01*
X95254390Y-68375290D01*
X94713026Y-68936764D01*
X94115947Y-69556061D01*
X93472321Y-70223670D01*
X92791320Y-70930076D01*
X92082111Y-71665770D01*
X91353865Y-72421237D01*
X90615751Y-73186967D01*
X89876940Y-73953446D01*
X89146600Y-74711163D01*
X88433902Y-75450604D01*
X87748014Y-76162259D01*
X87520914Y-76397898D01*
X86909994Y-77031748D01*
X86310687Y-77653460D01*
X85728122Y-78257718D01*
X85167424Y-78839209D01*
X84633723Y-79392616D01*
X84132146Y-79912626D01*
X83667819Y-80393923D01*
X83245872Y-80831192D01*
X82871431Y-81219119D01*
X82549624Y-81552388D01*
X82285579Y-81825684D01*
X82084423Y-82033694D01*
X81951284Y-82171101D01*
X81935251Y-82187604D01*
X81260888Y-82881302D01*
X81258595Y-80542680D01*
X81256303Y-78204059D01*
X83433810Y-75953605D01*
X83868508Y-75503969D01*
X84362915Y-74991917D01*
X84902917Y-74432106D01*
X85474397Y-73839189D01*
X86063242Y-73227820D01*
X86655336Y-72612656D01*
X87236564Y-72008350D01*
X87792812Y-71429557D01*
X88299651Y-70901680D01*
X88816624Y-70363387D01*
X89371583Y-69786329D01*
X89950541Y-69185005D01*
X90539513Y-68573911D01*
X91124509Y-67967547D01*
X91691544Y-67380410D01*
X92226631Y-66826998D01*
X92715781Y-66321809D01*
X93141728Y-65882720D01*
X95295470Y-63665230D01*
X96026621Y-63734100D01*
G37*
G36*
X120706386Y-81305610D02*
G01*
X120715960Y-81454973D01*
X120724415Y-81692684D01*
X120731569Y-82009557D01*
X120737237Y-82396406D01*
X120741234Y-82844046D01*
X120743376Y-83343289D01*
X120743697Y-83637678D01*
X120743697Y-86021576D01*
X119768520Y-87012784D01*
X119558969Y-87226721D01*
X119284943Y-87507972D01*
X118955835Y-87846822D01*
X118581040Y-88233561D01*
X118169953Y-88658474D01*
X117731968Y-89111851D01*
X117276481Y-89583979D01*
X116812885Y-90065144D01*
X116350576Y-90545636D01*
X116241873Y-90658718D01*
X115814376Y-91103182D01*
X115408693Y-91524322D01*
X115030845Y-91915927D01*
X114686851Y-92271789D01*
X114382735Y-92585697D01*
X114124515Y-92851442D01*
X113918214Y-93062814D01*
X113769853Y-93213604D01*
X113685452Y-93297603D01*
X113667753Y-93313444D01*
X113677935Y-93270243D01*
X113726628Y-93157242D01*
X113799474Y-93006617D01*
X113903034Y-92775978D01*
X114000148Y-92519442D01*
X114044535Y-92379621D01*
X114126863Y-92093133D01*
X114191840Y-91880800D01*
X114249613Y-91713658D01*
X114310327Y-91562743D01*
X114384132Y-91399090D01*
X114399726Y-91365755D01*
X114458863Y-91236944D01*
X114517253Y-91102412D01*
X114579044Y-90950834D01*
X114648382Y-90770886D01*
X114729416Y-90551242D01*
X114826292Y-90280575D01*
X114943158Y-89947562D01*
X115084160Y-89540876D01*
X115253448Y-89049192D01*
X115334345Y-88813553D01*
X115462477Y-88436820D01*
X115577075Y-88093538D01*
X115674065Y-87796422D01*
X115749374Y-87558190D01*
X115798930Y-87391557D01*
X115818659Y-87309240D01*
X115818185Y-87302918D01*
X115764676Y-87317434D01*
X115631635Y-87373392D01*
X115434575Y-87463696D01*
X115189010Y-87581248D01*
X114928028Y-87710144D01*
X114616803Y-87862719D01*
X114377341Y-87973150D01*
X114215561Y-88038961D01*
X114137382Y-88057674D01*
X114135232Y-88041896D01*
X114183069Y-87988085D01*
X114299257Y-87863753D01*
X114477911Y-87675045D01*
X114713142Y-87428111D01*
X114999062Y-87129096D01*
X115329785Y-86784149D01*
X115699422Y-86399417D01*
X116102087Y-85981047D01*
X116531891Y-85535187D01*
X116982947Y-85067983D01*
X117035084Y-85014025D01*
X117497992Y-84534840D01*
X117947722Y-84069027D01*
X118377483Y-83623633D01*
X118780489Y-83205708D01*
X119149949Y-82822299D01*
X119479075Y-82480454D01*
X119761078Y-82187220D01*
X119989169Y-81949647D01*
X120156560Y-81774781D01*
X120255648Y-81670534D01*
X120420308Y-81500127D01*
X120560434Y-81363392D01*
X120658926Y-81276518D01*
X120695880Y-81253781D01*
X120706386Y-81305610D01*
G37*
G36*
X103980874Y-103320229D02*
G01*
X103955012Y-103365481D01*
X103866140Y-103472559D01*
X103726526Y-103627633D01*
X103548436Y-103816877D01*
X103449078Y-103919703D01*
X103319611Y-104053039D01*
X103123516Y-104255656D01*
X102868155Y-104519922D01*
X102560889Y-104838204D01*
X102209077Y-105202872D01*
X101820082Y-105606293D01*
X101401263Y-106040837D01*
X100959983Y-106498871D01*
X100503602Y-106972763D01*
X100117749Y-107373565D01*
X99603833Y-107907299D01*
X99029939Y-108503002D01*
X98410287Y-109145930D01*
X97759098Y-109821340D01*
X97090590Y-110514491D01*
X96418984Y-111210638D01*
X95758499Y-111895040D01*
X95123356Y-112552954D01*
X94527773Y-113169638D01*
X94223109Y-113484975D01*
X93117526Y-114629157D01*
X92048712Y-115735383D01*
X91019785Y-116800423D01*
X90033864Y-117821046D01*
X89094070Y-118794021D01*
X88203521Y-119716120D01*
X87365336Y-120584111D01*
X86582635Y-121394765D01*
X85858537Y-122144852D01*
X85196161Y-122831140D01*
X84598627Y-123450401D01*
X84069053Y-123999404D01*
X83611212Y-124474241D01*
X83251769Y-124846973D01*
X82903288Y-125208044D01*
X82575276Y-125547627D01*
X82277239Y-125855893D01*
X82018682Y-126123012D01*
X81809112Y-126339157D01*
X81658034Y-126494497D01*
X81596821Y-126557068D01*
X81256303Y-126903423D01*
X81256303Y-124565829D01*
X81256303Y-122228236D01*
X83644223Y-119762548D01*
X83982416Y-119413004D01*
X84387328Y-118993925D01*
X84851774Y-118512769D01*
X85368569Y-117976995D01*
X85930530Y-117394063D01*
X86530473Y-116771431D01*
X87161213Y-116116559D01*
X87815566Y-115436906D01*
X88486348Y-114739930D01*
X89166375Y-114033090D01*
X89848463Y-113323847D01*
X90525428Y-112619658D01*
X91190085Y-111927983D01*
X91208193Y-111909135D01*
X91851820Y-111239192D01*
X92494653Y-110570085D01*
X93130747Y-109908003D01*
X93754156Y-109259134D01*
X94358934Y-108629665D01*
X94939136Y-108025784D01*
X95488817Y-107453680D01*
X96002031Y-106919541D01*
X96472832Y-106429555D01*
X96895275Y-105989909D01*
X97263414Y-105606792D01*
X97571304Y-105286392D01*
X97813000Y-105034897D01*
X97872093Y-104973414D01*
X99359942Y-103425419D01*
X99713059Y-103452100D01*
X99859057Y-103459024D01*
X100094160Y-103465196D01*
X100400753Y-103470379D01*
X100761219Y-103474337D01*
X101157944Y-103476834D01*
X101573310Y-103477633D01*
X101613655Y-103477611D01*
X102092550Y-103476178D01*
X102479173Y-103472222D01*
X102787961Y-103465055D01*
X103033350Y-103453990D01*
X103229775Y-103438340D01*
X103391673Y-103417419D01*
X103533479Y-103390538D01*
X103557739Y-103385070D01*
X103750056Y-103344738D01*
X103898713Y-103321008D01*
X103976377Y-103318069D01*
X103980874Y-103320229D01*
G37*
G36*
X120499460Y-70372848D02*
G01*
X120530459Y-70453969D01*
X120562569Y-70627727D01*
X120594799Y-70880059D01*
X120626161Y-71196899D01*
X120655664Y-71564185D01*
X120682318Y-71967851D01*
X120705134Y-72393832D01*
X120723120Y-72828066D01*
X120735289Y-73256487D01*
X120740648Y-73665031D01*
X120740732Y-73800778D01*
X120737767Y-74770377D01*
X118441484Y-77144957D01*
X118162834Y-77433410D01*
X117815528Y-77793443D01*
X117404793Y-78219622D01*
X116935853Y-78706511D01*
X116413935Y-79248676D01*
X115844265Y-79840682D01*
X115232068Y-80477095D01*
X114582571Y-81152481D01*
X113900999Y-81861404D01*
X113192578Y-82598430D01*
X112462535Y-83358125D01*
X111716094Y-84135053D01*
X110958482Y-84923780D01*
X110194925Y-85718872D01*
X109430648Y-86514893D01*
X108959470Y-87005736D01*
X101773739Y-94491936D01*
X100573109Y-95085207D01*
X100301842Y-95219584D01*
X99948186Y-95395301D01*
X99525155Y-95605865D01*
X99045763Y-95844785D01*
X98523026Y-96105569D01*
X97969957Y-96381724D01*
X97399572Y-96666759D01*
X96824884Y-96954182D01*
X96384273Y-97174722D01*
X95777146Y-97478525D01*
X95258914Y-97737243D01*
X94823165Y-97953807D01*
X94463485Y-98131152D01*
X94173460Y-98272209D01*
X93946677Y-98379913D01*
X93776723Y-98457195D01*
X93657184Y-98506991D01*
X93581646Y-98532232D01*
X93543696Y-98535851D01*
X93536921Y-98520782D01*
X93554908Y-98489959D01*
X93582803Y-98455941D01*
X93642576Y-98391036D01*
X93771587Y-98253932D01*
X93965216Y-98049471D01*
X94218846Y-97782494D01*
X94527857Y-97457841D01*
X94887632Y-97080354D01*
X95293552Y-96654873D01*
X95740998Y-96186240D01*
X96225352Y-95679295D01*
X96741995Y-95138880D01*
X97286309Y-94569835D01*
X97853675Y-93977001D01*
X98439476Y-93365219D01*
X98467558Y-93335900D01*
X99500148Y-92257743D01*
X100547699Y-91163832D01*
X101605572Y-90059016D01*
X102669126Y-88948143D01*
X103733723Y-87836063D01*
X104794724Y-86727624D01*
X105847490Y-85627676D01*
X106887380Y-84541067D01*
X107909756Y-83472647D01*
X108909979Y-82427265D01*
X109883410Y-81409769D01*
X110825408Y-80425008D01*
X111731336Y-79477833D01*
X112596553Y-78573090D01*
X113416421Y-77715631D01*
X114186300Y-76910302D01*
X114901551Y-76161955D01*
X115557535Y-75475437D01*
X116149612Y-74855598D01*
X116673144Y-74307286D01*
X116740926Y-74236273D01*
X117346735Y-73601615D01*
X117883151Y-73039805D01*
X118354437Y-72546462D01*
X118764856Y-72117202D01*
X119118672Y-71747645D01*
X119420146Y-71433409D01*
X119673542Y-71170110D01*
X119883124Y-70953368D01*
X120053154Y-70778800D01*
X120187895Y-70642024D01*
X120291610Y-70538658D01*
X120368563Y-70464321D01*
X120423017Y-70414630D01*
X120459233Y-70385203D01*
X120481476Y-70371658D01*
X120494009Y-70369613D01*
X120499460Y-70372848D01*
G37*
G36*
X105125394Y-64772929D02*
G01*
X105296801Y-64797456D01*
X105540971Y-64835410D01*
X105843114Y-64884245D01*
X106188443Y-64941415D01*
X106562170Y-65004376D01*
X106949505Y-65070581D01*
X107335662Y-65137485D01*
X107705851Y-65202543D01*
X108045285Y-65263207D01*
X108339174Y-65316934D01*
X108572732Y-65361177D01*
X108731169Y-65393391D01*
X108799697Y-65411030D01*
X108800392Y-65411417D01*
X108786415Y-65462852D01*
X108695621Y-65585335D01*
X108529386Y-65777281D01*
X108289088Y-66037103D01*
X107976100Y-66363215D01*
X107964338Y-66375304D01*
X107596191Y-66753384D01*
X107174550Y-67186119D01*
X106707085Y-67665654D01*
X106201470Y-68184130D01*
X105665376Y-68733690D01*
X105106476Y-69306478D01*
X104532441Y-69894637D01*
X103950945Y-70490310D01*
X103369659Y-71085639D01*
X102796256Y-71672768D01*
X102238408Y-72243839D01*
X101703787Y-72790996D01*
X101200065Y-73306381D01*
X100734915Y-73782138D01*
X100316008Y-74210409D01*
X99951018Y-74583338D01*
X99647616Y-74893067D01*
X99479837Y-75064145D01*
X99128601Y-75422777D01*
X98708920Y-75852566D01*
X98226350Y-76347768D01*
X97686446Y-76902639D01*
X97094764Y-77511436D01*
X96456860Y-78168415D01*
X95778290Y-78867833D01*
X95064608Y-79603945D01*
X94321371Y-80371008D01*
X93554135Y-81163279D01*
X92768454Y-81975013D01*
X91969885Y-82800468D01*
X91163984Y-83633899D01*
X90356305Y-84469563D01*
X89552405Y-85301717D01*
X88757839Y-86124615D01*
X87978163Y-86932516D01*
X87218933Y-87719675D01*
X86485703Y-88480348D01*
X85784031Y-89208793D01*
X85119471Y-89899265D01*
X84497579Y-90546020D01*
X83923911Y-91143315D01*
X83555727Y-91527128D01*
X83177609Y-91921523D01*
X82817000Y-92297650D01*
X82481578Y-92647504D01*
X82179016Y-92963078D01*
X81916991Y-93236368D01*
X81703179Y-93459367D01*
X81545254Y-93624071D01*
X81450893Y-93722473D01*
X81434614Y-93739446D01*
X81256303Y-93925321D01*
X81256303Y-91635504D01*
X81256303Y-89345687D01*
X81644401Y-88941646D01*
X81742100Y-88839802D01*
X81907150Y-88667591D01*
X82133107Y-88431742D01*
X82413525Y-88138986D01*
X82741961Y-87796050D01*
X83111970Y-87409666D01*
X83517107Y-86986563D01*
X83950927Y-86533469D01*
X84406987Y-86057116D01*
X84878841Y-85564232D01*
X85046187Y-85389419D01*
X85577119Y-84835008D01*
X86135478Y-84252355D01*
X86709619Y-83653589D01*
X87287894Y-83050842D01*
X87858655Y-82456246D01*
X88410255Y-81881933D01*
X88931047Y-81340033D01*
X89409383Y-80842678D01*
X89833615Y-80402000D01*
X90087605Y-80138458D01*
X90491639Y-79719234D01*
X90956169Y-79236830D01*
X91467855Y-78705121D01*
X92013356Y-78137984D01*
X92579330Y-77549296D01*
X93152438Y-76952932D01*
X93719339Y-76362769D01*
X94266691Y-75792683D01*
X94781155Y-75256550D01*
X94810084Y-75226392D01*
X95697161Y-74301893D01*
X96559638Y-73403594D01*
X97394493Y-72534625D01*
X98198704Y-71698114D01*
X98969250Y-70897190D01*
X99703109Y-70134983D01*
X100397258Y-69414622D01*
X101048677Y-68739236D01*
X101654342Y-68111954D01*
X102211233Y-67535906D01*
X102716328Y-67014220D01*
X103166605Y-66550025D01*
X103559041Y-66146452D01*
X103890616Y-65806628D01*
X104158307Y-65533684D01*
X104359093Y-65330748D01*
X104489951Y-65200950D01*
X104513085Y-65178676D01*
X104695985Y-65012136D01*
X104858910Y-64877521D01*
X104982359Y-64790121D01*
X105041537Y-64764375D01*
X105125394Y-64772929D01*
G37*
G36*
X119717552Y-126907236D02*
G01*
X119706427Y-127065673D01*
X119680306Y-127305371D01*
X119641014Y-127614420D01*
X119590374Y-127980909D01*
X119530209Y-128392928D01*
X119462343Y-128838567D01*
X119388598Y-129305914D01*
X119310798Y-129783060D01*
X119230767Y-130258093D01*
X119150328Y-130719105D01*
X119071304Y-131154183D01*
X118995518Y-131551418D01*
X118975261Y-131653570D01*
X118761605Y-132720797D01*
X115948989Y-135548949D01*
X115352816Y-136149006D01*
X114749921Y-136757050D01*
X114136207Y-137377266D01*
X113507577Y-138013842D01*
X112859936Y-138670963D01*
X112189186Y-139352816D01*
X111491231Y-140063588D01*
X110761974Y-140807464D01*
X109997318Y-141588631D01*
X109193168Y-142411275D01*
X108345427Y-143279583D01*
X107449997Y-144197742D01*
X106502782Y-145169937D01*
X105499686Y-146200355D01*
X104436612Y-147293183D01*
X103309464Y-148452606D01*
X102114144Y-149682812D01*
X101562047Y-150251213D01*
X101077163Y-150750228D01*
X100582343Y-151259028D01*
X100087598Y-151767346D01*
X99602936Y-152264918D01*
X99138366Y-152741478D01*
X98703897Y-153186761D01*
X98309538Y-153590500D01*
X97965299Y-153942430D01*
X97681188Y-154232286D01*
X97583088Y-154332142D01*
X97206330Y-154716291D01*
X96764486Y-155168519D01*
X96266276Y-155679814D01*
X95720416Y-156241166D01*
X95135626Y-156843563D01*
X94520624Y-157477995D01*
X93884127Y-158135450D01*
X93234855Y-158806918D01*
X92581525Y-159483388D01*
X91932857Y-160155848D01*
X91297567Y-160815289D01*
X90684374Y-161452698D01*
X90101998Y-162059065D01*
X89559155Y-162625380D01*
X89554893Y-162629831D01*
X88926250Y-163285931D01*
X88284675Y-163954599D01*
X87637265Y-164628485D01*
X86991118Y-165300238D01*
X86353329Y-165962508D01*
X85730996Y-166607945D01*
X85131217Y-167229200D01*
X84561087Y-167818922D01*
X84027704Y-168369761D01*
X83538165Y-168874367D01*
X83099567Y-169325389D01*
X82719007Y-169715479D01*
X82403582Y-170037286D01*
X82346462Y-170095319D01*
X82042996Y-170402533D01*
X81805432Y-170640317D01*
X81625397Y-170815875D01*
X81494517Y-170936410D01*
X81404418Y-171009127D01*
X81346727Y-171041231D01*
X81313071Y-171039926D01*
X81295077Y-171012416D01*
X81292090Y-171002462D01*
X81284676Y-170922645D01*
X81277777Y-170748059D01*
X81271572Y-170490658D01*
X81266239Y-170162395D01*
X81261958Y-169775225D01*
X81258906Y-169341100D01*
X81257262Y-168871975D01*
X81257031Y-168656790D01*
X81256303Y-166439422D01*
X81449589Y-166255530D01*
X81516714Y-166189461D01*
X81635350Y-166069911D01*
X81806672Y-165895668D01*
X82031856Y-165665516D01*
X82312079Y-165378244D01*
X82648516Y-165032636D01*
X83042343Y-164627481D01*
X83494737Y-164161564D01*
X84006874Y-163633671D01*
X84579930Y-163042590D01*
X85215081Y-162387106D01*
X85913503Y-161666006D01*
X86676372Y-160878077D01*
X87504865Y-160022106D01*
X88400157Y-159096878D01*
X89363424Y-158101179D01*
X90395843Y-157033798D01*
X91498590Y-155893519D01*
X92672841Y-154679131D01*
X93919772Y-153389418D01*
X94196007Y-153103686D01*
X97356391Y-149835078D01*
X100449805Y-146636679D01*
X103482990Y-143501522D01*
X106462689Y-140422641D01*
X109395643Y-137393069D01*
X112288595Y-134405838D01*
X114308635Y-132320587D01*
X115084682Y-131520264D01*
X115806925Y-130776808D01*
X116473646Y-130091959D01*
X117083130Y-129467458D01*
X117633659Y-128905046D01*
X118123518Y-128406462D01*
X118550990Y-127973448D01*
X118914359Y-127607743D01*
X119211907Y-127311088D01*
X119441919Y-127085224D01*
X119602678Y-126931890D01*
X119692468Y-126852828D01*
X119711859Y-126841970D01*
X119717552Y-126907236D01*
G37*
G36*
X120502707Y-115591806D02*
G01*
X120490025Y-115869704D01*
X120472846Y-116231398D01*
X120452291Y-116654106D01*
X120429477Y-117115049D01*
X120405525Y-117591448D01*
X120381556Y-118060521D01*
X120377614Y-118136834D01*
X120290126Y-119828081D01*
X116528291Y-123659733D01*
X115781537Y-124420385D01*
X115102890Y-125111765D01*
X114485657Y-125740727D01*
X113923147Y-126314121D01*
X113408668Y-126838802D01*
X112935526Y-127321620D01*
X112497030Y-127769428D01*
X112086487Y-128189080D01*
X111697206Y-128587426D01*
X111322493Y-128971319D01*
X110955658Y-129347611D01*
X110590006Y-129723156D01*
X110218847Y-130104804D01*
X109835488Y-130499409D01*
X109433236Y-130913822D01*
X109005400Y-131354897D01*
X108545287Y-131829485D01*
X108046204Y-132344438D01*
X108017607Y-132373949D01*
X107512062Y-132895396D01*
X106969428Y-133454673D01*
X106404050Y-134037017D01*
X105830275Y-134627667D01*
X105262449Y-135211863D01*
X104714919Y-135774844D01*
X104202031Y-136301848D01*
X103738131Y-136778114D01*
X103427776Y-137096428D01*
X102953294Y-137583174D01*
X102411587Y-138139529D01*
X101809579Y-138758352D01*
X101154200Y-139432497D01*
X100452376Y-140154823D01*
X99711033Y-140918185D01*
X98937099Y-141715441D01*
X98137502Y-142539448D01*
X97319167Y-143383062D01*
X96489022Y-144239139D01*
X95653995Y-145100538D01*
X94821012Y-145960114D01*
X93996999Y-146810724D01*
X93188886Y-147645225D01*
X92403597Y-148456474D01*
X91648061Y-149237328D01*
X90929204Y-149980644D01*
X90253954Y-150679277D01*
X89740834Y-151210503D01*
X89190394Y-151780554D01*
X88605267Y-152386527D01*
X87997927Y-153015505D01*
X87380846Y-153654571D01*
X86766497Y-154290808D01*
X86167354Y-154911297D01*
X85595889Y-155503122D01*
X85064577Y-156053364D01*
X84585889Y-156549106D01*
X84279119Y-156866806D01*
X83857870Y-157302985D01*
X83450057Y-157725102D01*
X83063179Y-158125405D01*
X82704734Y-158496142D01*
X82382222Y-158829560D01*
X82103140Y-159117907D01*
X81874989Y-159353432D01*
X81705265Y-159528383D01*
X81601469Y-159635006D01*
X81595504Y-159641102D01*
X81256303Y-159987456D01*
X81257575Y-157666732D01*
X81258847Y-155346007D01*
X83937053Y-152571218D01*
X84216598Y-152281607D01*
X84565957Y-151919697D01*
X84980809Y-151489960D01*
X85456837Y-150996870D01*
X85989721Y-150444900D01*
X86575142Y-149838523D01*
X87208782Y-149182214D01*
X87886320Y-148480445D01*
X88603439Y-147737689D01*
X89355819Y-146958421D01*
X90139141Y-146147112D01*
X90949086Y-145308238D01*
X91781336Y-144446271D01*
X92631571Y-143565685D01*
X93495471Y-142670952D01*
X94368719Y-141766547D01*
X95246996Y-140856942D01*
X96125981Y-139946612D01*
X96275592Y-139791666D01*
X97182800Y-138852105D01*
X98105123Y-137896875D01*
X99037233Y-136931494D01*
X99973803Y-135961481D01*
X100909506Y-134992352D01*
X101839015Y-134029627D01*
X102757001Y-133078824D01*
X103658137Y-132145460D01*
X104537097Y-131235053D01*
X105388552Y-130353122D01*
X106207175Y-129505185D01*
X106987639Y-128696759D01*
X107724616Y-127933364D01*
X108412779Y-127220516D01*
X109046800Y-126563734D01*
X109621352Y-125968535D01*
X110131108Y-125440439D01*
X110468766Y-125090616D01*
X111323330Y-124205494D01*
X112159378Y-123340055D01*
X112973519Y-122497790D01*
X113762362Y-121682193D01*
X114522515Y-120896756D01*
X115250588Y-120144972D01*
X115943188Y-119430333D01*
X116596925Y-118756332D01*
X117208407Y-118126461D01*
X117774244Y-117544214D01*
X118291043Y-117013083D01*
X118755414Y-116536560D01*
X119163965Y-116118138D01*
X119513305Y-115761310D01*
X119800042Y-115469568D01*
X120020787Y-115246405D01*
X120172146Y-115095314D01*
X120210074Y-115058192D01*
X120540310Y-114738024D01*
X120502707Y-115591806D01*
G37*
G36*
X113969090Y-66434437D02*
G01*
X114122424Y-66476480D01*
X114344853Y-66540527D01*
X114619996Y-66621648D01*
X114931475Y-66714913D01*
X115262908Y-66815393D01*
X115597916Y-66918158D01*
X115920118Y-67018279D01*
X116213135Y-67110825D01*
X116412332Y-67175053D01*
X117230337Y-67442091D01*
X117133387Y-67557704D01*
X117109738Y-67585348D01*
X117078187Y-67620872D01*
X117034403Y-67668805D01*
X116974055Y-67733677D01*
X116892812Y-67820016D01*
X116786342Y-67932352D01*
X116650315Y-68075214D01*
X116480399Y-68253131D01*
X116272263Y-68470632D01*
X116021575Y-68732246D01*
X115724004Y-69042502D01*
X115375220Y-69405929D01*
X114970891Y-69827057D01*
X114506686Y-70310414D01*
X113978272Y-70860529D01*
X113381321Y-71481933D01*
X113221072Y-71648739D01*
X112352651Y-72552655D01*
X111553763Y-73384121D01*
X110820038Y-74147679D01*
X110147104Y-74847871D01*
X109530590Y-75489239D01*
X108966124Y-76076326D01*
X108449337Y-76613674D01*
X107975855Y-77105825D01*
X107541310Y-77557322D01*
X107141328Y-77972706D01*
X106771539Y-78356519D01*
X106427573Y-78713305D01*
X106105057Y-79047605D01*
X105799621Y-79363961D01*
X105506893Y-79666917D01*
X105222503Y-79961013D01*
X105107544Y-80079831D01*
X104539443Y-80667390D01*
X103904069Y-81325382D01*
X103207886Y-82047087D01*
X102457359Y-82825787D01*
X101658951Y-83654759D01*
X100819128Y-84527286D01*
X99944353Y-85436647D01*
X99041091Y-86376122D01*
X98115805Y-87338992D01*
X97174960Y-88318536D01*
X96225020Y-89308035D01*
X95272450Y-90300769D01*
X94323713Y-91290018D01*
X94303151Y-91311464D01*
X93724176Y-91915092D01*
X93083040Y-92583098D01*
X92391684Y-93303063D01*
X91662051Y-94062564D01*
X90906083Y-94849180D01*
X90135721Y-95650489D01*
X89362909Y-96454069D01*
X88599589Y-97247500D01*
X87857701Y-98018359D01*
X87149190Y-98754226D01*
X86485996Y-99442677D01*
X86378992Y-99553718D01*
X85814969Y-100138992D01*
X85265252Y-100709429D01*
X84735132Y-101259540D01*
X84229899Y-101783832D01*
X83754846Y-102276816D01*
X83315263Y-102732999D01*
X82916442Y-103146891D01*
X82563673Y-103513001D01*
X82262248Y-103825838D01*
X82017457Y-104079910D01*
X81834593Y-104269727D01*
X81718946Y-104389798D01*
X81698570Y-104410961D01*
X81260376Y-104866176D01*
X81258652Y-102544957D01*
X81256928Y-100223739D01*
X82388955Y-99049789D01*
X83647013Y-97745202D01*
X84900203Y-96445787D01*
X86139188Y-95161220D01*
X87354634Y-93901178D01*
X88537205Y-92675338D01*
X89677567Y-91493376D01*
X90766385Y-90364970D01*
X91794324Y-89299796D01*
X92195191Y-88884453D01*
X92559170Y-88507304D01*
X92991347Y-88059428D01*
X93485837Y-87546923D01*
X94036760Y-86975887D01*
X94638232Y-86352419D01*
X95284372Y-85682615D01*
X95969298Y-84972575D01*
X96687128Y-84228397D01*
X97431979Y-83456178D01*
X98197969Y-82662016D01*
X98979216Y-81852011D01*
X99769838Y-81032259D01*
X100563954Y-80208859D01*
X101355680Y-79387909D01*
X102139134Y-78575507D01*
X102463773Y-78238865D01*
X103573646Y-77087976D01*
X104611740Y-76011592D01*
X105580326Y-75007365D01*
X106481676Y-74072949D01*
X107318060Y-73205995D01*
X108091750Y-72404157D01*
X108805018Y-71665087D01*
X109460134Y-70986439D01*
X110059371Y-70365864D01*
X110604999Y-69801016D01*
X111099290Y-69289548D01*
X111544516Y-68829111D01*
X111942947Y-68417360D01*
X112296855Y-68051946D01*
X112608512Y-67730522D01*
X112880189Y-67450742D01*
X113114156Y-67210257D01*
X113312687Y-67006721D01*
X113478051Y-66837787D01*
X113612521Y-66701107D01*
X113718367Y-66594333D01*
X113797861Y-66515119D01*
X113853275Y-66461118D01*
X113886880Y-66429981D01*
X113900947Y-66419363D01*
X113901231Y-66419327D01*
X113969090Y-66434437D01*
G37*
G36*
X120740335Y-94620797D02*
G01*
X120739418Y-96915335D01*
X119180739Y-98516775D01*
X118975675Y-98727938D01*
X118701569Y-99010952D01*
X118363332Y-99360722D01*
X117965874Y-99772153D01*
X117514107Y-100240151D01*
X117012940Y-100759620D01*
X116467285Y-101325467D01*
X115882054Y-101932595D01*
X115262155Y-102575911D01*
X114612502Y-103250319D01*
X113938004Y-103950725D01*
X113243572Y-104672033D01*
X112534117Y-105409150D01*
X111814551Y-106156980D01*
X111089783Y-106910428D01*
X110925472Y-107081271D01*
X109694241Y-108361416D01*
X108487782Y-109615646D01*
X107308768Y-110841188D01*
X106159868Y-112035269D01*
X105043753Y-113195116D01*
X103963095Y-114317957D01*
X102920563Y-115401017D01*
X101918828Y-116441526D01*
X100960561Y-117436708D01*
X100048433Y-118383793D01*
X99185114Y-119280006D01*
X98373275Y-120122574D01*
X97615587Y-120908726D01*
X96914720Y-121635688D01*
X96273346Y-122300686D01*
X95694134Y-122900949D01*
X95179755Y-123433703D01*
X94732881Y-123896175D01*
X94356181Y-124285592D01*
X94223012Y-124423108D01*
X93963017Y-124691762D01*
X93637334Y-125028749D01*
X93254247Y-125425478D01*
X92822041Y-125873356D01*
X92349000Y-126363789D01*
X91843410Y-126888187D01*
X91313555Y-127437955D01*
X90767720Y-128004502D01*
X90214189Y-128579234D01*
X89661247Y-129153560D01*
X89206711Y-129625839D01*
X88512353Y-130347185D01*
X87826909Y-131058799D01*
X87154310Y-131756623D01*
X86498488Y-132436597D01*
X85863372Y-133094664D01*
X85252895Y-133726763D01*
X84670986Y-134328836D01*
X84121577Y-134896824D01*
X83608599Y-135426668D01*
X83135981Y-135914309D01*
X82707656Y-136355688D01*
X82327553Y-136746747D01*
X81999604Y-137083425D01*
X81727740Y-137361665D01*
X81515891Y-137577407D01*
X81367989Y-137726593D01*
X81287963Y-137805163D01*
X81274292Y-137816806D01*
X81270491Y-137765266D01*
X81266964Y-137617935D01*
X81263796Y-137385742D01*
X81261075Y-137079619D01*
X81258885Y-136710496D01*
X81257314Y-136289304D01*
X81256448Y-135826973D01*
X81256303Y-135537395D01*
X81256303Y-133257985D01*
X82232994Y-132269013D01*
X82418479Y-132080142D01*
X82670515Y-131821879D01*
X82981748Y-131501827D01*
X83344824Y-131127588D01*
X83752390Y-130706764D01*
X84197093Y-130246956D01*
X84671580Y-129755767D01*
X85168497Y-129240799D01*
X85680490Y-128709653D01*
X86200207Y-128169932D01*
X86596307Y-127758192D01*
X87593028Y-126721692D01*
X88520084Y-125757683D01*
X89381761Y-124861713D01*
X90182348Y-124029329D01*
X90926134Y-123256078D01*
X91617405Y-122537507D01*
X92260450Y-121869162D01*
X92859557Y-121246592D01*
X93419014Y-120665343D01*
X93943109Y-120120961D01*
X94436131Y-119608995D01*
X94902366Y-119124991D01*
X95346104Y-118664495D01*
X95771631Y-118223055D01*
X96183237Y-117796219D01*
X96585209Y-117379532D01*
X96981835Y-116968543D01*
X97377403Y-116558797D01*
X97776202Y-116145843D01*
X98182519Y-115725226D01*
X98466104Y-115431722D01*
X99200651Y-114671502D01*
X99876111Y-113972328D01*
X100500469Y-113325908D01*
X101081709Y-112723951D01*
X101627815Y-112158164D01*
X102146770Y-111620256D01*
X102646560Y-111101935D01*
X103135168Y-110594909D01*
X103620577Y-110090885D01*
X104110772Y-109581573D01*
X104613738Y-109058681D01*
X105137457Y-108513915D01*
X105689914Y-107938986D01*
X106279094Y-107325599D01*
X106912979Y-106665465D01*
X107599554Y-105950291D01*
X108346803Y-105171785D01*
X108870577Y-104626049D01*
X110096402Y-103348978D01*
X111249039Y-102148542D01*
X112329011Y-101024198D01*
X113336840Y-99975405D01*
X114273051Y-99001619D01*
X115138164Y-98102298D01*
X115932705Y-97276898D01*
X116657194Y-96524878D01*
X117312155Y-95845694D01*
X117898111Y-95238805D01*
X118415585Y-94703666D01*
X118865099Y-94239736D01*
X119247176Y-93846472D01*
X119562340Y-93523331D01*
X119811113Y-93269770D01*
X119820660Y-93260083D01*
X120741252Y-92326260D01*
X120740335Y-94620797D01*
G37*
G36*
X120705357Y-103722236D02*
G01*
X120716847Y-103872747D01*
X120726416Y-104121979D01*
X120733975Y-104465936D01*
X120739433Y-104900625D01*
X120742701Y-105422051D01*
X120743697Y-105977313D01*
X120743697Y-108297974D01*
X116968382Y-112187789D01*
X116358612Y-112816229D01*
X115709342Y-113485702D01*
X115032398Y-114183997D01*
X114339605Y-114898903D01*
X113642790Y-115618210D01*
X112953779Y-116329705D01*
X112284398Y-117021178D01*
X111646472Y-117680417D01*
X111051828Y-118295213D01*
X110512291Y-118853353D01*
X110206587Y-119169789D01*
X109690659Y-119703874D01*
X109157793Y-120255302D01*
X108618362Y-120813350D01*
X108082740Y-121367291D01*
X107561303Y-121906401D01*
X107064423Y-122419957D01*
X106602475Y-122897234D01*
X106185834Y-123327506D01*
X105824874Y-123700050D01*
X105589431Y-123942856D01*
X105307208Y-124234036D01*
X104959447Y-124593277D01*
X104554651Y-125011777D01*
X104101321Y-125480736D01*
X103607958Y-125991350D01*
X103083063Y-126534818D01*
X102535138Y-127102338D01*
X101972684Y-127685107D01*
X101404202Y-128274324D01*
X100838195Y-128861186D01*
X100332494Y-129385713D01*
X99444840Y-130306473D01*
X98620481Y-131161322D01*
X97848760Y-131961296D01*
X97119018Y-132717428D01*
X96420597Y-133440753D01*
X95742838Y-134142306D01*
X95075082Y-134833121D01*
X94406672Y-135524232D01*
X93726950Y-136226674D01*
X93025256Y-136951481D01*
X92755705Y-137229831D01*
X92639024Y-137350494D01*
X92454210Y-137541858D01*
X92206717Y-137798262D01*
X91902002Y-138114049D01*
X91545520Y-138483559D01*
X91142728Y-138901132D01*
X90699082Y-139361110D01*
X90220037Y-139857833D01*
X89711049Y-140385643D01*
X89177574Y-140938880D01*
X88625068Y-141511885D01*
X88058988Y-142098998D01*
X87484788Y-142694561D01*
X86907924Y-143292915D01*
X86333854Y-143888399D01*
X85768032Y-144475356D01*
X85215914Y-145048126D01*
X84682957Y-145601050D01*
X84174616Y-146128468D01*
X83696347Y-146624722D01*
X83253607Y-147084152D01*
X82851850Y-147501099D01*
X82496533Y-147869904D01*
X82193112Y-148184908D01*
X81947042Y-148440451D01*
X81763781Y-148630875D01*
X81648782Y-148750520D01*
X81643638Y-148755881D01*
X81259694Y-149156092D01*
X81257998Y-146794291D01*
X81256303Y-144432490D01*
X82446132Y-143219081D01*
X82672557Y-142987582D01*
X82964694Y-142687956D01*
X83314140Y-142328862D01*
X83712492Y-141918962D01*
X84151347Y-141466918D01*
X84622301Y-140981389D01*
X85116950Y-140471036D01*
X85626892Y-139944522D01*
X86143722Y-139410506D01*
X86659038Y-138877649D01*
X86807601Y-138723949D01*
X87365380Y-138146888D01*
X87959952Y-137531903D01*
X88578681Y-136892057D01*
X89208928Y-136240415D01*
X89838055Y-135590040D01*
X90453425Y-134953996D01*
X91042399Y-134345347D01*
X91592341Y-133777156D01*
X92090612Y-133262488D01*
X92434683Y-132907204D01*
X93293806Y-132020011D01*
X94216990Y-131066239D01*
X95194278Y-130056195D01*
X96215711Y-129000181D01*
X97271333Y-127908502D01*
X98351184Y-126791462D01*
X99445307Y-125659366D01*
X100543744Y-124522518D01*
X101636537Y-123391221D01*
X102713727Y-122275781D01*
X103765358Y-121186500D01*
X104781470Y-120133685D01*
X105752107Y-119127638D01*
X106203073Y-118660083D01*
X106824049Y-118016303D01*
X107505146Y-117310386D01*
X108232288Y-116556908D01*
X108991403Y-115770447D01*
X109768417Y-114965578D01*
X110549256Y-114156879D01*
X111319846Y-113358925D01*
X112066114Y-112586295D01*
X112773985Y-111853564D01*
X113429387Y-111175309D01*
X113647758Y-110949369D01*
X114212838Y-110364616D01*
X114786659Y-109770590D01*
X115361037Y-109175778D01*
X115927787Y-108588662D01*
X116478725Y-108017729D01*
X117005667Y-107471463D01*
X117500428Y-106958348D01*
X117954823Y-106486870D01*
X118360669Y-106065513D01*
X118709780Y-105702762D01*
X118993973Y-105407102D01*
X119026615Y-105373108D01*
X119365861Y-105020552D01*
X119683202Y-104692302D01*
X119970857Y-104396293D01*
X120221045Y-104140462D01*
X120425985Y-103932746D01*
X120577896Y-103781080D01*
X120668998Y-103693401D01*
X120692036Y-103674439D01*
X120705357Y-103722236D01*
G37*
%TD*%
D12*
%TO.C,REF\u002A\u002A*%
X38270000Y-64490000D03*
%TD*%
%TO.C,REF\u002A\u002A*%
X111270000Y-152490000D03*
%TD*%
%TO.C,REF\u002A\u002A*%
X124270000Y-64490000D03*
%TD*%
%TO.C,REF\u002A\u002A*%
X51270000Y-152490000D03*
%TD*%
%LPD*%
M02*
